<?xml version="1.0" encoding="UTF-8"?><svg xmlns="http://www.w3.org/2000/svg" xmlns:xlink="http://www.w3.org/1999/xlink" viewBox="0 0 841.89 595.28"><defs><clipPath id="uuid-ba463a74-a090-47b7-b328-ff2a55dd8a3a"><rect x="-37.32" y="0" width="1058.27" height="595.28" style="fill:none; stroke-width:0px;"/></clipPath><filter id="uuid-51af31cc-935a-40bd-bee2-cb1e81bb3635" filterUnits="userSpaceOnUse"><feOffset dx="0" dy="0"/><feGaussianBlur result="uuid-f268e0ba-1a89-4aa6-9a42-7a3e39080e18" stdDeviation="10"/><feFlood flood-color="#000" flood-opacity=".2"/><feComposite in2="uuid-f268e0ba-1a89-4aa6-9a42-7a3e39080e18" operator="in"/><feComposite in="SourceGraphic"/></filter></defs><g style="isolation:isolate;"><g id="uuid-35074841-5991-4892-9a4a-7285a38aa03f"><rect x="-37.32" y="0" width="1058.27" height="595.28" style="fill:#f1efed; stroke-width:0px;"/><g style="clip-path:url(#uuid-ba463a74-a090-47b7-b328-ff2a55dd8a3a);"><path d="M444.85,526.17c-.84,1.29-1.81,2.51-2.95,3.65-6.95,6.9-17.92,10.7-27.31,12.34-4.29.75-8.52,1.09-12.86,1.19-7.3.17-14.72.64-21.62-2.13-4.2-1.97-8.25-4.2-12.16-6.71-3.66-2.13-7.24-4.38-10.73-6.77-7.4-5.2-15.3-11.33-20.66-18.71-3.97-5.46-6.77-11.89-9.22-18.14-.72-1.83-1.32-3.81-1.48-5.78-.09-1.09.11-2.21-.12-3.28-.17-.78-.57-1.46-.94-2.16-2.06-3.83-4.12-7.62-5.86-11.62-3.68-8.42-6.5-17.24-8.43-26.22-3.23-14.99-2.66-32.2,3.24-46.45,6.23-15.05,19.53-23.79,34.94-27.68,2.74-.69,5.5-1.1,8.33-.93,5.82.34,11,.89,16.88.33,12.59-1.21,25.38,3.21,35.92,9.86,2.18,1.37,3.4,2.67,5.93,3.36,5.25,1.43,10.07,4.17,15.46,5.11,1.77.25,3.55.5,5.32.75,2.75.02,5.51-.01,8.26-.09,4.32.6,7.79,2.68,11.19,5.35,7.86,6.16,16.48,12.22,21.36,21.1,3.53,6.42,4.85,13.38,5.79,20.57.65,5.02,1.59,10.49,1.83,15.57.18,3.84.26,7.72-1.84,11.13-1.74,2.83-4.04,5.27-6.53,7.44-3.36,2.94-8.3,6.42-10.28,10.52-.98,2.02-1.59,3.82-3.02,5.65-1.35,1.73-2.88,3.34-4.01,5.23-1.02,1.7-1.98,3.36-3.04,5.04-.88,1.4-1.26,3.09-1.9,4.62-1.89,4.52-1.02,9.56-3.07,14-2.17,4.69-3.59,9.62-6.37,13.88Z" style="fill:#ffd9d9; opacity:.7; stroke-width:0px;"/><path d="M100.19,369.2c9.55-20.62,12.23-43.79,9.24-66.21-3.56-26.76-18.99-49.95-22.42-76.56-2.46-19.12-4.16-39.3,9.81-54.49,15.07-16.39,38.61-20.43,52.61-38.7C195.93,72.58,89.59,6.1,44.24-9.23,25.93-15.42,7.16-16.39-10.74-24.79c-14.53-6.82-29.48-14.41-45.07-18.38-13.41-3.42-26.25-2.34-38.26,1.73-3.78,2.45-7.99,4.29-12.09,5.3l-307.45,439.94c.3,8.78,2.63,17.16,7.75,24.75,23.38,34.75,59.02,69.8,90.51,97.46,37.03,32.53,104.79,67.39,146.65,23.38,11.03-11.6,18.37-26.27,23.65-41.38,5.36-15.33,8.78-31.49,16.28-45.99,10.69-20.66,28.71-31.85,51.93-33.37,10.66-.7,21.01-.12,31.24.77,24.18,2.11,47.67,5.98,73.04-1.02,31.58-8.72,58.82-29.12,72.75-59.2Z" style="fill:#edd6d6; stroke-width:0px;"/><path d="M656.33,390.95c-9.55,20.62-12.23,43.79-9.24,66.21,3.56,26.76,18.99,49.95,22.42,76.56,2.46,19.12,4.16,39.3-9.81,54.49-15.07,16.39-38.61,20.43-52.61,38.7-46.5,60.67,59.84,127.15,105.2,142.48,18.31,6.19,37.08,7.16,54.98,15.56,14.53,6.82,29.48,14.41,45.07,18.38,13.41,3.42,26.25,2.34,38.26-1.73,3.78-2.45,7.99-4.29,12.09-5.3l307.45-439.94c-.3-8.78-2.63-17.16-7.75-24.75-23.38-34.75-59.02-69.8-90.51-97.46-37.03-32.53-104.79-67.39-146.65-23.38-11.03,11.6-18.37,26.27-23.65,41.38-5.36,15.33-8.78,31.49-16.28,45.99-10.69,20.66-28.71,31.85-51.93,33.37-10.66.7-21.01.12-31.24-.77-24.18-2.11-47.67-5.98-73.04,1.02-31.58,8.72-58.82,29.12-72.75,59.2Z" style="fill:#edd6d6; stroke-width:0px;"/><path d="M345.6,113.74c12.73-6.01,26.25-9.75,40.1-11.72,30.43-4.33,90.25-8.17,105.16,24.99,14.36,31.93,28.59,65.33,30.7,100.72,3.06,51.16-25.52,81.06-53.68,119.07-30.34,40.95-27.78,93.57-80.13,117.35-13.73,6.24-28.53,6.71-43.23,8.58-16.16,2.06-31.64,7.81-47.91,8.88-34.11,2.26-59.68-22.28-64.93-55.28-6.82-42.87,23.68-71.4,52.76-97.54,14.48-13.02,29.12-27.03,37.23-45.06,5.56-12.35,7.79-26.5,4.47-39.63-2.81-11.16-9.41-21.07-12.37-32.19-4.64-17.49-4.53-40.3-.7-57.84,4.05-18.53,15.48-32.28,32.53-40.34Z" style="fill:#f8dcd0; opacity:.7; stroke-width:0px;"/><path d="M575.47,540.73c-2.45-4.62-5.8-8.76-10.06-11.82-4.47-3.22-9.7-5.05-15.16-5.62-12.61-1.3-24.67,3.23-36.89,5.41-11.54,2.06-24,1.39-35.11-2.02-5.58-1.71-10.81-4.1-15.52-7.29-5.78-3.96-11.05-8.61-16.37-13.16-5.01-4.28-10.07-8.61-15.77-11.95-9.51-5.58-20.05-8.22-30.97-9.19-5.62-.5-11.27-.66-16.91-.83-4.5-.14-8.85.42-13.19,1.62-8.34,2.31-16.08,6.91-22.41,12.77-6.41,5.92-11.75,13.25-14.64,21.53-2.81,8.04-3.18,16.83-.06,24.84,3.57,9.18,11.23,16.32,20.03,20.45,9.28,4.36,19.59,5.77,29.1,9.5,1.16.46,2.31.95,3.44,1.48.54.26,1.08.52,1.61.8.28.15.56.3.84.45.19.11.39.22.58.34,2.17,1.29,4.21,2.8,6.06,4.53,1.95,1.83,4.26,4.39,6.2,6.63,1.96,2.27,3.85,4.6,5.74,6.91,3.73,4.55,7.55,9.04,12,12.91,4.87,4.24,10.46,7.35,16.36,9.93,12.12,5.28,25.32,8.82,38.6,8.79,7.16-.02,14.25-1.33,21.18-3.07,8.65-2.16,17.13-4.98,25.4-8.32,8.79-3.55,17.33-7.71,25.48-12.55,7.44-4.41,14.62-9.43,20.79-15.51,5.31-5.23,10.2-11.37,12.47-18.57,2.97-9.43,1.82-20.29-2.8-29.01ZM387.39,577.7s0,0,0,0c-.08-.05-.25-.14,0,0ZM574.02,555.76c.24,2.57.24,4.17-.07,6.85-.13,1.17-.32,2.34-.58,3.49-.04.17-.08.34-.12.51,0,.02-.01.05-.02.07-.13.39-.23.78-.35,1.17-.5,1.52-1.12,3.01-1.84,4.44-.18.36-.39.71-.57,1.07h0s0,.01-.01.02c-.13.22-.26.44-.39.66-.45.75-.92,1.48-1.42,2.2-1.01,1.47-2.12,2.88-3.28,4.24-.62.72-1.25,1.42-1.9,2.11-.15.16-.3.31-.44.47.4-.42.01-.01-.16.16-.36.36-.72.72-1.09,1.07-2.94,2.85-6.12,5.46-9.42,7.88-1.73,1.27-3.5,2.49-5.29,3.67-.93.61-1.87,1.21-2.82,1.8-.46.29-.92.57-1.39.85-.21.13-.43.26-.65.39-.08.05-.28.16-.4.23-3.91,2.29-7.91,4.43-11.98,6.41-8.1,3.94-16.47,7.33-25.02,10.15-2.02.67-4.05,1.3-6.1,1.89-.48.14-.96.28-1.44.41-.22.06-.44.12-.66.18,0,0,0,0,0,0-.12.03-.34.09-.35.09-.93.25-1.86.49-2.79.73-3.52.88-7.08,1.64-10.67,2.21-9.45,1.49-18.75.81-28.11-1.38-6.11-1.43-12.11-3.52-17.89-6.02-5.62-2.43-10.76-5.31-15.41-9.35-2.12-1.84-3.77-3.54-5.73-5.73-1.86-2.08-3.64-4.23-5.4-6.39-3.86-4.72-7.74-9.42-12.12-13.68-7.5-7.28-17.5-10.28-27.32-13-4.8-1.33-9.63-2.65-14.24-4.58-1.14-.48-2.27-1-3.37-1.56-.24-.12-.49-.25-.73-.38-.1-.05-.46-.25-.53-.29-.09-.05-.51-.3-.62-.37-.28-.17-.55-.33-.82-.51-1.05-.67-2.07-1.39-3.04-2.17-.47-.38-.93-.77-1.38-1.17-.2-.18-.4-.36-.6-.54-.13-.12-.26-.24-.39-.37-.03-.02-.04-.04-.06-.05-1.57-1.55-3.02-3.23-4.28-5.05-.29-.42-.58-.85-.85-1.29-.06-.09-.25-.42-.29-.48-.09-.16-.18-.31-.27-.47-.49-.9-.94-1.82-1.34-2.76-.39-.92-.73-1.86-1.03-2.81-.06-.18-.11-.36-.16-.54-.02-.06-.03-.13-.05-.19-.12-.49-.23-.98-.33-1.48-.19-.95-.33-1.91-.43-2.88-.05-.46-.08-.93-.1-1.39-.01-.21-.02-.43-.03-.64,0-.1,0-.46-.01-.61,0-.13,0-.31,0-.36,0-.25.01-.5.03-.75.02-.5.06-1,.1-1.5.09-.93.21-1.86.37-2.79.08-.46.17-.93.27-1.39.05-.25.11-.5.17-.75.02-.07.08-.34.12-.48.03-.13.09-.35.11-.4.07-.25.14-.49.22-.74.15-.49.31-.98.48-1.47.65-1.87,1.43-3.7,2.33-5.47.22-.44.46-.87.69-1.31.02-.04.04-.07.05-.1.01-.02.02-.04.04-.06.15-.26.31-.53.46-.79.53-.89,1.09-1.77,1.68-2.62,1.16-1.7,2.43-3.34,3.77-4.9.33-.39.67-.77,1.02-1.14.16-.17.32-.35.48-.52.06-.07.38-.4.48-.51.1-.1.27-.27.31-.32.2-.2.39-.39.59-.58.4-.38.8-.76,1.2-1.14,1.54-1.41,3.16-2.74,4.85-3.98.86-.63,1.73-1.23,2.62-1.81.43-.28.86-.55,1.3-.82.05-.03.27-.16.39-.23.16-.09.5-.29.57-.33,1.79-1.01,3.65-1.92,5.55-2.71.96-.4,1.93-.77,2.91-1.1.47-.16.94-.31,1.42-.46.22-.07.44-.13.66-.2.1-.03.2-.05.29-.08.02,0,.04,0,.06-.02,1.94-.48,3.89-.88,5.87-1.1,1-.11,2-.18,3.01-.21.22,0,.45,0,.67-.01.03,0,.05,0,.07,0,.04,0,.11,0,.19,0,.62.01,1.23.03,1.85.05,5.46.17,10.92.34,16.36.85,2.59.24,5.17.56,7.73,1,1.26.22,2.52.46,3.77.74.55.12,1.11.26,1.66.39.14.04.29.07.43.11.02,0,.05.01.1.03.32.09.64.18.96.27,2.5.72,4.96,1.6,7.34,2.63,2.48,1.08,4.7,2.24,6.78,3.52,5.54,3.41,10.5,7.71,15.42,11.93,5.07,4.35,10.12,8.75,15.64,12.53,10.1,6.84,22.08,10.34,34.17,11.26,6.02.46,12.17.43,18.15-.46,6-.89,11.87-2.47,17.79-3.79,5.69-1.27,11.82-2.42,17.44-2.21,1.51.06,3.01.19,4.5.42.62.09,1.23.2,1.84.33.12.02.6.14.72.16.08.02.2.05.21.05.18.05.36.1.53.16,1.18.36,2.34.8,3.46,1.31.53.24,1.05.51,1.57.78.07.04.12.06.15.08.02.02.07.05.15.1.3.19.61.37.91.56,1.01.65,1.97,1.37,2.88,2.15.4.34.8.7,1.18,1.06.01.01.02.02.04.04.09.09.19.19.28.28.22.22.43.45.64.68.81.89,1.57,1.82,2.27,2.79.34.47.67.95.98,1.44.15.23.29.45.43.68,0,0,0,0,0,0,.1.17.19.33.28.5,1.16,2.1,2.11,4.31,2.82,6.6.09.3.18.6.27.9.03.11.06.22.09.34.15.62.3,1.25.42,1.87.24,1.21.42,2.44.54,3.68Z" style="fill:#ffe6e6; mix-blend-mode:multiply; opacity:.7; stroke-width:0px;"/><g style="mix-blend-mode:multiply; opacity:.7;"><path d="M703.08,41.69c-.04.23-.09.46-.14.69-.97,4.2-2.97,7.55-4.74,10.5-2.89,4.84-5.17,8.66-3.31,15.16,1.93,6.72,1.49,12.8-1.23,17.12-2.25,3.56-5.87,5.78-10.77,6.6-12.73,2.12-25.37-7.19-36.53-15.41-4.84-3.57-9.42-6.93-13.57-9.08-16.72-8.63-32.82-.34-48.39,7.67-3.74,1.92-7.6,3.91-11.38,5.62-16.83,7.58-40.24,4.59-52.18-6.67-5.95-5.6-11.75-15.66-5.62-31.75l.03-.07c6.72-16.14,34.47-22.2,46.09-24.05,5.94-.95,12.25-1.85,18.43-1.6.54.02,1.07.06,1.6.11,1.24.1,2.31.18,3.36,0,.49-.09,1.01-.23,1.56-.39.83-.24,1.77-.51,2.8-.61.83-.08,1.61-.04,2.31,0,.64.04,1.25.07,1.76,0,.34-.05.71-.14,1.1-.23.71-.17,1.53-.37,2.46-.39,1.66-.04,3.28.03,4.85.1,2.19.1,4.26.19,6.39,0,.86-.08,1.74-.17,2.61-.27,1.83-.21,3.71-.42,5.61-.45,2.04-.04,4.02.05,5.94.14,4.18.19,8.13.37,12.17-.77,1.92-.54,3.7-1.32,5.58-2.15l.33-.15c3.31-1.46,6.49-1.89,9.86-2.34l.57-.08c6.77-.91,13.16-1.77,20.12-.68,9.29,1.44,18.91,8.14,24.33,13.43,4.85,4.74,9.19,13.22,8.04,19.99ZM689.83,60.65c.66-3.89,2.55-7.05,4.4-10.14,1.67-2.79,3.39-5.68,4.2-9.17,1.14-4.96-2.55-12.33-6.63-16.31-5.32-5.2-14.12-10.97-21.8-12.17-6.29-.98-12.36-.16-18.79.7l-.57.08c-3.16.42-5.89.79-8.6,1.98l-.33.15c-2.04.9-3.96,1.75-6.2,2.38-4.76,1.33-9.27,1.13-13.63.93-1.84-.08-3.75-.17-5.65-.14-1.68.03-3.38.22-5.18.42-.91.1-1.82.2-2.72.28-2.43.22-4.75.11-7,.02-1.56-.07-3.03-.13-4.54-.1-.44.01-.93.13-1.49.26-.45.11-.96.23-1.52.31-.97.14-1.88.09-2.68.04-.58-.03-1.12-.06-1.6-.02-.61.06-1.28.25-1.98.45-.64.18-1.29.37-2.02.5-1.63.29-3.11.17-4.53.06-.47-.04-.95-.08-1.43-.1-5.75-.24-11.8.63-17.51,1.54h0c-22.57,3.6-38.46,11.54-42.52,21.22-4.11,10.82-2.56,20.05,4.48,26.69,10.52,9.91,32.08,12.57,47.09,5.81,3.67-1.65,7.31-3.53,11.17-5.51,16.62-8.55,33.8-17.4,52.64-7.67,4.48,2.31,9.2,5.79,14.19,9.46,10.42,7.67,22.23,16.36,33.02,14.57,3.54-.59,6.1-2.1,7.61-4.5,1.98-3.14,2.24-8.01.7-13.37-.95-3.32-1.04-6.16-.61-8.69Z" style="fill:#ffe6e6; stroke-width:0px;"/></g><g style="mix-blend-mode:multiply; opacity:.7;"><path d="M678.36,128.34c5.04,24.02,7.21,49.54,12.85,71.47,10.34,40.26,9.81,92.37-56.36,106.3-59.33,12.5-78.93-1.11-105.97-35.67-8.79-11.23-16.77-21.32-29.76-30-18.06-12.07-41-19.15-57.28-32.99-32.51-27.64-37.77-74.94-4.53-110.78,20.46-22.07,86.59-58.31,121.32-60.33,30.91-1.8,91.95,27.29,103.83,47.26,7.85,13.21,12.52,28.64,15.9,44.74Z" style="fill:#fff3ee; stroke-width:0px;"/></g></g><path d="M336.98,6.76h164.94c1.66,0,3,1.34,3,3v80.39c0,1.66-1.34,3-3,3h-164.94V6.76h0Z" transform="translate(470.9 -370.99) rotate(90)" style="fill:#fff; filter:url(#uuid-51af31cc-935a-40bd-bee2-cb1e81bb3635); stroke-width:0px;"/><path d="M422.94,63.71l25.14-28.7c1.13-1.29.21-3.3-1.51-3.3h-50.77c-1.73,0-2.65,2.03-1.5,3.31l25.64,28.7c.8.9,2.22.89,3.02-.01" style="fill:#a1275b; stroke-width:0px;"/><path d="M421.09,64.37c.23.05.47.04.7-.01v-10.95h-.7v10.96Z" style="fill:#f5cdcd; stroke-width:0px;"/><path d="M421.79,20.25s-12.24,14.39-12.24,21.1c0,2.8.96,5.37,2.56,7.43,0,0,3.56,4.72,9.68,4.72V20.25Z" style="fill:#f5cdcd; stroke-width:0px;"/><path d="M421.79,20.25s12.24,14.39,12.24,21.1c0,2.8-.96,5.37-2.56,7.43,0,0-3.56,4.72-9.68,4.72V20.25Z" style="fill:#b46996; stroke-width:0px;"/><path d="M402.92,71.69c-1.03-.36-2.09-.51-3.21-.51-1.63,0-2.81.27-3.54.81-.73.54-1.09,1.26-1.09,2.16s.27,1.56.85,2.04c.54.42,1.42.75,2.66.9l3.03.42c2.06.3,3.63.93,4.72,1.89,1.06.96,1.6,2.25,1.6,3.9,0,.9-.18,1.71-.55,2.49-.36.72-.91,1.38-1.6,1.92-.73.54-1.63.96-2.69,1.26-1.06.33-2.3.48-3.72.48-1.57,0-3-.18-4.3-.54-1.3-.33-2.51-.93-3.69-1.8l1.45-2.43c1.12.75,2.21,1.29,3.33,1.62,1.09.33,2.24.48,3.45.48,1.76,0,3.09-.3,3.93-.93.91-.63,1.33-1.44,1.33-2.46,0-.84-.3-1.53-.88-2.04-.58-.54-1.54-.9-2.91-1.08l-3.18-.45c-1.91-.27-3.39-.84-4.36-1.74-1.03-.9-1.51-2.16-1.51-3.81,0-.93.18-1.77.54-2.49.39-.72.91-1.32,1.57-1.8.67-.48,1.45-.84,2.42-1.11.91-.24,1.97-.36,3.09-.36,1.39,0,2.75.18,4.12.57,1.33.39,2.48.96,3.48,1.77l-1.57,2.22c-.82-.6-1.76-1.08-2.78-1.38" style="fill:#a1275b; stroke-width:0px;"/><path d="M423.8,69.41c.94.36,1.76.81,2.42,1.44.7.6,1.21,1.32,1.6,2.19.39.87.57,1.8.57,2.85,0,1.11-.21,2.1-.61,2.94-.42.9-1,1.62-1.72,2.22-.73.63-1.57,1.08-2.57,1.41-.97.33-2,.48-3.12.48h-5.18v6.09h-3.12v-20.11h8.63c1.12,0,2.15.18,3.09.48M420.32,80.3c1.54,0,2.75-.39,3.66-1.17.88-.75,1.33-1.83,1.33-3.21s-.42-2.43-1.24-3.21c-.82-.75-2-1.14-3.54-1.14h-5.33v8.73h5.11Z" style="fill:#a1275b; stroke-width:0px;"/><path d="M450.5,86.7c-1.06.9-2.27,1.59-3.66,2.04-1.42.48-2.94.72-4.54.72s-3.06-.24-4.36-.72c-1.3-.48-2.42-1.17-3.39-2.07-.91-.9-1.63-1.98-2.18-3.27-.48-1.29-.76-2.73-.76-4.35,0-1.47.24-2.82.76-4.11.51-1.29,1.21-2.4,2.18-3.36.91-.93,2.06-1.68,3.45-2.22,1.33-.57,2.91-.84,4.63-.84,1.36,0,2.69.21,3.96.63,1.27.42,2.42,1.05,3.42,1.89l-1.63,2.19c-.76-.66-1.66-1.17-2.69-1.47-1-.36-2.09-.51-3.21-.51-1.18,0-2.24.18-3.21.54-.94.36-1.76.87-2.42,1.56-.7.69-1.21,1.5-1.57,2.43-.39.96-.57,2.04-.57,3.21,0,1.23.18,2.31.57,3.27.39.96.91,1.77,1.6,2.43.7.66,1.48,1.17,2.45,1.53.91.33,1.97.51,3.09.51,2.09,0,3.78-.48,5.14-1.41v-4.38l-4.45-.21v-2.46h7.38v8.43Z" style="fill:#a1275b; stroke-width:0px;"/><path d="M395.32,94.81c-.31-.11-.64-.16-.98-.16-.5,0-.86.08-1.08.25-.22.17-.33.39-.33.66s.08.48.26.62c.17.13.44.23.82.28l.93.13c.63.09,1.11.28,1.44.58.32.29.49.69.49,1.19,0,.28-.06.52-.17.76-.11.22-.28.42-.49.59-.22.17-.5.29-.82.39-.32.1-.7.15-1.14.15-.48,0-.92-.06-1.31-.17-.4-.1-.77-.28-1.13-.55l.44-.74c.34.23.68.4,1.02.5.33.1.69.15,1.06.15.54,0,.94-.09,1.2-.29.28-.19.41-.44.41-.75,0-.26-.09-.47-.27-.63-.18-.17-.47-.28-.89-.33l-.97-.14c-.58-.08-1.04-.26-1.33-.53-.31-.28-.46-.66-.46-1.17,0-.28.06-.54.17-.76.12-.22.28-.4.48-.55.2-.15.44-.26.74-.34.28-.07.6-.11.94-.11.43,0,.84.06,1.26.17.41.12.76.29,1.06.54l-.48.68c-.25-.18-.54-.33-.85-.42" style="fill:#a1275b; stroke-width:0px;"/><path d="M402.82,94.07c.4.17.74.4,1.03.68.29.28.5.62.67,1.02.15.39.23.82.23,1.27s-.08.85-.23,1.24c-.17.4-.39.74-.67,1.03-.3.28-.63.51-1.04.68-.39.17-.83.26-1.32.26s-.94-.08-1.32-.25c-.41-.17-.74-.4-1.04-.69-.28-.29-.5-.63-.67-1.01-.15-.39-.23-.81-.23-1.26s.08-.86.24-1.26c.16-.39.38-.73.68-1.01.28-.28.63-.51,1.02-.68.41-.17.84-.26,1.32-.26s.94.08,1.33.24M400.51,94.83c-.3.12-.54.29-.73.51-.19.21-.35.47-.45.75-.1.29-.16.61-.16.95s.06.65.16.95c.11.28.27.54.46.75.19.21.44.39.72.51.3.12.61.18.97.18s.69-.06.97-.17c.3-.13.54-.29.74-.51.19-.21.35-.47.45-.76.1-.28.16-.61.16-.95s-.06-.67-.17-.97c-.1-.28-.26-.53-.45-.75-.19-.2-.44-.37-.73-.5-.29-.11-.61-.17-.97-.17s-.69.06-.97.18" style="fill:#a1275b; stroke-width:0px;"/><path d="M409.61,94.67c-.36,0-.69.06-.98.17-.29.11-.54.27-.74.48-.21.21-.37.46-.48.74-.12.29-.18.62-.18.98s.06.7.18.99c.12.29.28.54.49.74.21.2.45.36.75.47.28.11.59.17.94.17.4,0,.76-.06,1.1-.19.33-.14.64-.32.92-.57l.53.64c-.67.63-1.53.96-2.59.96-.48,0-.93-.07-1.31-.22-.41-.15-.74-.36-1.04-.63-.28-.28-.5-.61-.67-1-.15-.4-.23-.84-.23-1.33,0-.45.08-.87.23-1.27.17-.4.39-.74.69-1.02.29-.29.65-.52,1.07-.69.42-.17.9-.25,1.43-.25.44,0,.86.07,1.27.22.39.14.74.34,1.04.6l-.49.66c-.52-.43-1.15-.64-1.9-.64" style="fill:#a1275b; stroke-width:0px;"/><rect x="413.76" y="93.96" width=".95" height="6.16" style="fill:#a1275b; stroke-width:0px;"/><polygon points="421.18 94.78 417.64 94.78 417.64 96.52 420.75 96.52 420.75 97.32 417.64 97.32 417.64 99.29 421.35 99.29 421.35 100.12 416.72 100.12 416.72 93.96 421.18 93.96 421.18 94.78" style="fill:#a1275b; stroke-width:0px;"/><path d="M426.68,94.18c.4.16.74.37,1.03.64.29.27.5.6.66.97.16.37.23.79.23,1.24s-.08.85-.23,1.24c-.17.37-.39.7-.68.97-.29.27-.64.48-1.05.63-.41.16-.86.23-1.36.23h-2.17v-6.16h2.19c.51,0,.96.07,1.37.22M425.28,99.3c.34,0,.66-.06.95-.16.29-.1.54-.26.75-.45.21-.19.38-.43.49-.71.13-.28.18-.6.18-.95,0-.74-.21-1.3-.63-1.68-.43-.39-1.01-.58-1.76-.58h-1.22v4.52h1.23Z" style="fill:#a1275b; stroke-width:0px;"/><path d="M436.04,100.12h-1.04l-.56-1.4h-3.14l-.55,1.4h-1.01l2.58-6.17h1.1l2.6,6.17ZM434.13,97.91l-1.19-3.01h-.11l-1.2,3.01h2.51Z" style="fill:#a1275b; stroke-width:0px;"/><path d="M441.22,94.18c.4.16.74.37,1.03.64.29.27.5.6.66.97.16.37.23.79.23,1.24s-.08.85-.23,1.24c-.17.37-.39.7-.68.97-.29.27-.64.48-1.05.63-.41.16-.86.23-1.36.23h-2.17v-6.16h2.19c.51,0,.96.07,1.37.22M439.82,99.3c.34,0,.66-.06.95-.16.29-.1.54-.26.75-.45.21-.19.38-.43.49-.71.13-.28.19-.6.19-.95,0-.74-.21-1.3-.63-1.68-.43-.39-1.01-.58-1.76-.58h-1.22v4.52h1.23Z" style="fill:#a1275b; stroke-width:0px;"/><polygon points="449.32 94.78 445.78 94.78 445.78 96.52 448.9 96.52 448.9 97.32 445.78 97.32 445.78 99.29 449.49 99.29 449.49 100.12 444.86 100.12 444.86 93.96 449.32 93.96 449.32 94.78" style="fill:#a1275b; stroke-width:0px;"/><path d="M396.28,115.02c-.27.23-.59.41-.95.53-.37.12-.76.19-1.18.19s-.79-.06-1.13-.19c-.34-.12-.63-.3-.88-.54-.23-.23-.42-.51-.56-.85-.13-.33-.2-.71-.2-1.13,0-.38.06-.73.2-1.06.13-.33.31-.62.56-.87.24-.24.53-.44.89-.57.34-.15.75-.22,1.2-.22.35,0,.7.05,1.03.16.33.11.63.27.89.49l-.42.57c-.2-.17-.43-.3-.7-.38-.26-.09-.54-.13-.83-.13-.31,0-.58.05-.83.14-.24.09-.45.23-.63.4-.18.18-.31.39-.41.63-.1.25-.15.53-.15.83,0,.32.05.6.15.85.1.25.24.46.42.63.18.17.38.3.63.4.23.09.51.13.8.13.54,0,.98-.12,1.33-.37v-1.13l-1.15-.05v-.64h1.91v2.18Z" style="fill:#a1275b; stroke-width:0px;"/><rect x="397.81" y="110.42" width=".81" height="5.21" style="fill:#a1275b; stroke-width:0px;"/><polygon points="404.9 115.62 404.12 115.62 401.08 111.68 401.08 115.62 400.31 115.62 400.31 110.42 401.02 110.42 404.14 114.47 404.14 110.42 404.9 110.42 404.9 115.62" style="fill:#a1275b; stroke-width:0px;"/><polygon points="410.37 111.11 407.38 111.11 407.38 112.58 410.01 112.58 410.01 113.26 407.38 113.26 407.38 114.93 410.51 114.93 410.51 115.62 406.59 115.62 406.59 110.42 410.37 110.42 410.37 111.11" style="fill:#a1275b; stroke-width:0px;"/><path d="M414.5,111.02c-.31,0-.58.05-.83.14-.24.09-.45.23-.63.4-.18.18-.31.39-.41.63-.1.25-.15.53-.15.83s.05.59.15.84c.1.25.23.46.42.63.18.17.38.3.63.4.23.09.5.14.79.14.34,0,.64-.05.93-.16.28-.12.54-.27.78-.48l.45.54c-.56.54-1.29.81-2.19.81-.41,0-.78-.06-1.11-.19-.34-.12-.63-.3-.88-.54-.23-.23-.42-.51-.56-.85-.13-.33-.2-.71-.2-1.13,0-.38.07-.74.2-1.07.14-.33.33-.62.58-.86.24-.25.55-.44.9-.58.35-.14.76-.21,1.21-.21.38,0,.73.06,1.07.19.33.12.63.29.88.5l-.41.56c-.44-.37-.97-.54-1.61-.54" style="fill:#a1275b; stroke-width:0px;"/><path d="M421.5,110.51c.34.14.63.33.87.58.24.24.42.53.56.86.13.33.2.69.2,1.07s-.07.72-.2,1.05c-.14.33-.33.62-.56.87-.25.24-.53.43-.88.57-.33.15-.7.22-1.12.22s-.79-.07-1.12-.21c-.34-.14-.63-.33-.88-.58-.23-.24-.42-.53-.56-.86-.13-.33-.2-.68-.2-1.06s.07-.73.2-1.06c.13-.33.32-.61.57-.85.24-.24.53-.44.86-.57.34-.15.71-.22,1.12-.22s.79.07,1.13.2M419.56,111.16c-.25.1-.45.25-.62.43-.16.18-.3.4-.38.64-.09.25-.13.51-.13.8s.05.55.13.8c.09.24.23.46.39.64.16.18.38.33.61.43.25.1.52.16.82.16s.59-.05.82-.15c.25-.11.45-.25.63-.43.16-.18.3-.4.38-.65.09-.24.13-.51.13-.8s-.05-.57-.14-.82c-.09-.24-.22-.45-.38-.64-.16-.17-.38-.31-.62-.42-.24-.09-.52-.15-.82-.15s-.59.05-.82.16" style="fill:#a1275b; stroke-width:0px;"/><polygon points="425.4 114.93 428.42 114.93 428.42 115.62 424.6 115.62 424.6 110.42 425.4 110.42 425.4 114.93" style="fill:#a1275b; stroke-width:0px;"/><path d="M433.33,110.51c.34.14.63.33.87.58.24.24.42.53.56.86.13.33.2.69.2,1.07s-.07.72-.2,1.05c-.14.33-.33.62-.56.87-.25.24-.53.43-.88.57-.33.15-.71.22-1.12.22s-.79-.07-1.12-.21c-.34-.14-.63-.33-.88-.58-.23-.24-.42-.53-.56-.86-.13-.33-.2-.68-.2-1.06s.07-.73.2-1.06c.13-.33.32-.61.57-.85.24-.24.53-.44.86-.57.34-.15.71-.22,1.12-.22s.79.07,1.13.2M431.38,111.16c-.25.1-.45.25-.62.43-.16.18-.3.4-.38.64-.09.25-.13.51-.13.8s.05.55.13.8c.09.24.23.46.39.64.16.18.38.33.61.43.25.1.52.16.82.16s.59-.05.82-.15c.25-.11.45-.25.63-.43.16-.18.3-.4.38-.65.09-.24.13-.51.13-.8s-.05-.57-.14-.82c-.09-.24-.22-.45-.38-.64-.16-.17-.38-.31-.62-.42-.24-.09-.52-.15-.82-.15s-.59.05-.82.16" style="fill:#a1275b; stroke-width:0px;"/><path d="M441.16,115.02c-.27.23-.59.41-.95.53-.37.12-.76.19-1.18.19s-.79-.06-1.13-.19c-.34-.12-.63-.3-.88-.54-.23-.23-.42-.51-.56-.85-.13-.33-.2-.71-.2-1.13,0-.38.06-.73.2-1.06.13-.33.31-.62.56-.87.24-.24.53-.44.89-.57.34-.15.75-.22,1.2-.22.35,0,.7.05,1.03.16.33.11.63.27.88.49l-.42.57c-.2-.17-.43-.3-.7-.38-.26-.09-.54-.13-.83-.13-.31,0-.58.05-.83.14-.24.09-.45.23-.63.4-.18.18-.31.39-.41.63-.1.25-.15.53-.15.83,0,.32.05.6.15.85.1.25.24.46.42.63.18.17.38.3.63.4.24.09.51.13.8.13.54,0,.98-.12,1.33-.37v-1.13l-1.15-.05v-.64h1.91v2.18Z" style="fill:#a1275b; stroke-width:0px;"/><rect x="442.69" y="110.42" width=".81" height="5.21" style="fill:#a1275b; stroke-width:0px;"/><path d="M450.19,115.62h-.88l-.47-1.18h-2.65l-.46,1.18h-.85l2.18-5.21h.93l2.2,5.21ZM448.57,113.76l-1.01-2.55h-.09l-1.02,2.55h2.12Z" style="fill:#a1275b; stroke-width:0px;"/><path d="M394.28,103.28c.19.07.36.17.5.3.14.12.25.27.33.46.08.18.12.37.12.59,0,.23-.04.44-.13.61-.09.19-.21.34-.36.46-.15.13-.33.22-.53.29-.2.07-.41.1-.65.1h-1.07v1.27h-.65v-4.18h1.79c.23,0,.45.04.64.1M393.56,105.55c.32,0,.57-.08.76-.24.18-.16.28-.38.28-.67s-.09-.51-.26-.67c-.17-.16-.41-.24-.74-.24h-1.11v1.81h1.06Z" style="fill:#a1275b; stroke-width:0px;"/><path d="M399.34,103.26c.27.11.5.27.7.46.19.19.34.42.45.69.1.27.16.56.16.86s-.06.58-.16.84c-.11.27-.26.5-.45.7-.2.19-.43.35-.7.46-.26.12-.57.17-.9.17s-.63-.06-.9-.17c-.28-.11-.5-.27-.7-.47-.19-.19-.34-.42-.45-.69-.1-.27-.16-.55-.16-.85s.06-.59.16-.85c.11-.26.26-.49.46-.69.19-.19.43-.35.69-.46.28-.12.57-.17.9-.17s.63.06.91.16M397.77,103.78c-.2.08-.36.2-.5.34-.13.14-.24.32-.31.51-.07.2-.11.41-.11.64s.04.44.11.64c.08.19.18.37.31.51.13.14.3.26.49.34.2.08.41.12.66.12s.47-.04.66-.12c.2-.09.36-.2.5-.34.13-.14.24-.32.31-.52.07-.19.11-.41.11-.64s-.04-.46-.11-.65c-.07-.19-.18-.36-.31-.51-.13-.14-.3-.25-.5-.34-.19-.07-.41-.12-.66-.12s-.47.04-.66.12" style="fill:#a1275b; stroke-width:0px;"/><path d="M404.27,103.28c.19.07.36.16.5.29.14.12.25.27.32.44.08.17.11.36.11.56,0,.31-.09.56-.26.78-.18.22-.41.37-.7.47l1.1,1.55h-.78l-.94-1.4h-1.15v1.4h-.65v-4.18h1.82c.23,0,.44.03.63.1M403.56,105.42c.3,0,.54-.07.72-.22.18-.15.26-.36.26-.62s-.09-.49-.26-.62c-.18-.14-.41-.21-.7-.21h-1.13v1.68h1.1Z" style="fill:#a1275b; stroke-width:0px;"/><polygon points="409.7 103.75 408.15 103.75 408.15 107.36 407.52 107.36 407.52 103.75 405.97 103.75 405.97 103.18 409.7 103.18 409.7 103.75" style="fill:#a1275b; stroke-width:0px;"/><path d="M411.48,105.45c0,.46.1.82.3,1.07.21.25.5.37.9.37s.69-.12.89-.35c.21-.23.31-.59.31-1.08v-2.28h.65v2.29c0,.3-.04.57-.12.82-.08.24-.19.45-.35.62-.16.17-.35.31-.58.4-.23.09-.5.14-.8.14s-.57-.04-.8-.14c-.23-.09-.41-.22-.58-.39-.15-.17-.27-.37-.35-.62-.08-.24-.12-.51-.12-.82v-2.31h.65v2.27Z" style="fill:#a1275b; stroke-width:0px;"/><path d="M419.62,106.88c-.22.19-.47.33-.76.42-.3.1-.61.15-.94.15s-.63-.05-.9-.15c-.27-.1-.5-.24-.7-.43-.19-.19-.34-.41-.45-.68-.1-.27-.16-.57-.16-.9,0-.31.05-.59.16-.85.11-.27.25-.5.45-.7.19-.19.43-.35.72-.46.28-.12.6-.17.96-.17.28,0,.56.04.82.13.26.09.5.22.71.39l-.34.45c-.16-.14-.35-.24-.56-.31-.21-.07-.43-.11-.67-.11-.25,0-.46.04-.67.11-.2.07-.36.18-.5.32-.14.14-.25.31-.33.51-.08.2-.12.42-.12.67,0,.26.04.48.12.68.08.2.19.37.33.51.14.14.31.24.51.32.19.07.41.11.64.11.43,0,.79-.1,1.07-.29v-.91l-.92-.04v-.51h1.53v1.75Z" style="fill:#a1275b; stroke-width:0px;"/><path d="M421.5,105.45c0,.46.1.82.3,1.07.21.25.5.37.9.37s.69-.12.89-.35c.21-.23.31-.59.31-1.08v-2.28h.65v2.29c0,.3-.04.57-.12.82-.08.24-.19.45-.35.62-.16.17-.35.31-.58.4-.23.09-.5.14-.8.14s-.57-.04-.8-.14c-.23-.09-.41-.22-.58-.39-.15-.17-.27-.37-.35-.62-.08-.24-.12-.51-.12-.82v-2.31h.65v2.27Z" style="fill:#a1275b; stroke-width:0px;"/><polygon points="428.94 103.74 426.54 103.74 426.54 104.92 428.65 104.92 428.65 105.47 426.54 105.47 426.54 106.8 429.05 106.8 429.05 107.36 425.91 107.36 425.91 103.18 428.94 103.18 428.94 103.74" style="fill:#a1275b; stroke-width:0px;"/><path d="M432.39,103.76c-.21-.07-.43-.11-.67-.11-.34,0-.58.06-.74.17-.15.11-.23.26-.23.45s.06.32.18.42c.11.09.3.16.55.19l.63.09c.43.06.75.19.98.39.22.2.33.47.33.81,0,.19-.04.36-.11.52-.08.15-.19.29-.33.4-.15.11-.34.2-.56.26-.22.07-.48.1-.77.1-.33,0-.62-.04-.89-.11-.27-.07-.52-.19-.77-.37l.3-.5c.23.16.46.27.69.34.23.07.46.1.72.1.36,0,.64-.06.82-.19.19-.13.28-.3.28-.51,0-.17-.06-.32-.18-.42-.12-.11-.32-.19-.6-.22l-.66-.09c-.4-.06-.7-.17-.9-.36-.21-.19-.31-.45-.31-.79,0-.19.04-.37.11-.52.08-.15.19-.27.33-.37.14-.1.3-.17.5-.23.19-.05.41-.07.64-.07.29,0,.57.04.85.12.28.08.52.2.72.37l-.33.46c-.17-.12-.36-.22-.58-.29" style="fill:#a1275b; stroke-width:0px;"/><path d="M438.62,107.36h-.7l-.38-.95h-2.13l-.37.95h-.69l1.75-4.18h.75l1.77,4.18ZM437.32,105.87l-.81-2.05h-.08l-.82,2.05h1.7Z" style="fill:#a1275b; stroke-width:0px;"/><path d="M444.33,103.33c.27.11.5.25.7.44.19.18.34.41.45.66.11.25.16.54.16.84s-.06.58-.16.84c-.11.25-.26.47-.46.66-.2.18-.43.32-.71.43-.28.11-.58.16-.92.16h-1.47v-4.18h1.49c.35,0,.65.05.93.15M443.38,106.81c.23,0,.45-.04.65-.11.2-.07.36-.17.51-.31.14-.13.26-.29.33-.48.09-.19.13-.4.13-.64,0-.5-.14-.88-.43-1.14-.29-.26-.68-.39-1.19-.39h-.83v3.07h.84Z" style="fill:#a1275b; stroke-width:0px;"/><polygon points="449.83 103.74 447.43 103.74 447.43 104.92 449.54 104.92 449.54 105.47 447.43 105.47 447.43 106.8 449.94 106.8 449.94 107.36 446.8 107.36 446.8 103.18 449.83 103.18 449.83 103.74" style="fill:#a1275b; stroke-width:0px;"/><path d="M696.6,555.66c-.06.1-.13.17-.2.22-.07.04-.16.06-.28.06s-.23-.03-.35-.08c-.12-.05-.24-.1-.38-.16-.14-.06-.29-.11-.46-.16-.17-.05-.37-.08-.58-.08-.32,0-.56.06-.72.18s-.25.29-.25.5c0,.15.05.28.16.38.11.1.25.19.44.27.18.08.39.15.62.22s.46.15.7.23c.24.09.47.19.7.3.23.11.43.26.62.42.18.17.33.37.44.61.11.24.16.53.16.86,0,.41-.07.79-.22,1.14s-.37.64-.67.9-.66.45-1.1.58c-.44.14-.94.21-1.5.21-.28,0-.57-.03-.85-.08-.28-.05-.56-.12-.82-.22-.26-.09-.51-.2-.73-.32-.22-.12-.42-.26-.58-.4l.58-.91c.06-.11.15-.19.24-.25.1-.06.22-.09.38-.09.14,0,.27.03.39.1.12.06.24.13.37.21.13.07.29.14.47.21.18.06.4.1.68.1.19,0,.35-.02.49-.06.13-.04.24-.09.32-.16s.14-.15.18-.23.06-.17.06-.26c0-.17-.06-.3-.17-.41-.11-.11-.26-.2-.44-.28s-.39-.15-.62-.22c-.23-.07-.47-.14-.71-.23-.24-.09-.48-.19-.71-.31-.23-.12-.44-.27-.62-.46-.18-.18-.33-.41-.44-.68-.11-.27-.17-.59-.17-.97,0-.35.07-.69.2-1,.14-.32.34-.6.61-.84.27-.24.61-.43,1.02-.57.41-.14.89-.21,1.44-.21.3,0,.59.03.87.08.28.05.54.13.79.22s.47.21.67.34c.2.13.38.27.54.43l-.56.87Z" style="fill:#a1275b; stroke-width:0px;"/><path d="M700.78,554.86c.33-.35.69-.63,1.11-.85.41-.22.91-.33,1.48-.33.43,0,.83.1,1.2.29s.69.47.95.83.48.81.63,1.33c.15.53.23,1.12.23,1.79,0,.62-.09,1.2-.26,1.73-.17.53-.42.99-.73,1.38-.31.39-.69.69-1.12.91-.44.22-.92.33-1.44.33-.43,0-.79-.06-1.09-.18-.29-.12-.56-.29-.8-.5v3.18h-2.48v-10.93h1.54c.31,0,.51.14.61.42l.18.61ZM700.93,559.88c.19.2.39.35.61.43.22.09.45.13.69.13s.44-.04.63-.14.36-.24.5-.44c.14-.2.25-.46.33-.78s.12-.71.12-1.17-.03-.81-.1-1.1c-.06-.3-.15-.54-.27-.72s-.25-.32-.41-.4c-.16-.08-.34-.12-.54-.12-.36,0-.66.07-.9.2-.24.13-.46.33-.67.58v3.52Z" style="fill:#a1275b; stroke-width:0px;"/><path d="M715.18,554.1v.9c0,.14-.04.25-.12.33s-.21.14-.4.18l-.6.14c.03.12.06.24.08.36s.03.25.03.38c0,.42-.09.79-.26,1.12-.17.33-.41.61-.71.84-.3.23-.66.41-1.07.54-.41.13-.85.19-1.32.19-.13,0-.25,0-.38-.01-.12,0-.24-.02-.36-.04-.18.11-.27.24-.27.38s.07.24.22.3c.15.06.35.1.59.13.25.02.52.04.84.05.31,0,.63.03.96.06s.64.08.96.15c.31.07.59.18.84.34.25.15.44.36.59.62.15.26.22.59.22.99,0,.37-.09.74-.27,1.1-.18.36-.45.67-.8.95-.35.28-.78.5-1.3.67-.51.17-1.1.25-1.76.25s-1.21-.06-1.68-.18c-.47-.12-.86-.28-1.18-.48-.31-.2-.54-.43-.69-.69-.15-.26-.22-.53-.22-.82,0-.37.11-.67.32-.92.21-.25.51-.44.9-.59-.2-.12-.36-.28-.48-.47-.12-.19-.18-.44-.18-.74,0-.12.02-.25.06-.39.04-.14.11-.27.2-.4.09-.13.21-.25.35-.37.14-.12.3-.22.5-.31-.43-.23-.77-.53-1.02-.91-.25-.38-.38-.81-.38-1.32,0-.42.09-.79.26-1.12.18-.33.42-.62.72-.85.31-.23.67-.41,1.08-.54s.87-.19,1.35-.19c.7,0,1.33.13,1.87.4h2.5ZM712.73,562.44c0-.2-.09-.34-.26-.43s-.41-.15-.69-.19c-.28-.04-.6-.06-.95-.07-.35,0-.7-.03-1.04-.06-.15.11-.28.23-.38.36s-.15.28-.15.44c0,.12.03.22.08.32.05.1.14.18.27.25s.3.12.52.16c.22.04.49.06.82.06.36,0,.65-.02.88-.06s.41-.1.55-.18c.14-.08.23-.16.28-.27.05-.1.08-.22.08-.34ZM710.81,557.55c.41,0,.71-.1.89-.31.18-.21.28-.47.28-.8s-.09-.6-.28-.79c-.18-.19-.48-.29-.89-.29s-.71.1-.89.29c-.18.19-.28.46-.28.79,0,.16.02.31.07.44.04.13.12.25.21.35.1.1.22.18.36.23.15.06.32.08.52.08Z" style="fill:#a1275b; stroke-width:0px;"/><path d="M719.01,551.57c0,.2-.04.38-.12.56-.08.17-.19.33-.33.46s-.3.23-.48.31c-.18.08-.38.12-.59.12s-.39-.04-.57-.12-.33-.18-.47-.31-.24-.28-.32-.46c-.08-.17-.12-.36-.12-.56s.04-.39.12-.57.18-.33.32-.46c.14-.13.29-.24.47-.31.18-.07.37-.11.57-.11s.4.04.59.11c.18.08.34.18.48.31.14.13.25.29.33.46s.12.37.12.57ZM718.75,553.84v8.3h-2.48v-8.3h2.48Z" style="fill:#a1275b; stroke-width:0px;"/><path d="M722.78,554.74c.16-.15.33-.29.5-.42s.35-.24.55-.32.41-.16.63-.21.47-.08.74-.08c.45,0,.85.08,1.2.24.35.16.64.38.88.66.24.28.42.61.54,1,.12.39.18.81.18,1.26v5.27h-2.48v-5.27c0-.41-.09-.72-.28-.95-.19-.23-.46-.34-.82-.34-.27,0-.53.06-.76.17-.24.11-.47.27-.69.47v5.92h-2.48v-8.3h1.54c.31,0,.51.14.61.42l.14.48Z" style="fill:#a1275b; stroke-width:0px;"/><path d="M731.65,558.43c.08.69.29,1.2.63,1.51.34.31.78.47,1.32.47.29,0,.54-.04.74-.1s.39-.15.56-.23c.16-.08.31-.16.45-.23s.28-.1.43-.1c.2,0,.35.07.45.22l.72.89c-.26.29-.53.53-.83.72s-.6.33-.91.43c-.31.1-.62.18-.94.22s-.61.06-.89.06c-.58,0-1.13-.09-1.64-.28-.51-.19-.95-.47-1.34-.84-.38-.37-.68-.84-.9-1.39-.22-.55-.33-1.2-.33-1.94,0-.55.09-1.08.28-1.58s.46-.93.82-1.3.78-.67,1.29-.89,1.07-.33,1.71-.33c.55,0,1.05.08,1.51.26s.85.42,1.18.74.58.72.77,1.2c.18.47.28,1.01.28,1.6,0,.19,0,.34-.02.46-.02.12-.05.21-.09.28-.04.07-.1.12-.17.14-.07.03-.16.04-.28.04h-4.78ZM734.77,556.99c0-.2-.03-.39-.08-.58s-.13-.35-.25-.5c-.11-.15-.27-.27-.45-.36s-.41-.14-.68-.14c-.47,0-.84.13-1.1.4-.27.27-.44.66-.53,1.16h3.09Z" style="fill:#a1275b; stroke-width:0px;"/><path d="M744.33,555.81c-.07.09-.15.16-.22.22-.07.05-.17.08-.3.08s-.23-.03-.33-.09-.21-.12-.33-.2c-.12-.07-.27-.14-.43-.2s-.37-.09-.62-.09c-.3,0-.57.06-.79.17-.22.11-.4.27-.55.48s-.25.46-.32.76c-.07.3-.1.64-.1,1.02,0,.79.15,1.41.46,1.83s.73.64,1.27.64c.29,0,.52-.04.68-.11.17-.07.31-.15.43-.24s.23-.17.32-.24c.1-.07.22-.11.37-.11.2,0,.35.07.45.22l.72.89c-.26.29-.53.53-.81.72-.28.18-.57.33-.87.43-.3.1-.59.18-.89.22s-.59.06-.87.06c-.51,0-.99-.1-1.45-.29-.46-.19-.87-.47-1.22-.84s-.63-.81-.83-1.35-.31-1.14-.31-1.82c0-.6.09-1.16.27-1.68.18-.52.44-.97.79-1.35.35-.38.78-.68,1.3-.9s1.11-.33,1.79-.33,1.22.1,1.71.31c.49.21.93.51,1.33.91l-.66.87Z" style="fill:#a1275b; stroke-width:0px;"/><path d="M749.7,553.71c.63,0,1.2.1,1.72.3s.96.48,1.33.85c.37.37.66.82.86,1.34.21.53.31,1.12.31,1.77s-.1,1.26-.31,1.79-.49.98-.86,1.35c-.37.37-.81.66-1.33.86s-1.09.3-1.72.3-1.21-.1-1.73-.3c-.52-.2-.97-.49-1.34-.86-.38-.37-.67-.82-.87-1.35s-.31-1.13-.31-1.79.1-1.25.31-1.77c.21-.52.5-.97.87-1.34s.82-.65,1.34-.85c.52-.2,1.1-.3,1.73-.3ZM749.7,560.43c.57,0,.99-.2,1.26-.6.27-.4.4-1.01.4-1.84s-.13-1.43-.4-1.83c-.27-.4-.69-.6-1.26-.6s-1.02.2-1.29.6c-.27.4-.41,1.01-.41,1.83s.14,1.43.41,1.84c.27.4.7.6,1.29.6Z" style="fill:#a1275b; stroke-width:0px;"/><path d="M757.65,550.16v11.98h-2.48v-11.98h2.48Z" style="fill:#a1275b; stroke-width:0px;"/><path d="M763.15,553.71c.63,0,1.2.1,1.72.3s.96.48,1.33.85c.37.37.66.82.86,1.34.21.53.31,1.12.31,1.77s-.1,1.26-.31,1.79-.49.98-.86,1.35c-.37.37-.81.66-1.33.86s-1.09.3-1.72.3-1.21-.1-1.73-.3c-.52-.2-.97-.49-1.34-.86-.38-.37-.67-.82-.87-1.35s-.31-1.13-.31-1.79.1-1.25.31-1.77c.21-.52.5-.97.87-1.34s.82-.65,1.34-.85c.52-.2,1.1-.3,1.73-.3ZM763.15,560.43c.57,0,.99-.2,1.26-.6.27-.4.4-1.01.4-1.84s-.13-1.43-.4-1.83c-.27-.4-.69-.6-1.26-.6s-1.02.2-1.29.6c-.27.4-.41,1.01-.41,1.83s.14,1.43.41,1.84c.27.4.7.6,1.29.6Z" style="fill:#a1275b; stroke-width:0px;"/><path d="M776.08,554.1v.9c0,.14-.04.25-.12.33s-.21.14-.4.18l-.6.14c.03.12.06.24.08.36s.03.25.03.38c0,.42-.09.79-.26,1.12-.17.33-.41.61-.71.84-.3.23-.66.41-1.07.54-.41.13-.85.19-1.32.19-.13,0-.25,0-.38-.01-.12,0-.24-.02-.36-.04-.18.11-.27.24-.27.38s.07.24.22.3c.15.06.35.1.59.13.25.02.52.04.84.05.31,0,.63.03.96.06s.64.08.96.15c.31.07.59.18.84.34.25.15.44.36.59.62.15.26.22.59.22.99,0,.37-.09.74-.27,1.1-.18.36-.45.67-.8.95-.35.28-.78.5-1.3.67-.51.17-1.1.25-1.76.25s-1.21-.06-1.68-.18c-.47-.12-.86-.28-1.18-.48-.31-.2-.54-.43-.69-.69-.15-.26-.22-.53-.22-.82,0-.37.11-.67.32-.92.21-.25.51-.44.9-.59-.2-.12-.36-.28-.48-.47-.12-.19-.18-.44-.18-.74,0-.12.02-.25.06-.39.04-.14.11-.27.2-.4.09-.13.21-.25.35-.37.14-.12.3-.22.5-.31-.43-.23-.77-.53-1.02-.91-.25-.38-.38-.81-.38-1.32,0-.42.09-.79.26-1.12.18-.33.42-.62.72-.85.31-.23.67-.41,1.08-.54s.87-.19,1.35-.19c.7,0,1.33.13,1.87.4h2.5ZM773.63,562.44c0-.2-.09-.34-.26-.43s-.41-.15-.69-.19c-.28-.04-.6-.06-.95-.07-.35,0-.7-.03-1.04-.06-.15.11-.28.23-.38.36s-.15.28-.15.44c0,.12.03.22.08.32.05.1.14.18.27.25s.3.12.52.16c.22.04.49.06.82.06.36,0,.65-.02.88-.06s.41-.1.55-.18c.14-.08.23-.16.28-.27.05-.1.08-.22.08-.34ZM771.71,557.55c.41,0,.71-.1.89-.31.18-.21.28-.47.28-.8s-.09-.6-.28-.79c-.18-.19-.48-.29-.89-.29s-.71.1-.89.29c-.18.19-.28.46-.28.79,0,.16.02.31.07.44.04.13.12.25.21.35.1.1.22.18.36.23.15.06.32.08.52.08Z" style="fill:#a1275b; stroke-width:0px;"/><path d="M779.91,551.57c0,.2-.04.38-.12.56-.08.17-.19.33-.33.46s-.3.23-.48.31c-.18.08-.38.12-.59.12s-.39-.04-.57-.12-.33-.18-.47-.31-.24-.28-.32-.46c-.08-.17-.12-.36-.12-.56s.04-.39.12-.57.18-.33.32-.46c.14-.13.29-.24.47-.31.18-.07.37-.11.57-.11s.4.04.59.11c.18.08.34.18.48.31.14.13.25.29.33.46s.12.37.12.57ZM779.65,553.84v8.3h-2.48v-8.3h2.48Z" style="fill:#a1275b; stroke-width:0px;"/><path d="M781.2,554.99c.5-.44,1.06-.77,1.67-.99.61-.22,1.26-.32,1.96-.32.5,0,.95.08,1.36.24.4.16.74.39,1.02.68.28.29.5.64.64,1.04.15.4.22.84.22,1.31v5.18h-1.14c-.24,0-.41-.03-.53-.1-.12-.06-.22-.2-.3-.4l-.18-.46c-.21.18-.41.33-.6.46-.19.13-.39.25-.6.34-.21.09-.42.16-.66.21-.23.05-.49.07-.77.07-.38,0-.72-.05-1.03-.15-.31-.1-.57-.24-.79-.44s-.38-.43-.5-.72-.18-.62-.18-.99c0-.3.07-.6.22-.91s.41-.59.78-.84c.37-.25.86-.46,1.49-.64s1.41-.27,2.36-.29v-.35c0-.49-.1-.84-.3-1.05-.2-.22-.48-.32-.85-.32-.29,0-.53.03-.72.1-.19.06-.35.14-.5.22s-.29.15-.43.22c-.14.06-.3.1-.5.1-.17,0-.32-.04-.43-.13-.12-.08-.21-.19-.29-.3l-.45-.78ZM785.67,558.76c-.5.02-.9.06-1.22.13-.32.06-.57.14-.76.24s-.32.21-.39.33c-.07.12-.11.26-.11.4,0,.28.08.48.23.6.15.11.38.17.68.17.32,0,.6-.06.84-.17.24-.11.48-.29.73-.54v-1.15Z" style="fill:#a1275b; stroke-width:0px;"/><path d="M789.33,560.88c0-.19.04-.37.11-.54.07-.17.17-.31.3-.43.12-.12.27-.22.44-.29.17-.07.36-.11.56-.11s.38.04.55.11c.17.07.32.17.45.29.13.12.23.27.3.43s.11.34.11.54-.04.37-.11.54-.17.31-.3.44c-.13.12-.28.22-.45.29s-.35.1-.55.1-.39-.04-.56-.1c-.17-.07-.32-.17-.44-.29-.13-.12-.22-.27-.3-.44-.07-.17-.11-.35-.11-.54Z" style="fill:#a1275b; stroke-width:0px;"/><path d="M795.82,554.86c.33-.35.69-.63,1.11-.85.41-.22.91-.33,1.48-.33.43,0,.83.1,1.2.29s.69.47.95.83.48.81.63,1.33c.15.53.23,1.12.23,1.79,0,.62-.09,1.2-.26,1.73-.17.53-.42.99-.73,1.38-.31.39-.69.69-1.12.91-.44.22-.92.33-1.44.33-.43,0-.79-.06-1.09-.18-.29-.12-.56-.29-.8-.5v3.18h-2.48v-10.93h1.54c.31,0,.51.14.61.42l.18.61ZM795.97,559.88c.19.2.39.35.61.43.22.09.45.13.69.13s.44-.04.63-.14.36-.24.5-.44c.14-.2.25-.46.33-.78s.12-.71.12-1.17-.03-.81-.1-1.1c-.06-.3-.15-.54-.27-.72s-.25-.32-.41-.4c-.16-.08-.34-.12-.54-.12-.36,0-.66.07-.9.2-.24.13-.46.33-.67.58v3.52Z" style="fill:#a1275b; stroke-width:0px;"/><path d="M805.54,562.27c-.39,0-.74-.06-1.04-.17-.3-.11-.55-.28-.76-.49-.21-.21-.36-.46-.47-.76s-.16-.63-.16-1v-4.29h-.7c-.13,0-.24-.04-.33-.12s-.14-.2-.14-.36v-.97l1.32-.26.49-2.02c.06-.26.25-.38.54-.38h1.3v2.42h2.06v1.7h-2.06v4.12c0,.19.05.35.14.48.09.13.23.19.4.19.09,0,.17,0,.23-.03s.11-.04.16-.06c.04-.02.09-.05.13-.06s.09-.03.14-.03c.08,0,.13.02.18.05.04.03.09.09.14.16l.75,1.18c-.32.24-.68.42-1.08.54-.4.12-.81.18-1.24.18Z" style="fill:#a1275b; stroke-width:0px;"/><rect x="244.33" y="453.15" width="113.5" height="113.55" style="fill:#f7eee3; stroke:#f1efed; stroke-miterlimit:10;"/><path d="M257.04,506.61v3.22h4.06v1.66h-4.06v3.28h5.15v1.72h-7.31v-11.59h7.31v1.72h-5.15Z" style="fill:#665a6a; stroke-width:0px;"/><path d="M271.76,516.49h-1.98v-6.74h-3.82v4.46c0,.26.06.46.19.6.13.14.3.22.52.22.12,0,.23-.01.31-.04.08-.03.15-.06.22-.09s.12-.06.16-.09c.05-.03.1-.04.14-.04.06,0,.11.01.14.04.04.03.08.07.12.13l.59.96c-.29.24-.62.42-.99.55-.37.12-.76.18-1.16.18-.72,0-1.26-.2-1.65-.61-.38-.4-.57-.96-.57-1.67v-4.6h-.84c-.11,0-.2-.03-.27-.1-.08-.07-.11-.17-.11-.31v-.79l1.32-.22.42-2.24c.03-.11.08-.19.15-.25.07-.06.17-.09.29-.09h1.03v2.59h5.8v8.16ZM272.11,505.83c0,.17-.03.33-.1.49s-.16.28-.28.4c-.12.11-.25.2-.41.27-.16.07-.32.1-.5.1s-.33-.03-.48-.1c-.15-.07-.28-.16-.39-.27s-.2-.24-.27-.4-.1-.31-.1-.49.03-.34.1-.49.16-.29.27-.4c.11-.12.24-.21.39-.27.15-.07.31-.1.48-.1s.34.03.5.1c.16.07.29.16.41.27s.21.25.28.4.1.32.1.49Z" style="fill:#665a6a; stroke-width:0px;"/><path d="M277.42,508.13c.61,0,1.16.1,1.66.3.5.2.93.48,1.28.84s.63.81.82,1.33c.19.52.29,1.11.29,1.76s-.1,1.24-.29,1.76c-.19.52-.47.97-.82,1.34s-.78.65-1.28.85c-.5.2-1.05.3-1.66.3s-1.17-.1-1.68-.3c-.5-.2-.93-.48-1.29-.85s-.63-.82-.83-1.34c-.2-.52-.29-1.11-.29-1.76s.1-1.23.29-1.76c.19-.52.47-.97.83-1.33s.78-.64,1.29-.84c.5-.2,1.06-.3,1.68-.3ZM277.42,515.09c.68,0,1.19-.23,1.52-.69s.49-1.13.49-2.02-.16-1.56-.49-2.03c-.33-.46-.84-.7-1.52-.7s-1.21.23-1.54.7-.5,1.14-.5,2.02.17,1.55.5,2.02.85.69,1.54.69Z" style="fill:#665a6a; stroke-width:0px;"/><path d="M285,504.57v11.92h-1.98v-11.92h1.98Z" style="fill:#665a6a; stroke-width:0px;"/><path d="M290.62,508.13c.61,0,1.16.1,1.66.3.5.2.93.48,1.28.84s.63.81.82,1.33c.19.52.29,1.11.29,1.76s-.1,1.24-.29,1.76c-.19.52-.47.97-.82,1.34s-.78.65-1.28.85c-.5.2-1.05.3-1.66.3s-1.17-.1-1.68-.3c-.5-.2-.93-.48-1.29-.85s-.63-.82-.83-1.34c-.2-.52-.29-1.11-.29-1.76s.1-1.23.29-1.76c.19-.52.47-.97.83-1.33s.78-.64,1.29-.84c.5-.2,1.06-.3,1.68-.3ZM290.62,515.09c.68,0,1.19-.23,1.52-.69s.49-1.13.49-2.02-.16-1.56-.49-2.03c-.33-.46-.84-.7-1.52-.7s-1.21.23-1.54.7-.5,1.14-.5,2.02.17,1.55.5,2.02.85.69,1.54.69Z" style="fill:#665a6a; stroke-width:0px;"/><path d="M303.35,508.54v.74c0,.24-.14.38-.42.43l-.74.14c.11.28.17.59.17.93,0,.41-.08.77-.25,1.1s-.39.61-.68.84c-.29.23-.63.41-1.02.53-.39.13-.82.19-1.27.19-.16,0-.32,0-.47-.02-.15-.02-.3-.04-.44-.06-.26.15-.39.33-.39.52,0,.17.08.29.23.37.15.08.35.13.61.16s.54.05.86.06c.32,0,.65.03.99.05.34.03.67.07.99.14.32.07.61.17.86.32.25.14.45.34.61.59s.23.57.23.96c0,.36-.09.72-.27,1.06-.18.34-.44.65-.78.91-.34.27-.76.48-1.25.65s-1.06.24-1.69.24-1.16-.06-1.62-.18c-.46-.12-.84-.28-1.15-.48s-.53-.43-.68-.69c-.15-.26-.22-.54-.22-.82,0-.38.12-.71.35-.97.23-.26.55-.47.96-.62-.22-.11-.39-.26-.52-.45-.13-.19-.19-.43-.19-.74,0-.12.02-.25.07-.38s.11-.26.2-.39c.09-.13.2-.25.33-.37.13-.11.29-.22.47-.31-.42-.22-.74-.52-.98-.9-.24-.37-.36-.81-.36-1.31,0-.41.08-.77.24-1.1.16-.33.39-.61.68-.84.29-.23.64-.41,1.03-.53.4-.12.83-.18,1.3-.18.35,0,.68.04.99.11s.59.18.85.32h2.37ZM301.38,516.86c0-.16-.05-.29-.14-.39-.1-.1-.23-.18-.39-.24-.17-.06-.36-.1-.58-.12-.22-.03-.46-.05-.71-.06-.25-.01-.5-.03-.77-.04-.26-.01-.52-.03-.77-.06-.22.12-.4.27-.53.43-.14.17-.2.36-.2.58,0,.14.04.28.11.41.07.13.19.23.34.32.16.09.36.16.61.21.25.05.56.08.92.08s.69-.03.95-.08.49-.13.66-.23c.17-.1.3-.22.38-.35.08-.14.12-.28.12-.45ZM299.14,512.18c.25,0,.46-.03.64-.1.18-.07.33-.16.45-.28s.21-.26.27-.42.09-.35.09-.55c0-.41-.12-.73-.37-.97-.24-.24-.61-.36-1.09-.36s-.85.12-1.09.36c-.24.24-.37.56-.37.97,0,.19.03.37.09.54.06.17.15.31.27.43.12.12.27.21.46.28.18.07.4.1.64.1Z" style="fill:#665a6a; stroke-width:0px;"/><path d="M306.92,505.86c0,.17-.03.33-.1.48s-.16.28-.28.39c-.12.11-.25.2-.4.27-.16.07-.32.1-.5.1s-.33-.03-.48-.1c-.15-.07-.28-.16-.4-.27-.11-.11-.2-.24-.27-.39-.07-.15-.1-.31-.1-.48s.03-.34.1-.5c.07-.15.16-.29.27-.4.11-.11.24-.2.4-.27.15-.07.31-.1.48-.1s.34.03.5.1c.15.07.29.16.4.27.12.11.21.25.28.4s.1.32.1.5ZM306.65,508.26v8.23h-1.99v-8.23h1.99Z" style="fill:#665a6a; stroke-width:0px;"/><path d="M308.48,509.41c.95-.87,2.08-1.3,3.42-1.3.48,0,.91.08,1.29.24.38.16.7.38.96.66s.46.62.6,1.01c.14.39.2.82.2,1.28v5.2h-.9c-.19,0-.33-.03-.43-.08-.1-.06-.18-.17-.24-.34l-.18-.59c-.21.19-.41.35-.61.49-.2.14-.4.26-.62.36s-.44.17-.69.22c-.24.05-.51.08-.81.08-.35,0-.67-.05-.96-.14-.29-.09-.55-.23-.76-.42s-.38-.42-.5-.7c-.12-.28-.18-.6-.18-.97,0-.21.03-.42.1-.62.07-.21.18-.4.34-.59.16-.19.36-.36.61-.53s.56-.31.93-.43c.37-.12.79-.22,1.28-.3.49-.08,1.04-.12,1.67-.14v-.48c0-.55-.12-.96-.35-1.22-.24-.26-.57-.4-1.02-.4-.32,0-.59.04-.8.11-.21.07-.4.16-.56.25-.16.09-.31.18-.44.25-.13.08-.28.11-.44.11-.14,0-.26-.04-.35-.11s-.17-.16-.23-.25l-.35-.63ZM313.02,512.98c-.57.03-1.05.08-1.44.15s-.7.16-.94.28c-.24.11-.4.24-.51.39-.1.15-.15.31-.15.49,0,.35.1.6.31.75.21.15.47.22.81.22.41,0,.76-.07,1.05-.22.3-.15.59-.37.87-.67v-1.39Z" style="fill:#665a6a; stroke-width:0px;"/><path d="M322.23,512.62c.03.42.11.79.22,1.1s.27.56.47.76c.19.2.42.35.69.45.27.1.56.15.88.15s.6-.04.83-.11.44-.16.61-.25c.17-.09.33-.17.46-.25.13-.08.26-.11.38-.11.17,0,.29.06.37.18l.57.72c-.22.26-.47.47-.74.65-.27.17-.56.31-.85.42-.3.1-.6.18-.91.22-.31.04-.61.06-.89.06-.57,0-1.1-.09-1.6-.28s-.92-.47-1.28-.84c-.36-.37-.65-.83-.86-1.38-.21-.55-.31-1.18-.31-1.9,0-.56.09-1.09.27-1.58.18-.49.44-.92.78-1.29s.75-.66,1.24-.87c.49-.21,1.04-.32,1.66-.32.52,0,1,.08,1.44.25s.82.41,1.13.73c.31.32.56.71.74,1.17s.27.99.27,1.58c0,.3-.03.5-.1.61-.06.1-.19.16-.37.16h-5.09ZM326.01,511.43c0-.26-.04-.5-.11-.73s-.18-.43-.32-.6c-.14-.17-.33-.31-.55-.41-.22-.1-.48-.15-.77-.15-.57,0-1.02.16-1.35.49-.33.33-.54.79-.63,1.39h3.74Z" style="fill:#665a6a; stroke-width:0px;"/><path d="M265.17,526.73c0,.85-.14,1.63-.43,2.34s-.68,1.32-1.19,1.84-1.13.91-1.85,1.19-1.52.42-2.41.42h-4.42v-11.59h4.42c.88,0,1.68.14,2.41.43s1.34.68,1.85,1.19c.51.51.91,1.12,1.19,1.83s.43,1.49.43,2.34ZM262.96,526.73c0-.64-.08-1.21-.25-1.71s-.41-.93-.73-1.28-.7-.62-1.15-.81-.96-.28-1.53-.28h-2.25v8.16h2.25c.57,0,1.08-.09,1.53-.28s.84-.46,1.15-.81.56-.78.73-1.28.25-1.08.25-1.71Z" style="fill:#665a6a; stroke-width:0px;"/><path d="M268.95,521.9c0,.17-.03.33-.1.48s-.16.28-.28.39c-.12.11-.25.2-.4.27-.16.07-.32.1-.5.1s-.33-.03-.48-.1c-.15-.07-.28-.16-.4-.27-.11-.11-.2-.24-.27-.39-.07-.15-.1-.31-.1-.48s.03-.34.1-.5c.07-.15.16-.29.27-.4.11-.11.24-.2.4-.27.15-.07.31-.1.48-.1s.34.03.5.1c.15.07.29.16.4.27.12.11.21.25.28.4s.1.32.1.5ZM268.67,524.3v8.23h-1.99v-8.23h1.99Z" style="fill:#665a6a; stroke-width:0px;"/><path d="M270.5,525.45c.95-.87,2.08-1.3,3.42-1.3.48,0,.91.08,1.29.24.38.16.7.38.96.66s.46.62.6,1.01c.14.39.2.82.2,1.28v5.2h-.9c-.19,0-.33-.03-.43-.08-.1-.06-.18-.17-.24-.34l-.18-.59c-.21.19-.41.35-.61.49-.2.14-.4.26-.62.36s-.44.17-.69.22c-.24.05-.51.08-.81.08-.35,0-.67-.05-.96-.14-.29-.09-.55-.23-.76-.42s-.38-.42-.5-.7c-.12-.28-.18-.6-.18-.97,0-.21.03-.42.1-.62.07-.21.18-.4.34-.59.16-.19.36-.36.61-.53s.56-.31.93-.43c.37-.12.79-.22,1.28-.3.49-.08,1.04-.12,1.67-.14v-.48c0-.55-.12-.96-.35-1.22-.24-.26-.57-.4-1.02-.4-.32,0-.59.04-.8.11-.21.07-.4.16-.56.25-.16.09-.31.18-.44.25-.13.08-.28.11-.44.11-.14,0-.26-.04-.35-.11s-.17-.16-.23-.25l-.35-.63ZM275.04,529.01c-.57.03-1.05.08-1.44.15s-.7.16-.94.28c-.24.11-.4.24-.51.39-.1.15-.15.31-.15.49,0,.35.1.6.31.75.21.15.47.22.81.22.41,0,.76-.07,1.05-.22.3-.15.59-.37.87-.67v-1.39Z" style="fill:#665a6a; stroke-width:0px;"/><path d="M286.05,524.58v.74c0,.24-.14.38-.42.43l-.74.14c.11.28.17.59.17.93,0,.41-.08.77-.25,1.1s-.39.61-.68.84c-.29.23-.63.41-1.02.53-.39.13-.82.19-1.27.19-.16,0-.32,0-.47-.02-.15-.02-.3-.04-.44-.06-.26.15-.39.33-.39.52,0,.17.08.29.23.37.15.08.35.13.61.16s.54.05.86.06c.32,0,.65.03.99.05.34.03.67.07.99.14.32.07.61.17.86.32.25.14.45.34.61.59s.23.57.23.96c0,.36-.09.72-.27,1.06-.18.34-.44.65-.78.91-.34.27-.76.48-1.25.65s-1.06.24-1.69.24-1.16-.06-1.62-.18c-.46-.12-.84-.28-1.15-.48s-.53-.43-.68-.69c-.15-.26-.22-.54-.22-.82,0-.38.12-.71.35-.97.23-.26.55-.47.96-.62-.22-.11-.39-.26-.52-.45-.13-.19-.19-.43-.19-.74,0-.12.02-.25.07-.38s.11-.26.2-.39c.09-.13.2-.25.33-.37.13-.11.29-.22.47-.31-.42-.22-.74-.52-.98-.9-.24-.37-.36-.81-.36-1.31,0-.41.08-.77.24-1.1.16-.33.39-.61.68-.84.29-.23.64-.41,1.03-.53.4-.12.83-.18,1.3-.18.35,0,.68.04.99.11s.59.18.85.32h2.37ZM284.08,532.9c0-.16-.05-.29-.14-.39-.1-.1-.23-.18-.39-.24-.17-.06-.36-.1-.58-.12-.22-.03-.46-.05-.71-.06-.25-.01-.5-.03-.77-.04-.26-.01-.52-.03-.77-.06-.22.12-.4.27-.53.43-.14.17-.2.36-.2.58,0,.14.04.28.11.41.07.13.19.23.34.32.16.09.36.16.61.21.25.05.56.08.92.08s.69-.03.95-.08.49-.13.66-.23c.17-.1.3-.22.38-.35.08-.14.12-.28.12-.45ZM281.84,528.21c.25,0,.46-.03.64-.1.18-.07.33-.16.45-.28s.21-.26.27-.42.09-.35.09-.55c0-.41-.12-.73-.37-.97-.24-.24-.61-.36-1.09-.36s-.85.12-1.09.36c-.24.24-.37.56-.37.97,0,.19.03.37.09.54.06.17.15.31.27.43.12.12.27.21.46.28.18.07.4.1.64.1Z" style="fill:#665a6a; stroke-width:0px;"/><path d="M289.15,525.31c.17-.17.34-.32.53-.46.18-.14.38-.26.59-.36.21-.1.43-.18.66-.23s.49-.08.77-.08c.45,0,.85.08,1.19.23.35.15.64.37.87.64.23.28.41.6.53.99.12.38.18.8.18,1.26v5.24h-1.98v-5.24c0-.5-.12-.89-.34-1.17-.23-.28-.58-.41-1.05-.41-.34,0-.66.08-.96.23-.3.15-.58.37-.85.63v5.95h-1.98v-8.23h1.21c.26,0,.42.12.5.36l.14.65Z" style="fill:#665a6a; stroke-width:0px;"/><path d="M299.99,524.17c.61,0,1.16.1,1.66.3.5.2.93.48,1.28.84s.63.81.82,1.33c.19.52.29,1.11.29,1.76s-.1,1.24-.29,1.76c-.19.52-.47.97-.82,1.34s-.78.65-1.28.85c-.5.2-1.05.3-1.66.3s-1.17-.1-1.68-.3c-.5-.2-.93-.48-1.29-.85s-.63-.82-.83-1.34c-.2-.52-.29-1.11-.29-1.76s.1-1.23.29-1.76c.19-.52.47-.97.83-1.33s.78-.64,1.29-.84c.5-.2,1.06-.3,1.68-.3ZM299.99,531.12c.68,0,1.19-.23,1.52-.69s.49-1.13.49-2.02-.16-1.56-.49-2.03c-.33-.46-.84-.7-1.52-.7s-1.21.23-1.54.7-.5,1.14-.5,2.02.17,1.55.5,2.02.85.69,1.54.69ZM302.76,520.8l-1.98,2.09c-.1.11-.2.18-.29.22-.09.04-.22.06-.37.06h-1.19l1.14-1.95c.08-.14.17-.24.28-.32.11-.07.27-.11.48-.11h1.92Z" style="fill:#665a6a; stroke-width:0px;"/><path d="M310.58,525.9c-.05.09-.11.15-.17.18s-.13.05-.22.05c-.1,0-.2-.03-.31-.08-.11-.05-.24-.11-.38-.18-.14-.07-.31-.13-.49-.18-.18-.05-.4-.08-.65-.08-.39,0-.7.08-.92.25s-.33.38-.33.65c0,.18.06.32.17.44.11.12.27.23.46.32.19.09.41.17.65.24.24.07.48.15.73.24.25.09.49.18.73.29s.46.25.65.42.34.37.46.61.17.52.17.85c0,.4-.07.76-.21,1.09-.14.33-.35.62-.63.87-.28.24-.62.43-1.03.57s-.88.2-1.42.2c-.28,0-.56-.03-.83-.08-.27-.05-.53-.12-.78-.21-.25-.09-.48-.2-.69-.32-.21-.12-.4-.26-.56-.4l.46-.75c.06-.09.13-.16.21-.21s.18-.07.3-.07.24.04.35.1c.11.07.24.14.38.22.14.08.31.16.51.22.2.07.44.1.74.1.23,0,.44-.03.6-.08.17-.06.31-.13.42-.22.11-.09.19-.2.24-.32s.08-.24.08-.37c0-.19-.06-.35-.17-.47-.12-.12-.27-.23-.46-.32-.19-.09-.41-.17-.65-.25-.24-.07-.49-.15-.75-.24-.25-.09-.5-.19-.75-.3-.24-.12-.46-.26-.65-.44-.19-.18-.34-.39-.46-.65s-.17-.57-.17-.93c0-.34.07-.66.2-.96.13-.3.33-.57.59-.8.26-.23.58-.41.97-.55.39-.14.84-.2,1.34-.2.57,0,1.08.09,1.55.28.47.19.85.43,1.16.74l-.45.71Z" style="fill:#665a6a; stroke-width:0px;"/><path d="M320.91,532.53h-1.98v-6.74h-3.82v4.46c0,.26.06.46.19.6.13.14.3.22.52.22.12,0,.23-.01.31-.04.08-.03.15-.06.22-.09s.12-.06.16-.09c.05-.03.1-.04.14-.04.06,0,.11.01.14.04.04.03.08.07.12.13l.59.96c-.29.24-.62.42-.99.55-.37.12-.76.18-1.16.18-.72,0-1.26-.2-1.65-.61-.38-.4-.57-.96-.57-1.67v-4.6h-.84c-.11,0-.2-.03-.27-.1-.08-.07-.11-.17-.11-.31v-.79l1.32-.22.42-2.24c.03-.11.08-.19.15-.25.07-.06.17-.09.29-.09h1.03v2.59h5.8v8.16ZM321.25,521.87c0,.17-.03.33-.1.49s-.16.28-.28.4c-.12.11-.25.2-.41.27-.16.07-.32.1-.5.1s-.33-.03-.48-.1c-.15-.07-.28-.16-.39-.27s-.2-.24-.27-.4-.1-.31-.1-.49.03-.34.1-.49.16-.29.27-.4c.11-.12.24-.21.39-.27.15-.07.31-.1.48-.1s.34.03.5.1c.16.07.29.16.41.27s.21.25.28.4.1.32.1.49Z" style="fill:#665a6a; stroke-width:0px;"/><path d="M328.82,526.04c-.06.07-.12.13-.17.18-.06.04-.14.06-.25.06-.1,0-.2-.03-.3-.09s-.21-.13-.34-.21c-.13-.08-.29-.15-.48-.21s-.41-.09-.69-.09c-.35,0-.65.06-.91.19s-.48.31-.65.54-.3.52-.39.85c-.09.33-.13.71-.13,1.13s.05.83.14,1.17.23.63.41.86c.18.23.39.41.64.53.25.12.53.18.85.18s.57-.04.77-.12c.19-.08.36-.16.49-.26s.25-.18.35-.26c.1-.08.21-.12.33-.12.16,0,.28.06.36.18l.57.72c-.22.26-.46.47-.71.65-.26.17-.52.31-.8.42-.28.1-.56.18-.85.22-.29.04-.58.06-.87.06-.51,0-.99-.09-1.44-.28s-.84-.47-1.18-.83-.6-.81-.8-1.34c-.2-.53-.29-1.13-.29-1.8,0-.6.09-1.16.26-1.68s.43-.96.77-1.34c.34-.38.75-.67,1.25-.89s1.07-.32,1.72-.32,1.15.1,1.62.3c.46.2.88.48,1.25.85l-.52.72Z" style="fill:#665a6a; stroke-width:0px;"/><path d="M334.15,524.17c.61,0,1.16.1,1.66.3.5.2.93.48,1.28.84s.63.81.82,1.33c.19.52.29,1.11.29,1.76s-.1,1.24-.29,1.76c-.19.52-.47.97-.82,1.34s-.78.65-1.28.85c-.5.2-1.05.3-1.66.3s-1.17-.1-1.68-.3c-.5-.2-.93-.48-1.29-.85s-.63-.82-.83-1.34c-.2-.52-.29-1.11-.29-1.76s.1-1.23.29-1.76c.19-.52.47-.97.83-1.33s.78-.64,1.29-.84c.5-.2,1.06-.3,1.68-.3ZM334.15,531.12c.68,0,1.19-.23,1.52-.69s.49-1.13.49-2.02-.16-1.56-.49-2.03c-.33-.46-.84-.7-1.52-.7s-1.21.23-1.54.7-.5,1.14-.5,2.02.17,1.55.5,2.02.85.69,1.54.69Z" style="fill:#665a6a; stroke-width:0px;"/><path d="M262.21,547.68c0,.65-.1,1.24-.31,1.77-.21.53-.5.99-.88,1.37-.38.38-.83.67-1.36.88-.53.21-1.11.31-1.75.31h-3.26v-8.66h3.26c.64,0,1.23.1,1.75.31.53.21.98.5,1.36.88s.67.84.88,1.37c.21.53.31,1.12.31,1.76ZM260.89,547.68c0-.52-.07-.98-.21-1.38-.14-.41-.34-.75-.6-1.04s-.57-.5-.94-.65c-.37-.15-.78-.22-1.23-.22h-1.97v6.58h1.97c.45,0,.87-.07,1.23-.22.37-.15.68-.37.94-.65s.46-.63.6-1.03c.14-.41.21-.87.21-1.39Z" style="fill:#665a6a; stroke-width:0px;"/><path d="M270.08,552.01h-1.15c-.23,0-.4-.09-.5-.27l-2.14-3c-.07-.1-.14-.17-.22-.21s-.2-.06-.36-.06h-.84v3.55h-1.28v-8.66h2.5c.56,0,1.04.06,1.44.17.4.11.74.28,1,.49.26.21.46.47.58.76s.19.63.19,1c0,.3-.05.58-.14.85-.09.27-.23.5-.41.71-.18.21-.4.39-.65.55-.26.15-.55.27-.87.35.16.1.3.23.42.4l2.44,3.37ZM266.04,547.52c.33,0,.62-.04.87-.12s.46-.19.63-.34c.17-.15.29-.32.38-.52s.13-.43.13-.67c0-.5-.16-.87-.49-1.13-.33-.25-.82-.38-1.47-.38h-1.21v3.17h1.17Z" style="fill:#665a6a; stroke-width:0px;"/><path d="M278.08,552.01h-.99c-.11,0-.2-.03-.28-.08-.07-.06-.12-.13-.16-.22l-.77-2.01h-3.82l-.77,2.01c-.03.08-.08.15-.16.21s-.17.09-.28.09h-.99l3.45-8.66h1.3l3.45,8.66ZM275.54,548.78l-1.28-3.36c-.09-.23-.18-.52-.28-.87-.04.17-.09.33-.14.48-.05.15-.09.28-.14.4l-1.28,3.35h3.11Z" style="fill:#665a6a; stroke-width:0px;"/><path d="M278.49,551.3c0-.11.02-.21.06-.31.04-.1.1-.18.17-.25.07-.07.15-.13.25-.17.1-.04.2-.06.31-.06s.21.02.31.06c.1.04.18.1.25.17.07.07.13.16.17.25.04.1.06.2.06.31s-.02.22-.06.31c-.04.1-.1.18-.17.25-.07.07-.16.13-.25.17-.1.04-.2.06-.31.06s-.22-.02-.31-.06c-.1-.04-.18-.1-.25-.17-.07-.07-.13-.16-.17-.25-.04-.1-.06-.2-.06-.31Z" style="fill:#665a6a; stroke-width:0px;"/><path d="M285.62,552.01h-1.29v-8.66h1.29v8.66Z" style="fill:#665a6a; stroke-width:0px;"/><path d="M294.6,543.35v8.66h-.65c-.1,0-.18-.02-.25-.05-.07-.04-.13-.09-.2-.17l-4.89-6.32c0,.11.01.21.02.32,0,.11,0,.2,0,.3v5.94h-1.13v-8.66h.66c.11,0,.2.01.25.04.06.03.12.09.19.18l4.9,6.33c-.01-.12-.02-.23-.03-.34,0-.11,0-.21,0-.31v-5.9h1.12Z" style="fill:#665a6a; stroke-width:0px;"/><path d="M301.88,550.96v1.04h-5.37v-8.66h5.37v1.04h-4.08v2.74h3.28v1.01h-3.28v2.82h4.08ZM301.25,542.69h-.86c-.05,0-.12,0-.19-.03s-.14-.07-.22-.17l-.66-.8-.07-.11-.07.11-.66.8c-.07.09-.14.15-.22.17-.07.02-.13.03-.19.03h-.82l1.44-1.65h1.06l1.44,1.65Z" style="fill:#665a6a; stroke-width:0px;"/><path d="M307.7,544.76c-.04.07-.08.12-.13.15-.04.03-.1.05-.17.05s-.15-.03-.25-.1c-.09-.07-.21-.14-.35-.22-.14-.08-.3-.16-.5-.22s-.42-.1-.69-.1c-.25,0-.47.03-.67.1-.19.07-.35.16-.48.27-.13.12-.23.25-.29.4s-.1.32-.1.5c0,.23.06.43.18.58.12.15.27.28.47.39s.41.2.66.28.5.16.75.25c.26.09.51.19.75.3.25.11.46.25.66.43.19.17.35.38.47.63.12.25.18.55.18.91,0,.38-.07.74-.2,1.07s-.32.63-.57.87c-.25.25-.56.45-.92.59s-.78.21-1.24.21c-.28,0-.55-.03-.81-.08-.26-.05-.51-.13-.74-.23-.23-.1-.45-.22-.65-.36-.2-.14-.39-.29-.55-.47l.37-.61s.08-.09.13-.12c.05-.03.11-.05.17-.05.08,0,.18.04.29.13s.25.19.41.29.36.2.58.29.5.13.83.13c.27,0,.5-.03.71-.11s.39-.17.53-.3c.14-.13.25-.29.33-.47.08-.18.11-.39.11-.61,0-.25-.06-.46-.17-.62-.12-.16-.27-.3-.46-.4s-.41-.2-.66-.28c-.25-.08-.5-.16-.75-.24-.26-.08-.51-.18-.75-.29s-.46-.25-.66-.42-.35-.39-.46-.66-.17-.59-.17-.97c0-.31.06-.61.18-.9.12-.29.3-.55.53-.77.23-.22.52-.4.85-.54.34-.14.72-.2,1.16-.2.49,0,.93.08,1.34.23.41.15.76.38,1.06.67l-.31.61Z" style="fill:#665a6a; stroke-width:0px;"/><path d="M319.41,547.79v3.38c-.44.31-.9.55-1.4.7s-1.03.23-1.62.23c-.7,0-1.33-.11-1.9-.33-.56-.22-1.05-.52-1.44-.91-.4-.39-.7-.86-.92-1.4-.21-.54-.32-1.14-.32-1.79s.1-1.26.31-1.8c.21-.55.5-1.01.89-1.4.39-.39.85-.69,1.4-.9.55-.21,1.16-.32,1.85-.32.35,0,.67.03.96.08s.57.13.82.22c.25.1.49.21.7.35.22.14.42.29.6.46l-.37.58c-.06.09-.13.15-.22.17-.09.02-.19,0-.3-.07-.1-.06-.22-.13-.35-.21s-.28-.15-.45-.22c-.17-.07-.38-.13-.61-.18-.23-.05-.51-.07-.83-.07-.47,0-.9.08-1.28.23-.38.15-.71.38-.98.67-.27.29-.48.64-.62,1.05-.14.41-.22.86-.22,1.37s.08,1.01.23,1.43.37.78.65,1.07c.28.29.62.51,1.02.67.4.15.85.23,1.34.23.19,0,.37-.01.54-.03.17-.02.33-.05.48-.09.15-.04.3-.09.44-.15.14-.06.28-.13.43-.2v-1.81h-1.28c-.08,0-.14-.02-.2-.07s-.08-.11-.08-.18v-.73h2.71Z" style="fill:#665a6a; stroke-width:0px;"/><path d="M322.19,552.01h-1.29v-8.66h1.29v8.66Z" style="fill:#665a6a; stroke-width:0px;"/><path d="M329.04,550.93v1.08h-4.96v-8.66h1.28v7.58h3.67Z" style="fill:#665a6a; stroke-width:0px;"/><path d="M256.47,493.9v-.56l2.79-.62c.42-.09.45-.33.45-1.04v-13.87c0-.89-.51-1.37-1.28-1.16l-2.94.74-.36-1.6,8.82-2.4.51.18v18.08c0,.71.03.98.44,1.07l2.79.62v.56h-11.22Z" style="fill:#a1275b; stroke-width:0px;"/><rect x="364.3" y="453.15" width="113.5" height="113.55" style="fill:#f5cdcd; stroke:#f1efed; stroke-miterlimit:10;"/><path d="M374.44,493.9v-2.29c1.45-.95,3.03-2.14,4.39-3.5,1.96-1.96,3.62-4.51,3.62-7.36,0-2.46-1.54-4.36-3.92-4.36-1.22,0-2.38.48-3.33,1.37l-.83-.83c1.6-1.87,3.47-3.5,6.53-3.5,3.33,0,6.15,2.58,6.15,6.03,0,2.88-1.66,5.02-3.95,7.3-1.48,1.48-3.86,3.53-4.84,4.31h9.38v2.85h-13.21Z" style="fill:#a1275b; stroke-width:0px;"/><path d="M383.09,506.67h-3.5v9.82h-2.16v-9.82h-3.5v-1.77h9.15v1.77Z" style="fill:#665a6a; stroke-width:0px;"/><path d="M383.89,512.62c.03.42.11.79.22,1.1s.27.56.47.76c.19.2.42.35.69.45.27.1.56.15.88.15s.6-.04.83-.11.44-.16.61-.25c.17-.09.33-.17.46-.25.13-.08.26-.11.38-.11.17,0,.29.06.37.18l.57.72c-.22.26-.47.47-.74.65-.27.17-.56.31-.85.42-.3.1-.6.18-.91.22-.31.04-.61.06-.89.06-.57,0-1.1-.09-1.6-.28s-.92-.47-1.28-.84c-.36-.37-.65-.83-.86-1.38-.21-.55-.31-1.18-.31-1.9,0-.56.09-1.09.27-1.58.18-.49.44-.92.78-1.29s.75-.66,1.24-.87c.49-.21,1.04-.32,1.66-.32.52,0,1,.08,1.44.25s.82.41,1.13.73c.31.32.56.71.74,1.17s.27.99.27,1.58c0,.3-.03.5-.1.61-.06.1-.19.16-.37.16h-5.09ZM387.67,511.43c0-.26-.04-.5-.11-.73s-.18-.43-.32-.6c-.14-.17-.33-.31-.55-.41-.22-.1-.48-.15-.77-.15-.57,0-1.02.16-1.35.49-.33.33-.54.79-.63,1.39h3.74Z" style="fill:#665a6a; stroke-width:0px;"/><path d="M392.8,509.69c.26-.49.56-.88.91-1.16.35-.28.77-.42,1.25-.42.38,0,.68.08.91.25l-.13,1.48c-.03.1-.07.16-.12.2-.05.04-.12.06-.2.06-.08,0-.2-.01-.36-.04-.16-.03-.31-.04-.46-.04-.22,0-.41.03-.59.1-.17.06-.32.16-.46.28-.14.12-.26.27-.36.44-.1.17-.2.37-.29.58v5.07h-1.98v-8.23h1.16c.2,0,.34.04.42.11.08.07.13.2.16.39l.12.93Z" style="fill:#665a6a; stroke-width:0px;"/><path d="M396.62,509.41c.95-.87,2.08-1.3,3.42-1.3.48,0,.91.08,1.29.24.38.16.7.38.96.66s.46.62.6,1.01c.14.39.2.82.2,1.28v5.2h-.9c-.19,0-.33-.03-.43-.08-.1-.06-.18-.17-.24-.34l-.18-.59c-.21.19-.41.35-.61.49-.2.14-.4.26-.62.36s-.44.17-.69.22c-.24.05-.51.08-.81.08-.35,0-.67-.05-.96-.14-.29-.09-.55-.23-.76-.42s-.38-.42-.5-.7c-.12-.28-.18-.6-.18-.97,0-.21.03-.42.1-.62.07-.21.18-.4.34-.59.16-.19.36-.36.61-.53s.56-.31.93-.43c.37-.12.79-.22,1.28-.3.49-.08,1.04-.12,1.67-.14v-.48c0-.55-.12-.96-.35-1.22-.24-.26-.57-.4-1.02-.4-.32,0-.59.04-.8.11-.21.07-.4.16-.56.25-.16.09-.31.18-.44.25-.13.08-.28.11-.44.11-.14,0-.26-.04-.35-.11s-.17-.16-.23-.25l-.35-.63ZM401.16,512.98c-.57.03-1.05.08-1.44.15s-.7.16-.94.28c-.24.11-.4.24-.51.39-.1.15-.15.31-.15.49,0,.35.1.6.31.75.21.15.47.22.81.22.41,0,.76-.07,1.05-.22.3-.15.59-.37.87-.67v-1.39Z" style="fill:#665a6a; stroke-width:0px;"/><path d="M406.83,509.39c.34-.38.72-.69,1.15-.92.43-.24.93-.35,1.51-.35.45,0,.86.09,1.23.28.37.19.69.46.96.81.27.36.48.79.63,1.31.15.52.22,1.12.22,1.79,0,.61-.08,1.18-.25,1.71-.17.52-.4.98-.71,1.36-.31.39-.68.69-1.11.9-.44.22-.92.32-1.46.32-.46,0-.85-.07-1.18-.21s-.62-.34-.87-.59v3.37h-1.98v-10.91h1.21c.26,0,.42.12.5.36l.16.76ZM406.93,514.36c.22.27.47.47.73.58.26.11.55.17.86.17s.57-.06.81-.17c.24-.11.44-.28.61-.51.17-.23.3-.52.39-.87.09-.35.14-.76.14-1.24s-.04-.89-.12-1.22c-.08-.33-.19-.61-.33-.81-.14-.21-.32-.36-.53-.46-.21-.1-.44-.14-.7-.14-.41,0-.76.09-1.05.26-.29.17-.56.42-.82.73v3.69Z" style="fill:#665a6a; stroke-width:0px;"/><path d="M415.58,512.62c.03.42.11.79.22,1.1s.27.56.47.76c.19.2.42.35.69.45.27.1.56.15.88.15s.6-.04.83-.11.44-.16.61-.25c.17-.09.33-.17.46-.25.13-.08.26-.11.38-.11.17,0,.29.06.37.18l.57.72c-.22.26-.47.47-.74.65-.27.17-.56.31-.85.42-.3.1-.6.18-.91.22-.31.04-.61.06-.89.06-.57,0-1.1-.09-1.6-.28s-.92-.47-1.28-.84c-.36-.37-.65-.83-.86-1.38-.21-.55-.31-1.18-.31-1.9,0-.56.09-1.09.27-1.58.18-.49.44-.92.78-1.29s.75-.66,1.24-.87c.49-.21,1.04-.32,1.66-.32.52,0,1,.08,1.44.25s.82.41,1.13.73c.31.32.56.71.74,1.17s.27.99.27,1.58c0,.3-.03.5-.1.61-.06.1-.19.16-.37.16h-5.09ZM420.38,507.12h-1.32c-.08,0-.15-.01-.23-.04-.08-.03-.15-.08-.23-.16l-.79-.83c-.06-.05-.12-.12-.17-.19-.06.07-.12.14-.17.19l-.8.83c-.06.07-.14.12-.22.15-.08.03-.16.05-.24.05h-1.37l1.84-2.23h1.86l1.84,2.23ZM419.36,511.43c0-.26-.04-.5-.11-.73s-.18-.43-.32-.6c-.14-.17-.33-.31-.55-.41-.22-.1-.48-.15-.77-.15-.57,0-1.02.16-1.35.49-.33.33-.54.79-.63,1.39h3.74Z" style="fill:#665a6a; stroke-width:0px;"/><path d="M429.71,508.26v8.23h-1.21c-.26,0-.43-.12-.5-.36l-.14-.66c-.34.34-.71.62-1.11.83-.41.21-.88.32-1.44.32-.45,0-.85-.08-1.19-.23s-.63-.37-.87-.65c-.24-.28-.41-.61-.53-.99-.12-.38-.18-.8-.18-1.26v-5.23h1.98v5.23c0,.5.12.89.35,1.17.23.28.58.41,1.05.41.34,0,.66-.08.96-.23s.58-.36.85-.63v-5.95h1.98Z" style="fill:#665a6a; stroke-width:0px;"/><path d="M439.97,516.49h-1.98v-6.74h-3.82v4.46c0,.26.06.46.19.6.13.14.3.22.52.22.12,0,.23-.01.31-.04.08-.03.15-.06.22-.09s.12-.06.16-.09c.05-.03.1-.04.14-.04.06,0,.11.01.14.04.04.03.08.07.12.13l.59.96c-.29.24-.62.42-.99.55-.37.12-.76.18-1.16.18-.72,0-1.26-.2-1.65-.61-.38-.4-.57-.96-.57-1.67v-4.6h-.84c-.11,0-.2-.03-.27-.1-.08-.07-.11-.17-.11-.31v-.79l1.32-.22.42-2.24c.03-.11.08-.19.15-.25.07-.06.17-.09.29-.09h1.03v2.59h5.8v8.16ZM440.31,505.83c0,.17-.03.33-.1.49s-.16.28-.28.4c-.12.11-.25.2-.41.27-.16.07-.32.1-.5.1s-.33-.03-.48-.1c-.15-.07-.28-.16-.39-.27s-.2-.24-.27-.4-.1-.31-.1-.49.03-.34.1-.49.16-.29.27-.4c.11-.12.24-.21.39-.27.15-.07.31-.1.48-.1s.34.03.5.1c.16.07.29.16.41.27s.21.25.28.4.1.32.1.49Z" style="fill:#665a6a; stroke-width:0px;"/><path d="M447.88,510c-.06.07-.12.13-.17.18-.06.04-.14.06-.25.06-.1,0-.2-.03-.3-.09s-.21-.13-.34-.21c-.13-.08-.29-.15-.48-.21s-.41-.09-.69-.09c-.35,0-.65.06-.91.19s-.48.31-.65.54-.3.52-.39.85c-.09.33-.13.71-.13,1.13s.05.83.14,1.17.23.63.41.86c.18.23.39.41.64.53.25.12.53.18.85.18s.57-.04.77-.12c.19-.08.36-.16.49-.26s.25-.18.35-.26c.1-.08.21-.12.33-.12.16,0,.28.06.36.18l.57.72c-.22.26-.46.47-.71.65-.26.17-.52.31-.8.42-.28.1-.56.18-.85.22-.29.04-.58.06-.87.06-.51,0-.99-.09-1.44-.28s-.84-.47-1.18-.83-.6-.81-.8-1.34c-.2-.53-.29-1.13-.29-1.8,0-.6.09-1.16.26-1.68s.43-.96.77-1.34c.34-.38.75-.67,1.25-.89s1.07-.32,1.72-.32,1.15.1,1.62.3c.46.2.88.48,1.25.85l-.52.72Z" style="fill:#665a6a; stroke-width:0px;"/><path d="M449.53,509.41c.95-.87,2.08-1.3,3.42-1.3.48,0,.91.08,1.29.24.38.16.7.38.96.66s.46.62.6,1.01c.14.39.2.82.2,1.28v5.2h-.9c-.19,0-.33-.03-.43-.08-.1-.06-.18-.17-.24-.34l-.18-.59c-.21.19-.41.35-.61.49-.2.14-.4.26-.62.36s-.44.17-.69.22c-.24.05-.51.08-.81.08-.35,0-.67-.05-.96-.14-.29-.09-.55-.23-.76-.42s-.38-.42-.5-.7c-.12-.28-.18-.6-.18-.97,0-.21.03-.42.1-.62.07-.21.18-.4.34-.59.16-.19.36-.36.61-.53s.56-.31.93-.43c.37-.12.79-.22,1.28-.3.49-.08,1.04-.12,1.67-.14v-.48c0-.55-.12-.96-.35-1.22-.24-.26-.57-.4-1.02-.4-.32,0-.59.04-.8.11-.21.07-.4.16-.56.25-.16.09-.31.18-.44.25-.13.08-.28.11-.44.11-.14,0-.26-.04-.35-.11s-.17-.16-.23-.25l-.35-.63ZM454.06,512.98c-.57.03-1.05.08-1.44.15s-.7.16-.94.28c-.24.11-.4.24-.51.39-.1.15-.15.31-.15.49,0,.35.1.6.31.75.21.15.47.22.81.22.41,0,.76-.07,1.05-.22.3-.15.59-.37.87-.67v-1.39Z" style="fill:#665a6a; stroke-width:0px;"/><path d="M382.32,531.67c0,.65-.1,1.24-.31,1.77-.21.53-.5.99-.88,1.37-.38.38-.83.67-1.36.88-.53.21-1.11.31-1.75.31h-3.26v-8.66h3.26c.64,0,1.23.1,1.75.31.53.21.98.5,1.36.88s.67.84.88,1.37c.21.53.31,1.12.31,1.76ZM381.01,531.67c0-.52-.07-.98-.21-1.38-.14-.41-.34-.75-.6-1.04s-.57-.5-.94-.65c-.37-.15-.78-.22-1.23-.22h-1.97v6.58h1.97c.45,0,.87-.07,1.23-.22.37-.15.68-.37.94-.65s.46-.63.6-1.03c.14-.41.21-.87.21-1.39Z" style="fill:#665a6a; stroke-width:0px;"/><path d="M390.19,536h-1.15c-.23,0-.4-.09-.5-.27l-2.14-3c-.07-.1-.14-.17-.22-.21s-.2-.06-.36-.06h-.84v3.55h-1.28v-8.66h2.5c.56,0,1.04.06,1.44.17.4.11.74.28,1,.49.26.21.46.47.58.76s.19.63.19,1c0,.3-.05.58-.14.85-.09.27-.23.5-.41.71-.18.21-.4.39-.65.55-.26.15-.55.27-.87.35.16.1.3.23.42.4l2.44,3.37ZM386.15,531.51c.33,0,.62-.04.87-.12s.46-.19.63-.34c.17-.15.29-.32.38-.52s.13-.43.13-.67c0-.5-.16-.87-.49-1.13-.33-.25-.82-.38-1.47-.38h-1.21v3.17h1.17Z" style="fill:#665a6a; stroke-width:0px;"/><path d="M398.2,536h-.99c-.11,0-.2-.03-.28-.08-.07-.06-.12-.13-.16-.22l-.77-2.01h-3.82l-.77,2.01c-.03.08-.08.15-.16.21s-.17.09-.28.09h-.99l3.45-8.66h1.3l3.45,8.66ZM395.66,532.77l-1.28-3.36c-.09-.23-.18-.52-.28-.87-.04.17-.09.33-.14.48-.05.15-.09.28-.14.4l-1.28,3.35h3.11Z" style="fill:#665a6a; stroke-width:0px;"/><path d="M398.6,535.29c0-.11.02-.21.06-.31.04-.1.1-.18.17-.25.07-.07.15-.13.25-.17.1-.04.2-.06.31-.06s.21.02.31.06c.1.04.18.1.25.17.07.07.13.16.17.25.04.1.06.2.06.31s-.02.22-.06.31c-.04.1-.1.18-.17.25-.07.07-.16.13-.25.17-.1.04-.2.06-.31.06s-.22-.02-.31-.06c-.1-.04-.18-.1-.25-.17-.07-.07-.13-.16-.17-.25-.04-.1-.06-.2-.06-.31Z" style="fill:#665a6a; stroke-width:0px;"/><path d="M405.74,528.38v2.9h3.47v1.04h-3.47v3.67h-1.29v-8.66h5.37v1.04h-4.08Z" style="fill:#665a6a; stroke-width:0px;"/><path d="M415.98,534.92v1.08h-4.96v-8.66h1.28v7.58h3.67Z" style="fill:#665a6a; stroke-width:0px;"/><path d="M424.14,536h-.99c-.11,0-.2-.03-.28-.08-.07-.06-.12-.13-.16-.22l-.77-2.01h-3.82l-.77,2.01c-.03.08-.08.15-.16.21s-.17.09-.28.09h-.99l3.45-8.66h1.3l3.45,8.66ZM421.6,532.77l-1.28-3.36c-.09-.23-.18-.52-.28-.87-.04.17-.09.33-.14.48-.05.15-.09.28-.14.4l-1.28,3.35h3.11ZM422.38,524.82l-1.97,1.72c-.07.06-.13.09-.19.11-.06.02-.13.02-.22.02h-.85l1.36-1.65s.07-.09.11-.11c.03-.03.07-.05.11-.06.04-.01.09-.02.14-.03s.11,0,.18,0h1.33Z" style="fill:#665a6a; stroke-width:0px;"/><path d="M431.45,527.34l-3.52,8.66h-1.15l-3.52-8.66h1.02c.11,0,.2.03.27.08s.12.13.16.22l2.34,5.89c.06.14.11.3.17.48.05.17.1.35.15.54.04-.19.08-.37.13-.54.05-.17.1-.33.16-.48l2.33-5.89c.03-.08.08-.15.15-.21.07-.06.17-.09.27-.09h1.03Z" style="fill:#665a6a; stroke-width:0px;"/><path d="M433.58,536h-1.29v-8.66h1.29v8.66Z" style="fill:#665a6a; stroke-width:0px;"/><path d="M442.61,536h-.99c-.11,0-.2-.03-.28-.08-.07-.06-.12-.13-.16-.22l-.77-2.01h-3.82l-.77,2.01c-.03.08-.08.15-.16.21s-.17.09-.28.09h-.99l3.45-8.66h1.3l3.45,8.66ZM440.07,532.77l-1.28-3.36c-.09-.23-.18-.52-.28-.87-.04.17-.09.33-.14.48-.05.15-.09.28-.14.4l-1.28,3.35h3.11Z" style="fill:#665a6a; stroke-width:0px;"/><path d="M381.26,548.72h-1.15c-.23,0-.4-.09-.5-.27l-2.14-3c-.07-.1-.14-.17-.22-.21s-.2-.06-.36-.06h-.84v3.55h-1.28v-8.66h2.5c.56,0,1.04.06,1.44.17.4.11.74.28,1,.49.26.21.46.47.58.76s.19.63.19,1c0,.3-.05.58-.14.85-.09.27-.23.5-.41.71-.18.21-.4.39-.65.55-.26.15-.55.27-.87.35.16.1.3.23.42.4l2.44,3.37ZM377.22,544.24c.33,0,.62-.04.87-.12s.46-.19.63-.34c.17-.15.29-.32.38-.52s.13-.43.13-.67c0-.5-.16-.87-.49-1.13-.33-.25-.82-.38-1.47-.38h-1.21v3.17h1.17Z" style="fill:#665a6a; stroke-width:0px;"/><path d="M383.42,548.72h-1.29v-8.66h1.29v8.66Z" style="fill:#665a6a; stroke-width:0px;"/><path d="M388.14,540.06c.54,0,1.01.05,1.4.16.39.11.71.26.96.45.25.2.43.44.55.71s.18.6.18.95c0,.21-.03.41-.1.6-.06.19-.16.37-.29.54-.13.17-.3.32-.5.45-.2.13-.44.24-.71.33,1.26.25,1.89.91,1.89,1.97,0,.37-.07.71-.21,1.01s-.34.57-.6.79c-.26.22-.58.39-.97.51-.38.12-.82.18-1.3.18h-3.12v-8.66h2.82ZM386.6,541.07v2.83h1.48c.63,0,1.1-.13,1.41-.38s.46-.6.46-1.03c0-.49-.15-.85-.44-1.08-.29-.22-.75-.34-1.37-.34h-1.54ZM388.41,547.7c.33,0,.6-.04.84-.11.23-.08.42-.18.57-.31s.25-.29.32-.47c.07-.18.1-.38.1-.6,0-.43-.15-.77-.45-1.02-.3-.25-.76-.37-1.38-.37h-1.81v2.89h1.81Z" style="fill:#665a6a; stroke-width:0px;"/><path d="M398.28,547.68v1.04h-5.37v-8.66h5.37v1.04h-4.08v2.74h3.28v1.01h-3.28v2.82h4.08Z" style="fill:#665a6a; stroke-width:0px;"/><path d="M400.91,548.72h-1.29v-8.66h1.29v8.66Z" style="fill:#665a6a; stroke-width:0px;"/><path d="M409.3,548.72h-1.15c-.23,0-.4-.09-.5-.27l-2.14-3c-.07-.1-.14-.17-.22-.21s-.2-.06-.36-.06h-.84v3.55h-1.28v-8.66h2.5c.56,0,1.04.06,1.44.17.4.11.74.28,1,.49.26.21.46.47.58.76s.19.63.19,1c0,.3-.05.58-.14.85-.09.27-.23.5-.41.71-.18.21-.4.39-.65.55-.26.15-.55.27-.87.35.16.1.3.23.42.4l2.44,3.37ZM405.26,544.24c.33,0,.62-.04.87-.12s.46-.19.63-.34c.17-.15.29-.32.38-.52s.13-.43.13-.67c0-.5-.16-.87-.49-1.13-.33-.25-.82-.38-1.47-.38h-1.21v3.17h1.17Z" style="fill:#665a6a; stroke-width:0px;"/><path d="M418.14,544.39c0,.65-.1,1.24-.31,1.78-.21.54-.5,1.01-.88,1.4s-.83.7-1.36.91-1.11.33-1.75.33-1.22-.11-1.75-.33-.98-.52-1.36-.91c-.38-.39-.67-.86-.88-1.4-.21-.54-.31-1.13-.31-1.78s.1-1.24.31-1.78c.21-.54.5-1.01.88-1.4.38-.39.83-.7,1.36-.92.53-.22,1.11-.33,1.75-.33s1.23.11,1.75.33c.53.22.98.53,1.36.92s.67.86.88,1.4.31,1.14.31,1.78ZM416.83,544.39c0-.52-.07-.98-.21-1.39s-.34-.76-.6-1.04c-.26-.28-.57-.5-.94-.66-.37-.15-.78-.23-1.23-.23s-.87.08-1.23.23c-.37.15-.68.37-.94.66-.26.29-.46.63-.6,1.04s-.21.87-.21,1.39.07.98.21,1.39c.14.41.34.76.6,1.04.26.29.58.5.94.65s.78.23,1.23.23.86-.08,1.23-.23.68-.37.94-.65c.26-.28.46-.63.6-1.04.14-.41.21-.87.21-1.39Z" style="fill:#665a6a; stroke-width:0px;"/><rect x="484.26" y="453.15" width="113.5" height="113.55" style="fill:#cce8ff; stroke:#f1efed; stroke-miterlimit:10;"/><path d="M499.22,494.35c-1.66,0-4.31-.18-4.31-1.78,0-.21.03-.47.12-.74l.5-1.51h.59c.3,1.34,1.78,2.43,3.3,2.43,2.11,0,3.71-1.6,3.71-4.19,0-3.3-2.43-4.1-5.26-4.1h-1.46v-1.9h1.37c2.17,0,4.16-1.13,4.16-3.53,0-1.81-1.45-3.18-3.3-3.18-1.22,0-2.46.53-3.27,1.31l-.77-.83c1.72-1.99,3.74-3,6.32-3s5.29,1.72,5.29,4.51c0,2.17-1.99,3.86-3.95,4.54,1.87,0,5.05,1.42,5.05,4.66,0,4.28-4.07,7.3-8.11,7.3Z" style="fill:#a1275b; stroke-width:0px;"/><path d="M505.25,510.69c0,.85-.14,1.63-.43,2.34s-.68,1.32-1.19,1.84-1.13.91-1.85,1.19-1.52.42-2.41.42h-4.42v-11.59h4.42c.88,0,1.68.14,2.41.43s1.34.68,1.85,1.19c.51.51.91,1.12,1.19,1.83s.43,1.49.43,2.34ZM503.04,510.69c0-.64-.08-1.21-.25-1.71s-.41-.93-.73-1.28-.7-.62-1.15-.81-.96-.28-1.53-.28h-2.25v8.16h2.25c.57,0,1.08-.09,1.53-.28s.84-.46,1.15-.81.56-.78.73-1.28.25-1.08.25-1.71Z" style="fill:#665a6a; stroke-width:0px;"/><path d="M509.03,505.86c0,.17-.03.33-.1.48s-.16.28-.28.39c-.12.11-.25.2-.4.27-.16.07-.32.1-.5.1s-.33-.03-.48-.1c-.15-.07-.28-.16-.4-.27-.11-.11-.2-.24-.27-.39-.07-.15-.1-.31-.1-.48s.03-.34.1-.5c.07-.15.16-.29.27-.4.11-.11.24-.2.4-.27.15-.07.31-.1.48-.1s.34.03.5.1c.15.07.29.16.4.27.12.11.21.25.28.4s.1.32.1.5ZM508.76,508.26v8.23h-1.99v-8.23h1.99Z" style="fill:#665a6a; stroke-width:0px;"/><path d="M515.8,509.87c-.05.09-.11.15-.17.18s-.13.05-.22.05c-.1,0-.2-.03-.31-.08-.11-.05-.24-.11-.38-.18-.14-.07-.31-.13-.49-.18-.18-.05-.4-.08-.65-.08-.39,0-.7.08-.92.25s-.33.38-.33.65c0,.18.06.32.17.44.11.12.27.23.46.32.19.09.41.17.65.24.24.07.48.15.73.24.25.09.49.18.73.29s.46.25.65.42.34.37.46.61.17.52.17.85c0,.4-.07.76-.21,1.09-.14.33-.35.62-.63.87-.28.24-.62.43-1.03.57s-.88.2-1.42.2c-.28,0-.56-.03-.83-.08-.27-.05-.53-.12-.78-.21-.25-.09-.48-.2-.69-.32-.21-.12-.4-.26-.56-.4l.46-.75c.06-.09.13-.16.21-.21s.18-.07.3-.07.24.04.35.1c.11.07.24.14.38.22.14.08.31.16.51.22.2.07.44.1.74.1.23,0,.44-.03.6-.08.17-.06.31-.13.42-.22.11-.09.19-.2.24-.32s.08-.24.08-.37c0-.19-.06-.35-.17-.47-.12-.12-.27-.23-.46-.32-.19-.09-.41-.17-.65-.25-.24-.07-.49-.15-.75-.24-.25-.09-.5-.19-.75-.3-.24-.12-.46-.26-.65-.44-.19-.18-.34-.39-.46-.65s-.17-.57-.17-.93c0-.34.07-.66.2-.96.13-.3.33-.57.59-.8.26-.23.58-.41.97-.55.39-.14.84-.2,1.34-.2.57,0,1.08.09,1.55.28.47.19.85.43,1.16.74l-.45.71Z" style="fill:#665a6a; stroke-width:0px;"/><path d="M523.72,510c-.06.07-.12.13-.17.18-.06.04-.14.06-.25.06-.1,0-.2-.03-.3-.09s-.21-.13-.34-.21c-.13-.08-.29-.15-.48-.21s-.41-.09-.69-.09c-.35,0-.65.06-.91.19s-.48.31-.65.54-.3.52-.39.85c-.09.33-.13.71-.13,1.13s.05.83.14,1.17.23.63.41.86c.18.23.39.41.64.53.25.12.53.18.85.18s.57-.04.77-.12c.19-.08.36-.16.49-.26s.25-.18.35-.26c.1-.08.21-.12.33-.12.16,0,.28.06.36.18l.57.72c-.22.26-.46.47-.71.65-.26.17-.52.31-.8.42-.28.1-.56.18-.85.22-.29.04-.58.06-.87.06-.51,0-.99-.09-1.44-.28s-.84-.47-1.18-.83-.6-.81-.8-1.34c-.2-.53-.29-1.13-.29-1.8,0-.6.09-1.16.26-1.68s.43-.96.77-1.34c.34-.38.75-.67,1.25-.89s1.07-.32,1.72-.32,1.15.1,1.62.3c.46.2.88.48,1.25.85l-.52.72Z" style="fill:#665a6a; stroke-width:0px;"/><path d="M532.65,508.26v8.23h-1.21c-.26,0-.43-.12-.5-.36l-.14-.66c-.34.34-.71.62-1.11.83-.41.21-.88.32-1.44.32-.45,0-.85-.08-1.19-.23s-.63-.37-.87-.65c-.24-.28-.41-.61-.53-.99-.12-.38-.18-.8-.18-1.26v-5.23h1.98v5.23c0,.5.12.89.35,1.17.23.28.58.41,1.05.41.34,0,.66-.08.96-.23s.58-.36.85-.63v-5.95h1.98Z" style="fill:#665a6a; stroke-width:0px;"/><path d="M539.62,509.87c-.05.09-.11.15-.17.18s-.13.05-.22.05c-.1,0-.2-.03-.31-.08-.11-.05-.24-.11-.38-.18-.14-.07-.31-.13-.49-.18-.18-.05-.4-.08-.65-.08-.39,0-.7.08-.92.25s-.33.38-.33.65c0,.18.06.32.17.44.11.12.27.23.46.32.19.09.41.17.65.24.24.07.48.15.73.24.25.09.49.18.73.29s.46.25.65.42.34.37.46.61.17.52.17.85c0,.4-.07.76-.21,1.09-.14.33-.35.62-.63.87-.28.24-.62.43-1.03.57s-.88.2-1.42.2c-.28,0-.56-.03-.83-.08-.27-.05-.53-.12-.78-.21-.25-.09-.48-.2-.69-.32-.21-.12-.4-.26-.56-.4l.46-.75c.06-.09.13-.16.21-.21s.18-.07.3-.07.24.04.35.1c.11.07.24.14.38.22.14.08.31.16.51.22.2.07.44.1.74.1.23,0,.44-.03.6-.08.17-.06.31-.13.42-.22.11-.09.19-.2.24-.32s.08-.24.08-.37c0-.19-.06-.35-.17-.47-.12-.12-.27-.23-.46-.32-.19-.09-.41-.17-.65-.25-.24-.07-.49-.15-.75-.24-.25-.09-.5-.19-.75-.3-.24-.12-.46-.26-.65-.44-.19-.18-.34-.39-.46-.65s-.17-.57-.17-.93c0-.34.07-.66.2-.96.13-.3.33-.57.59-.8.26-.23.58-.41.97-.55.39-.14.84-.2,1.34-.2.57,0,1.08.09,1.55.28.47.19.85.43,1.16.74l-.45.71Z" style="fill:#665a6a; stroke-width:0px;"/><path d="M546.67,509.87c-.05.09-.11.15-.17.18s-.13.05-.22.05c-.1,0-.2-.03-.31-.08-.11-.05-.24-.11-.38-.18-.14-.07-.31-.13-.49-.18-.18-.05-.4-.08-.65-.08-.39,0-.7.08-.92.25s-.33.38-.33.65c0,.18.06.32.17.44.11.12.27.23.46.32.19.09.41.17.65.24.24.07.48.15.73.24.25.09.49.18.73.29s.46.25.65.42.34.37.46.61.17.52.17.85c0,.4-.07.76-.21,1.09-.14.33-.35.62-.63.87-.28.24-.62.43-1.03.57s-.88.2-1.42.2c-.28,0-.56-.03-.83-.08-.27-.05-.53-.12-.78-.21-.25-.09-.48-.2-.69-.32-.21-.12-.4-.26-.56-.4l.46-.75c.06-.09.13-.16.21-.21s.18-.07.3-.07.24.04.35.1c.11.07.24.14.38.22.14.08.31.16.51.22.2.07.44.1.74.1.23,0,.44-.03.6-.08.17-.06.31-.13.42-.22.11-.09.19-.2.24-.32s.08-.24.08-.37c0-.19-.06-.35-.17-.47-.12-.12-.27-.23-.46-.32-.19-.09-.41-.17-.65-.25-.24-.07-.49-.15-.75-.24-.25-.09-.5-.19-.75-.3-.24-.12-.46-.26-.65-.44-.19-.18-.34-.39-.46-.65s-.17-.57-.17-.93c0-.34.07-.66.2-.96.13-.3.33-.57.59-.8.26-.23.58-.41.97-.55.39-.14.84-.2,1.34-.2.57,0,1.08.09,1.55.28.47.19.85.43,1.16.74l-.45.71Z" style="fill:#665a6a; stroke-width:0px;"/><path d="M548.51,509.41c.95-.87,2.08-1.3,3.42-1.3.48,0,.91.08,1.29.24.38.16.7.38.96.66s.46.62.6,1.01c.14.39.2.82.2,1.28v5.2h-.9c-.19,0-.33-.03-.43-.08-.1-.06-.18-.17-.24-.34l-.18-.59c-.21.19-.41.35-.61.49-.2.14-.4.26-.62.36s-.44.17-.69.22c-.24.05-.51.08-.81.08-.35,0-.67-.05-.96-.14-.29-.09-.55-.23-.76-.42s-.38-.42-.5-.7c-.12-.28-.18-.6-.18-.97,0-.21.03-.42.1-.62.07-.21.18-.4.34-.59.16-.19.36-.36.61-.53s.56-.31.93-.43c.37-.12.79-.22,1.28-.3.49-.08,1.04-.12,1.67-.14v-.48c0-.55-.12-.96-.35-1.22-.24-.26-.57-.4-1.02-.4-.32,0-.59.04-.8.11-.21.07-.4.16-.56.25-.16.09-.31.18-.44.25-.13.08-.28.11-.44.11-.14,0-.26-.04-.35-.11s-.17-.16-.23-.25l-.35-.63ZM552.6,505.59c.16,0,.29-.04.38-.13.09-.09.14-.25.14-.48h1.2c0,.3-.04.57-.12.81s-.2.45-.34.63c-.14.17-.32.31-.52.4s-.42.14-.66.14c-.19,0-.37-.03-.54-.1-.17-.07-.32-.14-.46-.22-.14-.08-.28-.15-.41-.22-.13-.07-.24-.1-.35-.1-.16,0-.28.05-.37.14-.09.09-.13.25-.13.48h-1.23c0-.3.04-.57.12-.81.08-.24.2-.45.35-.63.15-.17.32-.31.53-.41.2-.1.42-.14.65-.14.19,0,.37.03.54.1s.32.14.47.22.28.15.4.22c.12.07.24.1.34.1ZM553.04,512.98c-.57.03-1.05.08-1.44.15s-.7.16-.94.28c-.24.11-.4.24-.51.39-.1.15-.15.31-.15.49,0,.35.1.6.31.75.21.15.47.22.81.22.41,0,.76-.07,1.05-.22.3-.15.59-.37.87-.67v-1.39Z" style="fill:#665a6a; stroke-width:0px;"/><path d="M560.48,508.13c.61,0,1.16.1,1.66.3.5.2.93.48,1.28.84s.63.81.82,1.33c.19.52.29,1.11.29,1.76s-.1,1.24-.29,1.76c-.19.52-.47.97-.82,1.34s-.78.65-1.28.85c-.5.2-1.05.3-1.66.3s-1.17-.1-1.68-.3c-.5-.2-.93-.48-1.29-.85s-.63-.82-.83-1.34c-.2-.52-.29-1.11-.29-1.76s.1-1.23.29-1.76c.19-.52.47-.97.83-1.33s.78-.64,1.29-.84c.5-.2,1.06-.3,1.68-.3ZM560.48,515.09c.68,0,1.19-.23,1.52-.69s.49-1.13.49-2.02-.16-1.56-.49-2.03c-.33-.46-.84-.7-1.52-.7s-1.21.23-1.54.7-.5,1.14-.5,2.02.17,1.55.5,2.02.85.69,1.54.69Z" style="fill:#665a6a; stroke-width:0px;"/><path d="M502.29,531.67c0,.65-.1,1.24-.31,1.77-.21.53-.5.99-.88,1.37-.38.38-.83.67-1.36.88-.53.21-1.11.31-1.75.31h-3.26v-8.66h3.26c.64,0,1.23.1,1.75.31.53.21.98.5,1.36.88s.67.84.88,1.37c.21.53.31,1.12.31,1.76ZM500.98,531.67c0-.52-.07-.98-.21-1.38-.14-.41-.34-.75-.6-1.04s-.57-.5-.94-.65c-.37-.15-.78-.22-1.23-.22h-1.97v6.58h1.97c.45,0,.87-.07,1.23-.22.37-.15.68-.37.94-.65s.46-.63.6-1.03c.14-.41.21-.87.21-1.39Z" style="fill:#665a6a; stroke-width:0px;"/><path d="M510.16,536h-1.15c-.23,0-.4-.09-.5-.27l-2.14-3c-.07-.1-.14-.17-.22-.21s-.2-.06-.36-.06h-.84v3.55h-1.28v-8.66h2.5c.56,0,1.04.06,1.44.17.4.11.74.28,1,.49.26.21.46.47.58.76s.19.63.19,1c0,.3-.05.58-.14.85-.09.27-.23.5-.41.71-.18.21-.4.39-.65.55-.26.15-.55.27-.87.35.16.1.3.23.42.4l2.44,3.37ZM506.12,531.51c.33,0,.62-.04.87-.12s.46-.19.63-.34c.17-.15.29-.32.38-.52s.13-.43.13-.67c0-.5-.16-.87-.49-1.13-.33-.25-.82-.38-1.47-.38h-1.21v3.17h1.17Z" style="fill:#665a6a; stroke-width:0px;"/><path d="M518.17,536h-.99c-.11,0-.2-.03-.28-.08-.07-.06-.12-.13-.16-.22l-.77-2.01h-3.82l-.77,2.01c-.03.08-.08.15-.16.21s-.17.09-.28.09h-.99l3.45-8.66h1.3l3.45,8.66ZM515.63,532.77l-1.28-3.36c-.09-.23-.18-.52-.28-.87-.04.17-.09.33-.14.48-.05.15-.09.28-.14.4l-1.28,3.35h3.11Z" style="fill:#665a6a; stroke-width:0px;"/><path d="M518.57,535.29c0-.11.02-.21.06-.31.04-.1.1-.18.17-.25.07-.07.15-.13.25-.17.1-.04.2-.06.31-.06s.21.02.31.06c.1.04.18.1.25.17.07.07.13.16.17.25.04.1.06.2.06.31s-.02.22-.06.31c-.04.1-.1.18-.17.25-.07.07-.16.13-.25.17-.1.04-.2.06-.31.06s-.22-.02-.31-.06c-.1-.04-.18-.1-.25-.17-.07-.07-.13-.16-.17-.25-.04-.1-.06-.2-.06-.31Z" style="fill:#665a6a; stroke-width:0px;"/><path d="M529.79,534.96v1.04h-5.37v-8.66h5.37v1.04h-4.08v2.74h3.28v1.01h-3.28v2.82h4.08Z" style="fill:#665a6a; stroke-width:0px;"/><path d="M534.51,534.97c.35,0,.66-.06.93-.17s.5-.28.69-.49.33-.46.43-.75.15-.61.15-.97v-5.24h1.28v5.24c0,.51-.08.97-.24,1.4s-.39.8-.69,1.11c-.3.31-.67.56-1.1.74-.43.18-.91.27-1.45.27s-1.02-.09-1.45-.27c-.43-.18-.8-.42-1.1-.74-.3-.31-.53-.69-.69-1.11-.16-.43-.24-.9-.24-1.4v-5.24h1.28v5.23c0,.35.05.68.15.97.1.29.24.55.43.76.19.21.42.37.69.49s.58.17.93.17Z" style="fill:#665a6a; stroke-width:0px;"/><path d="M546.85,531.78v3.38c-.44.31-.9.55-1.4.7s-1.03.23-1.62.23c-.7,0-1.33-.11-1.9-.33-.56-.22-1.05-.52-1.44-.91-.4-.39-.7-.86-.92-1.4-.21-.54-.32-1.14-.32-1.79s.1-1.26.31-1.8c.21-.55.5-1.01.89-1.4.39-.39.85-.69,1.4-.9.55-.21,1.16-.32,1.85-.32.35,0,.67.03.96.08s.57.13.82.22c.25.1.49.21.7.35.22.14.42.29.6.46l-.37.58c-.06.09-.13.15-.22.17-.09.02-.19,0-.3-.07-.1-.06-.22-.13-.35-.21s-.28-.15-.45-.22c-.17-.07-.38-.13-.61-.18-.23-.05-.51-.07-.83-.07-.47,0-.9.08-1.28.23-.38.15-.71.38-.98.67-.27.29-.48.64-.62,1.05-.14.41-.22.86-.22,1.37s.08,1.01.23,1.43.37.78.65,1.07c.28.29.62.51,1.02.67.4.15.85.23,1.34.23.19,0,.37-.01.54-.03.17-.02.33-.05.48-.09.15-.04.3-.09.44-.15.14-.06.28-.13.43-.2v-1.81h-1.28c-.08,0-.14-.02-.2-.07s-.08-.11-.08-.18v-.73h2.71Z" style="fill:#665a6a; stroke-width:0px;"/><path d="M553.71,534.96v1.04h-5.37v-8.66h5.37v1.04h-4.08v2.74h3.28v1.01h-3.28v2.82h4.08ZM553.45,524.82l-1.97,1.72c-.07.06-.13.09-.19.11-.06.02-.13.02-.22.02h-.85l1.36-1.65s.07-.09.11-.11c.03-.03.07-.05.11-.06.04-.01.09-.02.14-.03s.11,0,.18,0h1.33Z" style="fill:#665a6a; stroke-width:0px;"/><path d="M562.15,527.34v8.66h-.65c-.1,0-.18-.02-.25-.05-.07-.04-.13-.09-.2-.17l-4.89-6.32c0,.11.01.21.02.32,0,.11,0,.2,0,.3v5.94h-1.13v-8.66h.66c.11,0,.2.01.25.04.06.03.12.09.19.18l4.9,6.33c-.01-.12-.02-.23-.03-.34,0-.11,0-.21,0-.31v-5.9h1.12Z" style="fill:#665a6a; stroke-width:0px;"/><path d="M565.34,536h-1.29v-8.66h1.29v8.66Z" style="fill:#665a6a; stroke-width:0px;"/><path d="M574.37,536h-.99c-.11,0-.2-.03-.28-.08-.07-.06-.12-.13-.16-.22l-.77-2.01h-3.82l-.77,2.01c-.03.08-.08.15-.16.21s-.17.09-.28.09h-.99l3.45-8.66h1.3l3.45,8.66ZM571.83,532.77l-1.28-3.36c-.09-.23-.18-.52-.28-.87-.04.17-.09.33-.14.48-.05.15-.09.28-.14.4l-1.28,3.35h3.11Z" style="fill:#665a6a; stroke-width:0px;"/><path d="M496.03,541.11v2.9h3.47v1.04h-3.47v3.67h-1.29v-8.66h5.37v1.04h-4.08Z" style="fill:#665a6a; stroke-width:0px;"/><path d="M506.69,547.68v1.04h-5.37v-8.66h5.37v1.04h-4.08v2.74h3.28v1.01h-3.28v2.82h4.08Z" style="fill:#665a6a; stroke-width:0px;"/><path d="M514.53,548.72h-1.15c-.23,0-.4-.09-.5-.27l-2.14-3c-.07-.1-.14-.17-.22-.21s-.2-.06-.36-.06h-.84v3.55h-1.28v-8.66h2.5c.56,0,1.04.06,1.44.17.4.11.74.28,1,.49.26.21.46.47.58.76s.19.63.19,1c0,.3-.05.58-.14.85-.09.27-.23.5-.41.71-.18.21-.4.39-.65.55-.26.15-.55.27-.87.35.16.1.3.23.42.4l2.44,3.37ZM510.49,544.24c.33,0,.62-.04.87-.12s.46-.19.63-.34c.17-.15.29-.32.38-.52s.13-.43.13-.67c0-.5-.16-.87-.49-1.13-.33-.25-.82-.38-1.47-.38h-1.21v3.17h1.17Z" style="fill:#665a6a; stroke-width:0px;"/><path d="M522.49,540.06v8.66h-.65c-.1,0-.18-.02-.25-.05-.07-.04-.13-.09-.2-.17l-4.89-6.32c0,.11.01.21.02.32,0,.11,0,.2,0,.3v5.94h-1.13v-8.66h.66c.11,0,.2.01.25.04.06.03.12.09.19.18l4.9,6.33c-.01-.12-.02-.23-.03-.34,0-.11,0-.21,0-.31v-5.9h1.12Z" style="fill:#665a6a; stroke-width:0px;"/><path d="M531.52,548.72h-.99c-.11,0-.2-.03-.28-.08-.07-.06-.12-.13-.16-.22l-.77-2.01h-3.82l-.77,2.01c-.03.08-.08.15-.16.21s-.17.09-.28.09h-.99l3.45-8.66h1.3l3.45,8.66ZM528.98,545.5l-1.28-3.36c-.09-.23-.18-.52-.28-.87-.04.17-.09.33-.14.48-.05.15-.09.28-.14.4l-1.28,3.35h3.11Z" style="fill:#665a6a; stroke-width:0px;"/><path d="M539.45,540.06v8.66h-.65c-.1,0-.18-.02-.25-.05-.07-.04-.13-.09-.2-.17l-4.89-6.32c0,.11.01.21.02.32,0,.11,0,.2,0,.3v5.94h-1.13v-8.66h.66c.11,0,.2.01.25.04.06.03.12.09.19.18l4.9,6.33c-.01-.12-.02-.23-.03-.34,0-.11,0-.21,0-.31v-5.9h1.12Z" style="fill:#665a6a; stroke-width:0px;"/><path d="M548.91,544.39c0,.65-.1,1.24-.31,1.77-.21.53-.5.99-.88,1.37-.38.38-.83.67-1.36.88-.53.21-1.11.31-1.75.31h-3.26v-8.66h3.26c.64,0,1.23.1,1.75.31.53.21.98.5,1.36.88s.67.84.88,1.37c.21.53.31,1.12.31,1.76ZM547.59,544.39c0-.52-.07-.98-.21-1.38-.14-.41-.34-.75-.6-1.04s-.57-.5-.94-.65c-.37-.15-.78-.22-1.23-.22h-1.97v6.58h1.97c.45,0,.87-.07,1.23-.22.37-.15.68-.37.94-.65s.46-.63.6-1.03c.14-.41.21-.87.21-1.39Z" style="fill:#665a6a; stroke-width:0px;"/><path d="M555.65,547.68v1.04h-5.37v-8.66h5.37v1.04h-4.08v2.74h3.28v1.01h-3.28v2.82h4.08Z" style="fill:#665a6a; stroke-width:0px;"/><path d="M561.48,541.47c-.04.07-.08.12-.13.15-.04.03-.1.05-.17.05s-.15-.03-.25-.1c-.09-.07-.21-.14-.35-.22-.14-.08-.3-.16-.5-.22s-.42-.1-.69-.1c-.25,0-.47.03-.67.1-.19.07-.35.16-.48.27-.13.12-.23.25-.29.4s-.1.32-.1.5c0,.23.06.43.18.58.12.15.27.28.47.39s.41.2.66.28.5.16.75.25c.26.09.51.19.75.3.25.11.46.25.66.43.19.17.35.38.47.63.12.25.18.55.18.91,0,.38-.07.74-.2,1.07s-.32.63-.57.87c-.25.25-.56.45-.92.59s-.78.21-1.24.21c-.28,0-.55-.03-.81-.08-.26-.05-.51-.13-.74-.23-.23-.1-.45-.22-.65-.36-.2-.14-.39-.29-.55-.47l.37-.61s.08-.09.13-.12c.05-.03.11-.05.17-.05.08,0,.18.04.29.13s.25.19.41.29.36.2.58.29.5.13.83.13c.27,0,.5-.03.71-.11s.39-.17.53-.3c.14-.13.25-.29.33-.47.08-.18.11-.39.11-.61,0-.25-.06-.46-.17-.62-.12-.16-.27-.3-.46-.4s-.41-.2-.66-.28c-.25-.08-.5-.16-.75-.24-.26-.08-.51-.18-.75-.29s-.46-.25-.66-.42-.35-.39-.46-.66-.17-.59-.17-.97c0-.31.06-.61.18-.9.12-.29.3-.55.53-.77.23-.22.52-.4.85-.54.34-.14.72-.2,1.16-.2.49,0,.93.08,1.34.23.41.15.76.38,1.06.67l-.31.61Z" style="fill:#665a6a; stroke-width:0px;"/></g></g></svg>