<?xml version="1.0" encoding="UTF-8"?>
<svg xmlns="http://www.w3.org/2000/svg" xmlns:xlink="http://www.w3.org/1999/xlink" version="1.1" viewBox="0 0 841.9 595.3">
  <defs>
    <style>
      .cls-1 {
        fill: none;
      }

      .cls-2 {
        fill: #b46996;
      }

      .cls-3 {
        fill: #665a6a;
      }

      .cls-4 {
        opacity: 0;
      }

      .cls-4, .cls-5 {
        fill: #ed6b72;
      }

      .cls-6 {
        fill: #f5cdcd;
      }

      .cls-7 {
        fill: #f5cdcd;
      }

      .cls-8 {
        mix-blend-mode: multiply;
        opacity: .7;
      }

      .cls-9 {
        fill: #a1275b;
      }

      .cls-10 {
        fill: #a1275b;
      }

      .cls-11 {
        isolation: isolate;
      }

      .cls-12 {
        fill: #d6edff;
      }

      .cls-13 {
        fill: #fff;
      }

      .cls-14 {
        fill: #ca96b5;
      }

      .cls-15 {
        fill: #f7eee3;
      }

      .cls-16 {
        clip-path: url(#clippath);
      }
    </style>
    <clipPath id="clippath">
      <rect class="cls-1" x="-37.3" width="1058.3" height="595.3"/>
    </clipPath>
  </defs>
  <!-- Generator: Adobe Illustrator 28.7.1, SVG Export Plug-In . SVG Version: 1.2.0 Build 142)  -->
  <g class="cls-11">
    <g id="Layer_1">
      <rect class="cls-15" x="-37.3" width="1058.3" height="595.3"/>
      <g class="cls-16">
        <g>
          <path class="cls-7" d="M444.9,526.2c-.8,1.3-1.8,2.5-3,3.7-7,6.9-17.9,10.7-27.3,12.3-4.3.8-8.5,1.1-12.9,1.2-7.3.2-14.7.6-21.6-2.1-4.2-2-8.2-4.2-12.2-6.7-3.7-2.1-7.2-4.4-10.7-6.8-7.4-5.2-15.3-11.3-20.7-18.7-4-5.5-6.8-11.9-9.2-18.1-.7-1.8-1.3-3.8-1.5-5.8,0-1.1.1-2.2-.1-3.3-.2-.8-.6-1.5-.9-2.2-2.1-3.8-4.1-7.6-5.9-11.6-3.7-8.4-6.5-17.2-8.4-26.2-3.2-15-2.7-32.2,3.2-46.5,6.2-15,19.5-23.8,34.9-27.7,2.7-.7,5.5-1.1,8.3-.9,5.8.3,11,.9,16.9.3,12.6-1.2,25.4,3.2,35.9,9.9,2.2,1.4,3.4,2.7,5.9,3.4,5.2,1.4,10.1,4.2,15.5,5.1,1.8.2,3.5.5,5.3.8,2.8,0,5.5,0,8.3,0,4.3.6,7.8,2.7,11.2,5.4,7.9,6.2,16.5,12.2,21.4,21.1,3.5,6.4,4.9,13.4,5.8,20.6.6,5,1.6,10.5,1.8,15.6.2,3.8.3,7.7-1.8,11.1-1.7,2.8-4,5.3-6.5,7.4-3.4,2.9-8.3,6.4-10.3,10.5-1,2-1.6,3.8-3,5.6-1.4,1.7-2.9,3.3-4,5.2-1,1.7-2,3.4-3,5-.9,1.4-1.3,3.1-1.9,4.6-1.9,4.5-1,9.6-3.1,14-2.2,4.7-3.6,9.6-6.4,13.9h0Z"/>
          <path class="cls-7" d="M100.2,369.2c9.6-20.6,12.2-43.8,9.2-66.2-3.6-26.8-19-49.9-22.4-76.6-2.5-19.1-4.2-39.3,9.8-54.5,15.1-16.4,38.6-20.4,52.6-38.7C195.9,72.6,89.6,6.1,44.2-9.2,25.9-15.4,7.2-16.4-10.7-24.8c-14.5-6.8-29.5-14.4-45.1-18.4-13.4-3.4-26.2-2.3-38.3,1.7-3.8,2.5-8,4.3-12.1,5.3l-307.4,439.9c.3,8.8,2.6,17.2,7.8,24.8,23.4,34.8,59,69.8,90.5,97.5,37,32.5,104.8,67.4,146.6,23.4,11-11.6,18.4-26.3,23.6-41.4,5.4-15.3,8.8-31.5,16.3-46,10.7-20.7,28.7-31.9,51.9-33.4,10.7-.7,21-.1,31.2.8,24.2,2.1,47.7,6,73-1,31.6-8.7,58.8-29.1,72.7-59.2Z"/>
          <path class="cls-7" d="M656.3,391c-9.5,20.6-12.2,43.8-9.2,66.2,3.6,26.8,19,50,22.4,76.6,2.5,19.1,4.2,39.3-9.8,54.5-15.1,16.4-38.6,20.4-52.6,38.7-46.5,60.7,59.8,127.2,105.2,142.5,18.3,6.2,37.1,7.2,55,15.6,14.5,6.8,29.5,14.4,45.1,18.4,13.4,3.4,26.2,2.3,38.3-1.7,3.8-2.5,8-4.3,12.1-5.3l307.5-439.9c-.3-8.8-2.6-17.2-7.8-24.8-23.4-34.8-59-69.8-90.5-97.5-37-32.5-104.8-67.4-146.7-23.4-11,11.6-18.4,26.3-23.7,41.4-5.4,15.3-8.8,31.5-16.3,46-10.7,20.7-28.7,31.9-51.9,33.4-10.7.7-21,.1-31.2-.8-24.2-2.1-47.7-6-73,1-31.6,8.7-58.8,29.1-72.8,59.2h0Z"/>
          <path class="cls-4" d="M345.6,113.7c12.7-6,26.2-9.8,40.1-11.7,30.4-4.3,90.2-8.2,105.2,25,14.4,31.9,28.6,65.3,30.7,100.7,3.1,51.2-25.5,81.1-53.7,119.1-30.3,41-27.8,93.6-80.1,117.4-13.7,6.2-28.5,6.7-43.2,8.6-16.2,2.1-31.6,7.8-47.9,8.9-34.1,2.3-59.7-22.3-64.9-55.3-6.8-42.9,23.7-71.4,52.8-97.5,14.5-13,29.1-27,37.2-45.1,5.6-12.4,7.8-26.5,4.5-39.6-2.8-11.2-9.4-21.1-12.4-32.2-4.6-17.5-4.5-40.3-.7-57.8,4-18.5,15.5-32.3,32.5-40.3h0Z"/>
          <path class="cls-5" d="M575.5,540.7c-2.5-4.6-5.8-8.8-10.1-11.8-4.5-3.2-9.7-5-15.2-5.6-12.6-1.3-24.7,3.2-36.9,5.4-11.5,2.1-24,1.4-35.1-2-5.6-1.7-10.8-4.1-15.5-7.3-5.8-4-11-8.6-16.4-13.2-5-4.3-10.1-8.6-15.8-12-9.5-5.6-20-8.2-31-9.2-5.6-.5-11.3-.7-16.9-.8-4.5-.1-8.9.4-13.2,1.6-8.3,2.3-16.1,6.9-22.4,12.8-6.4,5.9-11.8,13.2-14.6,21.5-2.8,8-3.2,16.8,0,24.8,3.6,9.2,11.2,16.3,20,20.5,9.3,4.4,19.6,5.8,29.1,9.5,1.2.5,2.3,1,3.4,1.5.5.3,1.1.5,1.6.8.3.2.6.3.8.5.2.1.4.2.6.3,2.2,1.3,4.2,2.8,6.1,4.5,2,1.8,4.3,4.4,6.2,6.6,2,2.3,3.9,4.6,5.7,6.9,3.7,4.5,7.5,9,12,12.9,4.9,4.2,10.5,7.3,16.4,9.9,12.1,5.3,25.3,8.8,38.6,8.8,7.2,0,14.2-1.3,21.2-3.1,8.6-2.2,17.1-5,25.4-8.3,8.8-3.5,17.3-7.7,25.5-12.5,7.4-4.4,14.6-9.4,20.8-15.5,5.3-5.2,10.2-11.4,12.5-18.6,3-9.4,1.8-20.3-2.8-29h0ZM387.4,577.7h0c0,0-.2-.1,0,0ZM574,555.8c.2,2.6.2,4.2,0,6.8-.1,1.2-.3,2.3-.6,3.5,0,.2,0,.3-.1.5,0,0,0,0,0,0-.1.4-.2.8-.3,1.2-.5,1.5-1.1,3-1.8,4.4-.2.4-.4.7-.6,1.1h0s0,0,0,0c-.1.2-.3.4-.4.7-.5.8-.9,1.5-1.4,2.2-1,1.5-2.1,2.9-3.3,4.2-.6.7-1.2,1.4-1.9,2.1-.2.2-.3.3-.4.5.4-.4,0,0-.2.2-.4.4-.7.7-1.1,1.1-2.9,2.8-6.1,5.5-9.4,7.9-1.7,1.3-3.5,2.5-5.3,3.7-.9.6-1.9,1.2-2.8,1.8-.5.3-.9.6-1.4.8-.2.1-.4.3-.7.4,0,0-.3.2-.4.2-3.9,2.3-7.9,4.4-12,6.4-8.1,3.9-16.5,7.3-25,10.2-2,.7-4,1.3-6.1,1.9-.5.1-1,.3-1.4.4l-.7.2h0c-.1,0-.3,0-.4,0-.9.2-1.9.5-2.8.7-3.5.9-7.1,1.6-10.7,2.2-9.5,1.5-18.8.8-28.1-1.4-6.1-1.4-12.1-3.5-17.9-6-5.6-2.4-10.8-5.3-15.4-9.3-2.1-1.8-3.8-3.5-5.7-5.7-1.9-2.1-3.6-4.2-5.4-6.4-3.9-4.7-7.7-9.4-12.1-13.7-7.5-7.3-17.5-10.3-27.3-13-4.8-1.3-9.6-2.7-14.2-4.6-1.1-.5-2.3-1-3.4-1.6-.2-.1-.5-.2-.7-.4-.1,0-.5-.2-.5-.3,0,0-.5-.3-.6-.4-.3-.2-.5-.3-.8-.5-1-.7-2.1-1.4-3-2.2-.5-.4-.9-.8-1.4-1.2-.2-.2-.4-.4-.6-.5-.1-.1-.3-.2-.4-.4,0,0,0,0,0,0-1.6-1.5-3-3.2-4.3-5-.3-.4-.6-.8-.9-1.3,0,0-.2-.4-.3-.5,0-.2-.2-.3-.3-.5-.5-.9-.9-1.8-1.3-2.8-.4-.9-.7-1.9-1-2.8,0-.2-.1-.4-.2-.5,0,0,0-.1,0-.2-.1-.5-.2-1-.3-1.5-.2-1-.3-1.9-.4-2.9,0-.5,0-.9-.1-1.4,0-.2,0-.4,0-.6,0,0,0-.5,0-.6v-.4c0-.2,0-.5,0-.8,0-.5,0-1,.1-1.5,0-.9.2-1.9.4-2.8,0-.5.2-.9.3-1.4,0-.2.1-.5.2-.8,0,0,0-.3.1-.5,0-.1,0-.3.1-.4,0-.2.1-.5.2-.7.1-.5.3-1,.5-1.5.6-1.9,1.4-3.7,2.3-5.5.2-.4.5-.9.7-1.3,0,0,0,0,0,0,0,0,0,0,0,0,.1-.3.3-.5.5-.8.5-.9,1.1-1.8,1.7-2.6,1.2-1.7,2.4-3.3,3.8-4.9.3-.4.7-.8,1-1.1.2-.2.3-.4.5-.5,0,0,.4-.4.5-.5.1-.1.3-.3.3-.3.2-.2.4-.4.6-.6.4-.4.8-.8,1.2-1.1,1.5-1.4,3.2-2.7,4.9-4,.9-.6,1.7-1.2,2.6-1.8.4-.3.9-.5,1.3-.8,0,0,.3-.2.4-.2.2,0,.5-.3.6-.3,1.8-1,3.6-1.9,5.5-2.7,1-.4,1.9-.8,2.9-1.1.5-.2.9-.3,1.4-.5.2,0,.4-.1.7-.2.1,0,.2,0,.3,0,0,0,0,0,0,0,1.9-.5,3.9-.9,5.9-1.1,1-.1,2-.2,3-.2.2,0,.5,0,.7,0h.3c.6,0,1.2,0,1.9,0,5.5.2,10.9.3,16.4.9,2.6.2,5.2.6,7.7,1,1.3.2,2.5.5,3.8.7.5.1,1.1.3,1.7.4.1,0,.3,0,.4.1,0,0,0,0,.1,0,.3,0,.6.2,1,.3,2.5.7,5,1.6,7.3,2.6,2.5,1.1,4.7,2.2,6.8,3.5,5.5,3.4,10.5,7.7,15.4,11.9,5.1,4.4,10.1,8.8,15.6,12.5,10.1,6.8,22.1,10.3,34.2,11.3,6,.5,12.2.4,18.1-.5,6-.9,11.9-2.5,17.8-3.8,5.7-1.3,11.8-2.4,17.4-2.2,1.5,0,3,.2,4.5.4.6,0,1.2.2,1.8.3.1,0,.6.1.7.2,0,0,.2,0,.2,0,.2,0,.4,0,.5.2,1.2.4,2.3.8,3.5,1.3.5.2,1,.5,1.6.8,0,0,.1,0,.2,0,0,0,0,0,.2,0,.3.2.6.4.9.6,1,.7,2,1.4,2.9,2.2.4.3.8.7,1.2,1.1h0c0,.1.2.2.3.3.2.2.4.5.6.7.8.9,1.6,1.8,2.3,2.8.3.5.7,1,1,1.4.2.2.3.5.4.7h0c0,.2.2.3.3.5,1.2,2.1,2.1,4.3,2.8,6.6,0,.3.2.6.3.9,0,.1,0,.2,0,.3.2.6.3,1.2.4,1.9.2,1.2.4,2.4.5,3.7h0Z"/>
          <g class="cls-8">
            <path class="cls-5" d="M703.1,41.7c0,.2,0,.5-.1.7-1,4.2-3,7.5-4.7,10.5-2.9,4.8-5.2,8.7-3.3,15.2,1.9,6.7,1.5,12.8-1.2,17.1-2.2,3.6-5.9,5.8-10.8,6.6-12.7,2.1-25.4-7.2-36.5-15.4-4.8-3.6-9.4-6.9-13.6-9.1-16.7-8.6-32.8-.3-48.4,7.7-3.7,1.9-7.6,3.9-11.4,5.6-16.8,7.6-40.2,4.6-52.2-6.7-6-5.6-11.8-15.7-5.6-31.8h0c6.7-16.2,34.5-22.3,46.1-24.1,5.9-1,12.2-1.9,18.4-1.6.5,0,1.1,0,1.6.1,1.2.1,2.3.2,3.4,0,.5,0,1-.2,1.6-.4.8-.2,1.8-.5,2.8-.6.8,0,1.6,0,2.3,0,.6,0,1.2,0,1.8,0,.3,0,.7-.1,1.1-.2.7-.2,1.5-.4,2.5-.4,1.7,0,3.3,0,4.8.1,2.2.1,4.3.2,6.4,0,.9,0,1.7-.2,2.6-.3,1.8-.2,3.7-.4,5.6-.4,2,0,4,0,5.9.1,4.2.2,8.1.4,12.2-.8,1.9-.5,3.7-1.3,5.6-2.1h.3c3.3-1.6,6.5-2,9.9-2.5h.6c6.8-1,13.2-1.8,20.1-.8,9.3,1.4,18.9,8.1,24.3,13.4,4.8,4.7,9.2,13.2,8,20h0ZM689.8,60.7c.7-3.9,2.5-7,4.4-10.1,1.7-2.8,3.4-5.7,4.2-9.2,1.1-5-2.5-12.3-6.6-16.3-5.3-5.2-14.1-11-21.8-12.2-6.3-1-12.4-.2-18.8.7h-.6c-3.2.5-5.9.9-8.6,2.1h-.3c-2,1-4,1.9-6.2,2.5-4.8,1.3-9.3,1.1-13.6.9-1.8,0-3.8-.2-5.7-.1-1.7,0-3.4.2-5.2.4-.9.1-1.8.2-2.7.3-2.4.2-4.8.1-7,0-1.6,0-3-.1-4.5-.1-.4,0-.9.1-1.5.3-.5.1-1,.2-1.5.3-1,.1-1.9,0-2.7,0-.6,0-1.1,0-1.6,0-.6,0-1.3.2-2,.5-.6.2-1.3.4-2,.5-1.6.3-3.1.2-4.5,0-.5,0-1,0-1.4-.1-5.8-.2-11.8.6-17.5,1.5h0c-22.6,3.6-38.5,11.5-42.5,21.2-4.1,10.8-2.6,20,4.5,26.7,10.5,9.9,32.1,12.6,47.1,5.8,3.7-1.7,7.3-3.5,11.2-5.5,16.6-8.5,33.8-17.4,52.6-7.7,4.5,2.3,9.2,5.8,14.2,9.5,10.4,7.7,22.2,16.4,33,14.6,3.5-.6,6.1-2.1,7.6-4.5,2-3.1,2.2-8,.7-13.4-1-3.3-1-6.2-.6-8.7h0Z"/>
          </g>
          <path class="cls-7" d="M678.4,128.3c5,24,7.2,49.5,12.8,71.5,10.3,40.3,9.8,92.4-56.4,106.3-59.3,12.5-78.9-1.1-106-35.7-8.8-11.2-16.8-21.3-29.8-30-18.1-12.1-41-19.1-57.3-33-32.5-27.6-37.8-74.9-4.5-110.8,20.5-22.1,86.6-58.3,121.3-60.3,30.9-1.8,92,27.3,103.8,47.3,7.8,13.2,12.5,28.6,15.9,44.7h0Z"/>
        </g>
      </g>
      <path class="cls-13" d="M464.1-34v164.9c0,1.7-1.3,3-3,3h-80.4c-1.7,0-3-1.3-3-3V-34h86.4Z"/>
      <path class="cls-9" d="M422.9,63.7l25.1-28.7c1.1-1.3.2-3.3-1.5-3.3h-50.8c-1.7,0-2.6,2-1.5,3.3l25.6,28.7c.8.9,2.2.9,3,0"/>
      <path class="cls-6" d="M421.1,64.4c.2,0,.5,0,.7,0v-11h-.7v11Z"/>
      <path class="cls-6" d="M421.8,20.2s-12.2,14.4-12.2,21.1,1,5.4,2.6,7.4c0,0,3.6,4.7,9.7,4.7V20.2Z"/>
      <path class="cls-2" d="M421.8,20.2s12.2,14.4,12.2,21.1-1,5.4-2.6,7.4c0,0-3.6,4.7-9.7,4.7V20.2Z"/>
      <path class="cls-9" d="M402.9,71.7c-1-.4-2.1-.5-3.2-.5-1.6,0-2.8.3-3.5.8s-1.1,1.3-1.1,2.2.3,1.6.9,2c.5.4,1.4.8,2.7.9l3,.4c2.1.3,3.6.9,4.7,1.9,1.1,1,1.6,2.2,1.6,3.9s-.2,1.7-.5,2.5c-.4.7-.9,1.4-1.6,1.9-.7.5-1.6,1-2.7,1.3-1.1.3-2.3.5-3.7.5s-3-.2-4.3-.5c-1.3-.3-2.5-.9-3.7-1.8l1.5-2.4c1.1.8,2.2,1.3,3.3,1.6,1.1.3,2.2.5,3.5.5,1.8,0,3.1-.3,3.9-.9.9-.6,1.3-1.4,1.3-2.5s-.3-1.5-.9-2c-.6-.5-1.5-.9-2.9-1.1l-3.2-.4c-1.9-.3-3.4-.8-4.4-1.7-1-.9-1.5-2.2-1.5-3.8s.2-1.8.5-2.5c.4-.7.9-1.3,1.6-1.8.7-.5,1.5-.8,2.4-1.1.9-.2,2-.4,3.1-.4s2.8.2,4.1.6c1.3.4,2.5,1,3.5,1.8l-1.6,2.2c-.8-.6-1.8-1.1-2.8-1.4"/>
      <path class="cls-9" d="M423.8,69.4c.9.4,1.8.8,2.4,1.4.7.6,1.2,1.3,1.6,2.2s.6,1.8.6,2.8-.2,2.1-.6,2.9c-.4.9-1,1.6-1.7,2.2-.7.6-1.6,1.1-2.6,1.4-1,.3-2,.5-3.1.5h-5.2v6.1h-3.1v-20.1h8.6c1.1,0,2.1.2,3.1.5M420.3,80.3c1.5,0,2.8-.4,3.7-1.2.9-.8,1.3-1.8,1.3-3.2s-.4-2.4-1.2-3.2c-.8-.8-2-1.1-3.5-1.1h-5.3v8.7h5.1Z"/>
      <path class="cls-9" d="M450.5,86.7c-1.1.9-2.3,1.6-3.7,2-1.4.5-2.9.7-4.5.7s-3.1-.2-4.4-.7-2.4-1.2-3.4-2.1c-.9-.9-1.6-2-2.2-3.3-.5-1.3-.8-2.7-.8-4.3s.2-2.8.8-4.1c.5-1.3,1.2-2.4,2.2-3.4.9-.9,2.1-1.7,3.5-2.2,1.3-.6,2.9-.8,4.6-.8s2.7.2,4,.6,2.4,1.1,3.4,1.9l-1.6,2.2c-.8-.7-1.7-1.2-2.7-1.5-1-.4-2.1-.5-3.2-.5s-2.2.2-3.2.5c-.9.4-1.8.9-2.4,1.6-.7.7-1.2,1.5-1.6,2.4-.4,1-.6,2-.6,3.2s.2,2.3.6,3.3.9,1.8,1.6,2.4c.7.7,1.5,1.2,2.5,1.5.9.3,2,.5,3.1.5,2.1,0,3.8-.5,5.1-1.4v-4.4l-4.5-.2v-2.5h7.4v8.4h0Z"/>
      <path class="cls-9" d="M395.3,94.8c-.3-.1-.6-.2-1-.2-.5,0-.9,0-1.1.2s-.3.4-.3.7,0,.5.3.6c.2.1.4.2.8.3h.9c.6.2,1.1.4,1.4.7.3.3.5.7.5,1.2s0,.5-.2.8c-.1.2-.3.4-.5.6-.2.2-.5.3-.8.4s-.7.2-1.1.2-.9,0-1.3-.2c-.4,0-.8-.3-1.1-.6l.4-.7c.3.2.7.4,1,.5.3,0,.7.2,1.1.2.5,0,.9,0,1.2-.3.3-.2.4-.4.4-.8s0-.5-.3-.6c-.2-.2-.5-.3-.9-.3h-1c-.6-.2-1-.4-1.3-.7-.3-.3-.5-.7-.5-1.2s0-.5.2-.8c.1-.2.3-.4.5-.6s.4-.3.7-.3c.3,0,.6-.1.9-.1s.8,0,1.3.2c.4.1.8.3,1.1.5l-.5.7c-.2-.2-.5-.3-.9-.4"/>
      <path class="cls-9" d="M402.8,94.1c.4.2.7.4,1,.7s.5.6.7,1c.1.4.2.8.2,1.3s0,.8-.2,1.2c-.2.4-.4.7-.7,1-.3.3-.6.5-1,.7-.4.2-.8.3-1.3.3s-.9,0-1.3-.2c-.4-.2-.7-.4-1-.7-.3-.3-.5-.6-.7-1-.1-.4-.2-.8-.2-1.3s0-.9.2-1.3c.2-.4.4-.7.7-1,.3-.3.6-.5,1-.7.4-.2.8-.3,1.3-.3s.9,0,1.3.2M400.5,94.8c-.3.1-.5.3-.7.5-.2.2-.4.5-.5.8-.1.3-.2.6-.2.9s0,.7.2.9c.1.3.3.5.5.8s.4.4.7.5c.3.1.6.2,1,.2s.7,0,1-.2c.3-.1.5-.3.7-.5.2-.2.4-.5.5-.8.1-.3.2-.6.2-.9s0-.7-.2-1c-.1-.3-.3-.5-.5-.8-.2-.2-.4-.4-.7-.5-.3-.1-.6-.2-1-.2s-.7,0-1,.2"/>
      <path class="cls-9" d="M409.6,94.7c-.4,0-.7,0-1,.2s-.5.3-.7.5c-.2.2-.4.5-.5.7-.1.3-.2.6-.2,1s0,.7.2,1,.3.5.5.7.5.4.8.5c.3.1.6.2.9.2s.8,0,1.1-.2c.3-.1.6-.3.9-.6l.5.6c-.7.6-1.5,1-2.6,1s-.9,0-1.3-.2c-.4-.2-.7-.4-1-.6-.3-.3-.5-.6-.7-1-.1-.4-.2-.8-.2-1.3s0-.9.2-1.3c.2-.4.4-.7.7-1,.3-.3.6-.5,1.1-.7.4-.2.9-.2,1.4-.2s.9,0,1.3.2c.4.1.7.3,1,.6l-.5.7c-.5-.4-1.1-.6-1.9-.6"/>
      <rect class="cls-9" x="413.8" y="94" width="1" height="6.2"/>
      <polygon class="cls-9" points="421.2 94.8 417.6 94.8 417.6 96.5 420.8 96.5 420.8 97.3 417.6 97.3 417.6 99.3 421.4 99.3 421.4 100.1 416.7 100.1 416.7 94 421.2 94 421.2 94.8"/>
      <path class="cls-9" d="M426.7,94.2c.4.2.7.4,1,.6s.5.6.7,1,.2.8.2,1.2,0,.8-.2,1.2c-.2.4-.4.7-.7,1-.3.3-.6.5-1,.6-.4.2-.9.2-1.4.2h-2.2v-6.2h2.2c.5,0,1,0,1.4.2M425.3,99.3c.3,0,.7,0,1-.2.3,0,.5-.3.8-.4.2-.2.4-.4.5-.7.1-.3.2-.6.2-.9,0-.7-.2-1.3-.6-1.7-.4-.4-1-.6-1.8-.6h-1.2v4.5h1.2Z"/>
      <path class="cls-9" d="M436,100.1h-1l-.6-1.4h-3.1l-.5,1.4h-1l2.6-6.2h1.1l2.6,6.2h0ZM434.1,97.9l-1.2-3h-.1l-1.2,3h2.5,0Z"/>
      <path class="cls-9" d="M441.2,94.2c.4.2.7.4,1,.6s.5.6.7,1,.2.8.2,1.2,0,.8-.2,1.2c-.2.4-.4.7-.7,1-.3.3-.6.5-1,.6-.4.2-.9.2-1.4.2h-2.2v-6.2h2.2c.5,0,1,0,1.4.2M439.8,99.3c.3,0,.7,0,1-.2.3,0,.5-.3.8-.4.2-.2.4-.4.5-.7.1-.3.2-.6.2-.9,0-.7-.2-1.3-.6-1.7-.4-.4-1-.6-1.8-.6h-1.2v4.5h1.2Z"/>
      <polygon class="cls-9" points="449.3 94.8 445.8 94.8 445.8 96.5 448.9 96.5 448.9 97.3 445.8 97.3 445.8 99.3 449.5 99.3 449.5 100.1 444.9 100.1 444.9 94 449.3 94 449.3 94.8"/>
      <path class="cls-9" d="M396.3,115c-.3.2-.6.4-1,.5-.4.1-.8.2-1.2.2s-.8,0-1.1-.2c-.3-.1-.6-.3-.9-.5-.2-.2-.4-.5-.6-.8-.1-.3-.2-.7-.2-1.1s0-.7.2-1.1c.1-.3.3-.6.6-.9.2-.2.5-.4.9-.6.3-.2.8-.2,1.2-.2s.7,0,1,.2.6.3.9.5l-.4.6c-.2-.2-.4-.3-.7-.4-.3,0-.5-.1-.8-.1s-.6,0-.8.1c-.2,0-.5.2-.6.4-.2.2-.3.4-.4.6-.1.2-.1.5-.1.8s0,.6.1.8.2.5.4.6c.2.2.4.3.6.4.2,0,.5.1.8.1.5,0,1-.1,1.3-.4v-1.1h-1.1v-.7h1.9v2.2h0Z"/>
      <rect class="cls-9" x="397.8" y="110.4" width=".8" height="5.2"/>
      <polygon class="cls-9" points="404.9 115.6 404.1 115.6 401.1 111.7 401.1 115.6 400.3 115.6 400.3 110.4 401 110.4 404.1 114.5 404.1 110.4 404.9 110.4 404.9 115.6"/>
      <polygon class="cls-9" points="410.4 111.1 407.4 111.1 407.4 112.6 410 112.6 410 113.3 407.4 113.3 407.4 114.9 410.5 114.9 410.5 115.6 406.6 115.6 406.6 110.4 410.4 110.4 410.4 111.1"/>
      <path class="cls-9" d="M414.5,111c-.3,0-.6,0-.8.1-.2,0-.5.2-.6.4-.2.2-.3.4-.4.6-.1.2-.1.5-.1.8s0,.6.1.8.2.5.4.6c.2.2.4.3.6.4.2,0,.5.1.8.1s.6,0,.9-.2c.3-.1.5-.3.8-.5l.5.5c-.6.5-1.3.8-2.2.8s-.8,0-1.1-.2c-.3-.1-.6-.3-.9-.5-.2-.2-.4-.5-.6-.8-.1-.3-.2-.7-.2-1.1s0-.7.2-1.1c.1-.3.3-.6.6-.9.2-.2.5-.4.9-.6s.8-.2,1.2-.2.7,0,1.1.2c.3.1.6.3.9.5l-.4.6c-.4-.4-1-.5-1.6-.5"/>
      <path class="cls-9" d="M421.5,110.5c.3.1.6.3.9.6.2.2.4.5.6.9.1.3.2.7.2,1.1s0,.7-.2,1.1c-.1.3-.3.6-.6.9-.2.2-.5.4-.9.6-.3.2-.7.2-1.1.2s-.8,0-1.1-.2c-.3-.1-.6-.3-.9-.6-.2-.2-.4-.5-.6-.9-.1-.3-.2-.7-.2-1.1s0-.7.2-1.1c.1-.3.3-.6.6-.8.2-.2.5-.4.9-.6.3-.2.7-.2,1.1-.2s.8,0,1.1.2M419.6,111.2c-.2,0-.5.2-.6.4-.2.2-.3.4-.4.6,0,.2-.1.5-.1.8s0,.6.1.8c0,.2.2.5.4.6s.4.3.6.4c.2,0,.5.2.8.2s.6,0,.8-.2c.2-.1.5-.2.6-.4.2-.2.3-.4.4-.7,0-.2.1-.5.1-.8s0-.6-.1-.8c0-.2-.2-.4-.4-.6-.2-.2-.4-.3-.6-.4-.2,0-.5-.2-.8-.2s-.6,0-.8.2"/>
      <polygon class="cls-9" points="425.4 114.9 428.4 114.9 428.4 115.6 424.6 115.6 424.6 110.4 425.4 110.4 425.4 114.9"/>
      <path class="cls-9" d="M433.3,110.5c.3.1.6.3.9.6.2.2.4.5.6.9.1.3.2.7.2,1.1s0,.7-.2,1.1c-.1.3-.3.6-.6.9-.2.2-.5.4-.9.6-.3.2-.7.2-1.1.2s-.8,0-1.1-.2c-.3-.1-.6-.3-.9-.6-.2-.2-.4-.5-.6-.9-.1-.3-.2-.7-.2-1.1s0-.7.2-1.1c.1-.3.3-.6.6-.8.2-.2.5-.4.9-.6.3-.2.7-.2,1.1-.2s.8,0,1.1.2M431.4,111.2c-.2,0-.5.2-.6.4-.2.2-.3.4-.4.6,0,.2-.1.5-.1.8s0,.6.1.8c0,.2.2.5.4.6s.4.3.6.4c.2,0,.5.2.8.2s.6,0,.8-.2c.2-.1.5-.2.6-.4.2-.2.3-.4.4-.7,0-.2.1-.5.1-.8s0-.6-.1-.8c0-.2-.2-.4-.4-.6-.2-.2-.4-.3-.6-.4-.2,0-.5-.2-.8-.2s-.6,0-.8.2"/>
      <path class="cls-9" d="M441.2,115c-.3.2-.6.4-1,.5-.4.1-.8.2-1.2.2s-.8,0-1.1-.2c-.3-.1-.6-.3-.9-.5-.2-.2-.4-.5-.6-.8-.1-.3-.2-.7-.2-1.1s0-.7.2-1.1c.1-.3.3-.6.6-.9.2-.2.5-.4.9-.6.3-.2.8-.2,1.2-.2s.7,0,1,.2.6.3.9.5l-.4.6c-.2-.2-.4-.3-.7-.4-.3,0-.5-.1-.8-.1s-.6,0-.8.1c-.2,0-.5.2-.6.4-.2.2-.3.4-.4.6-.1.2-.1.5-.1.8s0,.6.1.8.2.5.4.6c.2.2.4.3.6.4.2,0,.5.1.8.1.5,0,1-.1,1.3-.4v-1.1h-1.1v-.7h1.9v2.2h0Z"/>
      <rect class="cls-9" x="442.7" y="110.4" width=".8" height="5.2"/>
      <path class="cls-9" d="M450.2,115.6h-.9l-.5-1.2h-2.6l-.5,1.2h-.9l2.2-5.2h.9l2.2,5.2ZM448.6,113.8l-1-2.6h0l-1,2.6h2.1Z"/>
      <path class="cls-9" d="M394.3,103.3c.2,0,.4.2.5.3.1.1.2.3.3.5,0,.2.1.4.1.6s0,.4-.1.6c0,.2-.2.3-.4.5-.1.1-.3.2-.5.3s-.4,0-.6,0h-1.1v1.3h-.6v-4.2h1.8c.2,0,.5,0,.6,0M393.6,105.6c.3,0,.6,0,.8-.2.2-.2.3-.4.3-.7s0-.5-.3-.7c-.2-.2-.4-.2-.7-.2h-1.1v1.8h1.1Z"/>
      <path class="cls-9" d="M399.3,103.3c.3.1.5.3.7.5.2.2.3.4.5.7.1.3.2.6.2.9s0,.6-.2.8c-.1.3-.3.5-.5.7-.2.2-.4.3-.7.5-.3.1-.6.2-.9.2s-.6,0-.9-.2c-.3-.1-.5-.3-.7-.5-.2-.2-.3-.4-.5-.7-.1-.3-.2-.6-.2-.8s0-.6.2-.8c.1-.3.3-.5.5-.7.2-.2.4-.3.7-.5.3-.1.6-.2.9-.2s.6,0,.9.2M397.8,103.8c-.2,0-.4.2-.5.3-.1.1-.2.3-.3.5,0,.2-.1.4-.1.6s0,.4.1.6c0,.2.2.4.3.5s.3.3.5.3c.2,0,.4.1.7.1s.5,0,.7-.1c.2,0,.4-.2.5-.3.1-.1.2-.3.3-.5,0-.2.1-.4.1-.6s0-.5-.1-.7c0-.2-.2-.4-.3-.5-.1-.1-.3-.2-.5-.3-.2,0-.4-.1-.7-.1s-.5,0-.7.1"/>
      <path class="cls-9" d="M404.3,103.3c.2,0,.4.2.5.3.1.1.2.3.3.4,0,.2.1.4.1.6,0,.3,0,.6-.3.8-.2.2-.4.4-.7.5l1.1,1.6h-.8l-.9-1.4h-1.1v1.4h-.6v-4.2h1.8c.2,0,.4,0,.6,0M403.6,105.4c.3,0,.5,0,.7-.2s.3-.4.3-.6,0-.5-.3-.6c-.2-.1-.4-.2-.7-.2h-1.1v1.7h1.1Z"/>
      <polygon class="cls-9" points="409.7 103.8 408.1 103.8 408.1 107.4 407.5 107.4 407.5 103.8 406 103.8 406 103.2 409.7 103.2 409.7 103.8"/>
      <path class="cls-9" d="M411.5,105.4c0,.5.1.8.3,1.1.2.2.5.4.9.4s.7-.1.9-.3c.2-.2.3-.6.3-1.1v-2.3h.6v2.3c0,.3,0,.6-.1.8,0,.2-.2.4-.4.6-.2.2-.4.3-.6.4-.2,0-.5.1-.8.1s-.6,0-.8-.1c-.2,0-.4-.2-.6-.4-.1-.2-.3-.4-.4-.6,0-.2-.1-.5-.1-.8v-2.3h.6v2.3h0Z"/>
      <path class="cls-9" d="M419.6,106.9c-.2.2-.5.3-.8.4-.3,0-.6.2-.9.2s-.6,0-.9-.2-.5-.2-.7-.4c-.2-.2-.3-.4-.5-.7-.1-.3-.2-.6-.2-.9s0-.6.2-.8c.1-.3.2-.5.5-.7.2-.2.4-.3.7-.5.3-.1.6-.2,1-.2s.6,0,.8.1.5.2.7.4l-.3.4c-.2-.1-.4-.2-.6-.3s-.4-.1-.7-.1-.5,0-.7.1c-.2,0-.4.2-.5.3s-.2.3-.3.5c0,.2-.1.4-.1.7s0,.5.1.7.2.4.3.5c.1.1.3.2.5.3.2,0,.4.1.6.1.4,0,.8,0,1.1-.3v-.9h-.9v-.6h1.5v1.8h0Z"/>
      <path class="cls-9" d="M421.5,105.4c0,.5.1.8.3,1.1.2.2.5.4.9.4s.7-.1.9-.3c.2-.2.3-.6.3-1.1v-2.3h.6v2.3c0,.3,0,.6-.1.8,0,.2-.2.4-.4.6-.2.2-.4.3-.6.4-.2,0-.5.1-.8.1s-.6,0-.8-.1c-.2,0-.4-.2-.6-.4-.1-.2-.3-.4-.4-.6,0-.2-.1-.5-.1-.8v-2.3h.6v2.3h0Z"/>
      <polygon class="cls-9" points="428.9 103.7 426.5 103.7 426.5 104.9 428.6 104.9 428.6 105.5 426.5 105.5 426.5 106.8 429 106.8 429 107.4 425.9 107.4 425.9 103.2 428.9 103.2 428.9 103.7"/>
      <path class="cls-9" d="M432.4,103.8c-.2,0-.4-.1-.7-.1-.3,0-.6,0-.7.2-.1.1-.2.3-.2.4s0,.3.2.4c.1,0,.3.2.5.2h.6c.4.1.8.3,1,.5.2.2.3.5.3.8s0,.4-.1.5c0,.2-.2.3-.3.4-.1.1-.3.2-.6.3-.2,0-.5,0-.8,0s-.6,0-.9-.1c-.3,0-.5-.2-.8-.4l.3-.5c.2.2.5.3.7.3s.5,0,.7,0,.6,0,.8-.2c.2-.1.3-.3.3-.5s0-.3-.2-.4c-.1-.1-.3-.2-.6-.2h-.7c-.4-.1-.7-.3-.9-.4-.2-.2-.3-.4-.3-.8s0-.4.1-.5c0-.2.2-.3.3-.4.1,0,.3-.2.5-.2.2,0,.4,0,.6,0s.6,0,.9.1.5.2.7.4l-.3.5c-.2-.1-.4-.2-.6-.3"/>
      <path class="cls-9" d="M438.6,107.4h-.7l-.4-.9h-2.1l-.4.9h-.7l1.8-4.2h.8l1.8,4.2h0ZM437.3,105.9l-.8-2.1h0l-.8,2.1h1.7Z"/>
      <path class="cls-9" d="M444.3,103.3c.3.1.5.2.7.4.2.2.3.4.5.7.1.2.2.5.2.8s0,.6-.2.8c-.1.2-.3.5-.5.7-.2.2-.4.3-.7.4s-.6.2-.9.2h-1.5v-4.2h1.5c.4,0,.6,0,.9.2M443.4,106.8c.2,0,.5,0,.6-.1.2,0,.4-.2.5-.3.1-.1.3-.3.3-.5,0-.2.1-.4.1-.6,0-.5-.1-.9-.4-1.1-.3-.3-.7-.4-1.2-.4h-.8v3.1h.8,0Z"/>
      <polygon class="cls-9" points="449.8 103.7 447.4 103.7 447.4 104.9 449.5 104.9 449.5 105.5 447.4 105.5 447.4 106.8 449.9 106.8 449.9 107.4 446.8 107.4 446.8 103.2 449.8 103.2 449.8 103.7"/>
      <path class="cls-9" d="M696.6,555.7c0,0-.1.2-.2.2,0,0-.2,0-.3,0s-.2,0-.3,0-.2,0-.4-.2-.3-.1-.5-.2c-.2,0-.4,0-.6,0-.3,0-.6,0-.7.2s-.2.3-.2.5,0,.3.2.4.2.2.4.3c.2,0,.4.2.6.2s.5.2.7.2c.2,0,.5.2.7.3.2.1.4.3.6.4.2.2.3.4.4.6s.2.5.2.9,0,.8-.2,1.1-.4.6-.7.9-.7.5-1.1.6c-.4.1-.9.2-1.5.2s-.6,0-.8,0c-.3,0-.6-.1-.8-.2-.3,0-.5-.2-.7-.3s-.4-.3-.6-.4l.6-.9c0-.1.2-.2.2-.2,0,0,.2,0,.4,0s.3,0,.4,0c.1,0,.2.1.4.2.1,0,.3.1.5.2.2,0,.4,0,.7,0s.3,0,.5,0c.1,0,.2,0,.3-.2s.1-.2.2-.2,0-.2,0-.3c0-.2,0-.3-.2-.4s-.3-.2-.4-.3-.4-.2-.6-.2c-.2,0-.5-.1-.7-.2-.2,0-.5-.2-.7-.3-.2-.1-.4-.3-.6-.5-.2-.2-.3-.4-.4-.7s-.2-.6-.2-1,0-.7.2-1c.1-.3.3-.6.6-.8.3-.2.6-.4,1-.6.4-.1.9-.2,1.4-.2s.6,0,.9,0c.3,0,.5.1.8.2s.5.2.7.3.4.3.5.4l-.6.9h0Z"/>
      <path class="cls-9" d="M700.8,554.9c.3-.3.7-.6,1.1-.8.4-.2.9-.3,1.5-.3s.8,0,1.2.3.7.5,1,.8.5.8.6,1.3c.2.5.2,1.1.2,1.8s0,1.2-.3,1.7c-.2.5-.4,1-.7,1.4s-.7.7-1.1.9c-.4.2-.9.3-1.4.3s-.8,0-1.1-.2c-.3-.1-.6-.3-.8-.5v3.2h-2.5v-10.9h1.5c.3,0,.5.1.6.4l.2.6h0ZM700.9,559.9c.2.2.4.3.6.4.2,0,.5.1.7.1s.4,0,.6-.1.4-.2.5-.4.2-.5.3-.8.1-.7.1-1.2,0-.8,0-1.1c0-.3-.2-.5-.3-.7s-.2-.3-.4-.4-.3-.1-.5-.1c-.4,0-.7,0-.9.2-.2.1-.5.3-.7.6v3.5h0Z"/>
      <path class="cls-9" d="M715.2,554.1v.9c0,.1,0,.2-.1.3s-.2.1-.4.2h-.6c0,.3,0,.4,0,.5s0,.2,0,.4c0,.4,0,.8-.3,1.1s-.4.6-.7.8c-.3.2-.7.4-1.1.5-.4.1-.8.2-1.3.2s-.2,0-.4,0c-.1,0-.2,0-.4,0-.2.1-.3.2-.3.4s0,.2.2.3c.2,0,.3,0,.6.1.2,0,.5,0,.8,0,.3,0,.6,0,1,0s.6,0,1,.2c.3,0,.6.2.8.3.2.2.4.4.6.6s.2.6.2,1,0,.7-.3,1.1-.5.7-.8,1-.8.5-1.3.7c-.5.2-1.1.2-1.8.2s-1.2,0-1.7-.2-.9-.3-1.2-.5c-.3-.2-.5-.4-.7-.7s-.2-.5-.2-.8.1-.7.3-.9.5-.4.9-.6c-.2-.1-.4-.3-.5-.5-.1-.2-.2-.4-.2-.7s0-.2,0-.4.1-.3.2-.4.2-.2.3-.4c.1-.1.3-.2.5-.3-.4-.2-.8-.5-1-.9-.2-.4-.4-.8-.4-1.3s0-.8.3-1.1c.2-.3.4-.6.7-.8.3-.2.7-.4,1.1-.5s.9-.2,1.3-.2c.7,0,1.3.1,1.9.4h2.5ZM712.7,562.4c0-.2,0-.3-.3-.4s-.4-.2-.7-.2-.6,0-1,0c-.3,0-.7,0-1,0-.2.1-.3.2-.4.4s-.2.3-.2.4,0,.2,0,.3c0,0,.1.2.3.2s.3.1.5.2c.2,0,.5,0,.8,0s.7,0,.9,0,.4,0,.5-.2.2-.2.3-.3c0,0,0-.2,0-.3h0ZM710.8,557.5c.4,0,.7,0,.9-.3s.3-.5.3-.8,0-.6-.3-.8c-.2-.2-.5-.3-.9-.3s-.7,0-.9.3-.3.5-.3.8,0,.3,0,.4c0,.1.1.2.2.3,0,0,.2.2.4.2.2,0,.3,0,.5,0h0Z"/>
      <path class="cls-9" d="M719,551.6c0,.2,0,.4-.1.6,0,.2-.2.3-.3.5s-.3.2-.5.3-.4.1-.6.1-.4,0-.6-.1-.3-.2-.5-.3-.2-.3-.3-.5c0-.2-.1-.4-.1-.6s0-.4.1-.6.2-.3.3-.5.3-.2.5-.3.4-.1.6-.1.4,0,.6.1c.2,0,.3.2.5.3.1.1.2.3.3.5s.1.4.1.6ZM718.8,553.8v8.3h-2.5v-8.3h2.5Z"/>
      <path class="cls-9" d="M722.8,554.7c.2-.2.3-.3.5-.4s.3-.2.5-.3.4-.2.6-.2.5,0,.7,0c.5,0,.8,0,1.2.2.3.2.6.4.9.7.2.3.4.6.5,1s.2.8.2,1.3v5.3h-2.5v-5.3c0-.4,0-.7-.3-1-.2-.2-.5-.3-.8-.3s-.5,0-.8.2c-.2.1-.5.3-.7.5v5.9h-2.5v-8.3h1.5c.3,0,.5.1.6.4v.5c.1,0,.1,0,.1,0Z"/>
      <path class="cls-9" d="M731.7,558.4c0,.7.3,1.2.6,1.5s.8.5,1.3.5.5,0,.7,0,.4-.2.6-.2c.2,0,.3-.2.5-.2s.3,0,.4,0,.3,0,.5.2l.7.9c-.3.3-.5.5-.8.7s-.6.3-.9.4-.6.2-.9.2-.6,0-.9,0c-.6,0-1.1,0-1.6-.3s-1-.5-1.3-.8c-.4-.4-.7-.8-.9-1.4-.2-.5-.3-1.2-.3-1.9s0-1.1.3-1.6.5-.9.8-1.3.8-.7,1.3-.9,1.1-.3,1.7-.3,1,0,1.5.3.8.4,1.2.7.6.7.8,1.2c.2.5.3,1,.3,1.6s0,.3,0,.5,0,.2,0,.3c0,0,0,.1-.2.1,0,0-.2,0-.3,0h-4.8ZM734.8,557c0-.2,0-.4,0-.6s-.1-.3-.2-.5c-.1-.2-.3-.3-.5-.4s-.4-.1-.7-.1c-.5,0-.8.1-1.1.4-.3.3-.4.7-.5,1.2h3.1Z"/>
      <path class="cls-9" d="M744.3,555.8c0,0-.2.2-.2.2,0,0-.2,0-.3,0s-.2,0-.3,0-.2-.1-.3-.2c-.1,0-.3-.1-.4-.2s-.4,0-.6,0-.6,0-.8.2-.4.3-.5.5-.2.5-.3.8,0,.6,0,1c0,.8.2,1.4.5,1.8s.7.6,1.3.6.5,0,.7-.1c.2,0,.3-.2.4-.2s.2-.2.3-.2c0,0,.2-.1.4-.1s.3,0,.5.2l.7.9c-.3.3-.5.5-.8.7-.3.2-.6.3-.9.4s-.6.2-.9.2-.6,0-.9,0c-.5,0-1,0-1.5-.3s-.9-.5-1.2-.8-.6-.8-.8-1.3-.3-1.1-.3-1.8,0-1.2.3-1.7.4-1,.8-1.3.8-.7,1.3-.9,1.1-.3,1.8-.3,1.2,0,1.7.3c.5.2.9.5,1.3.9l-.7.9h0Z"/>
      <path class="cls-9" d="M749.7,553.7c.6,0,1.2,0,1.7.3s1,.5,1.3.8.7.8.9,1.3c.2.5.3,1.1.3,1.8s0,1.3-.3,1.8-.5,1-.9,1.3-.8.7-1.3.9-1.1.3-1.7.3-1.2,0-1.7-.3c-.5-.2-1-.5-1.3-.9-.4-.4-.7-.8-.9-1.3s-.3-1.1-.3-1.8,0-1.2.3-1.8.5-1,.9-1.3.8-.7,1.3-.8c.5-.2,1.1-.3,1.7-.3ZM749.7,560.4c.6,0,1-.2,1.3-.6.3-.4.4-1,.4-1.8s-.1-1.4-.4-1.8-.7-.6-1.3-.6-1,.2-1.3.6c-.3.4-.4,1-.4,1.8s.1,1.4.4,1.8c.3.4.7.6,1.3.6Z"/>
      <path class="cls-9" d="M757.7,550.2v12h-2.5v-12h2.5Z"/>
      <path class="cls-9" d="M763.2,553.7c.6,0,1.2,0,1.7.3s1,.5,1.3.8.7.8.9,1.3c.2.5.3,1.1.3,1.8s0,1.3-.3,1.8-.5,1-.9,1.3-.8.7-1.3.9-1.1.3-1.7.3-1.2,0-1.7-.3c-.5-.2-1-.5-1.3-.9-.4-.4-.7-.8-.9-1.3s-.3-1.1-.3-1.8,0-1.2.3-1.8.5-1,.9-1.3.8-.7,1.3-.8c.5-.2,1.1-.3,1.7-.3ZM763.2,560.4c.6,0,1-.2,1.3-.6.3-.4.4-1,.4-1.8s-.1-1.4-.4-1.8-.7-.6-1.3-.6-1,.2-1.3.6c-.3.4-.4,1-.4,1.8s.1,1.4.4,1.8c.3.4.7.6,1.3.6Z"/>
      <path class="cls-9" d="M776.1,554.1v.9c0,.1,0,.2-.1.3s-.2.1-.4.2h-.6c0,.3,0,.4,0,.5s0,.2,0,.4c0,.4,0,.8-.3,1.1s-.4.6-.7.8c-.3.2-.7.4-1.1.5-.4.1-.8.2-1.3.2s-.2,0-.4,0c-.1,0-.2,0-.4,0-.2.1-.3.2-.3.4s0,.2.2.3c.2,0,.3,0,.6.1.2,0,.5,0,.8,0,.3,0,.6,0,1,0s.6,0,1,.2c.3,0,.6.2.8.3.2.2.4.4.6.6s.2.6.2,1,0,.7-.3,1.1-.5.7-.8,1-.8.5-1.3.7c-.5.2-1.1.2-1.8.2s-1.2,0-1.7-.2-.9-.3-1.2-.5c-.3-.2-.5-.4-.7-.7s-.2-.5-.2-.8.1-.7.3-.9.5-.4.9-.6c-.2-.1-.4-.3-.5-.5-.1-.2-.2-.4-.2-.7s0-.2,0-.4.1-.3.2-.4.2-.2.3-.4c.1-.1.3-.2.5-.3-.4-.2-.8-.5-1-.9-.2-.4-.4-.8-.4-1.3s0-.8.3-1.1c.2-.3.4-.6.7-.8.3-.2.7-.4,1.1-.5s.9-.2,1.3-.2c.7,0,1.3.1,1.9.4h2.5ZM773.6,562.4c0-.2,0-.3-.3-.4s-.4-.2-.7-.2-.6,0-1,0c-.3,0-.7,0-1,0-.2.1-.3.2-.4.4s-.2.3-.2.4,0,.2,0,.3c0,0,.1.2.3.2s.3.1.5.2c.2,0,.5,0,.8,0s.7,0,.9,0,.4,0,.5-.2.2-.2.3-.3c0,0,0-.2,0-.3h0ZM771.7,557.5c.4,0,.7,0,.9-.3s.3-.5.3-.8,0-.6-.3-.8c-.2-.2-.5-.3-.9-.3s-.7,0-.9.3-.3.5-.3.8,0,.3,0,.4c0,.1.1.2.2.3,0,0,.2.2.4.2.2,0,.3,0,.5,0h0Z"/>
      <path class="cls-9" d="M779.9,551.6c0,.2,0,.4-.1.6,0,.2-.2.3-.3.5s-.3.2-.5.3-.4.1-.6.1-.4,0-.6-.1-.3-.2-.5-.3-.2-.3-.3-.5c0-.2-.1-.4-.1-.6s0-.4.1-.6.2-.3.3-.5.3-.2.5-.3.4-.1.6-.1.4,0,.6.1c.2,0,.3.2.5.3.1.1.2.3.3.5s.1.4.1.6ZM779.7,553.8v8.3h-2.5v-8.3h2.5Z"/>
      <path class="cls-9" d="M781.2,555c.5-.4,1.1-.8,1.7-1s1.3-.3,2-.3,1,0,1.4.2c.4.2.7.4,1,.7s.5.6.6,1c.2.4.2.8.2,1.3v5.2h-1.1c-.2,0-.4,0-.5,0-.1,0-.2-.2-.3-.4l-.2-.5c-.2.2-.4.3-.6.5s-.4.2-.6.3c-.2,0-.4.2-.7.2-.2,0-.5,0-.8,0s-.7,0-1-.2c-.3,0-.6-.2-.8-.4s-.4-.4-.5-.7-.2-.6-.2-1,0-.6.2-.9.4-.6.8-.8c.4-.2.9-.5,1.5-.6s1.4-.3,2.4-.3v-.3c0-.5,0-.8-.3-1-.2-.2-.5-.3-.8-.3s-.5,0-.7,0c-.2,0-.3.1-.5.2s-.3.2-.4.2c-.1,0-.3,0-.5,0s-.3,0-.4-.1c-.1,0-.2-.2-.3-.3l-.5-.8h0ZM785.7,558.8c-.5,0-.9,0-1.2.1-.3,0-.6.1-.8.2s-.3.2-.4.3-.1.3-.1.4c0,.3,0,.5.2.6.2.1.4.2.7.2s.6,0,.8-.2c.2-.1.5-.3.7-.5v-1.2h0Z"/>
      <path class="cls-9" d="M789.3,560.9c0-.2,0-.4.1-.5s.2-.3.3-.4c.1-.1.3-.2.4-.3s.4-.1.6-.1.4,0,.5.1.3.2.5.3.2.3.3.4.1.3.1.5,0,.4-.1.5-.2.3-.3.4c-.1.1-.3.2-.5.3s-.3,0-.5,0-.4,0-.6,0c-.2,0-.3-.2-.4-.3-.1-.1-.2-.3-.3-.4,0-.2-.1-.3-.1-.5Z"/>
      <path class="cls-9" d="M795.8,554.9c.3-.3.7-.6,1.1-.8.4-.2.9-.3,1.5-.3s.8,0,1.2.3.7.5,1,.8.5.8.6,1.3c.2.5.2,1.1.2,1.8s0,1.2-.3,1.7c-.2.5-.4,1-.7,1.4s-.7.7-1.1.9c-.4.2-.9.3-1.4.3s-.8,0-1.1-.2c-.3-.1-.6-.3-.8-.5v3.2h-2.5v-10.9h1.5c.3,0,.5.1.6.4l.2.6h0ZM796,559.9c.2.2.4.3.6.4.2,0,.5.1.7.1s.4,0,.6-.1.4-.2.5-.4.2-.5.3-.8.1-.7.1-1.2,0-.8,0-1.1c0-.3-.2-.5-.3-.7s-.2-.3-.4-.4-.3-.1-.5-.1c-.4,0-.7,0-.9.2-.2.1-.5.3-.7.6v3.5h0Z"/>
      <path class="cls-9" d="M805.5,562.3c-.4,0-.7,0-1-.2s-.5-.3-.8-.5c-.2-.2-.4-.5-.5-.8s-.2-.6-.2-1v-4.3h-.7c-.1,0-.2,0-.3-.1s-.1-.2-.1-.4v-1l1.3-.3.5-2c0-.3.2-.4.5-.4h1.3v2.4h2.1v1.7h-2.1v4.1c0,.2,0,.3.1.5s.2.2.4.2.2,0,.2,0,.1,0,.2,0c0,0,0,0,.1,0s0,0,.1,0c0,0,.1,0,.2,0,0,0,0,0,.1.2l.8,1.2c-.3.2-.7.4-1.1.5s-.8.2-1.2.2h0Z"/>
      <g>
        <g>
          <rect class="cls-12" x="241.8" y="449.6" width="115.1" height="115.1"/>
          <g>
            <path class="cls-10" d="M260.7,491.2c0,.7-.1,1.3-.3,1.9-.2.6-.6,1.1-1,1.5-.4.4-.9.7-1.5,1s-1.3.4-2,.4h-3.6v-9.5h3.6c.7,0,1.4.1,2,.4s1.1.6,1.5,1c.4.4.8.9,1,1.5.2.6.3,1.2.3,1.9ZM258.7,491.2c0-.5,0-.9-.2-1.3-.1-.4-.3-.7-.6-1-.2-.3-.5-.5-.9-.6-.4-.1-.7-.2-1.2-.2h-1.7v6.4h1.7c.4,0,.8,0,1.2-.2s.6-.4.9-.6c.2-.3.4-.6.6-1s.2-.8.2-1.3Z"/>
            <path class="cls-10" d="M263.8,487.3c0,.2,0,.3,0,.4,0,.1-.1.2-.2.3-.1,0-.2.2-.4.2-.1,0-.3,0-.4,0s-.3,0-.4,0c-.1,0-.2-.1-.3-.2s-.2-.2-.2-.3c0-.1,0-.3,0-.4s0-.3,0-.4c0-.1.1-.2.2-.3,0-.1.2-.2.3-.2.1,0,.3,0,.4,0s.3,0,.4,0c.1,0,.3.1.4.2.1,0,.2.2.2.3,0,.1,0,.3,0,.4ZM263.6,489.2v6.7h-1.8v-6.7h1.8Z"/>
            <path class="cls-10" d="M264.9,490.2c.4-.4.8-.6,1.3-.8.5-.2,1-.3,1.6-.3s.8,0,1.1.2.6.3.8.5c.2.2.4.5.5.8.1.3.2.7.2,1.1v4.2h-.8c-.2,0-.3,0-.4,0,0,0-.2-.1-.2-.3v-.4c-.3.1-.5.3-.6.4-.2.1-.3.2-.5.3s-.4.1-.5.2-.4,0-.7,0-.6,0-.8-.1c-.2,0-.5-.2-.6-.3-.2-.2-.3-.3-.4-.6,0-.2-.1-.5-.1-.8s0-.5.2-.7c.1-.2.3-.5.7-.7.3-.2.7-.4,1.2-.5s1.2-.2,1.9-.2v-.3c0-.4,0-.7-.3-.9-.2-.2-.4-.3-.8-.3s-.5,0-.6,0c-.2,0-.3.1-.4.2-.1,0-.2.1-.3.2-.1,0-.2,0-.4,0s-.2,0-.3,0c0,0-.2-.1-.2-.2l-.3-.6ZM268.6,493.2c-.4,0-.8,0-1.1.1-.3,0-.5.1-.7.2-.2,0-.3.2-.4.3,0,.1-.1.2-.1.4,0,.3,0,.4.2.6s.3.2.6.2.6,0,.8-.2c.2-.1.4-.3.7-.5v-1Z"/>
            <path class="cls-10" d="M277.7,489.5v.7c0,.1,0,.2,0,.2,0,0-.2.1-.3.1h-.5c0,.3.1.6.1.8s0,.6-.2.9c-.1.3-.3.5-.6.7-.2.2-.5.3-.9.4s-.7.2-1.1.2-.5,0-.7,0c-.2.1-.3.2-.3.4s0,.2.2.3c.1,0,.3,0,.5.1.2,0,.4,0,.7,0,.3,0,.5,0,.8,0,.3,0,.5,0,.8.1s.5.1.7.3c.2.1.4.3.5.5.1.2.2.5.2.8s0,.6-.2.9c-.1.3-.4.5-.6.8-.3.2-.6.4-1,.5-.4.1-.9.2-1.4.2s-1,0-1.3-.1c-.4,0-.7-.2-.9-.4-.3-.2-.4-.4-.6-.6-.1-.2-.2-.4-.2-.7s0-.6.3-.8c.2-.2.4-.4.8-.5-.2,0-.3-.2-.4-.4s-.2-.4-.2-.6,0-.4.2-.6.4-.4.7-.6c-.3-.2-.6-.4-.8-.7-.2-.3-.3-.7-.3-1.1s0-.6.2-.9c.1-.3.3-.5.6-.7.2-.2.5-.3.9-.4s.7-.2,1.1-.2c.6,0,1.1.1,1.5.3h2ZM275.9,496.2c0-.1,0-.2-.1-.3,0,0-.2-.1-.3-.2-.1,0-.3,0-.4,0-.2,0-.4,0-.5,0s-.4,0-.6,0c-.2,0-.4,0-.6,0-.2,0-.3.2-.4.3,0,.1-.1.3-.1.4s0,.2,0,.3.1.2.3.2.3.1.5.2c.2,0,.4,0,.7,0s.5,0,.8,0c.2,0,.4,0,.5-.2.1,0,.2-.2.3-.3,0,0,0-.2,0-.3ZM274.2,492.4c.4,0,.6,0,.8-.3.2-.2.3-.4.3-.7s0-.6-.3-.7c-.2-.2-.4-.3-.8-.3s-.6,0-.8.3c-.2.2-.3.4-.3.7s0,.5.3.7c.2.2.4.3.8.3Z"/>
            <path class="cls-10" d="M280.3,490c.1-.1.3-.3.4-.4s.3-.2.5-.3c.2,0,.3-.1.5-.2.2,0,.4,0,.6,0,.4,0,.7,0,1,.2.3.1.5.3.7.5.2.2.3.5.4.8,0,.3.1.7.1,1v4.3h-1.8v-4.3c0-.4,0-.7-.3-.9-.2-.2-.4-.3-.8-.3s-.5,0-.7.2c-.2.1-.4.3-.6.5v4.8h-1.8v-6.7h1.1c.2,0,.4.1.5.3v.5Z"/>
            <path class="cls-10" d="M289,489.1c.5,0,1,0,1.4.2.4.2.8.4,1.1.7.3.3.5.7.7,1.1.2.4.2.9.2,1.4s0,1-.2,1.4c-.2.4-.4.8-.7,1.1-.3.3-.7.5-1.1.7-.4.2-.9.2-1.4.2s-1,0-1.4-.2-.8-.4-1.1-.7c-.3-.3-.5-.7-.7-1.1-.2-.4-.2-.9-.2-1.4s0-1,.2-1.4c.2-.4.4-.8.7-1.1.3-.3.7-.5,1.1-.7s.9-.2,1.4-.2ZM289,494.7c.5,0,.9-.2,1.1-.5.2-.4.4-.9.4-1.6s-.1-1.2-.4-1.6c-.2-.4-.6-.5-1.1-.5s-.9.2-1.2.5-.4.9-.4,1.6.1,1.2.4,1.6.6.5,1.2.5ZM291.4,486.4l-1.7,1.7c0,0-.2.2-.3.2,0,0-.2,0-.3,0h-1.1l.9-1.6c0-.1.1-.2.2-.3,0,0,.2,0,.4,0h1.7Z"/>
            <path class="cls-10" d="M297.6,490.6c0,0,0,.1-.1.2,0,0-.1,0-.2,0s-.2,0-.3,0-.2,0-.3-.1c-.1,0-.2,0-.4-.1-.1,0-.3,0-.5,0-.3,0-.5,0-.7.2-.2.1-.2.3-.2.5s0,.2.1.3.2.2.4.2c.1,0,.3.1.5.2.2,0,.4.1.6.2.2,0,.4.2.6.2.2,0,.4.2.5.3.2.1.3.3.4.5,0,.2.1.4.1.7s0,.6-.2.9-.3.5-.5.7c-.2.2-.5.4-.9.5s-.7.2-1.2.2-.5,0-.7,0-.4,0-.6-.2c-.2,0-.4-.2-.6-.3-.2,0-.3-.2-.5-.3l.4-.7c0,0,.1-.1.2-.2,0,0,.2,0,.3,0s.2,0,.3,0,.2.1.3.2c.1,0,.2.1.4.2.2,0,.3,0,.6,0s.3,0,.5,0c.1,0,.2,0,.3-.2,0,0,.1-.1.2-.2,0,0,0-.2,0-.3,0-.1,0-.3-.1-.4s-.2-.2-.4-.2c-.2,0-.3-.1-.5-.2-.2,0-.4-.1-.6-.2-.2,0-.4-.2-.6-.2-.2,0-.4-.2-.5-.4-.2-.1-.3-.3-.4-.5,0-.2-.1-.5-.1-.8s0-.5.2-.8.3-.5.5-.7c.2-.2.5-.3.8-.5.3-.1.7-.2,1.1-.2s.9,0,1.3.2.7.4,1,.6l-.4.6Z"/>
            <path class="cls-10" d="M306.2,496h-1.8v-5.4h-3v3.5c0,.2,0,.3.1.4s.2.2.4.2.2,0,.2,0c0,0,.1,0,.2,0,0,0,0,0,.1,0,0,0,0,0,.1,0s0,0,.1,0c0,0,0,0,.1.1l.5.9c-.2.2-.5.3-.8.4-.3.1-.6.2-1,.2s-.6,0-.8-.1-.4-.2-.6-.4c-.2-.2-.3-.4-.4-.6s-.1-.5-.1-.8v-3.6h-.6c0,0-.2,0-.2,0,0,0-.1-.2-.1-.3v-.7l1.1-.2.4-1.7c0-.2.2-.3.4-.3h.9v2.1h4.8v6.7ZM306.4,487.3c0,.1,0,.3,0,.4s-.1.2-.2.3c-.1,0-.2.2-.4.2-.1,0-.3,0-.4,0s-.3,0-.4,0c-.1,0-.2-.1-.3-.2,0,0-.2-.2-.2-.3,0-.1,0-.3,0-.4s0-.3,0-.4c0-.1.1-.2.2-.3s.2-.2.3-.2c.1,0,.3,0,.4,0s.3,0,.4,0c.1,0,.3.1.4.2.1,0,.2.2.2.3,0,.1,0,.3,0,.4Z"/>
            <path class="cls-10" d="M312.5,490.7c0,0-.1.1-.2.2s-.1,0-.2,0-.2,0-.3,0-.2-.1-.3-.2c-.1,0-.2-.1-.4-.2-.1,0-.3,0-.5,0s-.5,0-.7.1c-.2,0-.4.2-.5.4-.1.2-.2.4-.3.7s0,.6,0,.9c0,.7.1,1.2.4,1.6.3.4.7.5,1.1.5s.3,0,.4,0c.1,0,.2,0,.3-.1,0,0,.2,0,.2-.1,0,0,.1-.1.2-.1,0,0,.1,0,.2-.1,0,0,.1,0,.2,0,.1,0,.2,0,.3.2l.5.7c-.2.2-.4.4-.6.6-.2.1-.4.3-.7.3-.2,0-.5.1-.7.2-.2,0-.5,0-.7,0-.4,0-.8,0-1.2-.2-.4-.2-.7-.4-1-.7-.3-.3-.5-.7-.7-1.1s-.2-.9-.2-1.5,0-.9.2-1.4.4-.8.6-1.1c.3-.3.6-.6,1-.7.4-.2.9-.3,1.4-.3s1,0,1.4.2c.4.2.7.4,1,.7l-.5.6Z"/>
            <path class="cls-10" d="M316.8,489.1c.5,0,1,0,1.4.2.4.2.8.4,1.1.7.3.3.5.7.7,1.1.2.4.2.9.2,1.4s0,1-.2,1.4c-.2.4-.4.8-.7,1.1-.3.3-.7.5-1.1.7-.4.2-.9.2-1.4.2s-1,0-1.4-.2-.8-.4-1.1-.7c-.3-.3-.5-.7-.7-1.1-.2-.4-.2-.9-.2-1.4s0-1,.2-1.4c.2-.4.4-.8.7-1.1.3-.3.7-.5,1.1-.7s.9-.2,1.4-.2ZM316.8,494.7c.5,0,.9-.2,1.1-.5.2-.4.4-.9.4-1.6s-.1-1.2-.4-1.6c-.2-.4-.6-.5-1.1-.5s-.9.2-1.2.5-.4.9-.4,1.6.1,1.2.4,1.6.6.5,1.2.5Z"/>
            <path class="cls-10" d="M257.9,499.1v9.7h-1.1c-.2,0-.4-.1-.4-.3v-.6c-.3.1-.4.3-.6.4-.2.1-.3.2-.5.3-.2,0-.4.2-.6.2s-.4,0-.7,0c-.4,0-.7,0-1-.2-.3-.2-.6-.4-.8-.7-.2-.3-.4-.7-.5-1.1-.1-.4-.2-.9-.2-1.5s0-1,.2-1.4c.1-.4.3-.8.6-1.1s.6-.6.9-.7.8-.3,1.2-.3.7,0,.9.2c.2.1.5.3.7.4v-3.5h1.8ZM256.1,503.9c-.2-.2-.4-.3-.6-.4-.2,0-.4-.1-.6-.1s-.4,0-.6.1c-.2,0-.3.2-.5.4-.1.2-.2.4-.3.7,0,.3-.1.6-.1,1s0,.7,0,1c0,.3.1.5.2.6.1.2.2.3.4.3.2,0,.3.1.5.1.3,0,.6,0,.8-.2.2-.1.4-.3.6-.5v-3Z"/>
            <path class="cls-10" d="M261.4,500.2c0,.2,0,.3,0,.4,0,.1-.1.2-.2.3-.1,0-.2.2-.4.2-.1,0-.3,0-.4,0s-.3,0-.4,0c-.1,0-.2-.1-.3-.2s-.2-.2-.2-.3c0-.1,0-.3,0-.4s0-.3,0-.4c0-.1.1-.2.2-.3,0-.1.2-.2.3-.2.1,0,.3,0,.4,0s.3,0,.4,0c.1,0,.3.1.4.2.1,0,.2.2.2.3,0,.1,0,.3,0,.4ZM261.2,502.1v6.7h-1.8v-6.7h1.8Z"/>
            <path class="cls-10" d="M263.2,508.9v-5.4h-.5c-.1-.1-.2-.2-.3-.2,0,0-.1-.2-.1-.3v-.7h1v-.4c0-.4,0-.7.2-1s.3-.6.5-.8c.2-.2.5-.4.8-.5.3-.1.7-.2,1.1-.2s.3,0,.4,0c.1,0,.3,0,.4,0v.9c0,.1-.1.2-.2.3-.1,0-.2,0-.4,0s-.3,0-.5,0-.3.1-.4.2-.2.2-.2.4,0,.4,0,.6v.4h1.7v1.3h-1.6v5.4h-1.8Z"/>
            <path class="cls-10" d="M268.6,505.8c0,.6.2,1.1.5,1.4s.7.4,1.2.4.5,0,.6,0c.2,0,.3-.1.5-.2.1,0,.3-.1.4-.2.1,0,.2,0,.3,0s.2,0,.3.2l.5.7c-.2.2-.4.4-.6.6-.2.1-.5.3-.7.3-.2,0-.5.1-.8.2-.3,0-.5,0-.7,0-.5,0-.9,0-1.3-.2-.4-.2-.8-.4-1.1-.7s-.5-.7-.7-1.1c-.2-.4-.3-1-.3-1.6s0-.9.2-1.3c.1-.4.4-.8.7-1.1.3-.3.6-.5,1-.7.4-.2.9-.3,1.4-.3s.8,0,1.2.2c.4.1.7.3.9.6.3.3.5.6.6,1s.2.8.2,1.3,0,.2,0,.3,0,.2,0,.2,0,0-.1.1c0,0-.1,0-.2,0h-4ZM271.5,504.7c0-.2,0-.4,0-.5s-.1-.3-.2-.5c-.1-.1-.2-.2-.4-.3-.2,0-.4-.1-.6-.1-.4,0-.8.1-1,.4s-.4.6-.5,1h2.8Z"/>
            <path class="cls-10" d="M275.8,503.2c.2-.4.5-.7.7-.9s.6-.3,1-.3.6,0,.7.2v1.3c-.1,0-.2.1-.2.2,0,0-.1,0-.2,0s-.2,0-.3,0c-.1,0-.3,0-.4,0-.2,0-.3,0-.4,0s-.2.1-.3.2c0,0-.2.2-.3.3,0,.1-.2.3-.2.4v4.1h-1.8v-6.7h1.1c.2,0,.3,0,.4,0s.1.2.2.3v.7Z"/>
            <path class="cls-10" d="M280.3,505.8c0,.6.2,1.1.5,1.4s.7.4,1.2.4.5,0,.6,0c.2,0,.3-.1.5-.2.1,0,.3-.1.4-.2.1,0,.2,0,.3,0s.2,0,.3.2l.5.7c-.2.2-.4.4-.6.6-.2.1-.5.3-.7.3-.2,0-.5.1-.8.2-.3,0-.5,0-.7,0-.5,0-.9,0-1.3-.2-.4-.2-.8-.4-1.1-.7s-.5-.7-.7-1.1c-.2-.4-.3-1-.3-1.6s0-.9.2-1.3c.1-.4.4-.8.7-1.1.3-.3.6-.5,1-.7.4-.2.9-.3,1.4-.3s.8,0,1.2.2c.4.1.7.3.9.6.3.3.5.6.6,1s.2.8.2,1.3,0,.2,0,.3,0,.2,0,.2,0,0-.1.1c0,0-.1,0-.2,0h-4ZM283.1,504.7c0-.2,0-.4,0-.5s-.1-.3-.2-.5c-.1-.1-.2-.2-.4-.3-.2,0-.4-.1-.6-.1-.4,0-.8.1-1,.4s-.4.6-.5,1h2.8Z"/>
            <path class="cls-10" d="M287.5,502.9c.1-.1.3-.3.4-.4s.3-.2.5-.3c.2,0,.3-.1.5-.2.2,0,.4,0,.6,0,.4,0,.7,0,1,.2.3.1.5.3.7.5.2.2.3.5.4.8,0,.3.1.7.1,1v4.3h-1.8v-4.3c0-.4,0-.7-.3-.9-.2-.2-.4-.3-.8-.3s-.5,0-.7.2c-.2.1-.4.3-.6.5v4.8h-1.8v-6.7h1.1c.2,0,.4.1.5.3v.5Z"/>
            <path class="cls-10" d="M298,503.6c0,0-.1.1-.2.2s-.1,0-.2,0-.2,0-.3,0-.2-.1-.3-.2c-.1,0-.2-.1-.4-.2-.1,0-.3,0-.5,0s-.5,0-.7.1c-.2,0-.4.2-.5.4-.1.2-.2.4-.3.7s0,.6,0,.9c0,.7.1,1.2.4,1.6.3.4.7.5,1.1.5s.3,0,.4,0c.1,0,.2,0,.3-.1,0,0,.2,0,.2-.1,0,0,.1-.1.2-.1,0,0,.1,0,.2-.1,0,0,.1,0,.2,0,.1,0,.2,0,.3.2l.5.7c-.2.2-.4.4-.6.6-.2.1-.4.3-.7.3-.2,0-.5.1-.7.2-.2,0-.5,0-.7,0-.4,0-.8,0-1.2-.2-.4-.2-.7-.4-1-.7-.3-.3-.5-.7-.7-1.1s-.2-.9-.2-1.5,0-.9.2-1.4.4-.8.6-1.1c.3-.3.6-.6,1-.7.4-.2.9-.3,1.4-.3s1,0,1.4.2c.4.2.7.4,1,.7l-.5.6Z"/>
            <path class="cls-10" d="M301.5,500.2c0,.2,0,.3,0,.4,0,.1-.1.2-.2.3-.1,0-.2.2-.4.2-.1,0-.3,0-.4,0s-.3,0-.4,0c-.1,0-.2-.1-.3-.2s-.2-.2-.2-.3c0-.1,0-.3,0-.4s0-.3,0-.4c0-.1.1-.2.2-.3,0-.1.2-.2.3-.2.1,0,.3,0,.4,0s.3,0,.4,0c.1,0,.3.1.4.2.1,0,.2.2.2.3,0,.1,0,.3,0,.4ZM301.3,502.1v6.7h-1.8v-6.7h1.8Z"/>
            <path class="cls-10" d="M302.6,503.1c.4-.4.8-.6,1.3-.8.5-.2,1-.3,1.6-.3s.8,0,1.1.2.6.3.8.5c.2.2.4.5.5.8.1.3.2.7.2,1.1v4.2h-.8c-.2,0-.3,0-.4,0,0,0-.2-.1-.2-.3v-.4c-.3.1-.5.3-.6.4-.2.1-.3.2-.5.3s-.4.1-.5.2-.4,0-.7,0-.6,0-.8-.1c-.2,0-.5-.2-.6-.3-.2-.2-.3-.3-.4-.6,0-.2-.1-.5-.1-.8s0-.5.2-.7c.1-.2.3-.5.7-.7.3-.2.7-.4,1.2-.5s1.2-.2,1.9-.2v-.3c0-.4,0-.7-.3-.9-.2-.2-.4-.3-.8-.3s-.5,0-.6,0c-.2,0-.3.1-.4.2-.1,0-.2.1-.3.2-.1,0-.2,0-.4,0s-.2,0-.3,0c0,0-.2-.1-.2-.2l-.3-.6ZM306.3,506.1c-.4,0-.8,0-1.1.1-.3,0-.5.1-.7.2-.2,0-.3.2-.4.3,0,.1-.1.2-.1.4,0,.3,0,.4.2.6s.3.2.6.2.6,0,.8-.2c.2-.1.4-.3.7-.5v-1Z"/>
            <path class="cls-10" d="M311.2,499.1v9.7h-1.8v-9.7h1.8Z"/>
            <path class="cls-3" d="M258.6,523.2c0,.6,0,1.1-.3,1.5-.2.5-.4.8-.8,1.2s-.7.6-1.2.8-1,.3-1.5.3h-2.8v-7.4h2.8c.6,0,1.1,0,1.5.3.5.2.8.4,1.2.8s.6.7.8,1.2c.2.5.3,1,.3,1.5ZM257.5,523.2c0-.4,0-.8-.2-1.2-.1-.3-.3-.6-.5-.9-.2-.2-.5-.4-.8-.6-.3-.1-.7-.2-1.1-.2h-1.7v5.6h1.7c.4,0,.7,0,1.1-.2.3-.1.6-.3.8-.6.2-.2.4-.5.5-.9.1-.3.2-.7.2-1.2Z"/>
            <path class="cls-3" d="M265.6,526.9h-1c-.2,0-.3,0-.4-.2l-1.8-2.6c0,0-.1-.1-.2-.2,0,0-.2,0-.3,0h-.7v3h-1.1v-7.4h2.1c.5,0,.9,0,1.2.1.3,0,.6.2.9.4s.4.4.5.7c.1.3.2.5.2.9s0,.5-.1.7-.2.4-.3.6c-.2.2-.3.3-.6.5-.2.1-.5.2-.7.3.1,0,.3.2.4.3l2.1,2.9ZM262.2,523.1c.3,0,.5,0,.7-.1.2,0,.4-.2.5-.3.1-.1.3-.3.3-.4s.1-.4.1-.6c0-.4-.1-.7-.4-1s-.7-.3-1.3-.3h-1v2.7h1Z"/>
            <path class="cls-3" d="M272.8,526.9h-.8c0,0-.2,0-.2,0,0,0-.1-.1-.1-.2l-.7-1.7h-3.3l-.7,1.7c0,0,0,.1-.1.2s-.1,0-.2,0h-.8l3-7.4h1.1l3,7.4ZM270.6,524.2l-1.1-2.9c0-.2-.2-.4-.2-.7,0,.1,0,.3-.1.4,0,.1,0,.2-.1.3l-1.1,2.9h2.7Z"/>
            <path class="cls-3" d="M273.5,526.3c0,0,0-.2,0-.3,0,0,0-.2.1-.2,0,0,.1-.1.2-.1s.2,0,.3,0,.2,0,.3,0c0,0,.2,0,.2.1s.1.1.1.2c0,0,0,.2,0,.3s0,.2,0,.3c0,0,0,.2-.1.2s-.1.1-.2.1c0,0-.2,0-.3,0s-.2,0-.3,0c0,0-.2,0-.2-.1,0,0-.1-.1-.1-.2,0,0,0-.2,0-.3Z"/>
            <path class="cls-3" d="M280.2,520.4v2.5h3v.9h-3v3.1h-1.1v-7.4h4.6v.9h-3.5Z"/>
            <path class="cls-3" d="M286.1,526.9h-1.1v-7.4h1.1v7.4Z"/>
            <path class="cls-3" d="M292.3,526v.9h-4.2v-7.4h1.1v6.5h3.1Z"/>
            <path class="cls-3" d="M294.6,526.9h-1.1v-7.4h1.1v7.4Z"/>
            <path class="cls-3" d="M298.7,519.5c.5,0,.9,0,1.2.2.4.1.6.3.9.5.2.2.4.4.5.7.1.3.2.6.2.9s0,.7-.2,1c-.1.3-.3.5-.5.8-.2.2-.5.4-.9.5-.3.1-.8.2-1.2.2h-1.1v2.7h-1.1v-7.4h2.2ZM298.7,523.3c.3,0,.5,0,.7-.1.2,0,.4-.2.5-.3.1-.1.2-.3.3-.5,0-.2.1-.4.1-.6,0-.5-.1-.8-.4-1.1-.3-.3-.7-.4-1.3-.4h-1.1v3h1.1Z"/>
            <path class="cls-3" d="M308.4,526.9h-.8c0,0-.2,0-.2,0,0,0-.1-.1-.1-.2l-.7-1.7h-3.3l-.7,1.7c0,0,0,.1-.1.2s-.1,0-.2,0h-.8l3-7.4h1.1l3,7.4ZM306.3,524.2l-1.1-2.9c0-.2-.2-.4-.2-.7,0,.1,0,.3-.1.4,0,.1,0,.2-.1.3l-1.1,2.9h2.7Z"/>
            <path class="cls-3" d="M256.7,537.2v.9h-4.6v-7.4h4.6v.9h-3.5v2.3h2.8v.9h-2.8v2.4h3.5Z"/>
            <path class="cls-3" d="M262,531.9c0,0,0,.1-.1.1s0,0-.1,0-.1,0-.2,0-.2-.1-.3-.2c-.1,0-.3-.1-.4-.2-.2,0-.4,0-.6,0s-.4,0-.6,0c-.2,0-.3.1-.4.2-.1,0-.2.2-.2.3,0,.1,0,.3,0,.4s0,.4.2.5.2.2.4.3.4.2.6.2c.2,0,.4.1.6.2.2,0,.4.2.6.3.2,0,.4.2.6.4.2.1.3.3.4.5.1.2.2.5.2.8s0,.6-.2.9c-.1.3-.3.5-.5.7s-.5.4-.8.5c-.3.1-.7.2-1.1.2s-.5,0-.7,0c-.2,0-.4-.1-.6-.2-.2,0-.4-.2-.6-.3-.2-.1-.3-.3-.5-.4l.3-.5s0,0,.1-.1c0,0,0,0,.1,0s.2,0,.3.1c0,0,.2.2.4.2.1,0,.3.2.5.3.2,0,.4.1.7.1s.4,0,.6,0c.2,0,.3-.1.5-.3.1-.1.2-.2.3-.4,0-.2,0-.3,0-.5s0-.4-.1-.5c0-.1-.2-.3-.4-.3-.2,0-.4-.2-.6-.2s-.4-.1-.6-.2-.4-.2-.6-.2-.4-.2-.6-.4c-.2-.1-.3-.3-.4-.6,0-.2-.1-.5-.1-.8s0-.5.2-.8.3-.5.5-.7c.2-.2.4-.3.7-.5s.6-.2,1-.2.8,0,1.1.2c.3.1.7.3.9.6l-.3.5Z"/>
            <path class="cls-3" d="M266.2,530.7c.5,0,.9,0,1.2.2.4.1.6.3.9.5.2.2.4.4.5.7.1.3.2.6.2.9s0,.7-.2,1c-.1.3-.3.5-.5.8-.2.2-.5.4-.9.5-.3.1-.8.2-1.2.2h-1.1v2.7h-1.1v-7.4h2.2ZM266.2,534.5c.3,0,.5,0,.7-.1.2,0,.4-.2.5-.3.1-.1.2-.3.3-.5,0-.2.1-.4.1-.6,0-.5-.1-.8-.4-1.1-.3-.3-.7-.4-1.3-.4h-1.1v3h1.1Z"/>
            <path class="cls-3" d="M275.8,538.1h-.8c0,0-.2,0-.2,0,0,0-.1-.1-.1-.2l-.7-1.7h-3.3l-.7,1.7c0,0,0,.1-.1.2s-.1,0-.2,0h-.8l3-7.4h1.1l3,7.4ZM273.7,535.4l-1.1-2.9c0-.2-.2-.4-.2-.7,0,.1,0,.3-.1.4,0,.1,0,.2-.1.3l-1.1,2.9h2.7Z"/>
            <path class="cls-3" d="M283.3,534.4c0,.6,0,1.1-.3,1.5-.2.5-.4.8-.8,1.2s-.7.6-1.2.8-1,.3-1.5.3h-2.8v-7.4h2.8c.6,0,1.1,0,1.5.3.5.2.8.4,1.2.8s.6.7.8,1.2c.2.5.3,1,.3,1.5ZM282.2,534.4c0-.4,0-.8-.2-1.2-.1-.3-.3-.6-.5-.9-.2-.2-.5-.4-.8-.6-.3-.1-.7-.2-1.1-.2h-1.7v5.6h1.7c.4,0,.7,0,1.1-.2.3-.1.6-.3.8-.6.2-.2.4-.5.5-.9.1-.3.2-.7.2-1.2Z"/>
            <path class="cls-3" d="M290.7,538.1h-.8c0,0-.2,0-.2,0,0,0-.1-.1-.1-.2l-.7-1.7h-3.3l-.7,1.7c0,0,0,.1-.1.2s-.1,0-.2,0h-.8l3-7.4h1.1l3,7.4ZM288.6,535.4l-1.1-2.9c0-.2-.2-.4-.2-.7,0,.1,0,.3-.1.4,0,.1,0,.2-.1.3l-1.1,2.9h2.7Z"/>
          </g>
          <path class="cls-14" d="M253.5,478v-.4l2.2-.5c.3,0,.3-.3.3-.8v-10.9c0-.7-.4-1.1-1-.9l-2.3.6-.3-1.3,6.9-1.9h.4v14.3c0,.6,0,.8.3.8l2.2.5v.4h-8.8Z"/>
        </g>
        <g>
          <rect class="cls-12" x="363.5" y="449.6" width="115.1" height="115.1"/>
          <path class="cls-14" d="M373.6,478v-1.8c1.1-.7,2.4-1.7,3.4-2.7,1.5-1.5,2.8-3.5,2.8-5.8s-1.2-3.4-3.1-3.4-1.9.4-2.6,1.1l-.7-.7c1.3-1.5,2.7-2.7,5.1-2.7s4.8,2,4.8,4.7-1.3,3.9-3.1,5.7c-1.2,1.2-3,2.8-3.8,3.4h7.4v2.2h-10.4Z"/>
          <g>
            <path class="cls-10" d="M382.5,491.2c0,.7-.1,1.3-.3,1.9-.2.6-.6,1.1-1,1.5-.4.4-.9.7-1.5,1s-1.3.4-2,.4h-3.6v-9.5h3.6c.7,0,1.4.1,2,.4s1.1.6,1.5,1c.4.4.8.9,1,1.5.2.6.3,1.2.3,1.9ZM380.5,491.2c0-.5,0-.9-.2-1.3-.1-.4-.3-.7-.6-1-.2-.3-.5-.5-.9-.6-.4-.1-.7-.2-1.2-.2h-1.7v6.4h1.7c.4,0,.8,0,1.2-.2s.6-.4.9-.6c.2-.3.4-.6.6-1s.2-.8.2-1.3Z"/>
            <path class="cls-10" d="M385.6,487.3c0,.2,0,.3,0,.4,0,.1-.1.2-.2.3-.1,0-.2.2-.4.2-.1,0-.3,0-.4,0s-.3,0-.4,0c-.1,0-.2-.1-.3-.2s-.2-.2-.2-.3c0-.1,0-.3,0-.4s0-.3,0-.4c0-.1.1-.2.2-.3,0-.1.2-.2.3-.2.1,0,.3,0,.4,0s.3,0,.4,0c.1,0,.3.1.4.2.1,0,.2.2.2.3,0,.1,0,.3,0,.4ZM385.4,489.2v6.7h-1.8v-6.7h1.8Z"/>
            <path class="cls-10" d="M386.7,490.2c.4-.4.8-.6,1.3-.8.5-.2,1-.3,1.6-.3s.8,0,1.1.2.6.3.8.5c.2.2.4.5.5.8.1.3.2.7.2,1.1v4.2h-.8c-.2,0-.3,0-.4,0,0,0-.2-.1-.2-.3v-.4c-.3.1-.5.3-.6.4-.2.1-.3.2-.5.3s-.4.1-.5.2-.4,0-.7,0-.6,0-.8-.1c-.2,0-.5-.2-.6-.3-.2-.2-.3-.3-.4-.6,0-.2-.1-.5-.1-.8s0-.5.2-.7c.1-.2.3-.5.7-.7.3-.2.7-.4,1.2-.5s1.2-.2,1.9-.2v-.3c0-.4,0-.7-.3-.9-.2-.2-.4-.3-.8-.3s-.5,0-.6,0c-.2,0-.3.1-.4.2-.1,0-.2.1-.3.2-.1,0-.2,0-.4,0s-.2,0-.3,0c0,0-.2-.1-.2-.2l-.3-.6ZM390.4,493.2c-.4,0-.8,0-1.1.1-.3,0-.5.1-.7.2-.2,0-.3.2-.4.3,0,.1-.1.2-.1.4,0,.3,0,.4.2.6s.3.2.6.2.6,0,.8-.2c.2-.1.4-.3.7-.5v-1Z"/>
            <path class="cls-10" d="M399.5,489.5v.7c0,.1,0,.2,0,.2,0,0-.2.1-.3.1h-.5c0,.3.1.6.1.8s0,.6-.2.9c-.1.3-.3.5-.6.7-.2.2-.5.3-.9.4s-.7.2-1.1.2-.5,0-.7,0c-.2.1-.3.2-.3.4s0,.2.2.3c.1,0,.3,0,.5.1.2,0,.4,0,.7,0,.3,0,.5,0,.8,0,.3,0,.5,0,.8.1s.5.1.7.3c.2.1.4.3.5.5.1.2.2.5.2.8s0,.6-.2.9c-.1.3-.4.5-.6.8-.3.2-.6.4-1,.5-.4.1-.9.2-1.4.2s-1,0-1.3-.1c-.4,0-.7-.2-.9-.4-.3-.2-.4-.4-.6-.6-.1-.2-.2-.4-.2-.7s0-.6.3-.8c.2-.2.4-.4.8-.5-.2,0-.3-.2-.4-.4s-.2-.4-.2-.6,0-.4.2-.6.4-.4.7-.6c-.3-.2-.6-.4-.8-.7-.2-.3-.3-.7-.3-1.1s0-.6.2-.9c.1-.3.3-.5.6-.7.2-.2.5-.3.9-.4s.7-.2,1.1-.2c.6,0,1.1.1,1.5.3h2ZM397.7,496.2c0-.1,0-.2-.1-.3,0,0-.2-.1-.3-.2-.1,0-.3,0-.4,0-.2,0-.4,0-.5,0s-.4,0-.6,0c-.2,0-.4,0-.6,0-.2,0-.3.2-.4.3,0,.1-.1.3-.1.4s0,.2,0,.3.1.2.3.2.3.1.5.2c.2,0,.4,0,.7,0s.5,0,.8,0c.2,0,.4,0,.5-.2.1,0,.2-.2.3-.3,0,0,0-.2,0-.3ZM396,492.4c.4,0,.6,0,.8-.3.2-.2.3-.4.3-.7s0-.6-.3-.7c-.2-.2-.4-.3-.8-.3s-.6,0-.8.3c-.2.2-.3.4-.3.7s0,.5.3.7c.2.2.4.3.8.3Z"/>
            <path class="cls-10" d="M402,490c.1-.1.3-.3.4-.4s.3-.2.5-.3c.2,0,.3-.1.5-.2.2,0,.4,0,.6,0,.4,0,.7,0,1,.2.3.1.5.3.7.5.2.2.3.5.4.8,0,.3.1.7.1,1v4.3h-1.8v-4.3c0-.4,0-.7-.3-.9-.2-.2-.4-.3-.8-.3s-.5,0-.7.2c-.2.1-.4.3-.6.5v4.8h-1.8v-6.7h1.1c.2,0,.4.1.5.3v.5Z"/>
            <path class="cls-10" d="M410.7,489.1c.5,0,1,0,1.4.2.4.2.8.4,1.1.7.3.3.5.7.7,1.1.2.4.2.9.2,1.4s0,1-.2,1.4c-.2.4-.4.8-.7,1.1-.3.3-.7.5-1.1.7-.4.2-.9.2-1.4.2s-1,0-1.4-.2-.8-.4-1.1-.7c-.3-.3-.5-.7-.7-1.1-.2-.4-.2-.9-.2-1.4s0-1,.2-1.4c.2-.4.4-.8.7-1.1.3-.3.7-.5,1.1-.7s.9-.2,1.4-.2ZM410.7,494.7c.5,0,.9-.2,1.1-.5.2-.4.4-.9.4-1.6s-.1-1.2-.4-1.6c-.2-.4-.6-.5-1.1-.5s-.9.2-1.2.5-.4.9-.4,1.6.1,1.2.4,1.6.6.5,1.2.5ZM413.2,486.4l-1.7,1.7c0,0-.2.2-.3.2,0,0-.2,0-.3,0h-1.1l.9-1.6c0-.1.1-.2.2-.3,0,0,.2,0,.4,0h1.7Z"/>
            <path class="cls-10" d="M419.4,490.6c0,0,0,.1-.1.2,0,0-.1,0-.2,0s-.2,0-.3,0-.2,0-.3-.1c-.1,0-.2,0-.4-.1-.1,0-.3,0-.5,0-.3,0-.5,0-.7.2-.2.1-.2.3-.2.5s0,.2.1.3.2.2.4.2c.1,0,.3.1.5.2.2,0,.4.1.6.2.2,0,.4.2.6.2.2,0,.4.2.5.3.2.1.3.3.4.5,0,.2.1.4.1.7s0,.6-.2.9-.3.5-.5.7c-.2.2-.5.4-.9.5s-.7.2-1.2.2-.5,0-.7,0-.4,0-.6-.2c-.2,0-.4-.2-.6-.3-.2,0-.3-.2-.5-.3l.4-.7c0,0,.1-.1.2-.2,0,0,.2,0,.3,0s.2,0,.3,0,.2.1.3.2c.1,0,.2.1.4.2.2,0,.3,0,.6,0s.3,0,.5,0c.1,0,.2,0,.3-.2,0,0,.1-.1.2-.2,0,0,0-.2,0-.3,0-.1,0-.3-.1-.4s-.2-.2-.4-.2c-.2,0-.3-.1-.5-.2-.2,0-.4-.1-.6-.2-.2,0-.4-.2-.6-.2-.2,0-.4-.2-.5-.4-.2-.1-.3-.3-.4-.5,0-.2-.1-.5-.1-.8s0-.5.2-.8.3-.5.5-.7c.2-.2.5-.3.8-.5.3-.1.7-.2,1.1-.2s.9,0,1.3.2.7.4,1,.6l-.4.6Z"/>
            <path class="cls-10" d="M427.9,496h-1.8v-5.4h-3v3.5c0,.2,0,.3.1.4s.2.2.4.2.2,0,.2,0c0,0,.1,0,.2,0,0,0,0,0,.1,0,0,0,0,0,.1,0s0,0,.1,0c0,0,0,0,.1.1l.5.9c-.2.2-.5.3-.8.4-.3.1-.6.2-1,.2s-.6,0-.8-.1-.4-.2-.6-.4c-.2-.2-.3-.4-.4-.6s-.1-.5-.1-.8v-3.6h-.6c0,0-.2,0-.2,0,0,0-.1-.2-.1-.3v-.7l1.1-.2.4-1.7c0-.2.2-.3.4-.3h.9v2.1h4.8v6.7ZM428.2,487.3c0,.1,0,.3,0,.4s-.1.2-.2.3c-.1,0-.2.2-.4.2-.1,0-.3,0-.4,0s-.3,0-.4,0c-.1,0-.2-.1-.3-.2,0,0-.2-.2-.2-.3,0-.1,0-.3,0-.4s0-.3,0-.4c0-.1.1-.2.2-.3s.2-.2.3-.2c.1,0,.3,0,.4,0s.3,0,.4,0c.1,0,.3.1.4.2.1,0,.2.2.2.3,0,.1,0,.3,0,.4Z"/>
            <path class="cls-10" d="M434.3,490.7c0,0-.1.1-.2.2s-.1,0-.2,0-.2,0-.3,0-.2-.1-.3-.2c-.1,0-.2-.1-.4-.2-.1,0-.3,0-.5,0s-.5,0-.7.1c-.2,0-.4.2-.5.4-.1.2-.2.4-.3.7s0,.6,0,.9c0,.7.1,1.2.4,1.6.3.4.7.5,1.1.5s.3,0,.4,0c.1,0,.2,0,.3-.1,0,0,.2,0,.2-.1,0,0,.1-.1.2-.1,0,0,.1,0,.2-.1,0,0,.1,0,.2,0,.1,0,.2,0,.3.2l.5.7c-.2.2-.4.4-.6.6-.2.1-.4.3-.7.3-.2,0-.5.1-.7.2-.2,0-.5,0-.7,0-.4,0-.8,0-1.2-.2-.4-.2-.7-.4-1-.7-.3-.3-.5-.7-.7-1.1s-.2-.9-.2-1.5,0-.9.2-1.4.4-.8.6-1.1c.3-.3.6-.6,1-.7.4-.2.9-.3,1.4-.3s1,0,1.4.2c.4.2.7.4,1,.7l-.5.6Z"/>
            <path class="cls-10" d="M438.6,489.1c.5,0,1,0,1.4.2.4.2.8.4,1.1.7.3.3.5.7.7,1.1.2.4.2.9.2,1.4s0,1-.2,1.4c-.2.4-.4.8-.7,1.1-.3.3-.7.5-1.1.7-.4.2-.9.2-1.4.2s-1,0-1.4-.2-.8-.4-1.1-.7c-.3-.3-.5-.7-.7-1.1-.2-.4-.2-.9-.2-1.4s0-1,.2-1.4c.2-.4.4-.8.7-1.1.3-.3.7-.5,1.1-.7s.9-.2,1.4-.2ZM438.6,494.7c.5,0,.9-.2,1.1-.5.2-.4.4-.9.4-1.6s-.1-1.2-.4-1.6c-.2-.4-.6-.5-1.1-.5s-.9.2-1.2.5-.4.9-.4,1.6.1,1.2.4,1.6.6.5,1.2.5Z"/>
            <path class="cls-10" d="M375.2,505.8c0,.6.2,1.1.5,1.4s.7.4,1.2.4.5,0,.6,0c.2,0,.3-.1.5-.2.1,0,.3-.1.4-.2.1,0,.2,0,.3,0s.2,0,.3.2l.5.7c-.2.2-.4.4-.6.6-.2.1-.5.3-.7.3-.2,0-.5.1-.8.2-.3,0-.5,0-.7,0-.5,0-.9,0-1.3-.2-.4-.2-.8-.4-1.1-.7s-.5-.7-.7-1.1c-.2-.4-.3-1-.3-1.6s0-.9.2-1.3c.1-.4.4-.8.7-1.1.3-.3.6-.5,1-.7.4-.2.9-.3,1.4-.3s.8,0,1.2.2c.4.1.7.3.9.6.3.3.5.6.6,1s.2.8.2,1.3,0,.2,0,.3,0,.2,0,.2,0,0-.1.1c0,0-.1,0-.2,0h-4ZM378,504.7c0-.2,0-.4,0-.5s-.1-.3-.2-.5c-.1-.1-.2-.2-.4-.3-.2,0-.4-.1-.6-.1-.4,0-.8.1-1,.4s-.4.6-.5,1h2.8Z"/>
            <path class="cls-10" d="M383.6,503.1c.4-.4.8-.6,1.3-.8.5-.2,1-.3,1.6-.3s.8,0,1.1.2.6.3.8.5c.2.2.4.5.5.8.1.3.2.7.2,1.1v4.2h-.8c-.2,0-.3,0-.4,0,0,0-.2-.1-.2-.3v-.4c-.3.1-.5.3-.6.4-.2.1-.3.2-.5.3s-.4.1-.5.2-.4,0-.7,0-.6,0-.8-.1c-.2,0-.5-.2-.6-.3-.2-.2-.3-.3-.4-.6,0-.2-.1-.5-.1-.8s0-.5.2-.7c.1-.2.3-.5.7-.7.3-.2.7-.4,1.2-.5s1.2-.2,1.9-.2v-.3c0-.4,0-.7-.3-.9-.2-.2-.4-.3-.8-.3s-.5,0-.6,0c-.2,0-.3.1-.4.2-.1,0-.2.1-.3.2-.1,0-.2,0-.4,0s-.2,0-.3,0c0,0-.2-.1-.2-.2l-.3-.6ZM387.2,506.1c-.4,0-.8,0-1.1.1-.3,0-.5.1-.7.2-.2,0-.3.2-.4.3,0,.1-.1.2-.1.4,0,.3,0,.4.2.6s.3.2.6.2.6,0,.8-.2c.2-.1.4-.3.7-.5v-1Z"/>
            <path class="cls-10" d="M396.4,502.1l-2.6,6.7h-1.6l-2.6-6.7h1.5c.1,0,.2,0,.3,0,0,0,.1.1.2.2l1.1,3.3c0,.2.1.4.2.7,0,.2.1.4.1.7,0-.2.1-.4.2-.7,0-.2.1-.4.2-.7l1.2-3.3c0,0,0-.2.2-.2,0,0,.2,0,.3,0h1.4Z"/>
            <path class="cls-10" d="M396.8,503.1c.4-.4.8-.6,1.3-.8.5-.2,1-.3,1.6-.3s.8,0,1.1.2.6.3.8.5c.2.2.4.5.5.8.1.3.2.7.2,1.1v4.2h-.8c-.2,0-.3,0-.4,0,0,0-.2-.1-.2-.3v-.4c-.3.1-.5.3-.6.4-.2.1-.3.2-.5.3s-.4.1-.5.2-.4,0-.7,0-.6,0-.8-.1c-.2,0-.5-.2-.6-.3-.2-.2-.3-.3-.4-.6,0-.2-.1-.5-.1-.8s0-.5.2-.7c.1-.2.3-.5.7-.7.3-.2.7-.4,1.2-.5s1.2-.2,1.9-.2v-.3c0-.4,0-.7-.3-.9-.2-.2-.4-.3-.8-.3s-.5,0-.6,0c-.2,0-.3.1-.4.2-.1,0-.2.1-.3.2-.1,0-.2,0-.4,0s-.2,0-.3,0c0,0-.2-.1-.2-.2l-.3-.6ZM400.4,506.1c-.4,0-.8,0-1.1.1-.3,0-.5.1-.7.2-.2,0-.3.2-.4.3,0,.1-.1.2-.1.4,0,.3,0,.4.2.6s.3.2.6.2.6,0,.8-.2c.2-.1.4-.3.7-.5v-1Z"/>
            <path class="cls-10" d="M405.4,499.1v9.7h-1.8v-9.7h1.8Z"/>
            <path class="cls-10" d="M408.9,500.2c0,.2,0,.3,0,.4,0,.1-.1.2-.2.3-.1,0-.2.2-.4.2-.1,0-.3,0-.4,0s-.3,0-.4,0c-.1,0-.2-.1-.3-.2s-.2-.2-.2-.3c0-.1,0-.3,0-.4s0-.3,0-.4c0-.1.1-.2.2-.3,0-.1.2-.2.3-.2.1,0,.3,0,.4,0s.3,0,.4,0c.1,0,.3.1.4.2.1,0,.2.2.2.3,0,.1,0,.3,0,.4ZM408.7,502.1v6.7h-1.8v-6.7h1.8Z"/>
            <path class="cls-10" d="M410,503.1c.4-.4.8-.6,1.3-.8.5-.2,1-.3,1.6-.3s.8,0,1.1.2.6.3.8.5c.2.2.4.5.5.8.1.3.2.7.2,1.1v4.2h-.8c-.2,0-.3,0-.4,0,0,0-.2-.1-.2-.3v-.4c-.3.1-.5.3-.6.4-.2.1-.3.2-.5.3s-.4.1-.5.2-.4,0-.7,0-.6,0-.8-.1c-.2,0-.5-.2-.6-.3-.2-.2-.3-.3-.4-.6,0-.2-.1-.5-.1-.8s0-.5.2-.7c.1-.2.3-.5.7-.7.3-.2.7-.4,1.2-.5s1.2-.2,1.9-.2v-.3c0-.4,0-.7-.3-.9-.2-.2-.4-.3-.8-.3s-.5,0-.6,0c-.2,0-.3.1-.4.2-.1,0-.2.1-.3.2-.1,0-.2,0-.4,0s-.2,0-.3,0c0,0-.2-.1-.2-.2l-.3-.6ZM413.7,506.1c-.4,0-.8,0-1.1.1-.3,0-.5.1-.7.2-.2,0-.3.2-.4.3,0,.1-.1.2-.1.4,0,.3,0,.4.2.6s.3.2.6.2.6,0,.8-.2c.2-.1.4-.3.7-.5v-1Z"/>
            <path class="cls-10" d="M422.2,507.8c-.2.2-.3.3-.5.5-.2.1-.4.2-.5.3s-.4.2-.6.2c-.2,0-.4,0-.6.1v.3c.1,0,.3.1.4.2.1,0,.3.1.3.2,0,0,.1.2.2.3,0,0,0,.2,0,.3s0,.3-.1.4-.2.2-.3.3c-.1,0-.3.1-.5.2-.2,0-.4,0-.7,0s-.3,0-.5,0c-.2,0-.3,0-.5,0l.2-.6c0-.1,0-.2.2-.2s.1,0,.2,0,.2,0,.3,0,.2,0,.3,0c0,0,0-.1,0-.2,0-.1,0-.2-.2-.2s-.4,0-.7-.1l.3-.9c-.4,0-.7-.2-1-.4-.3-.2-.6-.4-.8-.7-.2-.3-.4-.6-.5-1-.1-.4-.2-.8-.2-1.3s0-.9.2-1.4.4-.8.6-1.1c.3-.3.6-.6,1-.7.4-.2.9-.3,1.4-.3s1,0,1.4.2c.4.2.7.4,1,.7l-.5.6c0,0-.1.1-.2.2s-.1,0-.2,0-.2,0-.3,0-.2-.1-.3-.2c-.1,0-.2-.1-.4-.2-.1,0-.3,0-.5,0s-.5,0-.7.1c-.2,0-.4.2-.5.4-.1.2-.2.4-.3.7s0,.6,0,.9c0,.7.1,1.2.4,1.6.3.4.7.5,1.1.5s.3,0,.4,0c.1,0,.2,0,.3-.1,0,0,.2,0,.2-.1,0,0,.1-.1.2-.1,0,0,.1,0,.2-.1,0,0,.1,0,.2,0,.1,0,.2,0,.3.2l.5.7Z"/>
            <path class="cls-10" d="M422.9,503.1c.4-.4.8-.6,1.3-.8.5-.2,1-.3,1.6-.3s.8,0,1.1.2.6.3.8.5c.2.2.4.5.5.8.1.3.2.7.2,1.1v4.2h-.8c-.2,0-.3,0-.4,0,0,0-.2-.1-.2-.3v-.4c-.3.1-.5.3-.6.4-.2.1-.3.2-.5.3s-.4.1-.5.2-.4,0-.7,0-.6,0-.8-.1c-.2,0-.5-.2-.6-.3-.2-.2-.3-.3-.4-.6,0-.2-.1-.5-.1-.8s0-.5.2-.7c.1-.2.3-.5.7-.7.3-.2.7-.4,1.2-.5s1.2-.2,1.9-.2v-.3c0-.4,0-.7-.3-.9-.2-.2-.4-.3-.8-.3s-.5,0-.6,0c-.2,0-.3.1-.4.2-.1,0-.2.1-.3.2-.1,0-.2,0-.4,0s-.2,0-.3,0c0,0-.2-.1-.2-.2l-.3-.6ZM426.3,499.9c.1,0,.2,0,.3,0,0,0,.1-.2.1-.4h1.1c0,.3,0,.5-.1.7,0,.2-.2.4-.3.5-.1.1-.3.3-.5.3s-.4.1-.6.1-.3,0-.4,0c-.1,0-.3-.1-.4-.2s-.2-.1-.3-.2c-.1,0-.2,0-.3,0-.1,0-.2,0-.3.1s-.1.2-.1.4h-1.1c0-.3,0-.5.1-.7,0-.2.2-.4.3-.5.1-.1.3-.3.5-.3s.4-.1.6-.1.3,0,.5,0c.1,0,.3.1.4.2s.2.1.3.2c0,0,.2,0,.3,0ZM426.6,506.1c-.4,0-.8,0-1.1.1-.3,0-.5.1-.7.2-.2,0-.3.2-.4.3,0,.1-.1.2-.1.4,0,.3,0,.4.2.6s.3.2.6.2.6,0,.8-.2c.2-.1.4-.3.7-.5v-1Z"/>
            <path class="cls-10" d="M432.7,502c.5,0,1,0,1.4.2.4.2.8.4,1.1.7.3.3.5.7.7,1.1.2.4.2.9.2,1.4s0,1-.2,1.4c-.2.4-.4.8-.7,1.1-.3.3-.7.5-1.1.7-.4.2-.9.2-1.4.2s-1,0-1.4-.2-.8-.4-1.1-.7c-.3-.3-.5-.7-.7-1.1-.2-.4-.2-.9-.2-1.4s0-1,.2-1.4c.2-.4.4-.8.7-1.1.3-.3.7-.5,1.1-.7s.9-.2,1.4-.2ZM432.7,507.6c.5,0,.9-.2,1.1-.5.2-.4.4-.9.4-1.6s-.1-1.2-.4-1.6c-.2-.4-.6-.5-1.1-.5s-.9.2-1.2.5-.4.9-.4,1.6.1,1.2.4,1.6.6.5,1.2.5Z"/>
            <path class="cls-10" d="M446.1,499.1v9.7h-1.1c-.2,0-.4-.1-.4-.3v-.6c-.3.1-.4.3-.6.4-.2.1-.3.2-.5.3-.2,0-.4.2-.6.2s-.4,0-.7,0c-.4,0-.7,0-1-.2-.3-.2-.6-.4-.8-.7-.2-.3-.4-.7-.5-1.1-.1-.4-.2-.9-.2-1.5s0-1,.2-1.4c.1-.4.3-.8.6-1.1s.6-.6.9-.7.8-.3,1.2-.3.7,0,.9.2c.2.1.5.3.7.4v-3.5h1.8ZM444.3,503.9c-.2-.2-.4-.3-.6-.4-.2,0-.4-.1-.6-.1s-.4,0-.6.1c-.2,0-.3.2-.5.4-.1.2-.2.4-.3.7,0,.3-.1.6-.1,1s0,.7,0,1c0,.3.1.5.2.6.1.2.2.3.4.3.2,0,.3.1.5.1.3,0,.6,0,.8-.2.2-.1.4-.3.6-.5v-3Z"/>
            <path class="cls-10" d="M450.6,502c.5,0,1,0,1.4.2.4.2.8.4,1.1.7.3.3.5.7.7,1.1.2.4.2.9.2,1.4s0,1-.2,1.4c-.2.4-.4.8-.7,1.1-.3.3-.7.5-1.1.7-.4.2-.9.2-1.4.2s-1,0-1.4-.2-.8-.4-1.1-.7c-.3-.3-.5-.7-.7-1.1-.2-.4-.2-.9-.2-1.4s0-1,.2-1.4c.2-.4.4-.8.7-1.1.3-.3.7-.5,1.1-.7s.9-.2,1.4-.2ZM450.6,507.6c.5,0,.9-.2,1.1-.5.2-.4.4-.9.4-1.6s-.1-1.2-.4-1.6c-.2-.4-.6-.5-1.1-.5s-.9.2-1.2.5-.4.9-.4,1.6.1,1.2.4,1.6.6.5,1.2.5Z"/>
            <path class="cls-10" d="M375.4,516.1c.2-.4.5-.7.7-.9s.6-.3,1-.3.6,0,.7.2v1.3c-.1,0-.2.1-.2.2,0,0-.1,0-.2,0s-.2,0-.3,0c-.1,0-.3,0-.4,0-.2,0-.3,0-.4,0s-.2.1-.3.2c0,0-.2.2-.3.3,0,.1-.2.3-.2.4v4.1h-1.8v-6.7h1.1c.2,0,.3,0,.4,0s.1.2.2.3v.7Z"/>
            <path class="cls-10" d="M380.7,513.1c0,.2,0,.3,0,.4,0,.1-.1.2-.2.3-.1,0-.2.2-.4.2-.1,0-.3,0-.4,0s-.3,0-.4,0c-.1,0-.2-.1-.3-.2s-.2-.2-.2-.3c0-.1,0-.3,0-.4s0-.3,0-.4c0-.1.1-.2.2-.3,0-.1.2-.2.3-.2.1,0,.3,0,.4,0s.3,0,.4,0c.1,0,.3.1.4.2.1,0,.2.2.2.3,0,.1,0,.3,0,.4ZM380.5,515v6.7h-1.8v-6.7h1.8Z"/>
            <path class="cls-10" d="M386.1,516.4c0,0,0,.1-.1.2,0,0-.1,0-.2,0s-.2,0-.3,0-.2,0-.3-.1c-.1,0-.2,0-.4-.1-.1,0-.3,0-.5,0-.3,0-.5,0-.7.2-.2.1-.2.3-.2.5s0,.2.1.3.2.2.4.2c.1,0,.3.1.5.2.2,0,.4.1.6.2.2,0,.4.2.6.2.2,0,.4.2.5.3.2.1.3.3.4.5,0,.2.1.4.1.7s0,.6-.2.9-.3.5-.5.7c-.2.2-.5.4-.9.5s-.7.2-1.2.2-.5,0-.7,0-.4,0-.6-.2c-.2,0-.4-.2-.6-.3-.2,0-.3-.2-.5-.3l.4-.7c0,0,.1-.1.2-.2,0,0,.2,0,.3,0s.2,0,.3,0,.2.1.3.2c.1,0,.2.1.4.2.2,0,.3,0,.6,0s.3,0,.5,0c.1,0,.2,0,.3-.2,0,0,.1-.1.2-.2,0,0,0-.2,0-.3,0-.1,0-.3-.1-.4s-.2-.2-.4-.2c-.2,0-.3-.1-.5-.2-.2,0-.4-.1-.6-.2-.2,0-.4-.2-.6-.2-.2,0-.4-.2-.5-.4-.2-.1-.3-.3-.4-.5,0-.2-.1-.5-.1-.8s0-.5.2-.8.3-.5.5-.7c.2-.2.5-.3.8-.5.3-.1.7-.2,1.1-.2s.9,0,1.3.2.7.4,1,.6l-.4.6Z"/>
            <path class="cls-10" d="M392.5,516.5c0,0-.1.1-.2.2s-.1,0-.2,0-.2,0-.3,0-.2-.1-.3-.2c-.1,0-.2-.1-.4-.2-.1,0-.3,0-.5,0s-.5,0-.7.1c-.2,0-.4.2-.5.4-.1.2-.2.4-.3.7s0,.6,0,.9c0,.7.1,1.2.4,1.6.3.4.7.5,1.1.5s.3,0,.4,0c.1,0,.2,0,.3-.1,0,0,.2,0,.2-.1,0,0,.1-.1.2-.1,0,0,.1,0,.2-.1,0,0,.1,0,.2,0,.1,0,.2,0,.3.2l.5.7c-.2.2-.4.4-.6.6-.2.1-.4.3-.7.3-.2,0-.5.1-.7.2-.2,0-.5,0-.7,0-.4,0-.8,0-1.2-.2-.4-.2-.7-.4-1-.7-.3-.3-.5-.7-.7-1.1s-.2-.9-.2-1.5,0-.9.2-1.4.4-.8.6-1.1c.3-.3.6-.6,1-.7.4-.2.9-.3,1.4-.3s1,0,1.4.2c.4.2.7.4,1,.7l-.5.6Z"/>
            <path class="cls-10" d="M396.8,514.9c.5,0,1,0,1.4.2.4.2.8.4,1.1.7.3.3.5.7.7,1.1.2.4.2.9.2,1.4s0,1-.2,1.4c-.2.4-.4.8-.7,1.1-.3.3-.7.5-1.1.7-.4.2-.9.2-1.4.2s-1,0-1.4-.2-.8-.4-1.1-.7c-.3-.3-.5-.7-.7-1.1-.2-.4-.2-.9-.2-1.4s0-1,.2-1.4c.2-.4.4-.8.7-1.1.3-.3.7-.5,1.1-.7s.9-.2,1.4-.2ZM396.8,520.5c.5,0,.9-.2,1.1-.5.2-.4.4-.9.4-1.6s-.1-1.2-.4-1.6c-.2-.4-.6-.5-1.1-.5s-.9.2-1.2.5-.4.9-.4,1.6.1,1.2.4,1.6.6.5,1.2.5Z"/>
            <path class="cls-10" d="M404.3,521.8v-6.7h1.1c.2,0,.4.1.5.3v.4c.2-.1.3-.2.5-.3.1-.1.3-.2.4-.3s.3-.1.5-.2c.2,0,.3,0,.5,0,.4,0,.8.1,1,.3.3.2.5.5.6.9.1-.2.2-.4.4-.6s.3-.3.5-.4c.2,0,.4-.2.6-.2.2,0,.4,0,.6,0,.4,0,.7,0,1,.2.3.1.5.3.7.5s.3.5.5.8.2.7.2,1.1v4.3h-1.8v-4.3c0-.8-.3-1.2-1-1.2s-.3,0-.4,0-.2.1-.3.2c0,.1-.2.2-.2.4s0,.3,0,.5v4.3h-1.8v-4.3c0-.4,0-.7-.3-.9s-.4-.3-.7-.3-.4,0-.6.1c-.2,0-.4.2-.5.4v4.9h-1.8Z"/>
            <path class="cls-10" d="M416.7,518.7c0,.6.2,1.1.5,1.4s.7.4,1.2.4.5,0,.6,0c.2,0,.3-.1.5-.2.1,0,.3-.1.4-.2.1,0,.2,0,.3,0s.2,0,.3.2l.5.7c-.2.2-.4.4-.6.6-.2.1-.5.3-.7.3-.2,0-.5.1-.8.2-.3,0-.5,0-.7,0-.5,0-.9,0-1.3-.2-.4-.2-.8-.4-1.1-.7s-.5-.7-.7-1.1c-.2-.4-.3-1-.3-1.6s0-.9.2-1.3c.1-.4.4-.8.7-1.1.3-.3.6-.5,1-.7.4-.2.9-.3,1.4-.3s.8,0,1.2.2c.4.1.7.3.9.6.3.3.5.6.6,1s.2.8.2,1.3,0,.2,0,.3,0,.2,0,.2,0,0-.1.1c0,0-.1,0-.2,0h-4ZM419.6,517.6c0-.2,0-.4,0-.5s-.1-.3-.2-.5c-.1-.1-.2-.2-.4-.3-.2,0-.4-.1-.6-.1-.4,0-.8.1-1,.4s-.4.6-.5,1h2.8Z"/>
            <path class="cls-10" d="M424.5,521.9c-.3,0-.6,0-.8-.1s-.4-.2-.6-.4c-.2-.2-.3-.4-.4-.6s-.1-.5-.1-.8v-3.6h-.6c0,0-.2,0-.2,0,0,0-.1-.2-.1-.3v-.7l1.1-.2.4-1.7c0-.2.2-.3.4-.3h.9v2.1h1.7v1.3h-1.7v3.5c0,.2,0,.3.1.4s.2.2.4.2.2,0,.2,0c0,0,.1,0,.2,0,0,0,0,0,.1,0,0,0,0,0,.1,0s0,0,.1,0c0,0,0,0,.1.1l.5.9c-.2.2-.5.3-.8.4-.3.1-.6.2-1,.2Z"/>
            <path class="cls-10" d="M426.9,516c.4-.4.8-.6,1.3-.8.5-.2,1-.3,1.6-.3s.8,0,1.1.2.6.3.8.5c.2.2.4.5.5.8.1.3.2.7.2,1.1v4.2h-.8c-.2,0-.3,0-.4,0,0,0-.2-.1-.2-.3v-.4c-.3.1-.5.3-.6.4-.2.1-.3.2-.5.3s-.4.1-.5.2-.4,0-.7,0-.6,0-.8-.1c-.2,0-.5-.2-.6-.3-.2-.2-.3-.3-.4-.6,0-.2-.1-.5-.1-.8s0-.5.2-.7c.1-.2.3-.5.7-.7.3-.2.7-.4,1.2-.5s1.2-.2,1.9-.2v-.3c0-.4,0-.7-.3-.9-.2-.2-.4-.3-.8-.3s-.5,0-.6,0c-.2,0-.3.1-.4.2-.1,0-.2.1-.3.2-.1,0-.2,0-.4,0s-.2,0-.3,0c0,0-.2-.1-.2-.2l-.3-.6ZM430.5,519c-.4,0-.8,0-1.1.1-.3,0-.5.1-.7.2-.2,0-.3.2-.4.3,0,.1-.1.2-.1.4,0,.3,0,.4.2.6s.3.2.6.2.6,0,.8-.2c.2-.1.4-.3.7-.5v-1Z"/>
            <path class="cls-10" d="M435.5,515.8c.3-.3.6-.5.9-.6.3-.2.7-.2,1.1-.2s.7,0,1,.2c.3.2.6.4.8.7.2.3.4.6.5,1s.2.9.2,1.4,0,1-.2,1.5c-.1.4-.3.8-.6,1.1s-.6.6-.9.7c-.4.2-.7.3-1.2.3s-.4,0-.6,0-.3,0-.5-.2c-.1,0-.3-.2-.4-.3s-.2-.2-.3-.3v.4c-.1.1-.2.2-.2.3,0,0-.2,0-.3,0h-1.2v-9.7h1.8v3.8ZM435.5,520c.2.2.4.3.6.4s.4.1.6.1.4,0,.6-.1.3-.2.5-.4c.1-.2.2-.4.3-.7,0-.3.1-.6.1-1s0-.7,0-.9c0-.2-.1-.5-.3-.6-.1-.2-.2-.3-.4-.4s-.3-.1-.6-.1-.5,0-.7.2c-.2.1-.4.3-.6.5v3Z"/>
            <path class="cls-10" d="M444.1,514.9c.5,0,1,0,1.4.2.4.2.8.4,1.1.7.3.3.5.7.7,1.1.2.4.2.9.2,1.4s0,1-.2,1.4c-.2.4-.4.8-.7,1.1-.3.3-.7.5-1.1.7-.4.2-.9.2-1.4.2s-1,0-1.4-.2-.8-.4-1.1-.7c-.3-.3-.5-.7-.7-1.1-.2-.4-.2-.9-.2-1.4s0-1,.2-1.4c.2-.4.4-.8.7-1.1.3-.3.7-.5,1.1-.7s.9-.2,1.4-.2ZM444.1,520.5c.5,0,.9-.2,1.1-.5.2-.4.4-.9.4-1.6s-.1-1.2-.4-1.6c-.2-.4-.6-.5-1.1-.5s-.9.2-1.2.5-.4.9-.4,1.6.1,1.2.4,1.6.6.5,1.2.5ZM446.5,512.2l-1.7,1.7c0,0-.2.2-.3.2,0,0-.2,0-.3,0h-1.1l.9-1.6c0-.1.1-.2.2-.3,0,0,.2,0,.4,0h1.7Z"/>
            <path class="cls-10" d="M450.3,512v9.7h-1.8v-9.7h1.8Z"/>
            <path class="cls-10" d="M453.9,513.1c0,.2,0,.3,0,.4,0,.1-.1.2-.2.3-.1,0-.2.2-.4.2-.1,0-.3,0-.4,0s-.3,0-.4,0c-.1,0-.2-.1-.3-.2s-.2-.2-.2-.3c0-.1,0-.3,0-.4s0-.3,0-.4c0-.1.1-.2.2-.3,0-.1.2-.2.3-.2.1,0,.3,0,.4,0s.3,0,.4,0c.1,0,.3.1.4.2.1,0,.2.2.2.3,0,.1,0,.3,0,.4ZM453.6,515v6.7h-1.8v-6.7h1.8Z"/>
            <path class="cls-10" d="M460,516.5c0,0-.1.1-.2.2s-.1,0-.2,0-.2,0-.3,0-.2-.1-.3-.2c-.1,0-.2-.1-.4-.2-.1,0-.3,0-.5,0s-.5,0-.7.1c-.2,0-.4.2-.5.4-.1.2-.2.4-.3.7s0,.6,0,.9c0,.7.1,1.2.4,1.6.3.4.7.5,1.1.5s.3,0,.4,0c.1,0,.2,0,.3-.1,0,0,.2,0,.2-.1,0,0,.1-.1.2-.1,0,0,.1,0,.2-.1,0,0,.1,0,.2,0,.1,0,.2,0,.3.2l.5.7c-.2.2-.4.4-.6.6-.2.1-.4.3-.7.3-.2,0-.5.1-.7.2-.2,0-.5,0-.7,0-.4,0-.8,0-1.2-.2-.4-.2-.7-.4-1-.7-.3-.3-.5-.7-.7-1.1s-.2-.9-.2-1.5,0-.9.2-1.4.4-.8.6-1.1c.3-.3.6-.6,1-.7.4-.2.9-.3,1.4-.3s1,0,1.4.2c.4.2.7.4,1,.7l-.5.6Z"/>
            <path class="cls-10" d="M464.3,514.9c.5,0,1,0,1.4.2.4.2.8.4,1.1.7.3.3.5.7.7,1.1.2.4.2.9.2,1.4s0,1-.2,1.4c-.2.4-.4.8-.7,1.1-.3.3-.7.5-1.1.7-.4.2-.9.2-1.4.2s-1,0-1.4-.2-.8-.4-1.1-.7c-.3-.3-.5-.7-.7-1.1-.2-.4-.2-.9-.2-1.4s0-1,.2-1.4c.2-.4.4-.8.7-1.1.3-.3.7-.5,1.1-.7s.9-.2,1.4-.2ZM464.3,520.5c.5,0,.9-.2,1.1-.5.2-.4.4-.9.4-1.6s-.1-1.2-.4-1.6c-.2-.4-.6-.5-1.1-.5s-.9.2-1.2.5-.4.9-.4,1.6.1,1.2.4,1.6.6.5,1.2.5Z"/>
            <path class="cls-3" d="M380.4,536.1c0,.6,0,1.1-.3,1.5-.2.5-.4.8-.8,1.2s-.7.6-1.2.8-1,.3-1.5.3h-2.8v-7.4h2.8c.6,0,1.1,0,1.5.3.5.2.8.4,1.2.8s.6.7.8,1.2c.2.5.3,1,.3,1.5ZM379.3,536.1c0-.4,0-.8-.2-1.2-.1-.3-.3-.6-.5-.9-.2-.2-.5-.4-.8-.6-.3-.1-.7-.2-1.1-.2h-1.7v5.6h1.7c.4,0,.7,0,1.1-.2.3-.1.6-.3.8-.6.2-.2.4-.5.5-.9.1-.3.2-.7.2-1.2Z"/>
            <path class="cls-3" d="M387.4,539.8h-1c-.2,0-.3,0-.4-.2l-1.8-2.6c0,0-.1-.1-.2-.2,0,0-.2,0-.3,0h-.7v3h-1.1v-7.4h2.1c.5,0,.9,0,1.2.1.3,0,.6.2.9.4s.4.4.5.7c.1.3.2.5.2.9s0,.5-.1.7-.2.4-.3.6c-.2.2-.3.3-.6.5-.2.1-.5.2-.7.3.1,0,.3.2.4.3l2.1,2.9ZM384,536c.3,0,.5,0,.7-.1.2,0,.4-.2.5-.3.1-.1.3-.3.3-.4s.1-.4.1-.6c0-.4-.1-.7-.4-1s-.7-.3-1.3-.3h-1v2.7h1Z"/>
            <path class="cls-3" d="M394.6,539.8h-.8c0,0-.2,0-.2,0,0,0-.1-.1-.1-.2l-.7-1.7h-3.3l-.7,1.7c0,0,0,.1-.1.2s-.1,0-.2,0h-.8l3-7.4h1.1l3,7.4ZM392.4,537.1l-1.1-2.9c0-.2-.2-.4-.2-.7,0,.1,0,.3-.1.4,0,.1,0,.2-.1.3l-1.1,2.9h2.7Z"/>
            <path class="cls-3" d="M395.2,539.2c0,0,0-.2,0-.3,0,0,0-.2.1-.2,0,0,.1-.1.2-.1s.2,0,.3,0,.2,0,.3,0c0,0,.2,0,.2.1s.1.1.1.2c0,0,0,.2,0,.3s0,.2,0,.3c0,0,0,.2-.1.2s-.1.1-.2.1c0,0-.2,0-.3,0s-.2,0-.3,0c0,0-.2,0-.2-.1,0,0-.1-.1-.1-.2,0,0,0-.2,0-.3Z"/>
            <path class="cls-3" d="M406.6,532.4l-3,7.4h-1l-3-7.4h.9c0,0,.2,0,.2,0,0,0,.1.1.1.2l2,5c0,.1,0,.3.1.4,0,.1,0,.3.1.5,0-.2,0-.3.1-.5,0-.1,0-.3.1-.4l2-5c0,0,0-.1.1-.2s.1,0,.2,0h.9Z"/>
            <path class="cls-3" d="M413.2,539.8h-.8c0,0-.2,0-.2,0,0,0-.1-.1-.1-.2l-.7-1.7h-3.3l-.7,1.7c0,0,0,.1-.1.2s-.1,0-.2,0h-.8l3-7.4h1.1l3,7.4ZM411,537.1l-1.1-2.9c0-.2-.2-.4-.2-.7,0,.1,0,.3-.1.4,0,.1,0,.2-.1.3l-1.1,2.9h2.7Z"/>
            <path class="cls-3" d="M420.3,532.4v7.4h-.6c0,0-.2,0-.2,0,0,0-.1,0-.2-.1l-4.2-5.4c0,0,0,.2,0,.3,0,0,0,.2,0,.3v5.1h-1v-7.4h.6c0,0,.2,0,.2,0,0,0,.1,0,.2.2l4.2,5.4c0,0,0-.2,0-.3,0,0,0-.2,0-.3v-5h1Z"/>
            <path class="cls-3" d="M426.8,538.9v.9h-4.6v-7.4h4.6v.9h-3.5v2.3h2.8v.9h-2.8v2.4h3.5Z"/>
            <path class="cls-3" d="M432.1,533.6c0,0,0,.1-.1.1s0,0-.1,0-.1,0-.2,0-.2-.1-.3-.2c-.1,0-.3-.1-.4-.2-.2,0-.4,0-.6,0s-.4,0-.6,0c-.2,0-.3.1-.4.2-.1,0-.2.2-.2.3,0,.1,0,.3,0,.4s0,.4.2.5.2.2.4.3.4.2.6.2c.2,0,.4.1.6.2.2,0,.4.2.6.3.2,0,.4.2.6.4.2.1.3.3.4.5.1.2.2.5.2.8s0,.6-.2.9c-.1.3-.3.5-.5.7s-.5.4-.8.5c-.3.1-.7.2-1.1.2s-.5,0-.7,0c-.2,0-.4-.1-.6-.2-.2,0-.4-.2-.6-.3-.2-.1-.3-.3-.5-.4l.3-.5s0,0,.1-.1c0,0,0,0,.1,0s.2,0,.3.1c0,0,.2.2.4.2.1,0,.3.2.5.3.2,0,.4.1.7.1s.4,0,.6,0c.2,0,.3-.1.5-.3.1-.1.2-.2.3-.4,0-.2,0-.3,0-.5s0-.4-.1-.5c0-.1-.2-.3-.4-.3-.2,0-.4-.2-.6-.2s-.4-.1-.6-.2-.4-.2-.6-.2-.4-.2-.6-.4c-.2-.1-.3-.3-.4-.6,0-.2-.1-.5-.1-.8s0-.5.2-.8.3-.5.5-.7c.2-.2.4-.3.7-.5s.6-.2,1-.2.8,0,1.1.2c.3.1.7.3.9.6l-.3.5Z"/>
            <path class="cls-3" d="M437.8,533.6c0,0,0,.1-.1.1s0,0-.1,0-.1,0-.2,0-.2-.1-.3-.2c-.1,0-.3-.1-.4-.2-.2,0-.4,0-.6,0s-.4,0-.6,0c-.2,0-.3.1-.4.2-.1,0-.2.2-.2.3,0,.1,0,.3,0,.4s0,.4.2.5.2.2.4.3.4.2.6.2c.2,0,.4.1.6.2.2,0,.4.2.6.3.2,0,.4.2.6.4.2.1.3.3.4.5.1.2.2.5.2.8s0,.6-.2.9c-.1.3-.3.5-.5.7s-.5.4-.8.5c-.3.1-.7.2-1.1.2s-.5,0-.7,0c-.2,0-.4-.1-.6-.2-.2,0-.4-.2-.6-.3-.2-.1-.3-.3-.5-.4l.3-.5s0,0,.1-.1c0,0,0,0,.1,0s.2,0,.3.1c0,0,.2.2.4.2.1,0,.3.2.5.3.2,0,.4.1.7.1s.4,0,.6,0c.2,0,.3-.1.5-.3.1-.1.2-.2.3-.4,0-.2,0-.3,0-.5s0-.4-.1-.5c0-.1-.2-.3-.4-.3-.2,0-.4-.2-.6-.2s-.4-.1-.6-.2-.4-.2-.6-.2-.4-.2-.6-.4c-.2-.1-.3-.3-.4-.6,0-.2-.1-.5-.1-.8s0-.5.2-.8.3-.5.5-.7c.2-.2.4-.3.7-.5s.6-.2,1-.2.8,0,1.1.2c.3.1.7.3.9.6l-.3.5Z"/>
            <path class="cls-3" d="M445.6,539.8h-.8c0,0-.2,0-.2,0,0,0-.1-.1-.1-.2l-.7-1.7h-3.3l-.7,1.7c0,0,0,.1-.1.2s-.1,0-.2,0h-.8l3-7.4h1.1l3,7.4ZM443.5,537.1l-1.1-2.9c0-.2-.2-.4-.2-.7,0,.1,0,.3-.1.4,0,.1,0,.2-.1.3l-1.1,2.9h2.7Z"/>
            <path class="cls-3" d="M377.7,544.8c0,0,0,.1-.1.1s0,0-.1,0-.1,0-.2,0-.2-.1-.3-.2c-.1,0-.3-.1-.4-.2-.2,0-.4,0-.6,0s-.4,0-.6,0c-.2,0-.3.1-.4.2-.1,0-.2.2-.2.3,0,.1,0,.3,0,.4s0,.4.2.5.2.2.4.3.4.2.6.2c.2,0,.4.1.6.2.2,0,.4.2.6.3.2,0,.4.2.6.4.2.1.3.3.4.5.1.2.2.5.2.8s0,.6-.2.9c-.1.3-.3.5-.5.7s-.5.4-.8.5c-.3.1-.7.2-1.1.2s-.5,0-.7,0c-.2,0-.4-.1-.6-.2-.2,0-.4-.2-.6-.3-.2-.1-.3-.3-.5-.4l.3-.5s0,0,.1-.1c0,0,0,0,.1,0s.2,0,.3.1c0,0,.2.2.4.2.1,0,.3.2.5.3.2,0,.4.1.7.1s.4,0,.6,0c.2,0,.3-.1.5-.3.1-.1.2-.2.3-.4,0-.2,0-.3,0-.5s0-.4-.1-.5c0-.1-.2-.3-.4-.3-.2,0-.4-.2-.6-.2s-.4-.1-.6-.2-.4-.2-.6-.2-.4-.2-.6-.4c-.2-.1-.3-.3-.4-.6,0-.2-.1-.5-.1-.8s0-.5.2-.8.3-.5.5-.7c.2-.2.4-.3.7-.5s.6-.2,1-.2.8,0,1.1.2c.3.1.7.3.9.6l-.3.5Z"/>
            <path class="cls-3" d="M380.7,551h-1.1v-7.4h1.1v7.4Z"/>
            <path class="cls-3" d="M386.9,550.1v.9h-4.2v-7.4h1.1v6.5h3.1Z"/>
            <path class="cls-3" d="M393.3,543.6l-3,7.4h-1l-3-7.4h.9c0,0,.2,0,.2,0,0,0,.1.1.1.2l2,5c0,.1,0,.3.1.4,0,.1,0,.3.1.5,0-.2,0-.3.1-.5,0-.1,0-.3.1-.4l2-5c0,0,0-.1.1-.2s.1,0,.2,0h.9Z"/>
            <path class="cls-3" d="M399.9,551h-.8c0,0-.2,0-.2,0,0,0-.1-.1-.1-.2l-.7-1.7h-3.3l-.7,1.7c0,0,0,.1-.1.2s-.1,0-.2,0h-.8l3-7.4h1.1l3,7.4ZM397.7,548.3l-1.1-2.9c0-.2-.2-.4-.2-.7,0,.1,0,.3-.1.4,0,.1,0,.2-.1.3l-1.1,2.9h2.7Z"/>
          </g>
        </g>
        <g>
          <rect class="cls-12" x="485.1" y="449.6" width="115.1" height="115.1"/>
          <path class="cls-14" d="M499,478.3c-1.3,0-3.4-.1-3.4-1.4s0-.4,0-.6l.4-1.2h.5c.2,1,1.4,1.9,2.6,1.9s2.9-1.3,2.9-3.3-1.9-3.2-4.1-3.2h-1.1v-1.5h1.1c1.7,0,3.3-.9,3.3-2.8s-1.1-2.5-2.6-2.5-1.9.4-2.6,1l-.6-.7c1.3-1.6,2.9-2.4,5-2.4s4.1,1.3,4.1,3.5-1.6,3-3.1,3.6c1.5,0,4,1.1,4,3.7s-3.2,5.7-6.4,5.7Z"/>
          <g>
            <path class="cls-10" d="M502.3,488.1h-2.8v7.9h-2v-7.9h-2.8v-1.6h7.5v1.6Z"/>
            <path class="cls-10" d="M503.6,490.3c.2-.4.5-.7.7-.9s.6-.3,1-.3.6,0,.7.2v1.3c-.1,0-.2.1-.2.2,0,0-.1,0-.2,0s-.2,0-.3,0c-.1,0-.3,0-.4,0-.2,0-.3,0-.4,0s-.2.1-.3.2c0,0-.2.2-.3.3,0,.1-.2.3-.2.4v4.1h-1.8v-6.7h1.1c.2,0,.3,0,.4,0s.1.2.2.3v.7Z"/>
            <path class="cls-10" d="M506.6,490.2c.4-.4.8-.6,1.3-.8.5-.2,1-.3,1.6-.3s.8,0,1.1.2.6.3.8.5c.2.2.4.5.5.8.1.3.2.7.2,1.1v4.2h-.8c-.2,0-.3,0-.4,0,0,0-.2-.1-.2-.3v-.4c-.3.1-.5.3-.6.4-.2.1-.3.2-.5.3s-.4.1-.5.2-.4,0-.7,0-.6,0-.8-.1c-.2,0-.5-.2-.6-.3-.2-.2-.3-.3-.4-.6,0-.2-.1-.5-.1-.8s0-.5.2-.7c.1-.2.3-.5.7-.7.3-.2.7-.4,1.2-.5s1.2-.2,1.9-.2v-.3c0-.4,0-.7-.3-.9-.2-.2-.4-.3-.8-.3s-.5,0-.6,0c-.2,0-.3.1-.4.2-.1,0-.2.1-.3.2-.1,0-.2,0-.4,0s-.2,0-.3,0c0,0-.2-.1-.2-.2l-.3-.6ZM510.2,493.2c-.4,0-.8,0-1.1.1-.3,0-.5.1-.7.2-.2,0-.3.2-.4.3,0,.1-.1.2-.1.4,0,.3,0,.4.2.6s.3.2.6.2.6,0,.8-.2c.2-.1.4-.3.7-.5v-1Z"/>
            <path class="cls-10" d="M515.6,496.1c-.3,0-.6,0-.8-.1s-.4-.2-.6-.4c-.2-.2-.3-.4-.4-.6s-.1-.5-.1-.8v-3.6h-.6c0,0-.2,0-.2,0,0,0-.1-.2-.1-.3v-.7l1.1-.2.4-1.7c0-.2.2-.3.4-.3h.9v2.1h1.7v1.3h-1.7v3.5c0,.2,0,.3.1.4s.2.2.4.2.2,0,.2,0c0,0,.1,0,.2,0,0,0,0,0,.1,0,0,0,0,0,.1,0s0,0,.1,0c0,0,0,0,.1.1l.5.9c-.2.2-.5.3-.8.4-.3.1-.6.2-1,.2Z"/>
            <path class="cls-10" d="M518,490.2c.4-.4.8-.6,1.3-.8.5-.2,1-.3,1.6-.3s.8,0,1.1.2.6.3.8.5c.2.2.4.5.5.8.1.3.2.7.2,1.1v4.2h-.8c-.2,0-.3,0-.4,0,0,0-.2-.1-.2-.3v-.4c-.3.1-.5.3-.6.4-.2.1-.3.2-.5.3s-.4.1-.5.2-.4,0-.7,0-.6,0-.8-.1c-.2,0-.5-.2-.6-.3-.2-.2-.3-.3-.4-.6,0-.2-.1-.5-.1-.8s0-.5.2-.7c.1-.2.3-.5.7-.7.3-.2.7-.4,1.2-.5s1.2-.2,1.9-.2v-.3c0-.4,0-.7-.3-.9-.2-.2-.4-.3-.8-.3s-.5,0-.6,0c-.2,0-.3.1-.4.2-.1,0-.2.1-.3.2-.1,0-.2,0-.4,0s-.2,0-.3,0c0,0-.2-.1-.2-.2l-.3-.6ZM521.6,493.2c-.4,0-.8,0-1.1.1-.3,0-.5.1-.7.2-.2,0-.3.2-.4.3,0,.1-.1.2-.1.4,0,.3,0,.4.2.6s.3.2.6.2.6,0,.8-.2c.2-.1.4-.3.7-.5v-1Z"/>
            <path class="cls-10" d="M524.7,496v-6.7h1.1c.2,0,.4.1.5.3v.4c.2-.1.3-.2.5-.3.1-.1.3-.2.4-.3s.3-.1.5-.2c.2,0,.3,0,.5,0,.4,0,.8.1,1,.3.3.2.5.5.6.9.1-.2.2-.4.4-.6s.3-.3.5-.4c.2,0,.4-.2.6-.2.2,0,.4,0,.6,0,.4,0,.7,0,1,.2.3.1.5.3.7.5s.3.5.5.8.2.7.2,1.1v4.3h-1.8v-4.3c0-.8-.3-1.2-1-1.2s-.3,0-.4,0-.2.1-.3.2c0,.1-.2.2-.2.4s0,.3,0,.5v4.3h-1.8v-4.3c0-.4,0-.7-.3-.9s-.4-.3-.7-.3-.4,0-.6.1c-.2,0-.4.2-.5.4v4.9h-1.8Z"/>
            <path class="cls-10" d="M537.1,492.9c0,.6.2,1.1.5,1.4s.7.4,1.2.4.5,0,.6,0c.2,0,.3-.1.5-.2.1,0,.3-.1.4-.2.1,0,.2,0,.3,0s.2,0,.3.2l.5.7c-.2.2-.4.4-.6.6-.2.1-.5.3-.7.3-.2,0-.5.1-.8.2-.3,0-.5,0-.7,0-.5,0-.9,0-1.3-.2-.4-.2-.8-.4-1.1-.7s-.5-.7-.7-1.1c-.2-.4-.3-1-.3-1.6s0-.9.2-1.3c.1-.4.4-.8.7-1.1.3-.3.6-.5,1-.7.4-.2.9-.3,1.4-.3s.8,0,1.2.2c.4.1.7.3.9.6.3.3.5.6.6,1s.2.8.2,1.3,0,.2,0,.3,0,.2,0,.2,0,0-.1.1c0,0-.1,0-.2,0h-4ZM540,491.8c0-.2,0-.4,0-.5s-.1-.3-.2-.5c-.1-.1-.2-.2-.4-.3-.2,0-.4-.1-.6-.1-.4,0-.8.1-1,.4s-.4.6-.5,1h2.8Z"/>
            <path class="cls-10" d="M544.3,490c.1-.1.3-.3.4-.4s.3-.2.5-.3c.2,0,.3-.1.5-.2.2,0,.4,0,.6,0,.4,0,.7,0,1,.2.3.1.5.3.7.5.2.2.3.5.4.8,0,.3.1.7.1,1v4.3h-1.8v-4.3c0-.4,0-.7-.3-.9-.2-.2-.4-.3-.8-.3s-.5,0-.7.2c-.2.1-.4.3-.6.5v4.8h-1.8v-6.7h1.1c.2,0,.4.1.5.3v.5Z"/>
            <path class="cls-10" d="M552.2,496.1c-.3,0-.6,0-.8-.1s-.4-.2-.6-.4c-.2-.2-.3-.4-.4-.6s-.1-.5-.1-.8v-3.6h-.6c0,0-.2,0-.2,0,0,0-.1-.2-.1-.3v-.7l1.1-.2.4-1.7c0-.2.2-.3.4-.3h.9v2.1h1.7v1.3h-1.7v3.5c0,.2,0,.3.1.4s.2.2.4.2.2,0,.2,0c0,0,.1,0,.2,0,0,0,0,0,.1,0,0,0,0,0,.1,0s0,0,.1,0c0,0,0,0,.1.1l.5.9c-.2.2-.5.3-.8.4-.3.1-.6.2-1,.2Z"/>
            <path class="cls-10" d="M557.7,489.1c.5,0,1,0,1.4.2.4.2.8.4,1.1.7.3.3.5.7.7,1.1.2.4.2.9.2,1.4s0,1-.2,1.4c-.2.4-.4.8-.7,1.1-.3.3-.7.5-1.1.7-.4.2-.9.2-1.4.2s-1,0-1.4-.2-.8-.4-1.1-.7c-.3-.3-.5-.7-.7-1.1-.2-.4-.2-.9-.2-1.4s0-1,.2-1.4c.2-.4.4-.8.7-1.1.3-.3.7-.5,1.1-.7s.9-.2,1.4-.2ZM557.7,494.7c.5,0,.9-.2,1.1-.5.2-.4.4-.9.4-1.6s-.1-1.2-.4-1.6c-.2-.4-.6-.5-1.1-.5s-.9.2-1.2.5-.4.9-.4,1.6.1,1.2.4,1.6.6.5,1.2.5Z"/>
            <path class="cls-10" d="M496.8,505.8c0,.6.2,1.1.5,1.4s.7.4,1.2.4.5,0,.6,0c.2,0,.3-.1.5-.2.1,0,.3-.1.4-.2.1,0,.2,0,.3,0s.2,0,.3.2l.5.7c-.2.2-.4.4-.6.6-.2.1-.5.3-.7.3-.2,0-.5.1-.8.2-.3,0-.5,0-.7,0-.5,0-.9,0-1.3-.2-.4-.2-.8-.4-1.1-.7s-.5-.7-.7-1.1c-.2-.4-.3-1-.3-1.6s0-.9.2-1.3c.1-.4.4-.8.7-1.1.3-.3.6-.5,1-.7.4-.2.9-.3,1.4-.3s.8,0,1.2.2c.4.1.7.3.9.6.3.3.5.6.6,1s.2.8.2,1.3,0,.2,0,.3,0,.2,0,.2,0,0-.1.1c0,0-.1,0-.2,0h-4ZM499.6,504.7c0-.2,0-.4,0-.5s-.1-.3-.2-.5c-.1-.1-.2-.2-.4-.3-.2,0-.4-.1-.6-.1-.4,0-.8.1-1,.4s-.4.6-.5,1h2.8Z"/>
            <path class="cls-10" d="M506.8,505.8c0,.6.2,1.1.5,1.4s.7.4,1.2.4.5,0,.6,0c.2,0,.3-.1.5-.2.1,0,.3-.1.4-.2.1,0,.2,0,.3,0s.2,0,.3.2l.5.7c-.2.2-.4.4-.6.6-.2.1-.5.3-.7.3-.2,0-.5.1-.8.2-.3,0-.5,0-.7,0-.5,0-.9,0-1.3-.2-.4-.2-.8-.4-1.1-.7s-.5-.7-.7-1.1c-.2-.4-.3-1-.3-1.6s0-.9.2-1.3c.1-.4.4-.8.7-1.1.3-.3.6-.5,1-.7.4-.2.9-.3,1.4-.3s.8,0,1.2.2c.4.1.7.3.9.6.3.3.5.6.6,1s.2.8.2,1.3,0,.2,0,.3,0,.2,0,.2,0,0-.1.1c0,0-.1,0-.2,0h-4ZM509.6,504.7c0-.2,0-.4,0-.5s-.1-.3-.2-.5c-.1-.1-.2-.2-.4-.3-.2,0-.4-.1-.6-.1-.4,0-.8.1-1,.4s-.4.6-.5,1h2.8Z"/>
            <path class="cls-10" d="M518.3,502.1l-2.6,6.7h-1.6l-2.6-6.7h1.5c.1,0,.2,0,.3,0,0,0,.1.1.2.2l1.1,3.3c0,.2.1.4.2.7,0,.2.1.4.1.7,0-.2.1-.4.2-.7,0-.2.1-.4.2-.7l1.2-3.3c0,0,0-.2.2-.2,0,0,.2,0,.3,0h1.4Z"/>
            <path class="cls-10" d="M521.8,502c.5,0,1,0,1.4.2.4.2.8.4,1.1.7.3.3.5.7.7,1.1.2.4.2.9.2,1.4s0,1-.2,1.4c-.2.4-.4.8-.7,1.1-.3.3-.7.5-1.1.7-.4.2-.9.2-1.4.2s-1,0-1.4-.2-.8-.4-1.1-.7c-.3-.3-.5-.7-.7-1.1-.2-.4-.2-.9-.2-1.4s0-1,.2-1.4c.2-.4.4-.8.7-1.1.3-.3.7-.5,1.1-.7s.9-.2,1.4-.2ZM521.8,507.6c.5,0,.9-.2,1.1-.5.2-.4.4-.9.4-1.6s-.1-1.2-.4-1.6c-.2-.4-.6-.5-1.1-.5s-.9.2-1.2.5-.4.9-.4,1.6.1,1.2.4,1.6.6.5,1.2.5Z"/>
            <path class="cls-10" d="M528.1,499.1v9.7h-1.8v-9.7h1.8Z"/>
            <path class="cls-10" d="M535.4,502.1v6.7h-1.1c-.2,0-.4-.1-.4-.3v-.5c-.3.1-.4.3-.5.4-.1.1-.3.2-.5.3-.2,0-.3.1-.5.2-.2,0-.4,0-.6,0-.4,0-.7,0-1-.2-.3-.1-.5-.3-.7-.5-.2-.2-.3-.5-.4-.8-.1-.3-.2-.7-.2-1v-4.3h1.8v4.3c0,.4,0,.7.3.9.2.2.4.3.8.3s.5,0,.7-.2c.2-.1.4-.3.6-.5v-4.8h1.8Z"/>
            <path class="cls-10" d="M542.3,507.8c-.2.2-.3.3-.5.5-.2.1-.4.2-.5.3s-.4.2-.6.2c-.2,0-.4,0-.6.1v.3c.1,0,.3.1.4.2.1,0,.3.1.3.2,0,0,.1.2.2.3,0,0,0,.2,0,.3s0,.3-.1.4-.2.2-.3.3c-.1,0-.3.1-.5.2-.2,0-.4,0-.7,0s-.3,0-.5,0c-.2,0-.3,0-.5,0l.2-.6c0-.1,0-.2.2-.2s.1,0,.2,0,.2,0,.3,0,.2,0,.3,0c0,0,0-.1,0-.2,0-.1,0-.2-.2-.2s-.4,0-.7-.1l.3-.9c-.4,0-.7-.2-1-.4-.3-.2-.6-.4-.8-.7-.2-.3-.4-.6-.5-1-.1-.4-.2-.8-.2-1.3s0-.9.2-1.4.4-.8.6-1.1c.3-.3.6-.6,1-.7.4-.2.9-.3,1.4-.3s1,0,1.4.2c.4.2.7.4,1,.7l-.5.6c0,0-.1.1-.2.2s-.1,0-.2,0-.2,0-.3,0-.2-.1-.3-.2c-.1,0-.2-.1-.4-.2-.1,0-.3,0-.5,0s-.5,0-.7.1c-.2,0-.4.2-.5.4-.1.2-.2.4-.3.7s0,.6,0,.9c0,.7.1,1.2.4,1.6.3.4.7.5,1.1.5s.3,0,.4,0c.1,0,.2,0,.3-.1,0,0,.2,0,.2-.1,0,0,.1-.1.2-.1,0,0,.1,0,.2-.1,0,0,.1,0,.2,0,.1,0,.2,0,.3.2l.5.7Z"/>
            <path class="cls-10" d="M543,503.1c.4-.4.8-.6,1.3-.8.5-.2,1-.3,1.6-.3s.8,0,1.1.2.6.3.8.5c.2.2.4.5.5.8.1.3.2.7.2,1.1v4.2h-.8c-.2,0-.3,0-.4,0,0,0-.2-.1-.2-.3v-.4c-.3.1-.5.3-.6.4-.2.1-.3.2-.5.3s-.4.1-.5.2-.4,0-.7,0-.6,0-.8-.1c-.2,0-.5-.2-.6-.3-.2-.2-.3-.3-.4-.6,0-.2-.1-.5-.1-.8s0-.5.2-.7c.1-.2.3-.5.7-.7.3-.2.7-.4,1.2-.5s1.2-.2,1.9-.2v-.3c0-.4,0-.7-.3-.9-.2-.2-.4-.3-.8-.3s-.5,0-.6,0c-.2,0-.3.1-.4.2-.1,0-.2.1-.3.2-.1,0-.2,0-.4,0s-.2,0-.3,0c0,0-.2-.1-.2-.2l-.3-.6ZM546.4,499.9c.1,0,.2,0,.3,0,0,0,.1-.2.1-.4h1.1c0,.3,0,.5-.1.7,0,.2-.2.4-.3.5-.1.1-.3.3-.5.3s-.4.1-.6.1-.3,0-.4,0c-.1,0-.3-.1-.4-.2s-.2-.1-.3-.2c-.1,0-.2,0-.3,0-.1,0-.2,0-.3.1s-.1.2-.1.4h-1.1c0-.3,0-.5.1-.7,0-.2.2-.4.3-.5.1-.1.3-.3.5-.3s.4-.1.6-.1.3,0,.5,0c.1,0,.3.1.4.2s.2.1.3.2c0,0,.2,0,.3,0ZM546.7,506.1c-.4,0-.8,0-1.1.1-.3,0-.5.1-.7.2-.2,0-.3.2-.4.3,0,.1-.1.2-.1.4,0,.3,0,.4.2.6s.3.2.6.2.6,0,.8-.2c.2-.1.4-.3.7-.5v-1Z"/>
            <path class="cls-10" d="M552.8,502c.5,0,1,0,1.4.2.4.2.8.4,1.1.7.3.3.5.7.7,1.1.2.4.2.9.2,1.4s0,1-.2,1.4c-.2.4-.4.8-.7,1.1-.3.3-.7.5-1.1.7-.4.2-.9.2-1.4.2s-1,0-1.4-.2-.8-.4-1.1-.7c-.3-.3-.5-.7-.7-1.1-.2-.4-.2-.9-.2-1.4s0-1,.2-1.4c.2-.4.4-.8.7-1.1.3-.3.7-.5,1.1-.7s.9-.2,1.4-.2ZM552.8,507.6c.5,0,.9-.2,1.1-.5.2-.4.4-.9.4-1.6s-.1-1.2-.4-1.6c-.2-.4-.6-.5-1.1-.5s-.9.2-1.2.5-.4.9-.4,1.6.1,1.2.4,1.6.6.5,1.2.5Z"/>
            <path class="cls-3" d="M502,523.2c0,.6,0,1.1-.3,1.5-.2.5-.4.8-.8,1.2s-.7.6-1.2.8-1,.3-1.5.3h-2.8v-7.4h2.8c.6,0,1.1,0,1.5.3.5.2.8.4,1.2.8s.6.7.8,1.2c.2.5.3,1,.3,1.5ZM500.9,523.2c0-.4,0-.8-.2-1.2-.1-.3-.3-.6-.5-.9-.2-.2-.5-.4-.8-.6-.3-.1-.7-.2-1.1-.2h-1.7v5.6h1.7c.4,0,.7,0,1.1-.2.3-.1.6-.3.8-.6.2-.2.4-.5.5-.9.1-.3.2-.7.2-1.2Z"/>
            <path class="cls-3" d="M509,526.9h-1c-.2,0-.3,0-.4-.2l-1.8-2.6c0,0-.1-.1-.2-.2,0,0-.2,0-.3,0h-.7v3h-1.1v-7.4h2.1c.5,0,.9,0,1.2.1.3,0,.6.2.9.4s.4.4.5.7c.1.3.2.5.2.9s0,.5-.1.7-.2.4-.3.6c-.2.2-.3.3-.6.5-.2.1-.5.2-.7.3.1,0,.3.2.4.3l2.1,2.9ZM505.6,523.1c.3,0,.5,0,.7-.1.2,0,.4-.2.5-.3.1-.1.3-.3.3-.4s.1-.4.1-.6c0-.4-.1-.7-.4-1s-.7-.3-1.3-.3h-1v2.7h1Z"/>
            <path class="cls-3" d="M516.2,526.9h-.8c0,0-.2,0-.2,0,0,0-.1-.1-.1-.2l-.7-1.7h-3.3l-.7,1.7c0,0,0,.1-.1.2s-.1,0-.2,0h-.8l3-7.4h1.1l3,7.4ZM514,524.2l-1.1-2.9c0-.2-.2-.4-.2-.7,0,.1,0,.3-.1.4,0,.1,0,.2-.1.3l-1.1,2.9h2.7Z"/>
            <path class="cls-3" d="M516.9,526.3c0,0,0-.2,0-.3,0,0,0-.2.1-.2,0,0,.1-.1.2-.1s.2,0,.3,0,.2,0,.3,0c0,0,.2,0,.2.1s.1.1.1.2c0,0,0,.2,0,.3s0,.2,0,.3c0,0,0,.2-.1.2s-.1.1-.2.1c0,0-.2,0-.3,0s-.2,0-.3,0c0,0-.2,0-.2-.1,0,0-.1-.1-.1-.2,0,0,0-.2,0-.3Z"/>
            <path class="cls-3" d="M528.9,523.2c0,.6,0,1.1-.3,1.5-.2.5-.4.8-.8,1.2s-.7.6-1.2.8-1,.3-1.5.3h-2.8v-7.4h2.8c.6,0,1.1,0,1.5.3.5.2.8.4,1.2.8s.6.7.8,1.2c.2.5.3,1,.3,1.5ZM527.8,523.2c0-.4,0-.8-.2-1.2-.1-.3-.3-.6-.5-.9-.2-.2-.5-.4-.8-.6-.3-.1-.7-.2-1.1-.2h-1.7v5.6h1.7c.4,0,.7,0,1.1-.2.3-.1.6-.3.8-.6.2-.2.4-.5.5-.9.1-.3.2-.7.2-1.2Z"/>
            <path class="cls-3" d="M531.5,526.9h-1.1v-7.4h1.1v7.4Z"/>
            <path class="cls-3" d="M539.6,526.9h-.8c0,0-.2,0-.2,0,0,0-.1-.1-.1-.2l-.7-1.7h-3.3l-.7,1.7c0,0,0,.1-.1.2s-.1,0-.2,0h-.8l3-7.4h1.1l3,7.4ZM537.4,524.2l-1.1-2.9c0-.2-.2-.4-.2-.7,0,.1,0,.3-.1.4,0,.1,0,.2-.1.3l-1.1,2.9h2.7Z"/>
            <path class="cls-3" d="M546.7,519.5v7.4h-.6c0,0-.2,0-.2,0,0,0-.1,0-.2-.1l-4.2-5.4c0,0,0,.2,0,.3,0,0,0,.2,0,.3v5.1h-1v-7.4h.6c0,0,.2,0,.2,0,0,0,.1,0,.2.2l4.2,5.4c0,0,0-.2,0-.3,0,0,0-.2,0-.3v-5h1Z"/>
            <path class="cls-3" d="M554.7,526.9h-.8c0,0-.2,0-.2,0,0,0-.1-.1-.1-.2l-.7-1.7h-3.3l-.7,1.7c0,0,0,.1-.1.2s-.1,0-.2,0h-.8l3-7.4h1.1l3,7.4ZM552.5,524.2l-1.1-2.9c0-.2-.2-.4-.2-.7,0,.1,0,.3-.1.4,0,.1,0,.2-.1.3l-1.1,2.9h2.7Z"/>
            <path class="cls-3" d="M503.3,530.7v7.4h-1v-5.3c0,0,0-.2,0-.3,0,0,0-.2,0-.3l-2.5,4.5c0,.2-.2.3-.4.3h-.2c-.2,0-.3,0-.4-.3l-2.5-4.5c0,.2,0,.4,0,.5v5.3h-1v-7.4h.8c0,0,.2,0,.2,0,0,0,.1,0,.2.2l2.5,4.4c0,0,0,.2.1.3,0,0,0,.2.1.3,0-.2.2-.4.3-.6l2.4-4.4c0,0,0-.1.1-.2,0,0,.1,0,.2,0h.8Z"/>
            <path class="cls-3" d="M512.2,534.4c0,.6,0,1.1-.3,1.5-.2.5-.4.9-.8,1.2-.3.3-.7.6-1.2.8-.5.2-1,.3-1.5.3s-1,0-1.5-.3c-.5-.2-.8-.4-1.2-.8-.3-.3-.6-.7-.8-1.2-.2-.5-.3-1-.3-1.5s0-1.1.3-1.5c.2-.5.4-.9.8-1.2s.7-.6,1.2-.8c.5-.2,1-.3,1.5-.3s1.1,0,1.5.3c.5.2.8.4,1.2.8.3.3.6.7.8,1.2.2.5.3,1,.3,1.5ZM511,534.4c0-.4,0-.8-.2-1.2-.1-.4-.3-.6-.5-.9-.2-.2-.5-.4-.8-.6-.3-.1-.7-.2-1.1-.2s-.7,0-1.1.2c-.3.1-.6.3-.8.6-.2.2-.4.5-.5.9-.1.4-.2.7-.2,1.2s0,.8.2,1.2c.1.3.3.6.5.9.2.2.5.4.8.6.3.1.7.2,1.1.2s.7,0,1.1-.2c.3-.1.6-.3.8-.6.2-.2.4-.5.5-.9.1-.3.2-.7.2-1.2Z"/>
            <path class="cls-3" d="M519.7,530.7v7.4h-.6c0,0-.2,0-.2,0,0,0-.1,0-.2-.1l-4.2-5.4c0,0,0,.2,0,.3,0,0,0,.2,0,.3v5.1h-1v-7.4h.6c0,0,.2,0,.2,0,0,0,.1,0,.2.2l4.2,5.4c0,0,0-.2,0-.3,0,0,0-.2,0-.3v-5h1Z"/>
            <path class="cls-3" d="M526.7,531.6h-2.4v6.5h-1.1v-6.5h-2.4v-.9h5.8v.9Z"/>
            <path class="cls-3" d="M532.5,537.2v.9h-4.6v-7.4h4.6v.9h-3.5v2.3h2.8v.9h-2.8v2.4h3.5Z"/>
            <path class="cls-3" d="M535,538.1h-1.1v-7.4h1.1v7.4Z"/>
            <path class="cls-3" d="M542.5,538.1h-1c-.2,0-.3,0-.4-.2l-1.8-2.6c0,0-.1-.1-.2-.2,0,0-.2,0-.3,0h-.7v3h-1.1v-7.4h2.1c.5,0,.9,0,1.2.1.3,0,.6.2.9.4s.4.4.5.7c.1.3.2.5.2.9s0,.5-.1.7-.2.4-.3.6c-.2.2-.3.3-.6.5-.2.1-.5.2-.7.3.1,0,.3.2.4.3l2.1,2.9ZM539.1,534.3c.3,0,.5,0,.7-.1.2,0,.4-.2.5-.3.1-.1.3-.3.3-.4s.1-.4.1-.6c0-.4-.1-.7-.4-1s-.7-.3-1.3-.3h-1v2.7h1Z"/>
            <path class="cls-3" d="M550.4,534.4c0,.6,0,1.1-.3,1.5-.2.5-.4.9-.8,1.2-.3.3-.7.6-1.2.8-.5.2-1,.3-1.5.3s-1,0-1.5-.3c-.5-.2-.8-.4-1.2-.8-.3-.3-.6-.7-.8-1.2-.2-.5-.3-1-.3-1.5s0-1.1.3-1.5c.2-.5.4-.9.8-1.2s.7-.6,1.2-.8c.5-.2,1-.3,1.5-.3s1.1,0,1.5.3c.5.2.8.4,1.2.8.3.3.6.7.8,1.2.2.5.3,1,.3,1.5ZM549.3,534.4c0-.4,0-.8-.2-1.2-.1-.4-.3-.6-.5-.9-.2-.2-.5-.4-.8-.6-.3-.1-.7-.2-1.1-.2s-.7,0-1.1.2c-.3.1-.6.3-.8.6-.2.2-.4.5-.5.9-.1.4-.2.7-.2,1.2s0,.8.2,1.2c.1.3.3.6.5.9.2.2.5.4.8.6.3.1.7.2,1.1.2s.7,0,1.1-.2c.3-.1.6-.3.8-.6.2-.2.4-.5.5-.9.1-.3.2-.7.2-1.2Z"/>
          </g>
        </g>
      </g>
    </g>
  </g>
</svg>