<?xml version="1.0" encoding="UTF-8"?>
<svg xmlns="http://www.w3.org/2000/svg" xmlns:xlink="http://www.w3.org/1999/xlink" version="1.1" viewBox="0 0 841.9 595.3">
  <!-- Generator: Adobe Illustrator 29.1.0, SVG Export Plug-In . SVG Version: 2.1.0 Build 142)  -->
  <defs>
    <style>
      .st0 {
        fill: none;
      }

      .st1 {
        fill: #b46996;
      }

      .st2 {
        fill: #b46996;
      }

      .st3 {
        fill: #665a6a;
      }

      .st4 {
        fill: #f5cdcd;
      }

      .st5 {
        mix-blend-mode: multiply;
        opacity: .7;
      }

      .st6 {
        fill: #a1275b;
      }

      .st7 {
        isolation: isolate;
      }

      .st8 {
        fill: #ed6b72;
      }

      .st9 {
        fill: #fff;
      }

      .st10 {
        fill: #ed6b72;
      }

      .st11 {
        opacity: .5;
      }

      .st12 {
        fill: #e9d9e2;
      }

      .st13 {
        fill: #f7eee3;
      }

      .st14 {
        clip-path: url(#clippath);
      }
    </style>
    <clipPath id="clippath">
      <rect class="st0" x="-37.3" width="1058.3" height="595.3"/>
    </clipPath>
  </defs>
  <g class="st7">
    <g id="Layer_1">
      <rect class="st13" x="-37.3" width="1058.3" height="595.3"/>
      <g class="st14">
        <g>
          <path class="st4" d="M333.2,406.7c-.8,1.3-1.8,2.5-3,3.7-7,6.9-17.9,10.7-27.3,12.3-4.3.8-8.5,1.1-12.9,1.2-7.3.2-14.7.6-21.6-2.1-4.2-2-8.2-4.2-12.2-6.7-3.7-2.1-7.2-4.4-10.7-6.8-7.4-5.2-15.3-11.3-20.7-18.7-4-5.5-6.8-11.9-9.2-18.1-.7-1.8-1.3-3.8-1.5-5.8,0-1.1.1-2.2-.1-3.3-.2-.8-.6-1.5-.9-2.2-2.1-3.8-4.1-7.6-5.9-11.6-3.7-8.4-6.5-17.2-8.4-26.2-3.2-15-2.7-32.2,3.2-46.5,6.2-15,19.5-23.8,34.9-27.7,2.7-.7,5.5-1.1,8.3-.9,5.8.3,11,.9,16.9.3,12.6-1.2,25.4,3.2,35.9,9.9,2.2,1.4,3.4,2.7,5.9,3.4,5.2,1.4,10.1,4.2,15.5,5.1,1.8.2,3.5.5,5.3.8h8.3c4.3.6,7.8,2.7,11.2,5.4,7.9,6.2,16.5,12.2,21.4,21.1,3.5,6.4,4.9,13.4,5.8,20.6.6,5,1.6,10.5,1.8,15.6.2,3.8.3,7.7-1.8,11.1-1.7,2.8-4,5.3-6.5,7.4-3.4,2.9-8.3,6.4-10.3,10.5-1,2-1.6,3.8-3,5.6-1.4,1.7-2.9,3.3-4,5.2-1,1.7-2,3.4-3,5-.9,1.4-1.3,3.1-1.9,4.6-1.9,4.5-1,9.6-3.1,14-2.2,4.7-3.6,9.6-6.4,13.9h0Z"/>
          <path class="st4" d="M100.2,369.2c9.6-20.6,12.2-43.8,9.2-66.2-3.6-26.8-19-49.9-22.4-76.6-2.5-19.1-4.2-39.3,9.8-54.5,15.1-16.4,38.6-20.4,52.6-38.7C195.9,72.6,89.6,6.1,44.2-9.2,25.9-15.4,7.2-16.4-10.7-24.8c-14.5-6.8-29.5-14.4-45.1-18.4-13.4-3.4-26.2-2.3-38.3,1.7-3.8,2.5-8,4.3-12.1,5.3l-307.4,439.9c.3,8.8,2.6,17.2,7.8,24.8,23.4,34.8,59,69.8,90.5,97.5,37,32.5,104.8,67.4,146.6,23.4,11-11.6,18.4-26.3,23.6-41.4,5.4-15.3,8.8-31.5,16.3-46,10.7-20.7,28.7-31.9,51.9-33.4,10.7-.7,21-.1,31.2.8,24.2,2.1,47.7,6,73-1,31.6-8.7,58.8-29.1,72.7-59.2h.2Z"/>
          <path class="st4" d="M656.3,391c-9.5,20.6-12.2,43.8-9.2,66.2,3.6,26.8,19,50,22.4,76.6,2.5,19.1,4.2,39.3-9.8,54.5-15.1,16.4-38.6,20.4-52.6,38.7-46.5,60.7,59.8,127.2,105.2,142.5,18.3,6.2,37.1,7.2,55,15.6,14.5,6.8,29.5,14.4,45.1,18.4,13.4,3.4,26.2,2.3,38.3-1.7,3.8-2.5,8-4.3,12.1-5.3l307.5-439.9c-.3-8.8-2.6-17.2-7.8-24.8-23.4-34.8-59-69.8-90.5-97.5-37-32.5-104.8-67.4-146.7-23.4-11,11.6-18.4,26.3-23.7,41.4-5.4,15.3-8.8,31.5-16.3,46-10.7,20.7-28.7,31.9-51.9,33.4-10.7.7-21,.1-31.2-.8-24.2-2.1-47.7-6-73,1-31.6,8.7-58.8,29.1-72.8,59.2h0Z"/>
          <g class="st5">
            <path class="st8" d="M703.1,41.7c0,.2,0,.5,0,.7-1,4.2-3,7.5-4.7,10.5-2.9,4.8-5.2,8.7-3.3,15.2,1.9,6.7,1.5,12.8-1.2,17.1-2.2,3.6-5.9,5.8-10.8,6.6-12.7,2.1-25.4-7.2-36.5-15.4-4.8-3.6-9.4-6.9-13.6-9.1-16.7-8.6-32.8-.3-48.4,7.7-3.7,1.9-7.6,3.9-11.4,5.6-16.8,7.6-40.2,4.6-52.2-6.7-6-5.6-11.8-15.7-5.6-31.8h0c6.7-16.2,34.5-22.3,46.1-24.1,5.9-1,12.2-1.9,18.4-1.6.5,0,1.1,0,1.6.1,1.2.1,2.3.2,3.4,0,.5,0,1-.2,1.6-.4.8-.2,1.8-.5,2.8-.6h4.1c.3,0,.7-.1,1.1-.2.7-.2,1.5-.4,2.5-.4,1.7,0,3.3,0,4.8.1,2.2.1,4.3.2,6.4,0,.9,0,1.7-.2,2.6-.3,1.8-.2,3.7-.4,5.6-.4s4,0,5.9.1c4.2.2,8.1.4,12.2-.8,1.9-.5,3.7-1.3,5.6-2.1h.3c3.3-1.6,6.5-2,9.9-2.5h.6c6.8-1,13.2-1.8,20.1-.8,9.3,1.4,18.9,8.1,24.3,13.4,4.8,4.7,9.2,13.2,8,20h0Z"/>
          </g>
          <path class="st4" d="M678.4,128.3c5,24,7.2,49.5,12.8,71.5,10.3,40.3,9.8,92.4-56.4,106.3-59.3,12.5-78.9-1.1-106-35.7-8.8-11.2-16.8-21.3-29.8-30-18.1-12.1-41-19.1-57.3-33-32.5-27.6-37.8-74.9-4.5-110.8,20.5-22.1,86.6-58.3,121.3-60.3,30.9-1.8,92,27.3,103.8,47.3,7.8,13.2,12.5,28.6,15.9,44.7h.2Z"/>
        </g>
      </g>
      <path class="st9" d="M464.1-34v164.9c0,1.7-1.3,3-3,3h-80.4c-1.7,0-3-1.3-3-3V-34h86.4Z"/>
      <path class="st6" d="M422.9,63.7l25.1-28.7c1.1-1.3.2-3.3-1.5-3.3h-50.8c-1.7,0-2.6,2-1.5,3.3l25.6,28.7c.8.9,2.2.9,3,0"/>
      <path class="st4" d="M421.1,64.4h.7v-11h-.7v11Z"/>
      <path class="st4" d="M421.8,20.2s-12.2,14.4-12.2,21.1,1,5.4,2.6,7.4c0,0,3.6,4.7,9.7,4.7V20.2h-.1Z"/>
      <path class="st2" d="M421.8,20.2s12.2,14.4,12.2,21.1-1,5.4-2.6,7.4c0,0-3.6,4.7-9.7,4.7V20.2h.1Z"/>
      <path class="st6" d="M402.9,71.7c-1-.4-2.1-.5-3.2-.5-1.6,0-2.8.3-3.5.8s-1.1,1.3-1.1,2.2.3,1.6.9,2c.5.4,1.4.8,2.7.9l3,.4c2.1.3,3.6.9,4.7,1.9s1.6,2.2,1.6,3.9-.2,1.7-.5,2.5c-.4.7-.9,1.4-1.6,1.9s-1.6,1-2.7,1.3-2.3.5-3.7.5-3-.2-4.3-.5-2.5-.9-3.7-1.8l1.5-2.4c1.1.8,2.2,1.3,3.3,1.6,1.1.3,2.2.5,3.5.5s3.1-.3,3.9-.9c.9-.6,1.3-1.4,1.3-2.5s-.3-1.5-.9-2-1.5-.9-2.9-1.1l-3.2-.4c-1.9-.3-3.4-.8-4.4-1.7-1-.9-1.5-2.2-1.5-3.8s.2-1.8.5-2.5c.4-.7.9-1.3,1.6-1.8s1.5-.8,2.4-1.1c.9-.2,2-.4,3.1-.4s2.8.2,4.1.6c1.3.4,2.5,1,3.5,1.8l-1.6,2.2c-.8-.6-1.8-1.1-2.8-1.4"/>
      <path class="st6" d="M423.8,69.4c.9.4,1.8.8,2.4,1.4.7.6,1.2,1.3,1.6,2.2s.6,1.8.6,2.8-.2,2.1-.6,2.9c-.4.9-1,1.6-1.7,2.2s-1.6,1.1-2.6,1.4-2,.5-3.1.5h-5.2v6.1h-3.1v-20.1h8.6c1.1,0,2.1.2,3.1.5M420.3,80.3c1.5,0,2.8-.4,3.7-1.2.9-.8,1.3-1.8,1.3-3.2s-.4-2.4-1.2-3.2c-.8-.8-2-1.1-3.5-1.1h-5.3v8.7h5.1-.1Z"/>
      <path class="st6" d="M450.5,86.7c-1.1.9-2.3,1.6-3.7,2-1.4.5-2.9.7-4.5.7s-3.1-.2-4.4-.7-2.4-1.2-3.4-2.1c-.9-.9-1.6-2-2.2-3.3-.5-1.3-.8-2.7-.8-4.3s.2-2.8.8-4.1c.5-1.3,1.2-2.4,2.2-3.4.9-.9,2.1-1.7,3.5-2.2,1.3-.6,2.9-.8,4.6-.8s2.7.2,4,.6,2.4,1.1,3.4,1.9l-1.6,2.2c-.8-.7-1.7-1.2-2.7-1.5-1-.4-2.1-.5-3.2-.5s-2.2.2-3.2.5c-.9.4-1.8.9-2.4,1.6-.7.7-1.2,1.5-1.6,2.4-.4,1-.6,2-.6,3.2s.2,2.3.6,3.3.9,1.8,1.6,2.4c.7.7,1.5,1.2,2.5,1.5.9.3,2,.5,3.1.5,2.1,0,3.8-.5,5.1-1.4v-4.4l-4.5-.2v-2.5h7.4v8.4h0v.2Z"/>
      <path class="st6" d="M395.3,94.8c-.3,0-.6-.2-1-.2s-.9,0-1.1.2-.3.4-.3.7,0,.5.3.6c.2,0,.4.2.8.3h.9c.6.2,1.1.4,1.4.7.3.3.5.7.5,1.2s0,.5-.2.8c-.1.2-.3.4-.5.6s-.5.3-.8.4-.7.2-1.1.2-.9,0-1.3-.2c-.4,0-.8-.3-1.1-.6l.4-.7c.3.2.7.4,1,.5.3,0,.7.2,1.1.2s.9,0,1.2-.3c.3-.2.4-.4.4-.8s0-.5-.3-.6c-.2-.2-.5-.3-.9-.3h-1c-.6-.2-1-.4-1.3-.7-.3-.3-.5-.7-.5-1.2s0-.5.2-.8c.1-.2.3-.4.5-.6s.4-.3.7-.3.6,0,.9,0,.8,0,1.3.2c.4,0,.8.3,1.1.5l-.5.7c-.2-.2-.5-.3-.9-.4"/>
      <path class="st6" d="M402.8,94.1c.4.2.7.4,1,.7s.5.6.7,1c.1.4.2.8.2,1.3s0,.8-.2,1.2c-.2.4-.4.7-.7,1-.3.3-.6.5-1,.7s-.8.3-1.3.3-.9,0-1.3-.2-.7-.4-1-.7c-.3-.3-.5-.6-.7-1-.1-.4-.2-.8-.2-1.3s0-.9.2-1.3.4-.7.7-1c.3-.3.6-.5,1-.7s.8-.3,1.3-.3.9,0,1.3.2M400.5,94.8c-.3,0-.5.3-.7.5s-.4.5-.5.8-.2.6-.2.9,0,.7.2.9c.1.3.3.5.5.8s.4.4.7.5c.3,0,.6.2,1,.2s.7,0,1-.2c.3,0,.5-.3.7-.5s.4-.5.5-.8.2-.6.2-.9,0-.7-.2-1c-.1-.3-.3-.5-.5-.8-.2-.2-.4-.4-.7-.5-.3,0-.6-.2-1-.2s-.7,0-1,.2"/>
      <path class="st6" d="M409.6,94.7c-.4,0-.7,0-1,.2s-.5.3-.7.5-.4.5-.5.7c-.1.3-.2.6-.2,1s0,.7.2,1,.3.5.5.7.5.4.8.5.6.2.9.2.8,0,1.1-.2c.3,0,.6-.3.9-.6l.5.6c-.7.6-1.5,1-2.6,1s-.9,0-1.3-.2-.7-.4-1-.6c-.3-.3-.5-.6-.7-1-.1-.4-.2-.8-.2-1.3s0-.9.2-1.3.4-.7.7-1c.3-.3.6-.5,1.1-.7.4-.2.9-.2,1.4-.2s.9,0,1.3.2c.4,0,.7.3,1,.6l-.5.7c-.5-.4-1.1-.6-1.9-.6"/>
      <rect class="st6" x="413.8" y="94" width="1" height="6.2"/>
      <polygon class="st6" points="421.2 94.8 417.6 94.8 417.6 96.5 420.8 96.5 420.8 97.3 417.6 97.3 417.6 99.3 421.4 99.3 421.4 100.1 416.7 100.1 416.7 94 421.2 94 421.2 94.8"/>
      <path class="st6" d="M426.7,94.2c.4.2.7.4,1,.6s.5.6.7,1,.2.8.2,1.2,0,.8-.2,1.2c-.2.4-.4.7-.7,1-.3.3-.6.5-1,.6-.4.2-.9.2-1.4.2h-2.2v-6.2h2.2c.5,0,1,0,1.4.2M425.3,99.3c.3,0,.7,0,1-.2.3,0,.5-.3.8-.4.2-.2.4-.4.5-.7.1-.3.2-.6.2-.9,0-.7-.2-1.3-.6-1.7-.4-.4-1-.6-1.8-.6h-1.2v4.5h1.2-.1Z"/>
      <path class="st6" d="M436,100.1h-1l-.6-1.4h-3.1l-.5,1.4h-1l2.6-6.2h1.1l2.6,6.2h-.1ZM434.1,97.9l-1.2-3h-.1l-1.2,3h2.5Z"/>
      <path class="st6" d="M441.2,94.2c.4.2.7.4,1,.6s.5.6.7,1,.2.8.2,1.2,0,.8-.2,1.2c-.2.4-.4.7-.7,1-.3.3-.6.5-1,.6-.4.2-.9.2-1.4.2h-2.2v-6.2h2.2c.5,0,1,0,1.4.2M439.8,99.3c.3,0,.7,0,1-.2.3,0,.5-.3.8-.4.2-.2.4-.4.5-.7.1-.3.2-.6.2-.9,0-.7-.2-1.3-.6-1.7-.4-.4-1-.6-1.8-.6h-1.2v4.5h1.2-.1Z"/>
      <polygon class="st6" points="449.3 94.8 445.8 94.8 445.8 96.5 448.9 96.5 448.9 97.3 445.8 97.3 445.8 99.3 449.5 99.3 449.5 100.1 444.9 100.1 444.9 94 449.3 94 449.3 94.8"/>
      <path class="st6" d="M396.3,115c-.3.2-.6.4-1,.5s-.8.2-1.2.2-.8,0-1.1-.2c-.3,0-.6-.3-.9-.5-.2-.2-.4-.5-.6-.8-.1-.3-.2-.7-.2-1.1s0-.7.2-1.1c.1-.3.3-.6.6-.9.2-.2.5-.4.9-.6.3-.2.8-.2,1.2-.2s.7,0,1,.2.6.3.9.5l-.4.6c-.2-.2-.4-.3-.7-.4-.3,0-.5,0-.8,0s-.6,0-.8,0c-.2,0-.5.2-.6.4-.2.2-.3.4-.4.6s-.1.5-.1.8,0,.6.1.8.2.5.4.6c.2.2.4.3.6.4.2,0,.5,0,.8,0,.5,0,1,0,1.3-.4v-1.1h-1.1v-.7h1.9v2.2h0Z"/>
      <rect class="st6" x="397.8" y="110.4" width=".8" height="5.2"/>
      <polygon class="st6" points="404.9 115.6 404.1 115.6 401.1 111.7 401.1 115.6 400.3 115.6 400.3 110.4 401 110.4 404.1 114.5 404.1 110.4 404.9 110.4 404.9 115.6"/>
      <polygon class="st6" points="410.4 111.1 407.4 111.1 407.4 112.6 410 112.6 410 113.3 407.4 113.3 407.4 114.9 410.5 114.9 410.5 115.6 406.6 115.6 406.6 110.4 410.4 110.4 410.4 111.1"/>
      <path class="st6" d="M414.5,111c-.3,0-.6,0-.8,0-.2,0-.5.2-.6.4-.2.2-.3.4-.4.6s-.1.5-.1.8,0,.6.1.8.2.5.4.6c.2.2.4.3.6.4.2,0,.5,0,.8,0s.6,0,.9-.2c.3,0,.5-.3.8-.5l.5.5c-.6.5-1.3.8-2.2.8s-.8,0-1.1-.2c-.3,0-.6-.3-.9-.5-.2-.2-.4-.5-.6-.8-.1-.3-.2-.7-.2-1.1s0-.7.2-1.1c.1-.3.3-.6.6-.9.2-.2.5-.4.9-.6s.8-.2,1.2-.2.7,0,1.1.2c.3,0,.6.3.9.5l-.4.6c-.4-.4-1-.5-1.6-.5"/>
      <path class="st6" d="M421.5,110.5c.3,0,.6.3.9.6.2.2.4.5.6.9.1.3.2.7.2,1.1s0,.7-.2,1.1c-.1.3-.3.6-.6.9-.2.2-.5.4-.9.6-.3.2-.7.2-1.1.2s-.8,0-1.1-.2c-.3,0-.6-.3-.9-.6-.2-.2-.4-.5-.6-.9-.1-.3-.2-.7-.2-1.1s0-.7.2-1.1c.1-.3.3-.6.6-.8.2-.2.5-.4.9-.6.3-.2.7-.2,1.1-.2s.8,0,1.1.2M419.6,111.2c-.2,0-.5.2-.6.4-.2.2-.3.4-.4.6,0,.2-.1.5-.1.8s0,.6.1.8c0,.2.2.5.4.6s.4.3.6.4c.2,0,.5.2.8.2s.6,0,.8-.2c.2,0,.5-.2.6-.4.2-.2.3-.4.4-.7,0-.2.1-.5.1-.8s0-.6-.1-.8c0-.2-.2-.4-.4-.6-.2-.2-.4-.3-.6-.4-.2,0-.5-.2-.8-.2s-.6,0-.8.2"/>
      <polygon class="st6" points="425.4 114.9 428.4 114.9 428.4 115.6 424.6 115.6 424.6 110.4 425.4 110.4 425.4 114.9"/>
      <path class="st6" d="M433.3,110.5c.3,0,.6.3.9.6.2.2.4.5.6.9.1.3.2.7.2,1.1s0,.7-.2,1.1c-.1.3-.3.6-.6.9-.2.2-.5.4-.9.6-.3.2-.7.2-1.1.2s-.8,0-1.1-.2c-.3,0-.6-.3-.9-.6-.2-.2-.4-.5-.6-.9-.1-.3-.2-.7-.2-1.1s0-.7.2-1.1c.1-.3.3-.6.6-.8.2-.2.5-.4.9-.6.3-.2.7-.2,1.1-.2s.8,0,1.1.2M431.4,111.2c-.2,0-.5.2-.6.4-.2.2-.3.4-.4.6,0,.2-.1.5-.1.8s0,.6.1.8c0,.2.2.5.4.6s.4.3.6.4c.2,0,.5.2.8.2s.6,0,.8-.2c.2,0,.5-.2.6-.4.2-.2.3-.4.4-.7,0-.2.1-.5.1-.8s0-.6-.1-.8c0-.2-.2-.4-.4-.6-.2-.2-.4-.3-.6-.4-.2,0-.5-.2-.8-.2s-.6,0-.8.2"/>
      <path class="st6" d="M441.2,115c-.3.2-.6.4-1,.5s-.8.2-1.2.2-.8,0-1.1-.2c-.3,0-.6-.3-.9-.5-.2-.2-.4-.5-.6-.8-.1-.3-.2-.7-.2-1.1s0-.7.2-1.1c.1-.3.3-.6.6-.9.2-.2.5-.4.9-.6.3-.2.8-.2,1.2-.2s.7,0,1,.2.6.3.9.5l-.4.6c-.2-.2-.4-.3-.7-.4-.3,0-.5,0-.8,0s-.6,0-.8,0c-.2,0-.5.2-.6.4-.2.2-.3.4-.4.6s-.1.5-.1.8,0,.6.1.8.2.5.4.6c.2.2.4.3.6.4.2,0,.5,0,.8,0,.5,0,1,0,1.3-.4v-1.1h-1.1v-.7h1.9v2.2h0Z"/>
      <rect class="st6" x="442.7" y="110.4" width=".8" height="5.2"/>
      <path class="st6" d="M450.2,115.6h-.9l-.5-1.2h-2.6l-.5,1.2h-.9l2.2-5.2h.9l2.2,5.2h0ZM448.6,113.8l-1-2.6h0l-1,2.6h2.1-.1Z"/>
      <path class="st6" d="M394.3,103.3c.2,0,.4.2.5.3.1,0,.2.3.3.5,0,.2.1.4.1.6s0,.4-.1.6c0,.2-.2.3-.4.5-.1,0-.3.2-.5.3s-.4,0-.6,0h-1.1v1.3h-.6v-4.2h2.4M393.6,105.6c.3,0,.6,0,.8-.2.2-.2.3-.4.3-.7s0-.5-.3-.7c-.2-.2-.4-.2-.7-.2h-1.1v1.8h1.1,0Z"/>
      <path class="st6" d="M399.3,103.3c.3,0,.5.3.7.5s.3.4.5.7c.1.3.2.6.2.9s0,.6-.2.8c-.1.3-.3.5-.5.7s-.4.3-.7.5c-.3,0-.6.2-.9.2s-.6,0-.9-.2c-.3,0-.5-.3-.7-.5s-.3-.4-.5-.7c-.1-.3-.2-.6-.2-.8s0-.6.2-.8c.1-.3.3-.5.5-.7s.4-.3.7-.5c.3,0,.6-.2.9-.2s.6,0,.9.2M397.8,103.8c-.2,0-.4.2-.5.3-.1,0-.2.3-.3.5,0,.2-.1.4-.1.6s0,.4.1.6c0,.2.2.4.3.5s.3.3.5.3.4,0,.7,0,.5,0,.7,0c.2,0,.4-.2.5-.3.1,0,.2-.3.3-.5,0-.2.1-.4.1-.6s0-.5-.1-.7c0-.2-.2-.4-.3-.5-.1,0-.3-.2-.5-.3-.2,0-.4,0-.7,0s-.5,0-.7,0"/>
      <path class="st6" d="M404.3,103.3c.2,0,.4.2.5.3.1,0,.2.3.3.4,0,.2.1.4.1.6,0,.3,0,.6-.3.8-.2.2-.4.4-.7.5l1.1,1.6h-.8l-.9-1.4h-1.1v1.4h-.6v-4.2h2.4M403.6,105.4c.3,0,.5,0,.7-.2s.3-.4.3-.6,0-.5-.3-.6c-.2,0-.4-.2-.7-.2h-1.1v1.7h1.1Z"/>
      <polygon class="st6" points="409.7 103.8 408.1 103.8 408.1 107.4 407.5 107.4 407.5 103.8 406 103.8 406 103.2 409.7 103.2 409.7 103.8"/>
      <path class="st6" d="M411.5,105.4c0,.5.1.8.3,1.1.2.2.5.4.9.4s.7,0,.9-.3c.2-.2.3-.6.3-1.1v-2.3h.6v2.3c0,.3,0,.6-.1.8,0,.2-.2.4-.4.6-.2.2-.4.3-.6.4-.2,0-.5,0-.8,0s-.6,0-.8,0c-.2,0-.4-.2-.6-.4-.1-.2-.3-.4-.4-.6,0-.2-.1-.5-.1-.8v-2.3h.6v2.3h.2Z"/>
      <path class="st6" d="M419.6,106.9c-.2.2-.5.3-.8.4-.3,0-.6.2-.9.2s-.6,0-.9-.2-.5-.2-.7-.4c-.2-.2-.3-.4-.5-.7-.1-.3-.2-.6-.2-.9s0-.6.2-.8c.1-.3.2-.5.5-.7.2-.2.4-.3.7-.5.3,0,.6-.2,1-.2s.6,0,.8,0,.5.2.7.4l-.3.4c-.2,0-.4-.2-.6-.3s-.4,0-.7,0-.5,0-.7,0c-.2,0-.4.2-.5.3s-.2.3-.3.5c0,.2-.1.4-.1.7s0,.5.1.7.2.4.3.5c.1,0,.3.2.5.3.2,0,.4,0,.6,0,.4,0,.8,0,1.1-.3v-.9h-.9v-.6h1.5v1.8h0Z"/>
      <path class="st6" d="M421.5,105.4c0,.5.1.8.3,1.1.2.2.5.4.9.4s.7,0,.9-.3c.2-.2.3-.6.3-1.1v-2.3h.6v2.3c0,.3,0,.6-.1.8,0,.2-.2.4-.4.6-.2.2-.4.3-.6.4-.2,0-.5,0-.8,0s-.6,0-.8,0c-.2,0-.4-.2-.6-.4-.1-.2-.3-.4-.4-.6,0-.2-.1-.5-.1-.8v-2.3h.6v2.3h.2Z"/>
      <polygon class="st6" points="428.9 103.7 426.5 103.7 426.5 104.9 428.6 104.9 428.6 105.5 426.5 105.5 426.5 106.8 429 106.8 429 107.4 425.9 107.4 425.9 103.2 428.9 103.2 428.9 103.7"/>
      <path class="st6" d="M432.4,103.8c-.2,0-.4,0-.7,0s-.6,0-.7.2c-.1,0-.2.3-.2.4s0,.3.2.4c.1,0,.3.2.5.2h.6c.4,0,.8.3,1,.5s.3.5.3.8,0,.4-.1.5c0,.2-.2.3-.3.4-.1,0-.3.2-.6.3h-.8c-.3,0-.6,0-.9,0-.3,0-.5-.2-.8-.4l.3-.5c.2.2.5.3.7.3h.7c.2,0,.6,0,.8-.2.2,0,.3-.3.3-.5s0-.3-.2-.4c-.1,0-.3-.2-.6-.2h-.7c-.4,0-.7-.3-.9-.4-.2-.2-.3-.4-.3-.8s0-.4.1-.5c0-.2.2-.3.3-.4.1,0,.3-.2.5-.2h.6c.2,0,.6,0,.9,0s.5.2.7.4l-.3.5c-.2,0-.4-.2-.6-.3"/>
      <path class="st6" d="M438.6,107.4h-.7l-.4-.9h-2.1l-.4.9h-.7l1.8-4.2h.8l1.8,4.2h0ZM437.3,105.9l-.8-2.1h0l-.8,2.1h1.7-.1Z"/>
      <path class="st6" d="M444.3,103.3c.3,0,.5.2.7.4.2.2.3.4.5.7.1.2.2.5.2.8s0,.6-.2.8c-.1.2-.3.5-.5.7s-.4.3-.7.4-.6.2-.9.2h-1.5v-4.2h1.5c.4,0,.6,0,.9.2M443.4,106.8c.2,0,.5,0,.6,0,.2,0,.4-.2.5-.3.1,0,.3-.3.3-.5s.1-.4.1-.6c0-.5-.1-.9-.4-1.1-.3-.3-.7-.4-1.2-.4h-.8v3.1h.9Z"/>
      <polygon class="st6" points="449.8 103.7 447.4 103.7 447.4 104.9 449.5 104.9 449.5 105.5 447.4 105.5 447.4 106.8 449.9 106.8 449.9 107.4 446.8 107.4 446.8 103.2 449.8 103.2 449.8 103.7"/>
      <path class="st6" d="M696.6,555.7s0,.2-.2.2h-.6c0,0-.2,0-.4-.2s-.3,0-.5-.2h-.6c-.3,0-.6,0-.7.2s-.2.3-.2.5,0,.3.2.4.2.2.4.3c.2,0,.4.2.6.2s.5.2.7.2.5.2.7.3.4.3.6.4c.2.2.3.4.4.6s.2.5.2.9,0,.8-.2,1.1-.4.6-.7.9-.7.5-1.1.6c-.4,0-.9.2-1.5.2h-.8c-.3,0-.6,0-.8-.2-.3,0-.5-.2-.7-.3s-.4-.3-.6-.4l.6-.9c0,0,.2-.2.2-.2h.8c0,0,.2,0,.4.2,0,0,.3,0,.5.2h1.2c0,0,.2,0,.3-.2s0-.2.2-.2,0-.2,0-.3c0-.2,0-.3-.2-.4s-.3-.2-.4-.3-.4-.2-.6-.2-.5,0-.7-.2c-.2,0-.5-.2-.7-.3s-.4-.3-.6-.5c-.2-.2-.3-.4-.4-.7s-.2-.6-.2-1,0-.7.2-1c0-.3.3-.6.6-.8s.6-.4,1-.6c.4,0,.9-.2,1.4-.2h.9c.3,0,.5,0,.8.2s.5.2.7.3.4.3.5.4l-.6.9h-.1Z"/>
      <path class="st6" d="M700.8,554.9c.3-.3.7-.6,1.1-.8.4-.2.9-.3,1.5-.3s.8,0,1.2.3.7.5,1,.8.5.8.6,1.3c.2.5.2,1.1.2,1.8s0,1.2-.3,1.7c-.2.5-.4,1-.7,1.4s-.7.7-1.1.9c-.4.2-.9.3-1.4.3s-.8,0-1.1-.2c-.3,0-.6-.3-.8-.5v3.2h-2.5v-10.9h1.5c.3,0,.5,0,.6.4l.2.6h0ZM700.9,559.9c.2.2.4.3.6.4.2,0,.5,0,.7,0s.4,0,.6,0,.4-.2.5-.4.2-.5.3-.8,0-.7,0-1.2v-1.1c0-.3-.2-.5-.3-.7s-.2-.3-.4-.4-.3,0-.5,0c-.4,0-.7,0-.9.2-.2,0-.5.3-.7.6v3.5h0Z"/>
      <path class="st6" d="M715.2,554.1v.9c0,0,0,.2,0,.3s-.2,0-.4.2h-.6v.9c0,.4,0,.8-.3,1.1s-.4.6-.7.8-.7.4-1.1.5c-.4,0-.8.2-1.3.2s-.2,0-.4,0h-.4c-.2,0-.3.2-.3.4s0,.2.2.3c.2,0,.3,0,.6,0h1.8c.4,0,.6,0,1,.2.3,0,.6.2.8.3l.6.6c.2.2.2.6.2,1s0,.7-.3,1.1-.5.7-.8,1-.8.5-1.3.7-1.1.2-1.8.2-1.2,0-1.7-.2-.9-.3-1.2-.5-.5-.4-.7-.7-.2-.5-.2-.8,0-.7.3-.9.5-.4.9-.6c-.2,0-.4-.3-.5-.5s-.2-.4-.2-.7v-.4c0-.2,0-.3.2-.4s.2-.2.3-.4c0,0,.3-.2.5-.3-.4-.2-.8-.5-1-.9s-.4-.8-.4-1.3,0-.8.3-1.1c.2-.3.4-.6.7-.8s.7-.4,1.1-.5.9-.2,1.3-.2c.7,0,1.3,0,1.9.4h3ZM712.7,562.4c0-.2,0-.3-.3-.4s-.4-.2-.7-.2h-2c-.2,0-.3.2-.4.4s-.2.3-.2.4v.3s0,.2.3.2.3,0,.5.2h1.7c.2,0,.4,0,.5-.2s.2-.2.3-.3v-.3h.3ZM710.8,557.5c.4,0,.7,0,.9-.3s.3-.5.3-.8,0-.6-.3-.8c-.2-.2-.5-.3-.9-.3s-.7,0-.9.3-.3.5-.3.8v.4c0,0,0,.2.2.3,0,0,.2.2.4.2h.5v.2Z"/>
      <path class="st6" d="M719,551.6c0,.2,0,.4,0,.6,0,.2-.2.3-.3.5s-.3.2-.5.3-.4,0-.6,0-.4,0-.6,0-.3-.2-.5-.3-.2-.3-.3-.5c0-.2,0-.4,0-.6s0-.4,0-.6.2-.3.3-.5.3-.2.5-.3.4,0,.6,0,.4,0,.6,0c.2,0,.3.2.5.3,0,0,.2.3.3.5s0,.4,0,.6ZM718.8,553.8v8.3h-2.5v-8.3h2.5Z"/>
      <path class="st6" d="M722.8,554.7c.2-.2.3-.3.5-.4s.3-.2.5-.3.4-.2.6-.2h.7c.5,0,.8,0,1.2.2.3.2.6.4.9.7.2.3.4.6.5,1s.2.8.2,1.3v5.3h-2.5v-5.3c0-.4,0-.7-.3-1s-.5-.3-.8-.3-.5,0-.8.2c-.2,0-.5.3-.7.5v5.9h-2.5v-8.3h1.5c.3,0,.5,0,.6.4v.5h0l.3-.2Z"/>
      <path class="st6" d="M731.7,558.4c0,.7.3,1.2.6,1.5s.8.5,1.3.5h.7c.2,0,.4-.2.6-.2s.3-.2.5-.2h.4c.1,0,.3,0,.5.2l.7.9c-.3.3-.5.5-.8.7s-.6.3-.9.4-.6.2-.9.2h-.9c-.6,0-1.1,0-1.6-.3s-1-.5-1.3-.8-.7-.8-.9-1.4c-.2-.5-.3-1.2-.3-1.9s0-1.1.3-1.6.5-.9.8-1.3.8-.7,1.3-.9,1.1-.3,1.7-.3,1,0,1.5.3.8.4,1.2.7.6.7.8,1.2.3,1,.3,1.6,0,.3,0,.5v.3s0,0-.2,0h-5.1l-.3-.2ZM734.8,557v-.6c0-.2,0-.3-.2-.5,0-.2-.3-.3-.5-.4s-.4,0-.7,0c-.5,0-.8,0-1.1.4-.3.3-.4.7-.5,1.2h3.1,0Z"/>
      <path class="st6" d="M744.3,555.8l-.2.2h-.6c0,0-.2,0-.3-.2,0,0-.3,0-.4-.2s-.4,0-.6,0-.6,0-.8.2-.4.3-.5.5-.2.5-.3.8,0,.6,0,1c0,.8.2,1.4.5,1.8s.7.6,1.3.6.5,0,.7,0c.2,0,.3-.2.4-.2s.2-.2.3-.2c0,0,.2,0,.4,0s.3,0,.5.2l.7.9c-.3.3-.5.5-.8.7s-.6.3-.9.4-.6.2-.9.2h-.9c-.5,0-1,0-1.5-.3s-.9-.5-1.2-.8-.6-.8-.8-1.3-.3-1.1-.3-1.8,0-1.2.3-1.7.4-1,.8-1.3.8-.7,1.3-.9,1.1-.3,1.8-.3,1.2,0,1.7.3c.5.2.9.5,1.3.9l-.7.9h0l-.3-.2Z"/>
      <path class="st6" d="M749.7,553.7c.6,0,1.2,0,1.7.3s1,.5,1.3.8.7.8.9,1.3.3,1.1.3,1.8,0,1.3-.3,1.8-.5,1-.9,1.3-.8.7-1.3.9-1.1.3-1.7.3-1.2,0-1.7-.3c-.5-.2-1-.5-1.3-.9-.4-.4-.7-.8-.9-1.3s-.3-1.1-.3-1.8,0-1.2.3-1.8.5-1,.9-1.3.8-.7,1.3-.8c.5-.2,1.1-.3,1.7-.3ZM749.7,560.4c.6,0,1-.2,1.3-.6.3-.4.4-1,.4-1.8s0-1.4-.4-1.8-.7-.6-1.3-.6-1,.2-1.3.6c-.3.4-.4,1-.4,1.8s0,1.4.4,1.8c.3.4.7.6,1.3.6Z"/>
      <path class="st6" d="M757.7,550.2v12h-2.5v-12h2.5Z"/>
      <path class="st6" d="M763.2,553.7c.6,0,1.2,0,1.7.3s1,.5,1.3.8.7.8.9,1.3.3,1.1.3,1.8,0,1.3-.3,1.8-.5,1-.9,1.3-.8.7-1.3.9-1.1.3-1.7.3-1.2,0-1.7-.3c-.5-.2-1-.5-1.3-.9-.4-.4-.7-.8-.9-1.3s-.3-1.1-.3-1.8,0-1.2.3-1.8.5-1,.9-1.3.8-.7,1.3-.8c.5-.2,1.1-.3,1.7-.3ZM763.2,560.4c.6,0,1-.2,1.3-.6.3-.4.4-1,.4-1.8s0-1.4-.4-1.8-.7-.6-1.3-.6-1,.2-1.3.6c-.3.4-.4,1-.4,1.8s0,1.4.4,1.8c.3.4.7.6,1.3.6Z"/>
      <path class="st6" d="M776.1,554.1v.9c0,0,0,.2,0,.3s-.2,0-.4.2h-.6v.9c0,.4,0,.8-.3,1.1s-.4.6-.7.8-.7.4-1.1.5c-.4,0-.8.2-1.3.2s-.2,0-.4,0h-.4c-.2,0-.3.2-.3.4s0,.2.2.3c.2,0,.3,0,.6,0h1.8c.4,0,.6,0,1,.2.3,0,.6.2.8.3l.6.6c.2.2.2.6.2,1s0,.7-.3,1.1-.5.7-.8,1-.8.5-1.3.7-1.1.2-1.8.2-1.2,0-1.7-.2-.9-.3-1.2-.5-.5-.4-.7-.7-.2-.5-.2-.8,0-.7.3-.9.5-.4.9-.6c-.2,0-.4-.3-.5-.5s-.2-.4-.2-.7v-.4c0-.2,0-.3.2-.4s.2-.2.3-.4c0,0,.3-.2.5-.3-.4-.2-.8-.5-1-.9s-.4-.8-.4-1.3,0-.8.3-1.1c.2-.3.4-.6.7-.8s.7-.4,1.1-.5.9-.2,1.3-.2c.7,0,1.3,0,1.9.4h3ZM773.6,562.4c0-.2,0-.3-.3-.4s-.4-.2-.7-.2h-2c-.2,0-.3.2-.4.4s-.2.3-.2.4v.3s0,.2.3.2.3,0,.5.2h1.7c.2,0,.4,0,.5-.2s.2-.2.3-.3v-.3h.3ZM771.7,557.5c.4,0,.7,0,.9-.3s.3-.5.3-.8,0-.6-.3-.8c-.2-.2-.5-.3-.9-.3s-.7,0-.9.3-.3.5-.3.8v.4c0,0,0,.2.2.3,0,0,.2.2.4.2h.5v.2Z"/>
      <path class="st6" d="M779.9,551.6c0,.2,0,.4,0,.6,0,.2-.2.3-.3.5s-.3.2-.5.3-.4,0-.6,0-.4,0-.6,0-.3-.2-.5-.3-.2-.3-.3-.5c0-.2,0-.4,0-.6s0-.4,0-.6.2-.3.3-.5.3-.2.5-.3.4,0,.6,0,.4,0,.6,0c.2,0,.3.2.5.3,0,0,.2.3.3.5s0,.4,0,.6ZM779.7,553.8v8.3h-2.5v-8.3h2.5Z"/>
      <path class="st6" d="M781.2,555c.5-.4,1.1-.8,1.7-1s1.3-.3,2-.3,1,0,1.4.2.7.4,1,.7.5.6.6,1c.2.4.2.8.2,1.3v5.2h-1.6c0,0-.2-.2-.3-.4l-.2-.5c-.2.2-.4.3-.6.5s-.4.2-.6.3c-.2,0-.4.2-.7.2h-.8c-.3,0-.7,0-1-.2-.3,0-.6-.2-.8-.4s-.4-.4-.5-.7-.2-.6-.2-1,0-.6.2-.9.4-.6.8-.8c.4-.2.9-.5,1.5-.6s1.4-.3,2.4-.3v-.3c0-.5,0-.8-.3-1-.2-.2-.5-.3-.8-.3h-.7c-.2,0-.3,0-.5.2s-.3.2-.4.2h-.5c-.2,0-.3,0-.4,0,0,0-.2-.2-.3-.3l-.5-.8h-.1ZM785.7,558.8c-.5,0-.9,0-1.2,0-.3,0-.6,0-.8.2s-.3.2-.4.3,0,.3,0,.4c0,.3,0,.5.2.6s.4.2.7.2.6,0,.8-.2c.2,0,.5-.3.7-.5v-1.2h0Z"/>
      <path class="st6" d="M789.3,560.9c0-.2,0-.4,0-.5s.2-.3.3-.4c0,0,.3-.2.4-.3s.4,0,.6,0,.4,0,.5,0,.3.2.5.3.2.3.3.4,0,.3,0,.5,0,.4,0,.5-.2.3-.3.4c0,0-.3.2-.5.3s-.3,0-.5,0h-.6c-.2,0-.3-.2-.4-.3,0,0-.2-.3-.3-.4,0-.2,0-.3,0-.5Z"/>
      <path class="st6" d="M795.8,554.9c.3-.3.7-.6,1.1-.8.4-.2.9-.3,1.5-.3s.8,0,1.2.3.7.5,1,.8.5.8.6,1.3c.2.5.2,1.1.2,1.8s0,1.2-.3,1.7c-.2.5-.4,1-.7,1.4s-.7.7-1.1.9c-.4.2-.9.3-1.4.3s-.8,0-1.1-.2c-.3,0-.6-.3-.8-.5v3.2h-2.5v-10.9h1.5c.3,0,.5,0,.6.4l.2.6h0ZM796,559.9c.2.2.4.3.6.4.2,0,.5,0,.7,0s.4,0,.6,0,.4-.2.5-.4.2-.5.3-.8,0-.7,0-1.2v-1.1c0-.3-.2-.5-.3-.7s-.2-.3-.4-.4-.3,0-.5,0c-.4,0-.7,0-.9.2-.2,0-.5.3-.7.6v3.5h0Z"/>
      <path class="st6" d="M805.5,562.3c-.4,0-.7,0-1-.2s-.5-.3-.8-.5c-.2-.2-.4-.5-.5-.8s-.2-.6-.2-1v-4.3h-.7c0,0-.2,0-.3,0s0-.2,0-.4v-1l1.3-.3.5-2c0-.3.2-.4.5-.4h1.3v2.4h2.1v1.7h-2.1v4.1c0,.2,0,.3,0,.5s.2.2.4.2h.8v.2c0,0,.9,1.2.9,1.2-.3.2-.7.4-1.1.5s-.8.2-1.2.2h.1Z"/>
      <g>
        <g>
          <rect class="st12" x="267" y="449.6" width="150.8" height="114.8"/>
          <g>
            <path class="st1" d="M283.8,493.6c0,.6-.1,1.2-.3,1.8-.2.5-.5,1-.9,1.4-.4.4-.9.7-1.4.9s-1.2.3-1.9.3h-3.4v-8.9h3.4c.7,0,1.3.1,1.9.3s1,.5,1.4.9c.4.4.7.9.9,1.4.2.5.3,1.1.3,1.8ZM282,493.6c0-.5,0-.9-.2-1.3-.1-.4-.3-.7-.5-.9-.2-.3-.5-.5-.8-.6-.3-.1-.7-.2-1.1-.2h-1.6v6h1.6c.4,0,.8,0,1.1-.2s.6-.3.8-.6c.2-.3.4-.6.5-.9s.2-.8.2-1.3Z"/>
            <path class="st1" d="M286.7,490c0,.1,0,.3,0,.4,0,.1-.1.2-.2.3,0,0-.2.2-.3.2-.1,0-.3,0-.4,0s-.3,0-.4,0c-.1,0-.2-.1-.3-.2s-.2-.2-.2-.3c0-.1,0-.3,0-.4s0-.3,0-.4c0-.1.1-.2.2-.3,0,0,.2-.2.3-.2.1,0,.3,0,.4,0s.3,0,.4,0c.1,0,.2.1.3.2,0,0,.2.2.2.3,0,.1,0,.3,0,.4ZM286.5,491.8v6.3h-1.7v-6.3h1.7Z"/>
            <path class="st1" d="M291.8,493.1c0,0,0,.1-.1.1,0,0-.1,0-.2,0s-.2,0-.3,0-.2,0-.3-.1c-.1,0-.2,0-.4-.1-.1,0-.3,0-.5,0-.3,0-.5,0-.6.2-.2.1-.2.3-.2.4s0,.2.1.3.2.2.3.2c.1,0,.3.1.5.2.2,0,.4.1.6.2.2,0,.4.1.6.2.2,0,.3.2.5.3.1.1.3.3.3.5,0,.2.1.4.1.7s0,.6-.2.8-.3.5-.5.7c-.2.2-.5.3-.8.4s-.7.2-1.1.2-.4,0-.6,0-.4,0-.6-.2c-.2,0-.4-.2-.5-.2-.2,0-.3-.2-.4-.3l.4-.6c0,0,.1-.1.2-.2,0,0,.2,0,.3,0s.2,0,.3,0,.2.1.3.2c.1,0,.2.1.4.2.1,0,.3,0,.5,0s.3,0,.4,0c.1,0,.2,0,.3-.1,0,0,.1-.1.2-.2,0,0,0-.2,0-.2,0-.1,0-.3-.1-.3s-.2-.2-.3-.2c-.1,0-.3-.1-.5-.2-.2,0-.4-.1-.6-.2-.2,0-.4-.1-.6-.2-.2,0-.3-.2-.5-.3-.1-.1-.3-.3-.3-.5,0-.2-.1-.4-.1-.7s0-.5.2-.7.3-.4.5-.6c.2-.2.5-.3.8-.4.3-.1.7-.2,1.1-.2s.9,0,1.2.2.7.3.9.6l-.4.6Z"/>
            <path class="st1" d="M293.2,498.1v-6.3h1c.2,0,.4,0,.4.3v.4c.2-.1.3-.2.4-.3.1,0,.2-.2.4-.3s.3-.1.4-.2c.2,0,.3,0,.5,0,.4,0,.7.1,1,.3.3.2.4.5.6.8.1-.2.2-.4.4-.5s.3-.3.5-.4c.2,0,.4-.2.6-.2.2,0,.4,0,.6,0,.4,0,.7,0,.9.2.3.1.5.3.7.5s.3.5.4.8.1.6.1,1v4h-1.7v-4c0-.7-.3-1.1-.9-1.1s-.3,0-.4,0-.2.1-.3.2c0,0-.2.2-.2.3s0,.3,0,.5v4h-1.7v-4c0-.4,0-.7-.2-.9s-.4-.3-.7-.3-.4,0-.6.1c-.2,0-.3.2-.5.4v4.6h-1.7Z"/>
            <path class="st1" d="M304.8,495.2c0,.6.2,1,.5,1.3s.7.4,1.1.4.4,0,.6,0c.2,0,.3-.1.4-.2.1,0,.2-.1.3-.2.1,0,.2,0,.3,0s.2,0,.3.1l.5.6c-.2.2-.4.4-.6.5-.2.1-.4.2-.7.3-.2,0-.5.1-.7.2-.2,0-.5,0-.7,0-.4,0-.8,0-1.2-.2-.4-.1-.7-.4-1-.6s-.5-.6-.7-1.1c-.2-.4-.2-.9-.2-1.5s0-.8.2-1.2c.1-.4.3-.7.6-1,.3-.3.6-.5,1-.7.4-.2.8-.2,1.3-.2s.8,0,1.1.2c.3.1.6.3.9.6.2.2.4.5.6.9s.2.8.2,1.2,0,.2,0,.3,0,.1,0,.2,0,0-.1.1c0,0-.1,0-.2,0h-3.8ZM307.5,494.2c0-.2,0-.3,0-.5s-.1-.3-.2-.4c-.1-.1-.2-.2-.4-.3-.2,0-.3-.1-.6-.1-.4,0-.7.1-.9.3s-.4.6-.4,1h2.6Z"/>
            <path class="st1" d="M311.5,492.5c.1-.1.3-.2.4-.3s.3-.2.4-.3c.2,0,.3-.1.5-.2.2,0,.4,0,.6,0,.3,0,.6,0,.9.2.3.1.5.3.7.5.2.2.3.5.4.8,0,.3.1.6.1,1v4h-1.7v-4c0-.3,0-.6-.2-.8-.2-.2-.4-.3-.7-.3s-.5,0-.7.2c-.2.1-.4.2-.6.4v4.5h-1.7v-6.3h1c.2,0,.4,0,.4.3v.4Z"/>
            <path class="st1" d="M319.6,491.7c.5,0,.9,0,1.3.2.4.2.7.4,1,.6.3.3.5.6.6,1,.2.4.2.8.2,1.3s0,1-.2,1.4c-.2.4-.4.7-.6,1-.3.3-.6.5-1,.6-.4.2-.8.2-1.3.2s-.9,0-1.3-.2-.7-.4-1-.6c-.3-.3-.5-.6-.6-1-.2-.4-.2-.9-.2-1.4s0-.9.2-1.3c.2-.4.4-.7.6-1,.3-.3.6-.5,1-.6s.8-.2,1.3-.2ZM319.6,496.9c.5,0,.8-.2,1.1-.5.2-.3.3-.8.3-1.5s-.1-1.1-.3-1.5c-.2-.3-.6-.5-1.1-.5s-.9.2-1.1.5-.3.8-.3,1.5.1,1.1.3,1.5.6.5,1.1.5Z"/>
            <path class="st1" d="M325.4,492.8c.2-.4.4-.6.7-.8s.6-.3.9-.3.5,0,.7.2v1.2c-.1,0-.2.1-.2.2,0,0-.1,0-.2,0s-.2,0-.3,0c-.1,0-.2,0-.3,0-.2,0-.3,0-.4,0s-.2.1-.3.2c0,0-.2.2-.3.3,0,.1-.1.3-.2.4v3.8h-1.7v-6.3h1c.2,0,.3,0,.4,0s.1.2.1.3v.6Z"/>
            <path class="st1" d="M329.9,492.8c.2-.4.4-.6.7-.8s.6-.3.9-.3.5,0,.7.2v1.2c-.1,0-.2.1-.2.2,0,0-.1,0-.2,0s-.2,0-.3,0c-.1,0-.2,0-.3,0-.2,0-.3,0-.4,0s-.2.1-.3.2c0,0-.2.2-.3.3,0,.1-.1.3-.2.4v3.8h-1.7v-6.3h1c.2,0,.3,0,.4,0s.1.2.1.3v.6Z"/>
            <path class="st1" d="M334.1,495.2c0,.6.2,1,.5,1.3s.7.4,1.1.4.4,0,.6,0c.2,0,.3-.1.4-.2.1,0,.2-.1.3-.2.1,0,.2,0,.3,0s.2,0,.3.1l.5.6c-.2.2-.4.4-.6.5-.2.1-.4.2-.7.3-.2,0-.5.1-.7.2-.2,0-.5,0-.7,0-.4,0-.8,0-1.2-.2-.4-.1-.7-.4-1-.6s-.5-.6-.7-1.1c-.2-.4-.2-.9-.2-1.5s0-.8.2-1.2c.1-.4.3-.7.6-1,.3-.3.6-.5,1-.7.4-.2.8-.2,1.3-.2s.8,0,1.1.2c.3.1.6.3.9.6.2.2.4.5.6.9s.2.8.2,1.2,0,.2,0,.3,0,.1,0,.2,0,0-.1.1c0,0-.1,0-.2,0h-3.8ZM336.7,494.2c0-.2,0-.3,0-.5s-.1-.3-.2-.4c-.1-.1-.2-.2-.4-.3-.2,0-.3-.1-.6-.1-.4,0-.7.1-.9.3s-.4.6-.4,1h2.6Z"/>
            <path class="st1" d="M341.1,490c0,.1,0,.3,0,.4,0,.1-.1.2-.2.3,0,0-.2.2-.3.2-.1,0-.3,0-.4,0s-.3,0-.4,0c-.1,0-.2-.1-.3-.2s-.2-.2-.2-.3c0-.1,0-.3,0-.4s0-.3,0-.4c0-.1.1-.2.2-.3,0,0,.2-.2.3-.2.1,0,.3,0,.4,0s.3,0,.4,0c.1,0,.2.1.3.2,0,0,.2.2.2.3,0,.1,0,.3,0,.4ZM340.9,491.8v6.3h-1.7v-6.3h1.7Z"/>
            <path class="st1" d="M342.2,492.6c.4-.3.8-.6,1.2-.7.4-.2.9-.2,1.5-.2s.7,0,1,.2.5.3.7.5c.2.2.4.5.5.8.1.3.2.6.2,1v4h-.8c-.2,0-.3,0-.4,0,0,0-.2-.1-.2-.3v-.4c-.3.1-.4.3-.6.4-.1.1-.3.2-.5.3s-.3.1-.5.2-.4,0-.6,0-.5,0-.8-.1c-.2,0-.4-.2-.6-.3-.2-.1-.3-.3-.4-.5,0-.2-.1-.5-.1-.7s0-.5.2-.7c.1-.2.3-.4.6-.6.3-.2.7-.3,1.1-.5s1.1-.2,1.8-.2v-.3c0-.4,0-.7-.3-.9-.2-.2-.4-.3-.7-.3s-.4,0-.6,0c-.2,0-.3.1-.4.2-.1,0-.2.1-.3.2-.1,0-.2,0-.4,0s-.2,0-.3,0c0,0-.1-.1-.2-.2l-.3-.5ZM345.6,495.4c-.4,0-.8,0-1,.1-.3,0-.5.1-.6.2-.2,0-.3.2-.3.3,0,.1-.1.2-.1.3,0,.2,0,.4.2.5s.3.2.6.2.5,0,.7-.1c.2,0,.4-.3.6-.5v-1Z"/>
            <path class="st1" d="M348.4,492.9c0-.1,0-.3,0-.4,0-.1.1-.2.2-.3,0,0,.2-.2.3-.2.1,0,.3,0,.4,0s.3,0,.4,0,.2.1.3.2c0,0,.2.2.2.3,0,.1,0,.2,0,.4s0,.3,0,.4c0,.1-.1.2-.2.3,0,0-.2.2-.3.2s-.3,0-.4,0-.3,0-.4,0c-.1,0-.2-.1-.3-.2,0,0-.2-.2-.2-.3,0-.1,0-.2,0-.4ZM348.4,497.2c0-.1,0-.3,0-.4,0-.1.1-.2.2-.3,0,0,.2-.2.3-.2.1,0,.3,0,.4,0s.3,0,.4,0,.2.1.3.2c0,0,.2.2.2.3,0,.1,0,.2,0,.4s0,.3,0,.4c0,.1-.1.2-.2.3,0,0-.2.2-.3.2s-.3,0-.4,0-.3,0-.4,0c-.1,0-.2-.1-.3-.2,0,0-.2-.2-.2-.3,0-.1,0-.2,0-.4Z"/>
            <path class="st1" d="M283.6,510.1h-1.4c-.2,0-.3,0-.4-.1s-.2-.2-.2-.3l-.6-1.7h-3.5l-.6,1.7c0,.1-.1.2-.2.3-.1,0-.2.1-.4.1h-1.4l3.5-8.9h1.9l3.5,8.9ZM280.6,506.7l-1-2.7c0-.1-.1-.3-.2-.5,0-.2-.1-.4-.2-.6,0,.2-.1.4-.2.6,0,.2-.1.4-.2.5l-1,2.7h2.6Z"/>
            <path class="st1" d="M285.9,501v9.1h-1.7v-9.1h1.7Z"/>
            <path class="st1" d="M292.8,504v.6c0,0,0,.2,0,.2,0,0-.1,0-.3.1h-.5c0,.3.1.5.1.7s0,.6-.2.8c-.1.2-.3.5-.5.6-.2.2-.5.3-.8.4s-.6.1-1,.1-.4,0-.6,0c-.2.1-.3.2-.3.3s0,.2.2.3c.1,0,.3,0,.5.1.2,0,.4,0,.6,0,.2,0,.5,0,.7,0,.3,0,.5,0,.7.1s.5.1.6.2c.2.1.3.3.5.5.1.2.2.4.2.7s0,.6-.2.8c-.1.3-.3.5-.6.7-.3.2-.6.4-1,.5-.4.1-.8.2-1.3.2s-.9,0-1.3-.1c-.4,0-.7-.2-.9-.4-.2-.2-.4-.3-.5-.5-.1-.2-.2-.4-.2-.6s0-.5.3-.7c.2-.2.4-.4.7-.5-.2,0-.3-.2-.4-.4s-.1-.3-.1-.6,0-.4.2-.6.3-.4.6-.5c-.3-.2-.6-.4-.8-.7-.2-.3-.3-.6-.3-1s0-.6.2-.8c.1-.3.3-.5.5-.6.2-.2.5-.3.8-.4s.6-.1,1-.1c.5,0,1,.1,1.4.3h1.8ZM291.1,510.4c0-.1,0-.2-.1-.3,0,0-.2-.1-.3-.2-.1,0-.3,0-.4,0-.2,0-.3,0-.5,0s-.4,0-.6,0c-.2,0-.4,0-.6,0-.1,0-.3.2-.4.3,0,.1-.1.2-.1.4s0,.2,0,.3.1.2.2.2.3.1.4.1c.2,0,.4,0,.7,0s.5,0,.7,0c.2,0,.3,0,.5-.2.1,0,.2-.1.3-.2,0,0,0-.2,0-.3ZM289.5,506.7c.3,0,.6,0,.8-.3.2-.2.2-.4.2-.7s0-.5-.2-.7c-.2-.2-.4-.2-.8-.2s-.6,0-.8.2c-.2.2-.2.4-.2.7s0,.5.2.7c.2.2.4.3.8.3Z"/>
            <path class="st1" d="M296.4,503.7c.5,0,.9,0,1.3.2.4.2.7.4,1,.6.3.3.5.6.6,1,.2.4.2.8.2,1.3s0,1-.2,1.4c-.2.4-.4.7-.6,1-.3.3-.6.5-1,.6-.4.2-.8.2-1.3.2s-.9,0-1.3-.2-.7-.4-1-.6c-.3-.3-.5-.6-.6-1-.2-.4-.2-.9-.2-1.4s0-.9.2-1.3c.2-.4.4-.7.6-1,.3-.3.6-.5,1-.6s.8-.2,1.3-.2ZM296.4,508.9c.5,0,.8-.2,1.1-.5.2-.3.3-.8.3-1.5s-.1-1.1-.3-1.5c-.2-.3-.6-.5-1.1-.5s-.9.2-1.1.5-.3.8-.3,1.5.1,1.1.3,1.5.6.5,1.1.5Z"/>
            <path class="st1" d="M302.1,504.9c.2-.4.4-.6.7-.8s.6-.3.9-.3.5,0,.7.2v1.2c-.1,0-.2.1-.2.2,0,0-.1,0-.2,0s-.2,0-.3,0c-.1,0-.2,0-.3,0-.2,0-.3,0-.4,0s-.2.1-.3.2c0,0-.2.2-.3.3,0,.1-.1.3-.2.4v3.8h-1.7v-6.3h1c.2,0,.3,0,.4,0s.1.2.1.3v.6Z"/>
            <path class="st1" d="M307,502c0,.1,0,.3,0,.4,0,.1-.1.2-.2.3,0,0-.2.2-.3.2-.1,0-.3,0-.4,0s-.3,0-.4,0c-.1,0-.2-.1-.3-.2s-.2-.2-.2-.3c0-.1,0-.3,0-.4s0-.3,0-.4c0-.1.1-.2.2-.3,0,0,.2-.2.3-.2.1,0,.3,0,.4,0s.3,0,.4,0c.1,0,.2.1.3.2,0,0,.2.2.2.3,0,.1,0,.3,0,.4ZM306.8,503.8v6.3h-1.7v-6.3h1.7Z"/>
            <path class="st1" d="M310.3,510.2c-.3,0-.5,0-.8-.1s-.4-.2-.6-.4c-.2-.2-.3-.3-.3-.6s-.1-.5-.1-.7v-3.4h-.6c0,0-.2,0-.2,0,0,0,0-.1,0-.3v-.7l1-.2.3-1.6c0-.2.2-.3.4-.3h.9v1.9h1.6v1.2h-1.6v3.3c0,.2,0,.3.1.4s.2.2.4.2.1,0,.2,0c0,0,.1,0,.1,0,0,0,0,0,.1,0,0,0,0,0,.1,0s0,0,.1,0c0,0,0,0,0,.1l.5.8c-.2.2-.5.3-.8.4-.3,0-.6.1-.9.1Z"/>
            <path class="st1" d="M312.7,510.1v-6.3h1c.2,0,.4,0,.4.3v.4c.2-.1.3-.2.4-.3.1,0,.2-.2.4-.3s.3-.1.4-.2c.2,0,.3,0,.5,0,.4,0,.7.1,1,.3.3.2.4.5.6.8.1-.2.2-.4.4-.5s.3-.3.5-.4c.2,0,.4-.2.6-.2.2,0,.4,0,.6,0,.4,0,.7,0,.9.2.3.1.5.3.7.5s.3.5.4.8.1.6.1,1v4h-1.7v-4c0-.7-.3-1.1-.9-1.1s-.3,0-.4,0-.2.1-.3.2c0,0-.2.2-.2.3s0,.3,0,.5v4h-1.7v-4c0-.4,0-.7-.2-.9s-.4-.3-.7-.3-.4,0-.6.1c-.2,0-.3.2-.5.4v4.6h-1.7Z"/>
            <path class="st1" d="M325.8,503.7c.5,0,.9,0,1.3.2.4.2.7.4,1,.6.3.3.5.6.6,1,.2.4.2.8.2,1.3s0,1-.2,1.4c-.2.4-.4.7-.6,1-.3.3-.6.5-1,.6-.4.2-.8.2-1.3.2s-.9,0-1.3-.2-.7-.4-1-.6c-.3-.3-.5-.6-.6-1-.2-.4-.2-.9-.2-1.4s0-.9.2-1.3c.2-.4.4-.7.6-1,.3-.3.6-.5,1-.6s.8-.2,1.3-.2ZM325.8,508.9c.5,0,.8-.2,1.1-.5.2-.3.3-.8.3-1.5s-.1-1.1-.3-1.5c-.2-.3-.6-.5-1.1-.5s-.9.2-1.1.5-.3.8-.3,1.5.1,1.1.3,1.5.6.5,1.1.5Z"/>
            <path class="st1" d="M281.2,513v9.1h-1c-.2,0-.4,0-.4-.3v-.5c-.3.1-.4.3-.5.4-.1.1-.3.2-.5.3-.2,0-.3.1-.5.2s-.4,0-.6,0c-.3,0-.6,0-.9-.2-.3-.1-.5-.4-.7-.6-.2-.3-.4-.6-.5-1-.1-.4-.2-.9-.2-1.4s0-.9.2-1.3c.1-.4.3-.8.5-1s.5-.5.9-.7.7-.3,1.1-.3.6,0,.9.2c.2.1.4.2.6.4v-3.3h1.7ZM279.6,517.5c-.2-.2-.3-.3-.5-.4-.2,0-.4-.1-.6-.1s-.4,0-.6.1c-.2,0-.3.2-.4.4-.1.2-.2.4-.3.6,0,.3,0,.6,0,.9s0,.6,0,.9c0,.2.1.4.2.6,0,.2.2.3.4.3.1,0,.3.1.5.1.3,0,.5,0,.7-.2.2-.1.4-.3.6-.5v-2.8Z"/>
            <path class="st1" d="M283.9,519.3c0,.6.2,1,.5,1.3s.7.4,1.1.4.4,0,.6,0c.2,0,.3-.1.4-.2.1,0,.2-.1.3-.2.1,0,.2,0,.3,0s.2,0,.3.1l.5.6c-.2.2-.4.4-.6.5-.2.1-.4.2-.7.3-.2,0-.5.1-.7.2-.2,0-.5,0-.7,0-.4,0-.8,0-1.2-.2-.4-.1-.7-.4-1-.6s-.5-.6-.7-1.1c-.2-.4-.2-.9-.2-1.5s0-.8.2-1.2c.1-.4.3-.7.6-1,.3-.3.6-.5,1-.7.4-.2.8-.2,1.3-.2s.8,0,1.1.2c.3.1.6.3.9.6.2.2.4.5.6.9s.2.8.2,1.2,0,.2,0,.3,0,.1,0,.2,0,0-.1.1c0,0-.1,0-.2,0h-3.8ZM286.6,518.3c0-.2,0-.3,0-.5s-.1-.3-.2-.4c-.1-.1-.2-.2-.4-.3-.2,0-.3-.1-.6-.1-.4,0-.7.1-.9.3s-.4.6-.4,1h2.6Z"/>
            <path class="st1" d="M291.8,516.7c.4-.3.8-.6,1.2-.7.4-.2.9-.2,1.5-.2s.7,0,1,.2.5.3.7.5c.2.2.4.5.5.8.1.3.2.6.2,1v4h-.8c-.2,0-.3,0-.4,0,0,0-.2-.1-.2-.3v-.4c-.3.1-.4.3-.6.4-.1.1-.3.2-.5.3s-.3.1-.5.2-.4,0-.6,0-.5,0-.8-.1c-.2,0-.4-.2-.6-.3-.2-.1-.3-.3-.4-.5,0-.2-.1-.5-.1-.7s0-.5.2-.7c.1-.2.3-.4.6-.6.3-.2.7-.3,1.1-.5s1.1-.2,1.8-.2v-.3c0-.4,0-.7-.3-.9-.2-.2-.4-.3-.7-.3s-.4,0-.6,0c-.2,0-.3.1-.4.2-.1,0-.2.1-.3.2-.1,0-.2,0-.4,0s-.2,0-.3,0c0,0-.1-.1-.2-.2l-.3-.5ZM295.2,519.5c-.4,0-.8,0-1,.1-.3,0-.5.1-.6.2-.2,0-.3.2-.3.3,0,.1-.1.2-.1.3,0,.2,0,.4.2.5s.3.2.6.2.5,0,.7-.1c.2,0,.4-.3.6-.5v-1Z"/>
            <path class="st1" d="M299.8,516.6c.2-.2.5-.4.8-.6.3-.2.6-.2,1-.2s.7,0,1,.2c.3.1.5.4.7.6.2.3.4.6.5,1s.2.8.2,1.3,0,1-.2,1.4c-.1.4-.3.8-.5,1.1s-.5.5-.8.7c-.3.2-.7.2-1.1.2s-.4,0-.5,0-.3,0-.4-.2c-.1,0-.3-.2-.4-.2s-.2-.2-.3-.3v.4c0,.1-.1.2-.2.2,0,0-.2,0-.3,0h-1.1v-9.1h1.7v3.5ZM299.8,520.5c.2.2.3.3.5.4s.4.1.6.1.4,0,.6-.1.3-.2.4-.4c.1-.2.2-.4.3-.6,0-.3,0-.6,0-1s0-.6,0-.9c0-.2-.1-.4-.2-.6-.1-.2-.2-.3-.4-.3s-.3-.1-.5-.1-.5,0-.7.2c-.2.1-.4.3-.6.5v2.8Z"/>
            <path class="st1" d="M307.8,515.8c.5,0,.9,0,1.3.2.4.2.7.4,1,.6.3.3.5.6.6,1,.2.4.2.8.2,1.3s0,1-.2,1.4c-.2.4-.4.7-.6,1-.3.3-.6.5-1,.6-.4.2-.8.2-1.3.2s-.9,0-1.3-.2-.7-.4-1-.6c-.3-.3-.5-.6-.6-1-.2-.4-.2-.9-.2-1.4s0-.9.2-1.3c.2-.4.4-.7.6-1,.3-.3.6-.5,1-.6s.8-.2,1.3-.2ZM307.8,521c.5,0,.8-.2,1.1-.5.2-.3.3-.8.3-1.5s-.1-1.1-.3-1.5c-.2-.3-.6-.5-1.1-.5s-.9.2-1.1.5-.3.8-.3,1.5.1,1.1.3,1.5.6.5,1.1.5Z"/>
            <path class="st1" d="M313.5,516.9c.2-.4.4-.6.7-.8s.6-.3.9-.3.5,0,.7.2v1.2c-.1,0-.2.1-.2.2,0,0-.1,0-.2,0s-.2,0-.3,0c-.1,0-.2,0-.3,0-.2,0-.3,0-.4,0s-.2.1-.3.2c0,0-.2.2-.3.3,0,.1-.1.3-.2.4v3.8h-1.7v-6.3h1c.2,0,.3,0,.4,0s.1.2.1.3v.6Z"/>
            <path class="st1" d="M321.9,513v9.1h-1c-.2,0-.4,0-.4-.3v-.5c-.3.1-.4.3-.5.4-.1.1-.3.2-.5.3-.2,0-.3.1-.5.2s-.4,0-.6,0c-.3,0-.6,0-.9-.2-.3-.1-.5-.4-.7-.6-.2-.3-.4-.6-.5-1-.1-.4-.2-.9-.2-1.4s0-.9.2-1.3c.1-.4.3-.8.5-1s.5-.5.9-.7.7-.3,1.1-.3.6,0,.9.2c.2.1.4.2.6.4v-3.3h1.7ZM320.3,517.5c-.2-.2-.3-.3-.5-.4-.2,0-.4-.1-.6-.1s-.4,0-.6.1c-.2,0-.3.2-.4.4-.1.2-.2.4-.3.6,0,.3,0,.6,0,.9s0,.6,0,.9c0,.2.1.4.2.6,0,.2.2.3.4.3.1,0,.3.1.5.1.3,0,.5,0,.7-.2.2-.1.4-.3.6-.5v-2.8Z"/>
            <path class="st1" d="M323.1,516.7c.4-.3.8-.6,1.2-.7.4-.2.9-.2,1.5-.2s.7,0,1,.2.5.3.7.5c.2.2.4.5.5.8.1.3.2.6.2,1v4h-.8c-.2,0-.3,0-.4,0,0,0-.2-.1-.2-.3v-.4c-.3.1-.4.3-.6.4-.1.1-.3.2-.5.3s-.3.1-.5.2-.4,0-.6,0-.5,0-.8-.1c-.2,0-.4-.2-.6-.3-.2-.1-.3-.3-.4-.5,0-.2-.1-.5-.1-.7s0-.5.2-.7c.1-.2.3-.4.6-.6.3-.2.7-.3,1.1-.5s1.1-.2,1.8-.2v-.3c0-.4,0-.7-.3-.9-.2-.2-.4-.3-.7-.3s-.4,0-.6,0c-.2,0-.3.1-.4.2-.1,0-.2.1-.3.2-.1,0-.2,0-.4,0s-.2,0-.3,0c0,0-.1-.1-.2-.2l-.3-.5ZM326.6,519.5c-.4,0-.8,0-1,.1-.3,0-.5.1-.6.2-.2,0-.3.2-.3.3,0,.1-.1.2-.1.3,0,.2,0,.4.2.5s.3.2.6.2.5,0,.7-.1c.2,0,.4-.3.6-.5v-1Z"/>
            <path class="st1" d="M335.1,516.1v.6c0,0,0,.2,0,.2,0,0-.1,0-.3.1h-.5c0,.3.1.5.1.7s0,.6-.2.8c-.1.2-.3.5-.5.6-.2.2-.5.3-.8.4s-.6.1-1,.1-.4,0-.6,0c-.2.1-.3.2-.3.3s0,.2.2.3c.1,0,.3,0,.5.1.2,0,.4,0,.6,0,.2,0,.5,0,.7,0,.3,0,.5,0,.7.1s.5.1.6.2c.2.1.3.3.5.5.1.2.2.4.2.7s0,.6-.2.8c-.1.3-.3.5-.6.7-.3.2-.6.4-1,.5-.4.1-.8.2-1.3.2s-.9,0-1.3-.1c-.4,0-.7-.2-.9-.4-.2-.2-.4-.3-.5-.5-.1-.2-.2-.4-.2-.6s0-.5.3-.7c.2-.2.4-.4.7-.5-.2,0-.3-.2-.4-.4s-.1-.3-.1-.6,0-.4.2-.6.3-.4.6-.5c-.3-.2-.6-.4-.8-.7-.2-.3-.3-.6-.3-1s0-.6.2-.8c.1-.3.3-.5.5-.6.2-.2.5-.3.8-.4s.6-.1,1-.1c.5,0,1,.1,1.4.3h1.8ZM333.4,522.4c0-.1,0-.2-.1-.3,0,0-.2-.1-.3-.2-.1,0-.3,0-.4,0-.2,0-.3,0-.5,0s-.4,0-.6,0c-.2,0-.4,0-.6,0-.1,0-.3.2-.4.3,0,.1-.1.2-.1.4s0,.2,0,.3.1.2.2.2.3.1.4.1c.2,0,.4,0,.7,0s.5,0,.7,0c.2,0,.3,0,.5-.2.1,0,.2-.1.3-.2,0,0,0-.2,0-.3ZM331.8,518.8c.3,0,.6,0,.8-.3.2-.2.2-.4.2-.7s0-.5-.2-.7c-.2-.2-.4-.2-.8-.2s-.6,0-.8.2c-.2.2-.2.4-.2.7s0,.5.2.7c.2.2.4.3.8.3Z"/>
            <path class="st1" d="M337.1,519.3c0,.6.2,1,.5,1.3s.7.4,1.1.4.4,0,.6,0c.2,0,.3-.1.4-.2.1,0,.2-.1.3-.2.1,0,.2,0,.3,0s.2,0,.3.1l.5.6c-.2.2-.4.4-.6.5-.2.1-.4.2-.7.3-.2,0-.5.1-.7.2-.2,0-.5,0-.7,0-.4,0-.8,0-1.2-.2-.4-.1-.7-.4-1-.6s-.5-.6-.7-1.1c-.2-.4-.2-.9-.2-1.5s0-.8.2-1.2c.1-.4.3-.7.6-1,.3-.3.6-.5,1-.7.4-.2.8-.2,1.3-.2s.8,0,1.1.2c.3.1.6.3.9.6.2.2.4.5.6.9s.2.8.2,1.2,0,.2,0,.3,0,.1,0,.2,0,0-.1.1c0,0-.1,0-.2,0h-3.8ZM339.8,518.3c0-.2,0-.3,0-.5s-.1-.3-.2-.4c-.1-.1-.2-.2-.4-.3-.2,0-.3-.1-.6-.1-.4,0-.7.1-.9.3s-.4.6-.4,1h2.6Z"/>
            <path class="st1" d="M342.2,522.1v-6.3h1c.2,0,.4,0,.4.3v.4c.2-.1.3-.2.4-.3.1,0,.2-.2.4-.3s.3-.1.4-.2c.2,0,.3,0,.5,0,.4,0,.7.1,1,.3.3.2.4.5.6.8.1-.2.2-.4.4-.5s.3-.3.5-.4c.2,0,.4-.2.6-.2.2,0,.4,0,.6,0,.4,0,.7,0,.9.2.3.1.5.3.7.5s.3.5.4.8.1.6.1,1v4h-1.7v-4c0-.7-.3-1.1-.9-1.1s-.3,0-.4,0-.2.1-.3.2c0,0-.2.2-.2.3s0,.3,0,.5v4h-1.7v-4c0-.4,0-.7-.2-.9s-.4-.3-.7-.3-.4,0-.6.1c-.2,0-.3.2-.5.4v4.6h-1.7Z"/>
            <path class="st3" d="M281.9,547.6c0,.5,0,1-.2,1.4-.2.4-.4.8-.7,1.1s-.7.5-1.1.7-.9.3-1.4.3h-2.6v-6.9h2.6c.5,0,1,0,1.4.3.4.2.8.4,1.1.7s.5.7.7,1.1c.2.4.2.9.2,1.4ZM280.8,547.6c0-.4,0-.8-.2-1.1-.1-.3-.3-.6-.5-.8-.2-.2-.5-.4-.8-.5-.3-.1-.6-.2-1-.2h-1.6v5.3h1.6c.4,0,.7,0,1-.2.3-.1.5-.3.8-.5.2-.2.4-.5.5-.8.1-.3.2-.7.2-1.1Z"/>
            <path class="st3" d="M288.4,551h-.9c-.2,0-.3,0-.4-.2l-1.7-2.4c0,0-.1-.1-.2-.2,0,0-.2,0-.3,0h-.7v2.8h-1v-6.9h2c.4,0,.8,0,1.2.1.3,0,.6.2.8.4s.4.4.5.6c.1.2.2.5.2.8s0,.5-.1.7-.2.4-.3.6c-.1.2-.3.3-.5.4-.2.1-.4.2-.7.3.1,0,.2.2.3.3l1.9,2.7ZM285.2,547.5c.3,0,.5,0,.7,0,.2,0,.4-.2.5-.3.1-.1.2-.3.3-.4s.1-.3.1-.5c0-.4-.1-.7-.4-.9s-.7-.3-1.2-.3h-1v2.5h.9Z"/>
            <path class="st3" d="M295.1,551h-.8c0,0-.2,0-.2,0,0,0,0-.1-.1-.2l-.6-1.6h-3l-.6,1.6c0,0,0,.1-.1.2s-.1,0-.2,0h-.8l2.8-6.9h1l2.8,6.9ZM293.1,548.5l-1-2.7c0-.2-.1-.4-.2-.7,0,.1,0,.3-.1.4,0,.1,0,.2-.1.3l-1,2.7h2.5Z"/>
            <path class="st3" d="M295.7,550.5c0,0,0-.2,0-.2,0,0,0-.1.1-.2,0,0,.1-.1.2-.1s.2,0,.3,0,.2,0,.2,0c0,0,.1,0,.2.1s.1.1.1.2c0,0,0,.2,0,.2s0,.2,0,.3c0,0,0,.1-.1.2s-.1.1-.2.1c0,0-.2,0-.2,0s-.2,0-.3,0c0,0-.1,0-.2-.1,0,0,0-.1-.1-.2,0,0,0-.2,0-.3Z"/>
            <path class="st3" d="M302,545v2.3h2.8v.8h-2.8v2.9h-1v-6.9h4.3v.8h-3.3Z"/>
            <path class="st3" d="M310.8,550.2v.8h-4.3v-6.9h4.3v.8h-3.3v2.2h2.6v.8h-2.6v2.3h3.3Z"/>
            <path class="st3" d="M317.4,551h-.9c-.2,0-.3,0-.4-.2l-1.7-2.4c0,0-.1-.1-.2-.2,0,0-.2,0-.3,0h-.7v2.8h-1v-6.9h2c.4,0,.8,0,1.2.1.3,0,.6.2.8.4s.4.4.5.6c.1.2.2.5.2.8s0,.5-.1.7-.2.4-.3.6c-.1.2-.3.3-.5.4-.2.1-.4.2-.7.3.1,0,.2.2.3.3l1.9,2.7ZM314.1,547.5c.3,0,.5,0,.7,0,.2,0,.4-.2.5-.3.1-.1.2-.3.3-.4s.1-.3.1-.5c0-.4-.1-.7-.4-.9s-.7-.3-1.2-.3h-1v2.5h.9Z"/>
            <path class="st3" d="M324,544.1v6.9h-.5c0,0-.1,0-.2,0,0,0-.1,0-.2-.1l-3.9-5.1c0,0,0,.2,0,.3,0,0,0,.2,0,.2v4.7h-.9v-6.9h.5c0,0,.2,0,.2,0,0,0,0,0,.1.1l3.9,5.1c0,0,0-.2,0-.3,0,0,0-.2,0-.2v-4.7h.9Z"/>
            <path class="st3" d="M331.5,551h-.8c0,0-.2,0-.2,0,0,0,0-.1-.1-.2l-.6-1.6h-3l-.6,1.6c0,0,0,.1-.1.2s-.1,0-.2,0h-.8l2.8-6.9h1l2.8,6.9ZM329.5,548.5l-1-2.7c0-.2-.1-.4-.2-.7,0,.1,0,.3-.1.4,0,.1,0,.2-.1.3l-1,2.7h2.5Z"/>
            <path class="st3" d="M338.1,544.1v6.9h-.5c0,0-.1,0-.2,0,0,0-.1,0-.2-.1l-3.9-5.1c0,0,0,.2,0,.3,0,0,0,.2,0,.2v4.7h-.9v-6.9h.5c0,0,.2,0,.2,0,0,0,0,0,.1.1l3.9,5.1c0,0,0-.2,0-.3,0,0,0-.2,0-.2v-4.7h.9Z"/>
            <path class="st3" d="M346,547.6c0,.5,0,1-.2,1.4-.2.4-.4.8-.7,1.1s-.7.5-1.1.7-.9.3-1.4.3h-2.6v-6.9h2.6c.5,0,1,0,1.4.3.4.2.8.4,1.1.7s.5.7.7,1.1c.2.4.2.9.2,1.4ZM344.9,547.6c0-.4,0-.8-.2-1.1-.1-.3-.3-.6-.5-.8-.2-.2-.5-.4-.8-.5-.3-.1-.6-.2-1-.2h-1.6v5.3h1.6c.4,0,.7,0,1-.2.3-.1.5-.3.8-.5.2-.2.4-.5.5-.8.1-.3.2-.7.2-1.1Z"/>
            <path class="st3" d="M352.9,551h-.8c0,0-.2,0-.2,0,0,0,0-.1-.1-.2l-.6-1.6h-3l-.6,1.6c0,0,0,.1-.1.2s-.1,0-.2,0h-.8l2.8-6.9h1l2.8,6.9ZM350.8,548.5l-1-2.7c0-.2-.1-.4-.2-.7,0,.1,0,.3-.1.4,0,.1,0,.2-.1.3l-1,2.7h2.5Z"/>
            <path class="st3" d="M361.7,547.7v2.7c-.4.3-.7.4-1.1.6-.4.1-.8.2-1.3.2s-1.1,0-1.5-.3c-.5-.2-.8-.4-1.2-.7s-.6-.7-.7-1.1c-.2-.4-.3-.9-.3-1.4s0-1,.2-1.4c.2-.4.4-.8.7-1.1.3-.3.7-.6,1.1-.7.4-.2.9-.3,1.5-.3s.5,0,.8,0c.2,0,.5.1.7.2.2,0,.4.2.6.3.2.1.3.2.5.4l-.3.5c0,0-.1.1-.2.1s-.2,0-.2,0c0,0-.2-.1-.3-.2-.1,0-.2-.1-.4-.2-.1,0-.3-.1-.5-.1-.2,0-.4,0-.7,0-.4,0-.7,0-1,.2-.3.1-.6.3-.8.5s-.4.5-.5.8c-.1.3-.2.7-.2,1.1s0,.8.2,1.1c.1.3.3.6.5.9.2.2.5.4.8.5s.7.2,1.1.2.3,0,.4,0,.3,0,.4,0,.2,0,.4-.1.2-.1.3-.2v-1.5h-1c0,0-.1,0-.2,0,0,0,0,0,0-.1v-.6h2.2Z"/>
            <path class="st3" d="M367.4,550.2v.8h-4.3v-6.9h4.3v.8h-3.3v2.2h2.6v.8h-2.6v2.3h3.3Z"/>
            <path class="st3" d="M374,551h-.9c-.2,0-.3,0-.4-.2l-1.7-2.4c0,0-.1-.1-.2-.2,0,0-.2,0-.3,0h-.7v2.8h-1v-6.9h2c.4,0,.8,0,1.2.1.3,0,.6.2.8.4s.4.4.5.6c.1.2.2.5.2.8s0,.5-.1.7-.2.4-.3.6c-.1.2-.3.3-.5.4-.2.1-.4.2-.7.3.1,0,.2.2.3.3l1.9,2.7ZM370.8,547.5c.3,0,.5,0,.7,0,.2,0,.4-.2.5-.3.1-.1.2-.3.3-.4s.1-.3.1-.5c0-.4-.1-.7-.4-.9s-.7-.3-1.2-.3h-1v2.5h.9Z"/>
            <path class="st3" d="M380.7,551h-.8c0,0-.2,0-.2,0,0,0,0-.1-.1-.2l-.6-1.6h-3l-.6,1.6c0,0,0,.1-.1.2s-.1,0-.2,0h-.8l2.8-6.9h1l2.8,6.9ZM378.7,548.5l-1-2.7c0-.2-.1-.4-.2-.7,0,.1,0,.3-.1.4,0,.1,0,.2-.1.3l-1,2.7h2.5Z"/>
            <path class="st3" d="M385.6,550.2v.9h-4v-6.9h1v6.1h2.9Z"/>
            <path class="st3" d="M392.7,547.6c0,.5,0,1-.2,1.4-.2.4-.4.8-.7,1.1s-.7.5-1.1.7-.9.3-1.4.3h-2.6v-6.9h2.6c.5,0,1,0,1.4.3.4.2.8.4,1.1.7s.5.7.7,1.1c.2.4.2.9.2,1.4ZM391.7,547.6c0-.4,0-.8-.2-1.1-.1-.3-.3-.6-.5-.8-.2-.2-.5-.4-.8-.5-.3-.1-.6-.2-1-.2h-1.6v5.3h1.6c.4,0,.7,0,1-.2.3-.1.5-.3.8-.5.2-.2.4-.5.5-.8.1-.3.2-.7.2-1.1Z"/>
            <path class="st3" d="M398.4,550.2v.8h-4.3v-6.9h4.3v.8h-3.3v2.2h2.6v.8h-2.6v2.3h3.3Z"/>
            <path class="st3" d="M403.4,545.3c0,0,0,0-.1.1s0,0-.1,0-.1,0-.2,0-.2-.1-.3-.2c-.1,0-.2-.1-.4-.2-.2,0-.3,0-.6,0s-.4,0-.5,0c-.2,0-.3.1-.4.2-.1,0-.2.2-.2.3,0,.1,0,.3,0,.4s0,.3.1.5.2.2.4.3.3.2.5.2c.2,0,.4.1.6.2.2,0,.4.1.6.2.2,0,.4.2.5.3.2.1.3.3.4.5,0,.2.1.4.1.7s0,.6-.2.9c-.1.3-.3.5-.5.7s-.4.4-.7.5c-.3.1-.6.2-1,.2s-.4,0-.6,0c-.2,0-.4-.1-.6-.2-.2,0-.4-.2-.5-.3-.2-.1-.3-.2-.4-.4l.3-.5s0,0,.1,0c0,0,0,0,.1,0s.1,0,.2.1c0,0,.2.1.3.2.1,0,.3.2.5.2.2,0,.4.1.7.1s.4,0,.6,0c.2,0,.3-.1.4-.2.1-.1.2-.2.3-.4,0-.1,0-.3,0-.5s0-.4-.1-.5c0-.1-.2-.2-.4-.3-.2,0-.3-.2-.5-.2s-.4-.1-.6-.2-.4-.1-.6-.2-.4-.2-.5-.3c-.2-.1-.3-.3-.4-.5,0-.2-.1-.5-.1-.8s0-.5.1-.7.2-.4.4-.6c.2-.2.4-.3.7-.4s.6-.2.9-.2.7,0,1.1.2c.3.1.6.3.8.5l-.3.5Z"/>
          </g>
          <g class="st11">
            <path class="st1" d="M277.9,476.1v-.4l2-.5c.3,0,.3-.2.3-.8v-10.1c0-.7-.4-1-.9-.8l-2.2.5-.3-1.2,6.5-1.8h.4v13.4c0,.5,0,.7.3.8l2,.5v.4h-8.2Z"/>
          </g>
        </g>
        <g>
          <rect class="st12" x="424.2" y="449.6" width="150.8" height="114.8"/>
          <g class="st11">
            <path class="st10" d="M433.6,476.1v-1.7c1.1-.7,2.2-1.6,3.2-2.6,1.4-1.4,2.7-3.3,2.7-5.4s-1.1-3.2-2.9-3.2-1.7.3-2.4,1l-.6-.6c1.2-1.4,2.5-2.6,4.8-2.6s4.5,1.9,4.5,4.4-1.2,3.7-2.9,5.3c-1.1,1.1-2.8,2.6-3.5,3.2h6.9v2.1h-9.7Z"/>
          </g>
          <g>
            <path class="st10" d="M435.9,490.6v2.3h3v1.4h-3v2.3h3.8v1.4h-5.6v-8.9h5.6v1.4h-3.8Z"/>
            <path class="st10" d="M442.2,492.5c.1-.1.3-.2.4-.3s.3-.2.4-.3c.2,0,.3-.1.5-.2.2,0,.4,0,.6,0,.3,0,.6,0,.9.2.3.1.5.3.7.5.2.2.3.5.4.8,0,.3.1.6.1,1v4h-1.7v-4c0-.3,0-.6-.2-.8-.2-.2-.4-.3-.7-.3s-.5,0-.7.2c-.2.1-.4.2-.6.4v4.5h-1.7v-6.3h1c.2,0,.4,0,.4.3v.4Z"/>
            <path class="st10" d="M453,489v9.1h-1c-.2,0-.4,0-.4-.3v-.5c-.3.1-.4.3-.5.4-.1.1-.3.2-.5.3-.2,0-.3.1-.5.2s-.4,0-.6,0c-.3,0-.6,0-.9-.2-.3-.1-.5-.4-.7-.6-.2-.3-.4-.6-.5-1-.1-.4-.2-.9-.2-1.4s0-.9.2-1.3c.1-.4.3-.8.5-1s.5-.5.9-.7.7-.3,1.1-.3.6,0,.9.2c.2.1.4.2.6.4v-3.3h1.7ZM451.4,493.4c-.2-.2-.3-.3-.5-.4-.2,0-.4-.1-.6-.1s-.4,0-.6.1c-.2,0-.3.2-.4.4-.1.2-.2.4-.3.6,0,.3,0,.6,0,.9s0,.6,0,.9c0,.2.1.4.2.6,0,.2.2.3.4.3.1,0,.3.1.5.1.3,0,.5,0,.7-.2.2-.1.4-.3.6-.5v-2.8Z"/>
            <path class="st10" d="M457.2,491.7c.5,0,.9,0,1.3.2.4.2.7.4,1,.6.3.3.5.6.6,1,.2.4.2.8.2,1.3s0,1-.2,1.4c-.2.4-.4.7-.6,1-.3.3-.6.5-1,.6-.4.2-.8.2-1.3.2s-.9,0-1.3-.2-.7-.4-1-.6c-.3-.3-.5-.6-.6-1-.2-.4-.2-.9-.2-1.4s0-.9.2-1.3c.2-.4.4-.7.6-1,.3-.3.6-.5,1-.6s.8-.2,1.3-.2ZM457.2,496.9c.5,0,.8-.2,1.1-.5.2-.3.3-.8.3-1.5s-.1-1.1-.3-1.5c-.2-.3-.6-.5-1.1-.5s-.9.2-1.1.5-.3.8-.3,1.5.1,1.1.3,1.5.6.5,1.1.5Z"/>
            <path class="st10" d="M461.4,498.1v-6.3h1c.2,0,.4,0,.4.3v.4c.2-.1.3-.2.4-.3.1,0,.2-.2.4-.3s.3-.1.4-.2c.2,0,.3,0,.5,0,.4,0,.7.1,1,.3.3.2.4.5.6.8.1-.2.2-.4.4-.5s.3-.3.5-.4c.2,0,.4-.2.6-.2.2,0,.4,0,.6,0,.4,0,.7,0,.9.2.3.1.5.3.7.5s.3.5.4.8.1.6.1,1v4h-1.7v-4c0-.7-.3-1.1-.9-1.1s-.3,0-.4,0-.2.1-.3.2c0,0-.2.2-.2.3s0,.3,0,.5v4h-1.7v-4c0-.4,0-.7-.2-.9s-.4-.3-.7-.3-.4,0-.6.1c-.2,0-.3.2-.5.4v4.6h-1.7Z"/>
            <path class="st10" d="M472.9,495.2c0,.6.2,1,.5,1.3s.7.4,1.1.4.4,0,.6,0c.2,0,.3-.1.4-.2.1,0,.2-.1.3-.2.1,0,.2,0,.3,0s.2,0,.3.1l.5.6c-.2.2-.4.4-.6.5-.2.1-.4.2-.7.3-.2,0-.5.1-.7.2-.2,0-.5,0-.7,0-.4,0-.8,0-1.2-.2-.4-.1-.7-.4-1-.6s-.5-.6-.7-1.1c-.2-.4-.2-.9-.2-1.5s0-.8.2-1.2c.1-.4.3-.7.6-1,.3-.3.6-.5,1-.7.4-.2.8-.2,1.3-.2s.8,0,1.1.2c.3.1.6.3.9.6.2.2.4.5.6.9s.2.8.2,1.2,0,.2,0,.3,0,.1,0,.2,0,0-.1.1c0,0-.1,0-.2,0h-3.8ZM475.6,494.2c0-.2,0-.3,0-.5s-.1-.3-.2-.4c-.1-.1-.2-.2-.4-.3-.2,0-.3-.1-.6-.1-.4,0-.7.1-.9.3s-.4.6-.4,1h2.6Z"/>
            <path class="st10" d="M480.2,498.2c-.3,0-.5,0-.8-.1s-.4-.2-.6-.4c-.2-.2-.3-.3-.3-.6s-.1-.5-.1-.7v-3.4h-.6c0,0-.2,0-.2,0,0,0,0-.1,0-.3v-.7l1-.2.3-1.6c0-.2.2-.3.4-.3h.9v1.9h1.6v1.2h-1.6v3.3c0,.2,0,.3.1.4s.2.2.4.2.1,0,.2,0c0,0,.1,0,.1,0,0,0,0,0,.1,0,0,0,0,0,.1,0s0,0,.1,0c0,0,0,0,0,.1l.5.8c-.2.2-.5.3-.8.4-.3,0-.6.1-.9.1Z"/>
            <path class="st10" d="M484.1,492.8c.2-.4.4-.6.7-.8s.6-.3.9-.3.5,0,.7.2v1.2c-.1,0-.2.1-.2.2,0,0-.1,0-.2,0s-.2,0-.3,0c-.1,0-.2,0-.3,0-.2,0-.3,0-.4,0s-.2.1-.3.2c0,0-.2.2-.3.3,0,.1-.1.3-.2.4v3.8h-1.7v-6.3h1c.2,0,.3,0,.4,0s.1.2.1.3v.6Z"/>
            <path class="st10" d="M489,490c0,.1,0,.3,0,.4,0,.1-.1.2-.2.3,0,0-.2.2-.3.2-.1,0-.3,0-.4,0s-.3,0-.4,0c-.1,0-.2-.1-.3-.2s-.2-.2-.2-.3c0-.1,0-.3,0-.4s0-.3,0-.4c0-.1.1-.2.2-.3,0,0,.2-.2.3-.2.1,0,.3,0,.4,0s.3,0,.4,0c.1,0,.2.1.3.2,0,0,.2.2.2.3,0,.1,0,.3,0,.4ZM488.8,491.8v6.3h-1.7v-6.3h1.7Z"/>
            <path class="st10" d="M493,491.7c.5,0,.9,0,1.3.2.4.2.7.4,1,.6.3.3.5.6.6,1,.2.4.2.8.2,1.3s0,1-.2,1.4c-.2.4-.4.7-.6,1-.3.3-.6.5-1,.6-.4.2-.8.2-1.3.2s-.9,0-1.3-.2-.7-.4-1-.6c-.3-.3-.5-.6-.6-1-.2-.4-.2-.9-.2-1.4s0-.9.2-1.3c.2-.4.4-.7.6-1,.3-.3.6-.5,1-.6s.8-.2,1.3-.2ZM493,496.9c.5,0,.8-.2,1.1-.5.2-.3.3-.8.3-1.5s-.1-1.1-.3-1.5c-.2-.3-.6-.5-1.1-.5s-.9.2-1.1.5-.3.8-.3,1.5.1,1.1.3,1.5.6.5,1.1.5Z"/>
            <path class="st10" d="M501.1,493.1c0,0,0,.1-.1.1,0,0-.1,0-.2,0s-.2,0-.3,0-.2,0-.3-.1c-.1,0-.2,0-.4-.1-.1,0-.3,0-.5,0-.3,0-.5,0-.6.2-.2.1-.2.3-.2.4s0,.2.1.3.2.2.3.2c.1,0,.3.1.5.2.2,0,.4.1.6.2.2,0,.4.1.6.2.2,0,.3.2.5.3.1.1.3.3.3.5,0,.2.1.4.1.7s0,.6-.2.8-.3.5-.5.7c-.2.2-.5.3-.8.4s-.7.2-1.1.2-.4,0-.6,0-.4,0-.6-.2c-.2,0-.4-.2-.5-.2-.2,0-.3-.2-.4-.3l.4-.6c0,0,.1-.1.2-.2,0,0,.2,0,.3,0s.2,0,.3,0,.2.1.3.2c.1,0,.2.1.4.2.1,0,.3,0,.5,0s.3,0,.4,0c.1,0,.2,0,.3-.1,0,0,.1-.1.2-.2,0,0,0-.2,0-.2,0-.1,0-.3-.1-.3s-.2-.2-.3-.2c-.1,0-.3-.1-.5-.2-.2,0-.4-.1-.6-.2-.2,0-.4-.1-.6-.2-.2,0-.3-.2-.5-.3-.1-.1-.3-.3-.3-.5,0-.2-.1-.4-.1-.7s0-.5.2-.7.3-.4.5-.6c.2-.2.5-.3.8-.4.3-.1.7-.2,1.1-.2s.9,0,1.2.2.7.3.9.6l-.4.6Z"/>
            <path class="st10" d="M503.9,495.2c0,.6.2,1,.5,1.3s.7.4,1.1.4.4,0,.6,0c.2,0,.3-.1.4-.2.1,0,.2-.1.3-.2.1,0,.2,0,.3,0s.2,0,.3.1l.5.6c-.2.2-.4.4-.6.5-.2.1-.4.2-.7.3-.2,0-.5.1-.7.2-.2,0-.5,0-.7,0-.4,0-.8,0-1.2-.2-.4-.1-.7-.4-1-.6s-.5-.6-.7-1.1c-.2-.4-.2-.9-.2-1.5s0-.8.2-1.2c.1-.4.3-.7.6-1,.3-.3.6-.5,1-.7.4-.2.8-.2,1.3-.2s.8,0,1.1.2c.3.1.6.3.9.6.2.2.4.5.6.9s.2.8.2,1.2,0,.2,0,.3,0,.1,0,.2,0,0-.1.1c0,0-.1,0-.2,0h-3.8ZM506.5,494.2c0-.2,0-.3,0-.5s-.1-.3-.2-.4c-.1-.1-.2-.2-.4-.3-.2,0-.3-.1-.6-.1-.4,0-.7.1-.9.3s-.4.6-.4,1h2.6Z"/>
            <path class="st10" d="M435.3,504.5c.1-.1.3-.2.4-.3s.3-.2.4-.3c.2,0,.3-.1.5-.2.2,0,.4,0,.6,0,.3,0,.6,0,.9.2.3.1.5.3.7.5.2.2.3.5.4.8,0,.3.1.6.1,1v4h-1.7v-4c0-.3,0-.6-.2-.8-.2-.2-.4-.3-.7-.3s-.5,0-.7.2c-.2.1-.4.2-.6.4v4.5h-1.7v-6.3h1c.2,0,.4,0,.4.3v.4Z"/>
            <path class="st10" d="M440.5,504.7c.4-.3.8-.6,1.2-.7.4-.2.9-.2,1.5-.2s.7,0,1,.2.5.3.7.5c.2.2.4.5.5.8.1.3.2.6.2,1v4h-.8c-.2,0-.3,0-.4,0,0,0-.2-.1-.2-.3v-.4c-.3.1-.4.3-.6.4-.1.1-.3.2-.5.3s-.3.1-.5.2-.4,0-.6,0-.5,0-.8-.1c-.2,0-.4-.2-.6-.3-.2-.1-.3-.3-.4-.5,0-.2-.1-.5-.1-.7s0-.5.2-.7c.1-.2.3-.4.6-.6.3-.2.7-.3,1.1-.5s1.1-.2,1.8-.2v-.3c0-.4,0-.7-.3-.9-.2-.2-.4-.3-.7-.3s-.4,0-.6,0c-.2,0-.3.1-.4.2-.1,0-.2.1-.3.2-.1,0-.2,0-.4,0s-.2,0-.3,0c0,0-.1-.1-.2-.2l-.3-.5ZM443.9,507.5c-.4,0-.8,0-1,.1-.3,0-.5.1-.6.2-.2,0-.3.2-.3.3,0,.1-.1.2-.1.3,0,.2,0,.4.2.5s.3.2.6.2.5,0,.7-.1c.2,0,.4-.3.6-.5v-1Z"/>
            <path class="st10" d="M457.2,510.1h-1.4c-.2,0-.3,0-.4-.1s-.2-.2-.2-.3l-.6-1.7h-3.5l-.6,1.7c0,.1-.1.2-.2.3-.1,0-.2.1-.4.1h-1.4l3.5-8.9h1.9l3.5,8.9ZM454.2,506.7l-1-2.7c0-.1-.1-.3-.2-.5,0-.2-.1-.4-.2-.6,0,.2-.1.4-.2.6,0,.2-.1.4-.2.5l-1,2.7h2.6Z"/>
            <path class="st10" d="M463.2,501v9.1h-1c-.2,0-.4,0-.4-.3v-.5c-.3.1-.4.3-.5.4-.1.1-.3.2-.5.3-.2,0-.3.1-.5.2s-.4,0-.6,0c-.3,0-.6,0-.9-.2-.3-.1-.5-.4-.7-.6-.2-.3-.4-.6-.5-1-.1-.4-.2-.9-.2-1.4s0-.9.2-1.3c.1-.4.3-.8.5-1s.5-.5.9-.7.7-.3,1.1-.3.6,0,.9.2c.2.1.4.2.6.4v-3.3h1.7ZM461.5,505.4c-.2-.2-.3-.3-.5-.4-.2,0-.4-.1-.6-.1s-.4,0-.6.1c-.2,0-.3.2-.4.4-.1.2-.2.4-.3.6,0,.3,0,.6,0,.9s0,.6,0,.9c0,.2.1.4.2.6,0,.2.2.3.4.3.1,0,.3.1.5.1.3,0,.5,0,.7-.2.2-.1.4-.3.6-.5v-2.8Z"/>
            <path class="st10" d="M467.4,503.7c.5,0,.9,0,1.3.2.4.2.7.4,1,.6.3.3.5.6.6,1,.2.4.2.8.2,1.3s0,1-.2,1.4c-.2.4-.4.7-.6,1-.3.3-.6.5-1,.6-.4.2-.8.2-1.3.2s-.9,0-1.3-.2-.7-.4-1-.6c-.3-.3-.5-.6-.6-1-.2-.4-.2-.9-.2-1.4s0-.9.2-1.3c.2-.4.4-.7.6-1,.3-.3.6-.5,1-.6s.8-.2,1.3-.2ZM467.4,508.9c.5,0,.8-.2,1.1-.5.2-.3.3-.8.3-1.5s-.1-1.1-.3-1.5c-.2-.3-.6-.5-1.1-.5s-.9.2-1.1.5-.3.8-.3,1.5.1,1.1.3,1.5.6.5,1.1.5Z"/>
            <path class="st10" d="M473.2,501v9.1h-1.7v-9.1h1.7Z"/>
            <path class="st10" d="M475.9,507.2c0,.6.2,1,.5,1.3s.7.4,1.1.4.4,0,.6,0c.2,0,.3-.1.4-.2.1,0,.2-.1.3-.2.1,0,.2,0,.3,0s.2,0,.3.1l.5.6c-.2.2-.4.4-.6.5-.2.1-.4.2-.7.3-.2,0-.5.1-.7.2-.2,0-.5,0-.7,0-.4,0-.8,0-1.2-.2-.4-.1-.7-.4-1-.6s-.5-.6-.7-1.1c-.2-.4-.2-.9-.2-1.5s0-.8.2-1.2c.1-.4.3-.7.6-1,.3-.3.6-.5,1-.7.4-.2.8-.2,1.3-.2s.8,0,1.1.2c.3.1.6.3.9.6.2.2.4.5.6.9s.2.8.2,1.2,0,.2,0,.3,0,.1,0,.2,0,0-.1.1c0,0-.1,0-.2,0h-3.8ZM478.5,506.2c0-.2,0-.3,0-.5s-.1-.3-.2-.4c-.1-.1-.2-.2-.4-.3-.2,0-.3-.1-.6-.1-.4,0-.7.1-.9.3s-.4.6-.4,1h2.6Z"/>
            <path class="st10" d="M484.9,505.1c0,0,0,.1-.1.1,0,0-.1,0-.2,0s-.2,0-.3,0-.2,0-.3-.1c-.1,0-.2,0-.4-.1-.1,0-.3,0-.5,0-.3,0-.5,0-.6.2-.2.1-.2.3-.2.4s0,.2.1.3.2.2.3.2c.1,0,.3.1.5.2.2,0,.4.1.6.2.2,0,.4.1.6.2.2,0,.3.2.5.3.1.1.3.3.3.5,0,.2.1.4.1.7s0,.6-.2.8-.3.5-.5.7c-.2.2-.5.3-.8.4s-.7.2-1.1.2-.4,0-.6,0-.4,0-.6-.2c-.2,0-.4-.2-.5-.2-.2,0-.3-.2-.4-.3l.4-.6c0,0,.1-.1.2-.2,0,0,.2,0,.3,0s.2,0,.3,0,.2.1.3.2c.1,0,.2.1.4.2.1,0,.3,0,.5,0s.3,0,.4,0c.1,0,.2,0,.3-.1,0,0,.1-.1.2-.2,0,0,0-.2,0-.2,0-.1,0-.3-.1-.3s-.2-.2-.3-.2c-.1,0-.3-.1-.5-.2-.2,0-.4-.1-.6-.2-.2,0-.4-.1-.6-.2-.2,0-.3-.2-.5-.3-.1-.1-.3-.3-.3-.5,0-.2-.1-.4-.1-.7s0-.5.2-.7.3-.4.5-.6c.2-.2.5-.3.8-.4.3-.1.7-.2,1.1-.2s.9,0,1.2.2.7.3.9.6l-.4.6Z"/>
            <path class="st10" d="M490.9,505.2c0,0,0,.1-.1.1s-.1,0-.2,0-.2,0-.2,0-.2,0-.3-.2c0,0-.2-.1-.3-.2-.1,0-.3,0-.5,0s-.5,0-.7.1c-.2,0-.3.2-.5.4-.1.2-.2.4-.3.6s0,.5,0,.8c0,.6.1,1.1.4,1.5.3.3.6.5,1.1.5s.3,0,.4,0c.1,0,.2,0,.3-.1,0,0,.2,0,.2-.1,0,0,.1,0,.2-.1,0,0,.1,0,.2-.1,0,0,.1,0,.2,0,.1,0,.2,0,.3.1l.5.6c-.2.2-.4.4-.6.5-.2.1-.4.2-.6.3-.2,0-.4.1-.7.2-.2,0-.4,0-.7,0-.4,0-.8,0-1.1-.2-.3-.1-.6-.4-.9-.6-.3-.3-.5-.6-.6-1s-.2-.9-.2-1.4,0-.9.2-1.3.3-.7.6-1c.3-.3.6-.5,1-.7.4-.2.8-.2,1.3-.2s.9,0,1.3.2c.4.2.7.4,1,.7l-.4.6Z"/>
            <path class="st10" d="M493.4,507.2c0,.6.2,1,.5,1.3s.7.4,1.1.4.4,0,.6,0c.2,0,.3-.1.4-.2.1,0,.2-.1.3-.2.1,0,.2,0,.3,0s.2,0,.3.1l.5.6c-.2.2-.4.4-.6.5-.2.1-.4.2-.7.3-.2,0-.5.1-.7.2-.2,0-.5,0-.7,0-.4,0-.8,0-1.2-.2-.4-.1-.7-.4-1-.6s-.5-.6-.7-1.1c-.2-.4-.2-.9-.2-1.5s0-.8.2-1.2c.1-.4.3-.7.6-1,.3-.3.6-.5,1-.7.4-.2.8-.2,1.3-.2s.8,0,1.1.2c.3.1.6.3.9.6.2.2.4.5.6.9s.2.8.2,1.2,0,.2,0,.3,0,.1,0,.2,0,0-.1.1c0,0-.1,0-.2,0h-3.8ZM497.1,503h-1.1c0,0-.1,0-.2,0s-.1,0-.2-.1l-.5-.6s0,0,0,0,0,0,0,0c0,0,0,.1-.1.2l-.5.6c-.1.1-.2.2-.4.2h-1.2l1.4-1.7h1.6l1.4,1.7ZM496.1,506.2c0-.2,0-.3,0-.5s-.1-.3-.2-.4c-.1-.1-.2-.2-.4-.3-.2,0-.3-.1-.6-.1-.4,0-.7.1-.9.3s-.4.6-.4,1h2.6Z"/>
            <path class="st10" d="M500.1,504.5c.1-.1.3-.2.4-.3s.3-.2.4-.3c.2,0,.3-.1.5-.2.2,0,.4,0,.6,0,.3,0,.6,0,.9.2.3.1.5.3.7.5.2.2.3.5.4.8,0,.3.1.6.1,1v4h-1.7v-4c0-.3,0-.6-.2-.8-.2-.2-.4-.3-.7-.3s-.5,0-.7.2c-.2.1-.4.2-.6.4v4.5h-1.7v-6.3h1c.2,0,.4,0,.4.3v.4Z"/>
            <path class="st10" d="M510,505.2c0,0,0,.1-.1.1s-.1,0-.2,0-.2,0-.2,0-.2,0-.3-.2c0,0-.2-.1-.3-.2-.1,0-.3,0-.5,0s-.5,0-.7.1c-.2,0-.3.2-.5.4-.1.2-.2.4-.3.6s0,.5,0,.8c0,.6.1,1.1.4,1.5.3.3.6.5,1.1.5s.3,0,.4,0c.1,0,.2,0,.3-.1,0,0,.2,0,.2-.1,0,0,.1,0,.2-.1,0,0,.1,0,.2-.1,0,0,.1,0,.2,0,.1,0,.2,0,.3.1l.5.6c-.2.2-.4.4-.6.5-.2.1-.4.2-.6.3-.2,0-.4.1-.7.2-.2,0-.4,0-.7,0-.4,0-.8,0-1.1-.2-.3-.1-.6-.4-.9-.6-.3-.3-.5-.6-.6-1s-.2-.9-.2-1.4,0-.9.2-1.3.3-.7.6-1c.3-.3.6-.5,1-.7.4-.2.8-.2,1.3-.2s.9,0,1.3.2c.4.2.7.4,1,.7l-.4.6Z"/>
            <path class="st10" d="M513.2,502c0,.1,0,.3,0,.4,0,.1-.1.2-.2.3,0,0-.2.2-.3.2-.1,0-.3,0-.4,0s-.3,0-.4,0c-.1,0-.2-.1-.3-.2s-.2-.2-.2-.3c0-.1,0-.3,0-.4s0-.3,0-.4c0-.1.1-.2.2-.3,0,0,.2-.2.3-.2.1,0,.3,0,.4,0s.3,0,.4,0c.1,0,.2.1.3.2,0,0,.2.2.2.3,0,.1,0,.3,0,.4ZM513,503.8v6.3h-1.7v-6.3h1.7Z"/>
            <path class="st10" d="M514.3,504.7c.4-.3.8-.6,1.2-.7.4-.2.9-.2,1.5-.2s.7,0,1,.2.5.3.7.5c.2.2.4.5.5.8.1.3.2.6.2,1v4h-.8c-.2,0-.3,0-.4,0,0,0-.2-.1-.2-.3v-.4c-.3.1-.4.3-.6.4-.1.1-.3.2-.5.3s-.3.1-.5.2-.4,0-.6,0-.5,0-.8-.1c-.2,0-.4-.2-.6-.3-.2-.1-.3-.3-.4-.5,0-.2-.1-.5-.1-.7s0-.5.2-.7c.1-.2.3-.4.6-.6.3-.2.7-.3,1.1-.5s1.1-.2,1.8-.2v-.3c0-.4,0-.7-.3-.9-.2-.2-.4-.3-.7-.3s-.4,0-.6,0c-.2,0-.3.1-.4.2-.1,0-.2.1-.3.2-.1,0-.2,0-.4,0s-.2,0-.3,0c0,0-.1-.1-.2-.2l-.3-.5ZM517.7,507.5c-.4,0-.8,0-1,.1-.3,0-.5.1-.6.2-.2,0-.3.2-.3.3,0,.1-.1.2-.1.3,0,.2,0,.4.2.5s.3.2.6.2.5,0,.7-.1c.2,0,.4-.3.6-.5v-1Z"/>
            <path class="st10" d="M520.5,504.9c0-.1,0-.3,0-.4,0-.1.1-.2.2-.3,0,0,.2-.2.3-.2.1,0,.3,0,.4,0s.3,0,.4,0,.2.1.3.2c0,0,.2.2.2.3,0,.1,0,.2,0,.4s0,.3,0,.4c0,.1-.1.2-.2.3,0,0-.2.2-.3.2s-.3,0-.4,0-.3,0-.4,0c-.1,0-.2-.1-.3-.2,0,0-.2-.2-.2-.3,0-.1,0-.2,0-.4ZM520.5,509.2c0-.1,0-.3,0-.4,0-.1.1-.2.2-.3,0,0,.2-.2.3-.2.1,0,.3,0,.4,0s.3,0,.4,0,.2.1.3.2c0,0,.2.2.2.3,0,.1,0,.2,0,.4s0,.3,0,.4c0,.1-.1.2-.2.3,0,0-.2.2-.3.2s-.3,0-.4,0-.3,0-.4,0c-.1,0-.2-.1-.3-.2,0,0-.2-.2-.2-.3,0-.1,0-.2,0-.4Z"/>
            <path class="st10" d="M441.1,522.1h-1.7c-.3,0-.5-.1-.7-.4l-1.7-2.7c0-.1-.1-.2-.2-.2,0,0-.2,0-.4,0h-.6v3.4h-1.8v-8.9h2.8c.6,0,1.1,0,1.6.2.4.1.8.3,1.1.5.3.2.5.5.6.8.1.3.2.7.2,1s0,.6-.1.8c0,.3-.2.5-.4.7-.2.2-.4.4-.6.6-.2.2-.5.3-.8.4.1,0,.2.1.3.2.1,0,.2.2.3.3l2.1,3.2ZM436.8,517.5c.3,0,.6,0,.8-.1.2,0,.4-.2.5-.3.1-.1.2-.3.3-.5,0-.2,0-.4,0-.6,0-.4-.1-.7-.4-1s-.7-.3-1.3-.3h-1v2.8h.9Z"/>
            <path class="st10" d="M442.6,519.3c0,.6.2,1,.5,1.3s.7.4,1.1.4.4,0,.6,0c.2,0,.3-.1.4-.2.1,0,.2-.1.3-.2.1,0,.2,0,.3,0s.2,0,.3.1l.5.6c-.2.2-.4.4-.6.5-.2.1-.4.2-.7.3-.2,0-.5.1-.7.2-.2,0-.5,0-.7,0-.4,0-.8,0-1.2-.2-.4-.1-.7-.4-1-.6s-.5-.6-.7-1.1c-.2-.4-.2-.9-.2-1.5s0-.8.2-1.2c.1-.4.3-.7.6-1,.3-.3.6-.5,1-.7.4-.2.8-.2,1.3-.2s.8,0,1.1.2c.3.1.6.3.9.6.2.2.4.5.6.9s.2.8.2,1.2,0,.2,0,.3,0,.1,0,.2,0,0-.1.1c0,0-.1,0-.2,0h-3.8ZM445.2,518.3c0-.2,0-.3,0-.5s-.1-.3-.2-.4c-.1-.1-.2-.2-.4-.3-.2,0-.3-.1-.6-.1-.4,0-.7.1-.9.3s-.4.6-.4,1h2.6Z"/>
            <path class="st10" d="M447.6,516.7c.4-.3.8-.6,1.2-.7.4-.2.9-.2,1.5-.2s.7,0,1,.2.5.3.7.5c.2.2.4.5.5.8.1.3.2.6.2,1v4h-.8c-.2,0-.3,0-.4,0,0,0-.2-.1-.2-.3v-.4c-.3.1-.4.3-.6.4-.1.1-.3.2-.5.3s-.3.1-.5.2-.4,0-.6,0-.5,0-.8-.1c-.2,0-.4-.2-.6-.3-.2-.1-.3-.3-.4-.5,0-.2-.1-.5-.1-.7s0-.5.2-.7c.1-.2.3-.4.6-.6.3-.2.7-.3,1.1-.5s1.1-.2,1.8-.2v-.3c0-.4,0-.7-.3-.9-.2-.2-.4-.3-.7-.3s-.4,0-.6,0c-.2,0-.3.1-.4.2-.1,0-.2.1-.3.2-.1,0-.2,0-.4,0s-.2,0-.3,0c0,0-.1-.1-.2-.2l-.3-.5ZM451,519.5c-.4,0-.8,0-1,.1-.3,0-.5.1-.6.2-.2,0-.3.2-.3.3,0,.1-.1.2-.1.3,0,.2,0,.4.2.5s.3.2.6.2.5,0,.7-.1c.2,0,.4-.3.6-.5v-1Z"/>
            <path class="st10" d="M455.6,513v9.1h-1.7v-9.1h1.7Z"/>
            <path class="st10" d="M458.9,514.1c0,.1,0,.3,0,.4,0,.1-.1.2-.2.3,0,0-.2.2-.3.2-.1,0-.3,0-.4,0s-.3,0-.4,0c-.1,0-.2-.1-.3-.2s-.2-.2-.2-.3c0-.1,0-.3,0-.4s0-.3,0-.4c0-.1.1-.2.2-.3,0,0,.2-.2.3-.2.1,0,.3,0,.4,0s.3,0,.4,0c.1,0,.2.1.3.2,0,0,.2.2.2.3,0,.1,0,.3,0,.4ZM458.7,515.9v6.3h-1.7v-6.3h1.7Z"/>
            <path class="st10" d="M465.6,513v9.1h-1c-.2,0-.4,0-.4-.3v-.5c-.3.1-.4.3-.5.4-.1.1-.3.2-.5.3-.2,0-.3.1-.5.2s-.4,0-.6,0c-.3,0-.6,0-.9-.2-.3-.1-.5-.4-.7-.6-.2-.3-.4-.6-.5-1-.1-.4-.2-.9-.2-1.4s0-.9.2-1.3c.1-.4.3-.8.5-1s.5-.5.9-.7.7-.3,1.1-.3.6,0,.9.2c.2.1.4.2.6.4v-3.3h1.7ZM463.9,517.5c-.2-.2-.3-.3-.5-.4-.2,0-.4-.1-.6-.1s-.4,0-.6.1c-.2,0-.3.2-.4.4-.1.2-.2.4-.3.6,0,.3,0,.6,0,.9s0,.6,0,.9c0,.2.1.4.2.6,0,.2.2.3.4.3.1,0,.3.1.5.1.3,0,.5,0,.7-.2.2-.1.4-.3.6-.5v-2.8Z"/>
            <path class="st10" d="M466.8,516.7c.4-.3.8-.6,1.2-.7.4-.2.9-.2,1.5-.2s.7,0,1,.2.5.3.7.5c.2.2.4.5.5.8.1.3.2.6.2,1v4h-.8c-.2,0-.3,0-.4,0,0,0-.2-.1-.2-.3v-.4c-.3.1-.4.3-.6.4-.1.1-.3.2-.5.3s-.3.1-.5.2-.4,0-.6,0-.5,0-.8-.1c-.2,0-.4-.2-.6-.3-.2-.1-.3-.3-.4-.5,0-.2-.1-.5-.1-.7s0-.5.2-.7c.1-.2.3-.4.6-.6.3-.2.7-.3,1.1-.5s1.1-.2,1.8-.2v-.3c0-.4,0-.7-.3-.9-.2-.2-.4-.3-.7-.3s-.4,0-.6,0c-.2,0-.3.1-.4.2-.1,0-.2.1-.3.2-.1,0-.2,0-.4,0s-.2,0-.3,0c0,0-.1-.1-.2-.2l-.3-.5ZM470.2,519.5c-.4,0-.8,0-1,.1-.3,0-.5.1-.6.2-.2,0-.3.2-.3.3,0,.1-.1.2-.1.3,0,.2,0,.4.2.5s.3.2.6.2.5,0,.7-.1c.2,0,.4-.3.6-.5v-1Z"/>
            <path class="st10" d="M478.7,513v9.1h-1c-.2,0-.4,0-.4-.3v-.5c-.3.1-.4.3-.5.4-.1.1-.3.2-.5.3-.2,0-.3.1-.5.2s-.4,0-.6,0c-.3,0-.6,0-.9-.2-.3-.1-.5-.4-.7-.6-.2-.3-.4-.6-.5-1-.1-.4-.2-.9-.2-1.4s0-.9.2-1.3c.1-.4.3-.8.5-1s.5-.5.9-.7.7-.3,1.1-.3.6,0,.9.2c.2.1.4.2.6.4v-3.3h1.7ZM477,517.5c-.2-.2-.3-.3-.5-.4-.2,0-.4-.1-.6-.1s-.4,0-.6.1c-.2,0-.3.2-.4.4-.1.2-.2.4-.3.6,0,.3,0,.6,0,.9s0,.6,0,.9c0,.2.1.4.2.6,0,.2.2.3.4.3.1,0,.3.1.5.1.3,0,.5,0,.7-.2.2-.1.4-.3.6-.5v-2.8Z"/>
            <path class="st10" d="M481.4,519.3c0,.6.2,1,.5,1.3s.7.4,1.1.4.4,0,.6,0c.2,0,.3-.1.4-.2.1,0,.2-.1.3-.2.1,0,.2,0,.3,0s.2,0,.3.1l.5.6c-.2.2-.4.4-.6.5-.2.1-.4.2-.7.3-.2,0-.5.1-.7.2-.2,0-.5,0-.7,0-.4,0-.8,0-1.2-.2-.4-.1-.7-.4-1-.6s-.5-.6-.7-1.1c-.2-.4-.2-.9-.2-1.5s0-.8.2-1.2c.1-.4.3-.7.6-1,.3-.3.6-.5,1-.7.4-.2.8-.2,1.3-.2s.8,0,1.1.2c.3.1.6.3.9.6.2.2.4.5.6.9s.2.8.2,1.2,0,.2,0,.3,0,.1,0,.2,0,0-.1.1c0,0-.1,0-.2,0h-3.8ZM484,518.3c0-.2,0-.3,0-.5s-.1-.3-.2-.4c-.1-.1-.2-.2-.4-.3-.2,0-.3-.1-.6-.1-.4,0-.7.1-.9.3s-.4.6-.4,1h2.6Z"/>
            <path class="st10" d="M486.5,523.6s0,0,0-.1c0,0,0,0,0-.1s0,0,0-.1c0,0,0,0,0-.1,0,0,0-.1.2-.2,0,0,.1-.2.2-.2,0,0,.1-.2.2-.3,0-.1,0-.2.1-.3-.1,0-.3,0-.4,0s-.2-.1-.3-.2c0,0-.1-.2-.2-.3,0-.1,0-.2,0-.4s0-.2,0-.3c0-.1.1-.2.2-.3,0,0,.2-.1.3-.2.1,0,.2,0,.4,0s.3,0,.4,0,.2.1.3.2c0,0,.1.2.2.3,0,.1,0,.3,0,.4s0,.4,0,.6-.2.4-.3.7-.3.4-.4.7c-.2.2-.4.4-.6.6l-.3-.3Z"/>
            <path class="st10" d="M494.1,514.1c0,.1,0,.3,0,.4,0,.1-.1.2-.2.3,0,0-.2.2-.3.2-.1,0-.3,0-.4,0s-.3,0-.4,0c-.1,0-.2-.1-.3-.2s-.2-.2-.2-.3c0-.1,0-.3,0-.4s0-.3,0-.4c0-.1.1-.2.2-.3,0,0,.2-.2.3-.2.1,0,.3,0,.4,0s.3,0,.4,0c.1,0,.2.1.3.2,0,0,.2.2.2.3,0,.1,0,.3,0,.4ZM493.9,515.9v6.3h-1.7v-6.3h1.7Z"/>
            <path class="st10" d="M495.3,522.1v-6.3h1c.2,0,.4,0,.4.3v.4c.2-.1.3-.2.4-.3.1,0,.2-.2.4-.3s.3-.1.4-.2c.2,0,.3,0,.5,0,.4,0,.7.1,1,.3.3.2.4.5.6.8.1-.2.2-.4.4-.5s.3-.3.5-.4c.2,0,.4-.2.6-.2.2,0,.4,0,.6,0,.4,0,.7,0,.9.2.3.1.5.3.7.5s.3.5.4.8.1.6.1,1v4h-1.7v-4c0-.7-.3-1.1-.9-1.1s-.3,0-.4,0-.2.1-.3.2c0,0-.2.2-.2.3s0,.3,0,.5v4h-1.7v-4c0-.4,0-.7-.2-.9s-.4-.3-.7-.3-.4,0-.6.1c-.2,0-.3.2-.5.4v4.6h-1.7Z"/>
            <path class="st10" d="M507.1,516.7c.1-.1.3-.3.4-.4.1-.1.3-.2.5-.3.2,0,.3-.1.5-.2.2,0,.4,0,.6,0,.3,0,.6,0,.9.2.3.1.5.4.7.6.2.3.4.6.5,1,.1.4.2.9.2,1.4s0,.9-.2,1.3c-.1.4-.3.7-.5,1s-.5.5-.9.7c-.3.2-.7.2-1.1.2s-.6,0-.9-.2c-.2-.1-.5-.2-.6-.4v2.5h-1.7v-8.3h1c.2,0,.4,0,.4.3v.5ZM507.2,520.5c.2.2.3.3.5.4s.4.1.6.1.4,0,.6-.1c.2,0,.3-.2.4-.4.1-.2.2-.4.3-.6s0-.6,0-.9,0-.6,0-.9c0-.2-.1-.4-.2-.6,0-.1-.2-.3-.4-.3-.1,0-.3-.1-.5-.1-.3,0-.5,0-.7.2-.2.1-.4.3-.6.5v2.8Z"/>
            <path class="st10" d="M512.3,516.7c.4-.3.8-.6,1.2-.7.4-.2.9-.2,1.5-.2s.7,0,1,.2.5.3.7.5c.2.2.4.5.5.8.1.3.2.6.2,1v4h-.8c-.2,0-.3,0-.4,0,0,0-.2-.1-.2-.3v-.4c-.3.1-.4.3-.6.4-.1.1-.3.2-.5.3s-.3.1-.5.2-.4,0-.6,0-.5,0-.8-.1c-.2,0-.4-.2-.6-.3-.2-.1-.3-.3-.4-.5,0-.2-.1-.5-.1-.7s0-.5.2-.7c.1-.2.3-.4.6-.6.3-.2.7-.3,1.1-.5s1.1-.2,1.8-.2v-.3c0-.4,0-.7-.3-.9-.2-.2-.4-.3-.7-.3s-.4,0-.6,0c-.2,0-.3.1-.4.2-.1,0-.2.1-.3.2-.1,0-.2,0-.4,0s-.2,0-.3,0c0,0-.1-.1-.2-.2l-.3-.5ZM515.7,519.5c-.4,0-.8,0-1,.1-.3,0-.5.1-.6.2-.2,0-.3.2-.3.3,0,.1-.1.2-.1.3,0,.2,0,.4.2.5s.3.2.6.2.5,0,.7-.1c.2,0,.4-.3.6-.5v-1Z"/>
            <path class="st10" d="M523.2,517.3c0,0,0,.1-.1.1s-.1,0-.2,0-.2,0-.2,0-.2,0-.3-.2c0,0-.2-.1-.3-.2-.1,0-.3,0-.5,0s-.5,0-.7.1c-.2,0-.3.2-.5.4-.1.2-.2.4-.3.6s0,.5,0,.8c0,.6.1,1.1.4,1.5.3.3.6.5,1.1.5s.3,0,.4,0c.1,0,.2,0,.3-.1,0,0,.2,0,.2-.1,0,0,.1,0,.2-.1,0,0,.1,0,.2-.1,0,0,.1,0,.2,0,.1,0,.2,0,.3.1l.5.6c-.2.2-.4.4-.6.5-.2.1-.4.2-.6.3-.2,0-.4.1-.7.2-.2,0-.4,0-.7,0-.4,0-.8,0-1.1-.2-.3-.1-.6-.4-.9-.6-.3-.3-.5-.6-.6-1s-.2-.9-.2-1.4,0-.9.2-1.3.3-.7.6-1c.3-.3.6-.5,1-.7.4-.2.8-.2,1.3-.2s.9,0,1.3.2c.4.2.7.4,1,.7l-.4.6Z"/>
            <path class="st10" d="M526.6,522.2c-.3,0-.5,0-.8-.1s-.4-.2-.6-.4c-.2-.2-.3-.3-.3-.6s-.1-.5-.1-.7v-3.4h-.6c0,0-.2,0-.2,0,0,0,0-.1,0-.3v-.7l1-.2.3-1.6c0-.2.2-.3.4-.3h.9v1.9h1.6v1.2h-1.6v3.3c0,.2,0,.3.1.4s.2.2.4.2.1,0,.2,0c0,0,.1,0,.1,0,0,0,0,0,.1,0,0,0,0,0,.1,0s0,0,.1,0c0,0,0,0,0,.1l.5.8c-.2.2-.5.3-.8.4-.3,0-.6.1-.9.1Z"/>
            <path class="st10" d="M531.8,515.8c.5,0,.9,0,1.3.2.4.2.7.4,1,.6.3.3.5.6.6,1,.2.4.2.8.2,1.3s0,1-.2,1.4c-.2.4-.4.7-.6,1-.3.3-.6.5-1,.6-.4.2-.8.2-1.3.2s-.9,0-1.3-.2-.7-.4-1-.6c-.3-.3-.5-.6-.6-1-.2-.4-.2-.9-.2-1.4s0-.9.2-1.3c.2-.4.4-.7.6-1,.3-.3.6-.5,1-.6s.8-.2,1.3-.2ZM531.8,521c.5,0,.8-.2,1.1-.5.2-.3.3-.8.3-1.5s-.1-1.1-.3-1.5c-.2-.3-.6-.5-1.1-.5s-.9.2-1.1.5-.3.8-.3,1.5.1,1.1.3,1.5.6.5,1.1.5Z"/>
            <path class="st10" d="M435.1,531.3c0,.6.2,1,.5,1.3s.7.4,1.1.4.4,0,.6,0c.2,0,.3-.1.4-.2.1,0,.2-.1.3-.2.1,0,.2,0,.3,0s.2,0,.3.1l.5.6c-.2.2-.4.4-.6.5-.2.1-.4.2-.7.3-.2,0-.5.1-.7.2-.2,0-.5,0-.7,0-.4,0-.8,0-1.2-.2-.4-.1-.7-.4-1-.6s-.5-.6-.7-1.1c-.2-.4-.2-.9-.2-1.5s0-.8.2-1.2c.1-.4.3-.7.6-1,.3-.3.6-.5,1-.7.4-.2.8-.2,1.3-.2s.8,0,1.1.2c.3.1.6.3.9.6.2.2.4.5.6.9s.2.8.2,1.2,0,.2,0,.3,0,.1,0,.2,0,0-.1.1c0,0-.1,0-.2,0h-3.8ZM437.8,530.3c0-.2,0-.3,0-.5s-.1-.3-.2-.4c-.1-.1-.2-.2-.4-.3-.2,0-.3-.1-.6-.1-.4,0-.7.1-.9.3s-.4.6-.4,1h2.6Z"/>
            <path class="st10" d="M443,528.8c.4-.3.8-.6,1.2-.7.4-.2.9-.2,1.5-.2s.7,0,1,.2.5.3.7.5c.2.2.4.5.5.8.1.3.2.6.2,1v4h-.8c-.2,0-.3,0-.4,0,0,0-.2-.1-.2-.3v-.4c-.3.1-.4.3-.6.4-.1.1-.3.2-.5.3s-.3.1-.5.2-.4,0-.6,0-.5,0-.8-.1c-.2,0-.4-.2-.6-.3-.2-.1-.3-.3-.4-.5,0-.2-.1-.5-.1-.7s0-.5.2-.7c.1-.2.3-.4.6-.6.3-.2.7-.3,1.1-.5s1.1-.2,1.8-.2v-.3c0-.4,0-.7-.3-.9-.2-.2-.4-.3-.7-.3s-.4,0-.6,0c-.2,0-.3.1-.4.2-.1,0-.2.1-.3.2-.1,0-.2,0-.4,0s-.2,0-.3,0c0,0-.1-.1-.2-.2l-.3-.5ZM446.4,531.6c-.4,0-.8,0-1,.1-.3,0-.5.1-.6.2-.2,0-.3.2-.3.3,0,.1-.1.2-.1.3,0,.2,0,.4.2.5s.3.2.6.2.5,0,.7-.1c.2,0,.4-.3.6-.5v-1Z"/>
            <path class="st10" d="M451,528.6c.2-.2.5-.4.8-.6.3-.2.6-.2,1-.2s.7,0,1,.2c.3.1.5.4.7.6.2.3.4.6.5,1s.2.8.2,1.3,0,1-.2,1.4c-.1.4-.3.8-.5,1.1s-.5.5-.8.7c-.3.2-.7.2-1.1.2s-.4,0-.5,0-.3,0-.4-.2c-.1,0-.3-.2-.4-.2s-.2-.2-.3-.3v.4c0,.1-.1.2-.2.2,0,0-.2,0-.3,0h-1.1v-9.1h1.7v3.5ZM451,532.5c.2.2.3.3.5.4s.4.1.6.1.4,0,.6-.1.3-.2.4-.4c.1-.2.2-.4.3-.6,0-.3,0-.6,0-1s0-.6,0-.9c0-.2-.1-.4-.2-.6-.1-.2-.2-.3-.4-.3s-.3-.1-.5-.1-.5,0-.7.2c-.2.1-.4.3-.6.5v2.8Z"/>
            <path class="st10" d="M459,527.8c.5,0,.9,0,1.3.2.4.2.7.4,1,.6.3.3.5.6.6,1,.2.4.2.8.2,1.3s0,1-.2,1.4c-.2.4-.4.7-.6,1-.3.3-.6.5-1,.6-.4.2-.8.2-1.3.2s-.9,0-1.3-.2-.7-.4-1-.6c-.3-.3-.5-.6-.6-1-.2-.4-.2-.9-.2-1.4s0-.9.2-1.3c.2-.4.4-.7.6-1,.3-.3.6-.5,1-.6s.8-.2,1.3-.2ZM459,533c.5,0,.8-.2,1.1-.5.2-.3.3-.8.3-1.5s-.1-1.1-.3-1.5c-.2-.3-.6-.5-1.1-.5s-.9.2-1.1.5-.3.8-.3,1.5.1,1.1.3,1.5.6.5,1.1.5Z"/>
            <path class="st10" d="M464.8,528.9c.2-.4.4-.6.7-.8s.6-.3.9-.3.5,0,.7.2v1.2c-.1,0-.2.1-.2.2,0,0-.1,0-.2,0s-.2,0-.3,0c-.1,0-.2,0-.3,0-.2,0-.3,0-.4,0s-.2.1-.3.2c0,0-.2.2-.3.3,0,.1-.1.3-.2.4v3.8h-1.7v-6.3h1c.2,0,.3,0,.4,0s.1.2.1.3v.6Z"/>
            <path class="st10" d="M473.1,525.1v9.1h-1c-.2,0-.4,0-.4-.3v-.5c-.3.1-.4.3-.5.4-.1.1-.3.2-.5.3-.2,0-.3.1-.5.2s-.4,0-.6,0c-.3,0-.6,0-.9-.2-.3-.1-.5-.4-.7-.6-.2-.3-.4-.6-.5-1-.1-.4-.2-.9-.2-1.4s0-.9.2-1.3c.1-.4.3-.8.5-1s.5-.5.9-.7.7-.3,1.1-.3.6,0,.9.2c.2.1.4.2.6.4v-3.3h1.7ZM471.5,529.5c-.2-.2-.3-.3-.5-.4-.2,0-.4-.1-.6-.1s-.4,0-.6.1c-.2,0-.3.2-.4.4-.1.2-.2.4-.3.6,0,.3,0,.6,0,.9s0,.6,0,.9c0,.2.1.4.2.6,0,.2.2.3.4.3.1,0,.3.1.5.1.3,0,.5,0,.7-.2.2-.1.4-.3.6-.5v-2.8Z"/>
            <path class="st10" d="M474.3,528.8c.4-.3.8-.6,1.2-.7.4-.2.9-.2,1.5-.2s.7,0,1,.2.5.3.7.5c.2.2.4.5.5.8.1.3.2.6.2,1v4h-.8c-.2,0-.3,0-.4,0,0,0-.2-.1-.2-.3v-.4c-.3.1-.4.3-.6.4-.1.1-.3.2-.5.3s-.3.1-.5.2-.4,0-.6,0-.5,0-.8-.1c-.2,0-.4-.2-.6-.3-.2-.1-.3-.3-.4-.5,0-.2-.1-.5-.1-.7s0-.5.2-.7c.1-.2.3-.4.6-.6.3-.2.7-.3,1.1-.5s1.1-.2,1.8-.2v-.3c0-.4,0-.7-.3-.9-.2-.2-.4-.3-.7-.3s-.4,0-.6,0c-.2,0-.3.1-.4.2-.1,0-.2.1-.3.2-.1,0-.2,0-.4,0s-.2,0-.3,0c0,0-.1-.1-.2-.2l-.3-.5ZM477.8,531.6c-.4,0-.8,0-1,.1-.3,0-.5.1-.6.2-.2,0-.3.2-.3.3,0,.1-.1.2-.1.3,0,.2,0,.4.2.5s.3.2.6.2.5,0,.7-.1c.2,0,.4-.3.6-.5v-1Z"/>
            <path class="st10" d="M486.3,528.1v.6c0,0,0,.2,0,.2,0,0-.1,0-.3.1h-.5c0,.3.1.5.1.7s0,.6-.2.8c-.1.2-.3.5-.5.6-.2.2-.5.3-.8.4s-.6.1-1,.1-.4,0-.6,0c-.2.1-.3.2-.3.3s0,.2.2.3c.1,0,.3,0,.5.1.2,0,.4,0,.6,0,.2,0,.5,0,.7,0,.3,0,.5,0,.7.1s.5.1.6.2c.2.1.3.3.5.5.1.2.2.4.2.7s0,.6-.2.8c-.1.3-.3.5-.6.7-.3.2-.6.4-1,.5-.4.1-.8.2-1.3.2s-.9,0-1.3-.1c-.4,0-.7-.2-.9-.4-.2-.2-.4-.3-.5-.5-.1-.2-.2-.4-.2-.6s0-.5.3-.7c.2-.2.4-.4.7-.5-.2,0-.3-.2-.4-.4s-.1-.3-.1-.6,0-.4.2-.6.3-.4.6-.5c-.3-.2-.6-.4-.8-.7-.2-.3-.3-.6-.3-1s0-.6.2-.8c.1-.3.3-.5.5-.6.2-.2.5-.3.8-.4s.6-.1,1-.1c.5,0,1,.1,1.4.3h1.8ZM484.6,534.4c0-.1,0-.2-.1-.3,0,0-.2-.1-.3-.2-.1,0-.3,0-.4,0-.2,0-.3,0-.5,0s-.4,0-.6,0c-.2,0-.4,0-.6,0-.1,0-.3.2-.4.3,0,.1-.1.2-.1.4s0,.2,0,.3.1.2.2.2.3.1.4.1c.2,0,.4,0,.7,0s.5,0,.7,0c.2,0,.3,0,.5-.2.1,0,.2-.1.3-.2,0,0,0-.2,0-.3ZM483,530.8c.3,0,.6,0,.8-.3.2-.2.2-.4.2-.7s0-.5-.2-.7c-.2-.2-.4-.2-.8-.2s-.6,0-.8.2c-.2.2-.2.4-.2.7s0,.5.2.7c.2.2.4.3.8.3Z"/>
            <path class="st10" d="M488.3,531.3c0,.6.2,1,.5,1.3s.7.4,1.1.4.4,0,.6,0c.2,0,.3-.1.4-.2.1,0,.2-.1.3-.2.1,0,.2,0,.3,0s.2,0,.3.1l.5.6c-.2.2-.4.4-.6.5-.2.1-.4.2-.7.3-.2,0-.5.1-.7.2-.2,0-.5,0-.7,0-.4,0-.8,0-1.2-.2-.4-.1-.7-.4-1-.6s-.5-.6-.7-1.1c-.2-.4-.2-.9-.2-1.5s0-.8.2-1.2c.1-.4.3-.7.6-1,.3-.3.6-.5,1-.7.4-.2.8-.2,1.3-.2s.8,0,1.1.2c.3.1.6.3.9.6.2.2.4.5.6.9s.2.8.2,1.2,0,.2,0,.3,0,.1,0,.2,0,0-.1.1c0,0-.1,0-.2,0h-3.8ZM491,530.3c0-.2,0-.3,0-.5s-.1-.3-.2-.4c-.1-.1-.2-.2-.4-.3-.2,0-.3-.1-.6-.1-.4,0-.7.1-.9.3s-.4.6-.4,1h2.6Z"/>
            <path class="st10" d="M493.5,534.2v-6.3h1c.2,0,.4,0,.4.3v.4c.2-.1.3-.2.4-.3.1,0,.2-.2.4-.3s.3-.1.4-.2c.2,0,.3,0,.5,0,.4,0,.7.1,1,.3.3.2.4.5.6.8.1-.2.2-.4.4-.5s.3-.3.5-.4c.2,0,.4-.2.6-.2.2,0,.4,0,.6,0,.4,0,.7,0,.9.2.3.1.5.3.7.5s.3.5.4.8.1.6.1,1v4h-1.7v-4c0-.7-.3-1.1-.9-1.1s-.3,0-.4,0-.2.1-.3.2c0,0-.2.2-.2.3s0,.3,0,.5v4h-1.7v-4c0-.4,0-.7-.2-.9s-.4-.3-.7-.3-.4,0-.6.1c-.2,0-.3.2-.5.4v4.6h-1.7Z"/>
            <path class="st3" d="M440,547.6c0,.5,0,1-.2,1.4-.2.4-.4.8-.7,1.1s-.7.5-1.1.7-.9.3-1.4.3h-2.6v-6.9h2.6c.5,0,1,0,1.4.3.4.2.8.4,1.1.7s.5.7.7,1.1c.2.4.2.9.2,1.4ZM438.9,547.6c0-.4,0-.8-.2-1.1-.1-.3-.3-.6-.5-.8-.2-.2-.5-.4-.8-.5-.3-.1-.6-.2-1-.2h-1.6v5.3h1.6c.4,0,.7,0,1-.2.3-.1.5-.3.8-.5.2-.2.4-.5.5-.8.1-.3.2-.7.2-1.1Z"/>
            <path class="st3" d="M446.5,551h-.9c-.2,0-.3,0-.4-.2l-1.7-2.4c0,0-.1-.1-.2-.2,0,0-.2,0-.3,0h-.7v2.8h-1v-6.9h2c.4,0,.8,0,1.2.1.3,0,.6.2.8.4s.4.4.5.6c.1.2.2.5.2.8s0,.5-.1.7-.2.4-.3.6c-.1.2-.3.3-.5.4-.2.1-.4.2-.7.3.1,0,.2.2.3.3l1.9,2.7ZM443.3,547.5c.3,0,.5,0,.7,0,.2,0,.4-.2.5-.3.1-.1.2-.3.3-.4s.1-.3.1-.5c0-.4-.1-.7-.4-.9s-.7-.3-1.2-.3h-1v2.5h.9Z"/>
            <path class="st3" d="M453.2,551h-.8c0,0-.2,0-.2,0,0,0,0-.1-.1-.2l-.6-1.6h-3l-.6,1.6c0,0,0,.1-.1.2s-.1,0-.2,0h-.8l2.8-6.9h1l2.8,6.9ZM451.2,548.5l-1-2.7c0-.2-.1-.4-.2-.7,0,.1,0,.3-.1.4,0,.1,0,.2-.1.3l-1,2.7h2.5Z"/>
            <path class="st3" d="M453.8,550.5c0,0,0-.2,0-.2,0,0,0-.1.1-.2,0,0,.1-.1.2-.1s.2,0,.3,0,.2,0,.2,0c0,0,.1,0,.2.1s.1.1.1.2c0,0,0,.2,0,.2s0,.2,0,.3c0,0,0,.1-.1.2s-.1.1-.2.1c0,0-.2,0-.2,0s-.2,0-.3,0c0,0-.1,0-.2-.1,0,0,0-.1-.1-.2,0,0,0-.2,0-.3Z"/>
            <path class="st3" d="M464.5,551h-.8c0,0-.2,0-.2,0,0,0,0-.1-.1-.2l-.6-1.6h-3l-.6,1.6c0,0,0,.1-.1.2s-.1,0-.2,0h-.8l2.8-6.9h1l2.8,6.9ZM462.8,543.6h-.7s0,0-.1,0c0,0-.1,0-.2-.1l-.5-.6h0c0,0,0,0,0,0l-.5.6c0,0-.1.1-.2.1,0,0-.1,0-.1,0h-.7l1.2-1.3h.8l1.2,1.3ZM462.4,548.5l-1-2.7c0-.2-.1-.4-.2-.7,0,.1,0,.3-.1.4,0,.1,0,.2-.1.3l-1,2.7h2.5Z"/>
            <path class="st3" d="M471.1,544.1v6.9h-.5c0,0-.1,0-.2,0,0,0-.1,0-.2-.1l-3.9-5.1c0,0,0,.2,0,.3,0,0,0,.2,0,.2v4.7h-.9v-6.9h.5c0,0,.2,0,.2,0,0,0,0,0,.1.1l3.9,5.1c0,0,0-.2,0-.3,0,0,0-.2,0-.2v-4.7h.9Z"/>
            <path class="st3" d="M478.5,547.7v2.7c-.4.3-.7.4-1.1.6-.4.1-.8.2-1.3.2s-1.1,0-1.5-.3c-.5-.2-.8-.4-1.2-.7s-.6-.7-.7-1.1c-.2-.4-.3-.9-.3-1.4s0-1,.2-1.4c.2-.4.4-.8.7-1.1.3-.3.7-.6,1.1-.7.4-.2.9-.3,1.5-.3s.5,0,.8,0c.2,0,.5.1.7.2.2,0,.4.2.6.3.2.1.3.2.5.4l-.3.5c0,0-.1.1-.2.1s-.2,0-.2,0c0,0-.2-.1-.3-.2-.1,0-.2-.1-.4-.2-.1,0-.3-.1-.5-.1-.2,0-.4,0-.7,0-.4,0-.7,0-1,.2-.3.1-.6.3-.8.5s-.4.5-.5.8c-.1.3-.2.7-.2,1.1s0,.8.2,1.1c.1.3.3.6.5.9.2.2.5.4.8.5s.7.2,1.1.2.3,0,.4,0,.3,0,.4,0,.2,0,.4-.1.2-.1.3-.2v-1.5h-1c0,0-.1,0-.2,0,0,0,0,0,0-.1v-.6h2.2Z"/>
            <path class="st3" d="M484.3,550.2v.8h-4.3v-6.9h4.3v.8h-3.3v2.2h2.6v.8h-2.6v2.3h3.3Z"/>
            <path class="st3" d="M489.6,550.2v.9h-4v-6.9h1v6.1h2.9Z"/>
            <path class="st3" d="M496.4,551h-.8c0,0-.2,0-.2,0,0,0,0-.1-.1-.2l-.6-1.6h-3l-.6,1.6c0,0,0,.1-.1.2s-.1,0-.2,0h-.8l2.8-6.9h1l2.8,6.9ZM494.4,548.5l-1-2.7c0-.2-.1-.4-.2-.7,0,.1,0,.3-.1.4,0,.1,0,.2-.1.3l-1,2.7h2.5Z"/>
            <path class="st3" d="M504.8,551h-.9c-.2,0-.3,0-.4-.2l-1.7-2.4c0,0-.1-.1-.2-.2,0,0-.2,0-.3,0h-.7v2.8h-1v-6.9h2c.4,0,.8,0,1.2.1.3,0,.6.2.8.4s.4.4.5.6c.1.2.2.5.2.8s0,.5-.1.7-.2.4-.3.6c-.1.2-.3.3-.5.4-.2.1-.4.2-.7.3.1,0,.2.2.3.3l1.9,2.7ZM501.6,547.5c.3,0,.5,0,.7,0,.2,0,.4-.2.5-.3.1-.1.2-.3.3-.4s.1-.3.1-.5c0-.4-.1-.7-.4-.9s-.7-.3-1.2-.3h-1v2.5h.9Z"/>
            <path class="st3" d="M512.1,547.6c0,.5,0,1-.2,1.4-.2.4-.4.8-.7,1.1-.3.3-.7.6-1.1.7-.4.2-.9.3-1.4.3s-1,0-1.4-.3c-.4-.2-.8-.4-1.1-.7-.3-.3-.5-.7-.7-1.1-.2-.4-.3-.9-.3-1.4s0-1,.3-1.4c.2-.4.4-.8.7-1.1s.7-.6,1.1-.7c.4-.2.9-.3,1.4-.3s1,0,1.4.3c.4.2.8.4,1.1.7.3.3.5.7.7,1.1.2.4.2.9.2,1.4ZM511.1,547.6c0-.4,0-.8-.2-1.1-.1-.3-.3-.6-.5-.8-.2-.2-.5-.4-.8-.5-.3-.1-.6-.2-1-.2s-.7,0-1,.2c-.3.1-.5.3-.8.5-.2.2-.4.5-.5.8-.1.3-.2.7-.2,1.1s0,.8.2,1.1c.1.3.3.6.5.8.2.2.5.4.8.5.3.1.6.2,1,.2s.7,0,1-.2c.3-.1.5-.3.8-.5.2-.2.4-.5.5-.8.1-.3.2-.7.2-1.1Z"/>
            <path class="st3" d="M519.5,547.6c0,.5,0,1-.2,1.4-.2.4-.4.8-.7,1.1s-.7.5-1.1.7-.9.3-1.4.3h-2.6v-6.9h2.6c.5,0,1,0,1.4.3.4.2.8.4,1.1.7s.5.7.7,1.1c.2.4.2.9.2,1.4ZM518.5,547.6c0-.4,0-.8-.2-1.1-.1-.3-.3-.6-.5-.8-.2-.2-.5-.4-.8-.5-.3-.1-.6-.2-1-.2h-1.6v5.3h1.6c.4,0,.7,0,1-.2.3-.1.5-.3.8-.5.2-.2.4-.5.5-.8.1-.3.2-.7.2-1.1Z"/>
            <path class="st3" d="M526.1,551h-.9c-.2,0-.3,0-.4-.2l-1.7-2.4c0,0-.1-.1-.2-.2,0,0-.2,0-.3,0h-.7v2.8h-1v-6.9h2c.4,0,.8,0,1.2.1.3,0,.6.2.8.4s.4.4.5.6c.1.2.2.5.2.8s0,.5-.1.7-.2.4-.3.6c-.1.2-.3.3-.5.4-.2.1-.4.2-.7.3.1,0,.2.2.3.3l1.9,2.7ZM522.9,547.5c.3,0,.5,0,.7,0,.2,0,.4-.2.5-.3.1-.1.2-.3.3-.4s.1-.3.1-.5c0-.4-.1-.7-.4-.9s-.7-.3-1.2-.3h-1v2.5h.9Z"/>
            <path class="st3" d="M528.1,551h-1v-6.9h1v6.9Z"/>
            <path class="st3" d="M535.6,547.7v2.7c-.4.3-.7.4-1.1.6-.4.1-.8.2-1.3.2s-1.1,0-1.5-.3c-.5-.2-.8-.4-1.2-.7s-.6-.7-.7-1.1c-.2-.4-.3-.9-.3-1.4s0-1,.2-1.4c.2-.4.4-.8.7-1.1.3-.3.7-.6,1.1-.7.4-.2.9-.3,1.5-.3s.5,0,.8,0c.2,0,.5.1.7.2.2,0,.4.2.6.3.2.1.3.2.5.4l-.3.5c0,0-.1.1-.2.1s-.2,0-.2,0c0,0-.2-.1-.3-.2-.1,0-.2-.1-.4-.2-.1,0-.3-.1-.5-.1-.2,0-.4,0-.7,0-.4,0-.7,0-1,.2-.3.1-.6.3-.8.5s-.4.5-.5.8c-.1.3-.2.7-.2,1.1s0,.8.2,1.1c.1.3.3.6.5.9.2.2.5.4.8.5s.7.2,1.1.2.3,0,.4,0,.3,0,.4,0,.2,0,.4-.1.2-.1.3-.2v-1.5h-1c0,0-.1,0-.2,0,0,0,0,0,0-.1v-.6h2.2Z"/>
            <path class="st3" d="M539.8,550.2c.3,0,.5,0,.7-.1.2,0,.4-.2.6-.4.2-.2.3-.4.3-.6,0-.2.1-.5.1-.8v-4.2h1v4.2c0,.4,0,.8-.2,1.1s-.3.6-.6.9-.5.4-.9.6c-.3.1-.7.2-1.2.2s-.8,0-1.2-.2-.6-.3-.9-.6c-.2-.3-.4-.5-.6-.9s-.2-.7-.2-1.1v-4.2h1v4.2c0,.3,0,.5.1.8,0,.2.2.4.3.6.2.2.3.3.6.4.2,0,.5.1.7.1Z"/>
            <path class="st3" d="M548.5,550.2v.8h-4.3v-6.9h4.3v.8h-3.3v2.2h2.6v.8h-2.6v2.3h3.3Z"/>
            <path class="st3" d="M553.5,545.3c0,0,0,0-.1.1s0,0-.1,0-.1,0-.2,0-.2-.1-.3-.2c-.1,0-.2-.1-.4-.2-.2,0-.3,0-.6,0s-.4,0-.5,0c-.2,0-.3.1-.4.2-.1,0-.2.2-.2.3,0,.1,0,.3,0,.4s0,.3.1.5.2.2.4.3.3.2.5.2c.2,0,.4.1.6.2.2,0,.4.1.6.2.2,0,.4.2.5.3.2.1.3.3.4.5,0,.2.1.4.1.7s0,.6-.2.9c-.1.3-.3.5-.5.7s-.4.4-.7.5c-.3.1-.6.2-1,.2s-.4,0-.6,0c-.2,0-.4-.1-.6-.2-.2,0-.4-.2-.5-.3-.2-.1-.3-.2-.4-.4l.3-.5s0,0,.1,0c0,0,0,0,.1,0s.1,0,.2.1c0,0,.2.1.3.2.1,0,.3.2.5.2.2,0,.4.1.7.1s.4,0,.6,0c.2,0,.3-.1.4-.2.1-.1.2-.2.3-.4,0-.1,0-.3,0-.5s0-.4-.1-.5c0-.1-.2-.2-.4-.3-.2,0-.3-.2-.5-.2s-.4-.1-.6-.2-.4-.1-.6-.2-.4-.2-.5-.3c-.2-.1-.3-.3-.4-.5,0-.2-.1-.5-.1-.8s0-.5.1-.7.2-.4.4-.6c.2-.2.4-.3.7-.4s.6-.2.9-.2.7,0,1.1.2c.3.1.6.3.8.5l-.3.5Z"/>
          </g>
        </g>
      </g>
    </g>
  </g>
</svg>